<svg width="48" height="48" viewBox="0 0 48 48" fill="none" xmlns="http://www.w3.org/2000/svg">
<circle cx="24" cy="24" r="23.605" stroke="#3F1E4B" stroke-opacity="0.2" stroke-width="0.79"/>
<g clip-path="url(#clip0_371_89)">
<path d="M33 18.4189C32.3306 18.7125 31.6174 18.9071 30.8737 19.0016C31.6388 18.5449 32.2226 17.8271 32.4971 16.962C31.7839 17.3873 30.9964 17.6876 30.1571 17.8553C29.4799 17.1341 28.5146 16.6875 27.4616 16.6875C25.4186 16.6875 23.7739 18.3458 23.7739 20.3786C23.7739 20.6711 23.7986 20.9524 23.8594 21.2201C20.7915 21.0705 18.0769 19.6001 16.2533 17.3603C15.9349 17.9126 15.7481 18.5449 15.7481 19.2255C15.7481 20.5035 16.4062 21.6364 17.3872 22.2923C16.7944 22.281 16.2127 22.1089 15.72 21.8378C15.72 21.849 15.72 21.8636 15.72 21.8783C15.72 23.6715 16.9991 25.161 18.6765 25.5041C18.3761 25.5863 18.0487 25.6256 17.709 25.6256C17.4727 25.6256 17.2342 25.6121 17.0104 25.5626C17.4885 27.024 18.8453 28.0984 20.4585 28.1333C19.203 29.1154 17.6089 29.7071 15.8831 29.7071C15.5805 29.7071 15.2902 29.6936 15 29.6565C16.6346 30.7106 18.5719 31.3125 20.661 31.3125C27.4515 31.3125 31.164 25.6875 31.164 20.8118C31.164 20.6486 31.1584 20.4911 31.1505 20.3348C31.8829 19.815 32.4982 19.1659 33 18.4189Z" fill="#3F1E4B"/>
</g>
<defs>
<clipPath id="clip0_371_89">
<rect width="18" height="18" fill="white" transform="translate(15 15)"/>
</clipPath>
</defs>
</svg>
