<svg width="108" height="25" viewBox="0 0 108 25" fill="none" xmlns="http://www.w3.org/2000/svg">
<g clip-path="url(#clip0_1009_2231)">
<path d="M16.5712 24.8669L2.17455 21.1636C0.88968 20.8328 0 19.744 0 18.5026V17.3274L18.9719 12.5391L21.3017 20.4682C22.0894 23.1476 19.4454 25.6064 16.5712 24.8669Z" fill="url(#paint0_linear_1009_2231)"/>
<path d="M18.8385 15.6984L1.81355 19.9954C0.899543 20.2257 0 19.5842 0 18.7019V7.32809C0 5.47279 1.33419 3.84787 3.25558 3.36321L15.8301 0.189345C19.4875 -0.733404 23.087 1.83265 23.087 5.36311V10.524C23.087 12.9448 21.3457 15.0655 18.8385 15.6984Z" fill="white"/>
</g>
<g clip-path="url(#clip1_1009_2231)">
<path d="M46.5771 10.2408C46.5771 11.4208 46.2855 12.4729 45.703 13.397C45.1205 14.3211 44.3216 15.0155 43.3062 15.4818L44.7198 17.8619C45.4642 19.1151 44.4926 20.6528 42.9575 20.6528C42.2321 20.6528 41.5621 20.289 41.2043 19.7001L39.0372 16.1339H36.9147V18.7729C36.9147 19.8111 36.0125 20.6528 34.8996 20.6528H34.8847C33.7718 20.652 32.8696 19.8104 32.8696 18.7722V6.2329C32.8696 5.19162 33.7743 4.34766 34.8905 4.34766H40.3104C42.1247 4.34766 43.6226 4.90259 44.8049 6.01324C45.9864 7.12311 46.5771 8.5328 46.5771 10.2408ZM36.9147 7.42216V13.0586H39.6858C40.5012 13.0586 41.1713 12.795 41.6959 12.2663C42.2206 11.7383 42.4825 11.0632 42.4825 10.24C42.4825 9.41685 42.2206 8.74168 41.6959 8.21372C41.1713 7.68575 40.5012 7.42139 39.6858 7.42139H36.9147V7.42216Z" fill="#FFFFFE"/>
<path d="M51.312 7.27495C50.9592 7.60406 50.5147 7.769 49.9785 7.769C49.4423 7.769 49.0011 7.60406 48.6549 7.27495C48.3088 6.94584 48.1353 6.54351 48.1353 6.06796C48.1353 5.58008 48.3088 5.17158 48.6549 4.84247C49.0011 4.5126 49.4423 4.34766 49.9785 4.34766C50.5147 4.34766 50.9592 4.51568 51.312 4.85095C51.6648 5.18623 51.8416 5.59164 51.8416 6.06719C51.8416 6.54274 51.6648 6.94507 51.312 7.27495Z" fill="#FFFFFE"/>
<path d="M48.1394 18.9032V10.7857C48.1394 9.81921 48.9788 9.03613 50.0149 9.03613C51.0509 9.03613 51.8904 9.81921 51.8904 10.7857V18.904C51.8904 19.8705 51.0509 20.6536 50.0149 20.6536C48.9788 20.6528 48.1394 19.8697 48.1394 18.9032Z" fill="#FFFFFE"/>
<path d="M64.5529 4.34766H64.5776C65.6063 4.34766 66.4407 5.12611 66.4407 6.08569V18.914C66.4407 19.8736 65.6063 20.652 64.5776 20.652C63.549 20.652 62.7146 19.8736 62.7146 18.914V18.7999C62.3874 19.3487 61.8851 19.7949 61.2068 20.1379C60.5284 20.4809 59.7807 20.652 58.9636 20.652C57.2476 20.652 55.891 20.1109 54.8946 19.028C53.8974 17.9459 53.3992 16.5509 53.3992 14.8437C53.3992 13.1665 53.9139 11.7792 54.9433 10.6816C55.9728 9.5841 57.3294 9.03533 59.0124 9.03533C59.846 9.03533 60.5896 9.20335 61.2431 9.53863C61.8966 9.8739 62.3866 10.3317 62.7137 10.9106V9.97256H62.689V6.08569C62.6906 5.12611 63.5242 4.34766 64.5529 4.34766ZM60.0426 17.7478C60.9415 17.7478 61.6364 17.4735 62.1263 16.9247C62.6163 16.3759 62.8616 15.6822 62.8616 14.8437C62.8616 14.0205 62.6163 13.3345 62.1263 12.7858C61.6364 12.237 60.9415 11.9626 60.0426 11.9626C59.1925 11.9626 58.5109 12.2293 57.9961 12.7627C57.4814 13.2968 57.2236 13.9897 57.2236 14.8437C57.2236 15.6977 57.4814 16.3952 57.9961 16.9362C58.5109 17.4773 59.1933 17.7478 60.0426 17.7478Z" fill="#FFFFFE"/>
<path d="M71.8515 7.27495C71.4988 7.60406 71.0543 7.769 70.5181 7.769C69.9819 7.769 69.5407 7.60406 69.1945 7.27495C68.8483 6.94584 68.6748 6.54351 68.6748 6.06796C68.6748 5.58008 68.8483 5.17158 69.1945 4.84247C69.5407 4.5126 69.9819 4.34766 70.5181 4.34766C71.0543 4.34766 71.4988 4.51568 71.8515 4.85095C72.2043 5.18623 72.3811 5.59164 72.3811 6.06719C72.3811 6.54274 72.2043 6.94507 71.8515 7.27495Z" fill="#FFFFFE"/>
<path d="M68.6523 18.9032V10.7857C68.6523 9.81921 69.4918 9.03613 70.5278 9.03613C71.5639 9.03613 72.4033 9.81921 72.4033 10.7857V18.904C72.4033 19.8705 71.5639 20.6536 70.5278 20.6536C69.4926 20.6528 68.6523 19.8697 68.6523 18.9032Z" fill="#FFFFFE"/>
<path d="M74.4102 18.9032V10.7857C74.4102 9.81921 75.2496 9.03613 76.2856 9.03613C77.3217 9.03613 78.1611 9.81921 78.1611 10.7857V10.9345C78.4222 10.3703 78.851 9.91324 79.4483 9.56255C80.0448 9.21186 80.743 9.0369 81.5444 9.0369C83.4075 9.0369 84.641 9.71516 85.2458 11.0717C85.5721 10.462 86.0711 9.97028 86.7412 9.59646C87.4112 9.22265 88.1713 9.03613 89.0207 9.03613C91.8149 9.03613 93.212 10.5306 93.212 13.518V18.9032C93.212 19.8697 92.3725 20.6528 91.3365 20.6528H91.3117C90.2757 20.6528 89.4362 19.8697 89.4362 18.9032V14.1585C89.4362 12.7103 88.848 11.9858 87.6715 11.9858C86.3479 11.9858 85.6861 12.8852 85.6861 14.6842V18.9032C85.6861 19.8697 84.8467 20.6528 83.8106 20.6528H83.7859C82.7498 20.6528 81.9104 19.8697 81.9104 18.9032V14.1354C81.9104 12.7026 81.3304 11.9858 80.1696 11.9858C79.5161 11.9858 79.0179 12.1877 78.6742 12.5916C78.3313 12.9955 78.1594 13.693 78.1594 14.6842V18.9032C78.1594 19.8697 77.32 20.6528 76.284 20.6528C75.2496 20.6528 74.4102 19.8697 74.4102 18.9032Z" fill="#FFFFFE"/>
<path d="M100.523 20.6528C98.8069 20.6528 97.4503 20.1117 96.4539 19.0289C95.4567 17.9467 94.9585 16.5517 94.9585 14.8445C94.9585 13.1673 95.4732 11.78 96.5027 10.6824C97.5321 9.5849 98.8887 9.03613 100.572 9.03613C101.405 9.03613 102.149 9.20416 102.802 9.53943C103.456 9.8747 103.946 10.3325 104.273 10.9114V10.7742C104.273 9.81459 105.108 9.03613 106.136 9.03613C107.165 9.03613 107.999 9.81459 107.999 10.7742V18.9148C107.999 19.8744 107.165 20.6528 106.136 20.6528C105.108 20.6528 104.273 19.8744 104.273 18.9148V18.8007C103.946 19.3495 103.444 19.7957 102.765 20.1387C102.088 20.4817 101.34 20.6528 100.523 20.6528ZM101.602 17.7486C102.501 17.7486 103.196 17.4743 103.686 16.9255C104.176 16.3767 104.421 15.683 104.421 14.8445C104.421 14.0213 104.176 13.3354 103.686 12.7866C103.196 12.2378 102.501 11.9634 101.602 11.9634C100.752 11.9634 100.07 12.2301 99.5555 12.7635C99.0407 13.2976 98.783 13.9905 98.783 14.8445C98.783 15.6985 99.0407 16.396 99.5555 16.937C100.07 17.4781 100.752 17.7486 101.602 17.7486Z" fill="#FFFFFE"/>
</g>
<defs>
<linearGradient id="paint0_linear_1009_2231" x1="10.7213" y1="25.0001" x2="10.7213" y2="12.539" gradientUnits="userSpaceOnUse">
<stop stop-color="white"/>
<stop offset="0.2538" stop-color="#F3F3F3"/>
<stop offset="0.7141" stop-color="#D2D4D5"/>
<stop offset="1" stop-color="#BBBDBF"/>
</linearGradient>
<clipPath id="clip0_1009_2231">
<rect width="23.087" height="25" fill="white"/>
</clipPath>
<clipPath id="clip1_1009_2231">
<rect width="75.1304" height="16.3043" fill="white" transform="translate(32.8696 4.34766)"/>
</clipPath>
</defs>
</svg>
