<svg width="21" height="21" viewBox="0 0 21 21" fill="none" xmlns="http://www.w3.org/2000/svg">
<path d="M14.9223 0.0899963H6.1652C2.3614 0.0899963 0.09375 2.35765 0.09375 6.16145V14.9081C0.09375 18.7223 2.3614 20.99 6.1652 20.99H14.9118C18.7156 20.99 20.9833 18.7223 20.9833 14.9185V6.16145C20.9937 2.35765 18.7261 0.0899963 14.9223 0.0899963ZM16.0404 8.4082L13.6265 11.5223C13.3234 11.9089 12.895 12.1597 12.4038 12.212C11.9127 12.2747 11.432 12.1388 11.0453 11.8358L9.133 10.331C9.05985 10.2683 8.97625 10.2683 8.93445 10.2787C8.89265 10.2787 8.8195 10.2996 8.7568 10.3832L6.2697 13.6123C6.11295 13.8108 5.88305 13.9153 5.65315 13.9153C5.48595 13.9153 5.31875 13.8631 5.17245 13.7481C4.8276 13.4869 4.7649 12.9957 5.02615 12.6509L7.51325 9.42185C7.8163 9.0352 8.24475 8.7844 8.7359 8.7217C9.2166 8.659 9.70775 8.79485 10.0944 9.0979L12.0067 10.6027C12.0799 10.6654 12.153 10.6654 12.2053 10.6549C12.2471 10.6549 12.3202 10.634 12.3829 10.5504L14.7969 7.43635C15.0581 7.0915 15.5598 7.0288 15.8942 7.3005C16.239 7.58265 16.3017 8.0738 16.0404 8.4082Z" fill="#FFFFFE"/>
</svg>
