<svg width="26" height="26" viewBox="0 0 26 26" fill="none" xmlns="http://www.w3.org/2000/svg">
<path d="M16.0417 25.0833H9.04167C2.70667 25.0833 0 22.3767 0 16.0417V9.04167C0 2.70667 2.70667 0 9.04167 0H16.0417C22.3767 0 25.0833 2.70667 25.0833 9.04167V16.0417C25.0833 22.3767 22.3767 25.0833 16.0417 25.0833ZM9.04167 1.75C3.66333 1.75 1.75 3.66333 1.75 9.04167V16.0417C1.75 21.42 3.66333 23.3333 9.04167 23.3333H16.0417C21.42 23.3333 23.3333 21.42 23.3333 16.0417V9.04167C23.3333 3.66333 21.42 1.75 16.0417 1.75H9.04167Z" fill="#7165E3"/>
<path d="M7.8796 16.574C7.69293 16.574 7.50626 16.5156 7.34293 16.3873C6.95793 16.0956 6.88793 15.5473 7.1796 15.1623L9.95626 11.5573C10.2946 11.1256 10.7729 10.8456 11.3213 10.7756C11.8579 10.7056 12.4063 10.8573 12.8379 11.1956L14.9729 12.8756C15.0546 12.9456 15.1363 12.9456 15.1946 12.934C15.2413 12.934 15.3229 12.9106 15.3929 12.8173L18.0879 9.34062C18.3796 8.95562 18.9396 8.88562 19.3129 9.18895C19.6979 9.48062 19.7679 10.029 19.4646 10.414L16.7696 13.8906C16.4313 14.3223 15.9529 14.6023 15.4046 14.6606C14.8563 14.7306 14.3196 14.579 13.8879 14.2406L11.7529 12.5606C11.6713 12.4906 11.5779 12.4906 11.5313 12.5023C11.4846 12.5023 11.4029 12.5256 11.3329 12.619L8.55626 16.224C8.4046 16.4573 8.14793 16.574 7.8796 16.574Z" fill="#7165E3"/>
</svg>
