<svg width="54" height="54" viewBox="0 0 54 54" fill="none" xmlns="http://www.w3.org/2000/svg">
<circle cx="27" cy="27" r="27" fill="#EBE9FB"/>
<path d="M33 27.75H21C20.59 27.75 20.25 27.41 20.25 27C20.25 26.59 20.59 26.25 21 26.25H33C33.41 26.25 33.75 26.59 33.75 27C33.75 27.41 33.41 27.75 33 27.75Z" fill="#7165E3"/>
<path d="M27 33.75C26.59 33.75 26.25 33.41 26.25 33V21C26.25 20.59 26.59 20.25 27 20.25C27.41 20.25 27.75 20.59 27.75 21V33C27.75 33.41 27.41 33.75 27 33.75Z" fill="#7165E3"/>
</svg>
