<svg width="132" height="126" viewBox="0 0 132 126" fill="none" xmlns="http://www.w3.org/2000/svg">
<path d="M33.5814 84.834C23.6714 81.784 16.0914 75.8741 9.63139 68.4041C6.35139 64.6141 4.08139 60.314 3.76139 55.204C3.29139 47.794 6.36139 41.8141 11.9714 37.3641C24.4414 27.4841 37.9114 24.2741 52.9514 32.5041C53.4714 31.6841 54.0114 30.8841 54.5014 30.0641C61.7614 18.1241 71.2314 8.55406 84.3614 3.22406C88.2614 1.64406 92.5214 0.44407 96.6914 0.11407C114.231 -1.28593 128.091 10.3341 130.481 28.1241C132.401 42.3741 130.091 56.024 123.921 68.954C113.771 90.254 97.0514 104.554 75.4714 113.354C57.7314 120.584 39.1314 124.144 20.0314 125.154C14.6114 125.444 9.3714 124.694 4.3914 122.294C-0.378597 119.994 -1.4986 115.774 2.2014 112.004C4.7914 109.374 7.94139 107.304 10.7714 104.894C18.0814 98.654 25.3514 92.364 32.6314 86.084C32.9114 85.854 33.0714 85.524 33.5814 84.834ZM14.8414 113.004C15.7714 113.444 16.0014 113.614 16.2414 113.654C16.9614 113.744 17.6814 113.824 18.4114 113.844C45.2614 114.664 69.3214 107.174 90.0514 89.7841C99.1914 82.1241 106.121 72.7541 110.771 61.8041C114.961 51.9241 116.491 41.5641 114.951 30.8841C113.191 18.6541 102.891 12.0841 91.2414 16.1341C87.0414 17.5941 83.0114 19.9941 79.4214 22.6641C73.6814 26.9241 69.4014 32.624 65.9414 38.894C64.1614 42.124 62.9414 45.1841 64.2014 49.1741C65.6514 53.7841 62.7814 58.254 58.4914 59.464C54.0614 60.724 49.5714 58.2841 47.9314 53.6141C47.4914 52.3441 47.4614 50.934 47.0714 49.644C46.7214 48.464 46.3914 47.1141 45.6114 46.2341C41.3614 41.4341 36.1114 38.964 29.5914 40.274C23.2414 41.544 20.0514 46.1141 18.0714 51.8041C16.9314 55.0741 17.5514 58.0541 19.7014 60.7541C23.5814 65.6241 28.4314 68.9641 34.6814 69.8641C39.2614 70.5141 43.8814 70.874 48.4814 71.454C53.8614 72.134 55.9514 75.7141 54.1614 80.7441C52.2514 86.1341 48.7114 90.3241 44.6614 94.1741C37.1114 101.344 28.2114 106.344 18.6714 110.344C17.3914 110.854 16.3414 111.934 14.8414 113.004Z" fill="#F5CF48"/>
</svg>
