<svg width="48" height="48" viewBox="0 0 48 48" fill="none" xmlns="http://www.w3.org/2000/svg">
<circle cx="24" cy="24" r="24" fill="#F2F2F2"/>
<path d="M12.1992 21.189C11.8833 21.189 11.5507 21.056 11.3179 20.8232C10.9687 20.4574 10.8523 19.9253 11.0518 19.4597L14.1448 12.0765C14.2113 11.9269 14.2445 11.8271 14.2944 11.744C16.7555 6.07361 19.8983 4.69343 25.4522 6.82189C25.7682 6.93829 26.0176 7.18772 26.1506 7.50367C26.2837 7.81961 26.2837 8.16881 26.1506 8.48476L21.2784 19.7922C21.0789 20.2578 20.6299 20.5405 20.1311 20.5405H15.3919C14.4441 20.5405 13.5461 20.7234 12.6815 21.0893C12.5318 21.1558 12.3655 21.189 12.1992 21.189ZM21.1953 8.36836C19.1334 8.36836 17.8696 9.71528 16.5559 12.7749C16.5393 12.8248 16.506 12.8747 16.4894 12.9246L14.3111 18.0961C14.6769 18.0628 15.0261 18.0462 15.3919 18.0462H19.2996L23.3071 8.73419C22.5256 8.48476 21.8272 8.36836 21.1953 8.36836Z" fill="#7165E3"/>
<path d="M33.9661 20.8731C33.8497 20.8731 33.7166 20.8564 33.6002 20.8232C32.9684 20.6403 32.3032 20.5405 31.6048 20.5405H20.1311C19.7153 20.5405 19.3163 20.3243 19.0835 19.9751C18.8673 19.6259 18.8174 19.177 18.9837 18.7945L23.806 7.60343C24.0554 7.0048 24.7871 6.58909 25.4023 6.80526C25.6019 6.87178 25.7848 6.95492 25.9843 7.03806L29.9087 8.6843C32.2034 9.63213 33.7333 10.6298 34.731 11.8271C34.9305 12.0599 35.0968 12.3093 35.2631 12.5754C35.446 12.8581 35.6123 13.1907 35.7287 13.5399C35.7786 13.6563 35.8617 13.8724 35.9116 14.1052C36.3772 15.6849 36.1444 17.6139 35.1467 20.1082C34.9305 20.5738 34.4649 20.8731 33.9661 20.8731ZM22.0267 18.0462H31.6214C32.1536 18.0462 32.669 18.0961 33.1845 18.1792C33.6501 16.7325 33.7499 15.6184 33.4838 14.7205C33.4506 14.5708 33.4173 14.5043 33.4007 14.4378C33.3009 14.1717 33.2344 14.0221 33.1513 13.8891C33.0349 13.7061 32.9517 13.5565 32.8187 13.4068C32.1037 12.5421 30.8399 11.744 28.9442 10.9624L25.6684 9.59887L22.0267 18.0462Z" fill="#7165E3"/>
<path d="M29.9918 41.6256H17.0215C16.5559 41.6256 16.1236 41.5923 15.6912 41.5425C9.85459 41.16 6.52886 37.8176 6.12977 31.9145C6.07989 31.5486 6.04663 31.0997 6.04663 30.6507V27.4081C6.04663 23.6667 8.27487 20.2911 11.717 18.7945C12.8976 18.2956 14.1281 18.0462 15.4085 18.0462H31.6381C32.5859 18.0462 33.5005 18.1792 34.3486 18.4453C38.2563 19.6259 41 23.3175 41 27.4081V30.6507C41 31.0165 40.9834 31.3657 40.9667 31.6983C40.6009 38.2001 36.8096 41.6256 29.9918 41.6256ZM15.3919 20.5405C14.4441 20.5405 13.5461 20.7234 12.6815 21.0892C10.1539 22.1867 8.5243 24.6644 8.5243 27.4081V30.6507C8.5243 30.9999 8.55755 31.3491 8.59081 31.6817C8.90675 36.4208 11.2348 38.7488 15.9074 39.0648C16.3231 39.1147 16.6557 39.1479 17.0049 39.1479H29.9752C35.4627 39.1479 38.1565 36.7368 38.4226 31.5819C38.4392 31.2826 38.4558 30.9833 38.4558 30.6507V27.4081C38.4558 24.3983 36.4438 21.7045 33.5836 20.8232C32.9517 20.6403 32.2866 20.5405 31.5882 20.5405H15.3919V20.5405Z" fill="#7165E3"/>
<path d="M7.27715 28.6553C6.59537 28.6553 6.03 28.0899 6.03 27.4081V22.5359C6.03 17.2979 9.73818 12.7749 14.8598 11.7772C15.3088 11.6941 15.7744 11.8604 16.0737 12.2096C16.3564 12.5588 16.4395 13.0576 16.2566 13.4733L13.3466 20.4241C13.2136 20.7234 12.9808 20.9562 12.6981 21.0893C10.1705 22.1867 8.54092 24.6644 8.54092 27.4081C8.52429 28.0899 7.97555 28.6553 7.27715 28.6553ZM12.8644 15.1362C10.7359 16.3335 9.18944 18.4287 8.70721 20.8731C9.43887 20.1248 10.2869 19.4929 11.2514 19.0273L12.8644 15.1362Z" fill="#7165E3"/>
<path d="M39.7362 28.6553C39.0545 28.6553 38.4891 28.0899 38.4891 27.4081C38.4891 24.3983 36.477 21.7045 33.6169 20.8232C33.2843 20.7234 33.0016 20.4906 32.852 20.1747C32.7023 19.8587 32.6857 19.4929 32.8187 19.1769C33.6003 17.2314 33.7998 15.818 33.4839 14.7205C33.4506 14.5708 33.4173 14.5043 33.4007 14.4378C33.1845 13.9556 33.3009 13.3902 33.6834 13.0244C34.0659 12.6585 34.6479 12.5754 35.1135 12.8248C38.7385 14.7205 40.9834 18.4453 40.9834 22.5359V27.4081C40.9834 28.0899 40.418 28.6553 39.7362 28.6553ZM35.5624 18.9109C36.61 19.3931 37.5412 20.0749 38.3228 20.8897C38.0068 19.2601 37.2253 17.7801 36.0779 16.6161C35.9948 17.3145 35.8285 18.0795 35.5624 18.9109Z" fill="#7165E3"/>
</svg>
