<svg width="597" height="206" viewBox="0 0 597 206" fill="none" xmlns="http://www.w3.org/2000/svg">
<g clip-path="url(#clip0_459_7986)">
<rect x="0.898438" width="595.7" height="205.077" rx="42" fill="#FCF2CF"/>
<path d="M52.0582 42.9463L215.489 92.5217C218.704 93.497 221.911 96.6076 224.406 101.169C226.9 105.731 228.476 111.37 228.788 116.846L237.857 275.986C238.169 281.462 237.191 286.326 235.138 289.508C233.085 292.691 230.126 293.931 226.911 292.955L63.4798 243.38C60.512 242.48 57.5514 239.609 55.2492 235.398C52.9469 231.187 51.4918 225.982 51.2037 220.927L41.9532 58.5947C41.6652 53.54 42.5679 49.05 44.4628 46.1124C46.3576 43.1748 49.0895 42.0302 52.0572 42.9305L52.0582 42.9463Z" fill="#F5CF48"/>
<path d="M28.3778 35.3182L26.5906 29.4072L28.2387 26.9244L39.1728 18.9068L43.5236 17.8403L37.0433 45.1054L28.3778 35.3182Z" fill="#F5CF48"/>
<path d="M71.7183 29.2703L235.149 78.8457C238.364 79.8209 241.575 82.9886 244.075 87.6518C246.575 92.3151 248.159 98.0918 248.479 103.711L257.786 267.025C258.106 272.645 257.136 277.647 255.089 280.931C253.042 284.215 250.085 285.512 246.87 284.536L83.4396 234.961C80.4718 234.061 77.5081 231.137 75.2006 226.832C72.893 222.528 71.4306 217.195 71.135 212.008L61.6419 45.4181C61.3463 40.2309 62.2417 35.6137 64.1313 32.5824C66.0208 29.551 68.7496 28.3537 71.7174 29.254L71.7183 29.2703Z" fill="white"/>
<mask id="mask0_459_7986" style="mask-type:alpha" maskUnits="userSpaceOnUse" x="61" y="28" width="197" height="254">
<path d="M71.7186 29.2693L235.154 78.8311C238.369 79.8061 241.578 82.9392 244.074 87.541C246.571 92.1429 248.151 97.8365 248.467 103.369L257.643 264.168C257.959 269.701 256.985 274.62 254.934 277.843C252.884 281.066 249.926 282.329 246.711 281.354L83.2761 231.792C80.3082 230.892 77.3461 228 75.0415 223.752C72.7368 219.504 71.2783 214.249 70.9868 209.141L61.6263 45.117C61.3348 40.0097 62.2343 35.4691 64.1268 32.494C66.0193 29.519 68.7498 28.3532 71.7177 29.2532L71.7186 29.2693Z" fill="white"/>
</mask>
<g mask="url(#mask0_459_7986)">
<path d="M36.4531 -163.937L61.8917 298.461" stroke="#F5CF48" strokeWidth="0.2"/>
<path d="M39.3008 -163.074L64.7393 299.324" stroke="#F5CF48" strokeWidth="0.2"/>
<path d="M42.1445 -162.211L67.5831 300.187" stroke="#F5CF48" strokeWidth="0.2"/>
<path d="M44.9922 -161.348L70.4308 301.05" stroke="#F5CF48" strokeWidth="0.2"/>
<path d="M47.8359 -160.485L73.2745 301.913" stroke="#F5CF48" strokeWidth="0.2"/>
<path d="M50.6836 -159.622L76.1222 302.776" stroke="#F5CF48" strokeWidth="0.2"/>
<path d="M53.5312 -158.759L78.9698 303.639" stroke="#F5CF48" strokeWidth="0.2"/>
<path d="M56.375 -157.896L81.8136 304.502" stroke="#F5CF48" strokeWidth="0.2"/>
<path d="M59.2227 -157.033L84.6612 305.365" stroke="#F5CF48" strokeWidth="0.2"/>
<path d="M62.0664 -156.17L87.505 306.228" stroke="#F5CF48" strokeWidth="0.2"/>
<path d="M64.9141 -155.307L90.3526 307.091" stroke="#F5CF48" strokeWidth="0.2"/>
<path d="M67.7578 -154.444L93.1964 307.954" stroke="#F5CF48" strokeWidth="0.2"/>
<path d="M70.6055 -153.581L96.044 308.817" stroke="#F5CF48" strokeWidth="0.2"/>
<path d="M73.4531 -152.718L98.8917 309.68" stroke="#F5CF48" strokeWidth="0.2"/>
<path d="M76.2969 -151.855L101.735 310.544" stroke="#F5CF48" strokeWidth="0.2"/>
<path d="M79.1445 -150.992L104.583 311.407" stroke="#F5CF48" strokeWidth="0.2"/>
<path d="M81.9883 -150.128L107.427 312.27" stroke="#F5CF48" strokeWidth="0.2"/>
<path d="M84.8359 -149.266L110.275 313.133" stroke="#F5CF48" strokeWidth="0.2"/>
<path d="M87.6836 -148.402L113.122 313.996" stroke="#F5CF48" strokeWidth="0.2"/>
<path d="M90.5273 -147.539L115.966 314.859" stroke="#F5CF48" strokeWidth="0.2"/>
<path d="M93.375 -146.676L118.814 315.722" stroke="#F5CF48" strokeWidth="0.2"/>
<path d="M96.2188 -145.813L121.657 316.585" stroke="#F5CF48" strokeWidth="0.2"/>
<path d="M99.0664 -144.95L124.505 317.448" stroke="#F5CF48" strokeWidth="0.2"/>
<path d="M101.91 -144.087L127.349 318.311" stroke="#F5CF48" strokeWidth="0.2"/>
<path d="M104.758 -143.224L130.196 319.174" stroke="#F5CF48" strokeWidth="0.2"/>
<path d="M107.605 -142.361L133.044 320.037" stroke="#F5CF48" strokeWidth="0.2"/>
<path d="M110.449 -141.498L135.888 320.9" stroke="#F5CF48" strokeWidth="0.2"/>
<path d="M113.293 -140.635L138.732 321.763" stroke="#F5CF48" strokeWidth="0.2"/>
<path d="M116.145 -139.772L141.583 322.626" stroke="#F5CF48" strokeWidth="0.2"/>
<path d="M118.988 -138.909L144.427 323.489" stroke="#F5CF48" strokeWidth="0.2"/>
<path d="M121.832 -138.046L147.271 324.353" stroke="#F5CF48" strokeWidth="0.2"/>
<path d="M124.68 -137.183L150.118 325.216" stroke="#F5CF48" strokeWidth="0.2"/>
<path d="M127.527 -136.32L152.966 326.079" stroke="#F5CF48" strokeWidth="0.2"/>
<path d="M130.371 -135.457L155.81 326.942" stroke="#F5CF48" strokeWidth="0.2"/>
<path d="M133.215 -134.593L158.653 327.805" stroke="#F5CF48" strokeWidth="0.2"/>
<path d="M136.062 -133.73L161.501 328.668" stroke="#F5CF48" strokeWidth="0.2"/>
<path d="M138.91 -132.867L164.349 329.531" stroke="#F5CF48" strokeWidth="0.2"/>
<path d="M141.754 -132.004L167.192 330.394" stroke="#F5CF48" strokeWidth="0.2"/>
<path d="M144.602 -131.141L170.04 331.257" stroke="#F5CF48" strokeWidth="0.2"/>
<path d="M147.449 -130.278L172.888 332.12" stroke="#F5CF48" strokeWidth="0.2"/>
<path d="M150.293 -129.415L175.732 332.983" stroke="#F5CF48" strokeWidth="0.2"/>
<path d="M153.141 -128.552L178.579 333.846" stroke="#F5CF48" strokeWidth="0.2"/>
<path d="M155.984 -127.689L181.423 334.709" stroke="#F5CF48" strokeWidth="0.2"/>
<path d="M158.832 -126.826L184.271 335.572" stroke="#F5CF48" strokeWidth="0.2"/>
<path d="M161.68 -125.963L187.118 336.435" stroke="#F5CF48" strokeWidth="0.2"/>
<path d="M164.523 -125.1L189.962 337.298" stroke="#F5CF48" strokeWidth="0.2"/>
<path d="M167.371 -124.237L192.81 338.161" stroke="#F5CF48" strokeWidth="0.2"/>
<path d="M170.219 -123.374L195.657 339.024" stroke="#F5CF48" strokeWidth="0.2"/>
<path d="M173.062 -122.511L198.501 339.887" stroke="#F5CF48" strokeWidth="0.2"/>
<path d="M175.906 -121.648L201.345 340.751" stroke="#F5CF48" strokeWidth="0.2"/>
<path d="M178.754 -120.785L204.192 341.614" stroke="#F5CF48" strokeWidth="0.2"/>
<path d="M181.602 -119.922L207.04 342.477" stroke="#F5CF48" strokeWidth="0.2"/>
<path d="M184.445 -119.059L209.884 343.34" stroke="#F5CF48" strokeWidth="0.2"/>
<path d="M187.293 -118.195L212.732 344.203" stroke="#F5CF48" strokeWidth="0.2"/>
<path d="M190.141 -117.332L215.579 345.066" stroke="#F5CF48" strokeWidth="0.2"/>
<path d="M192.984 -116.469L218.423 345.929" stroke="#F5CF48" strokeWidth="0.2"/>
<path d="M195.828 -115.606L221.267 346.792" stroke="#F5CF48" strokeWidth="0.2"/>
<path d="M198.676 -114.743L224.114 347.655" stroke="#F5CF48" strokeWidth="0.2"/>
<path d="M201.523 -113.88L226.962 348.518" stroke="#F5CF48" strokeWidth="0.2"/>
<path d="M204.367 -113.017L229.806 349.381" stroke="#F5CF48" strokeWidth="0.2"/>
<path d="M207.215 -112.154L232.653 350.244" stroke="#F5CF48" strokeWidth="0.2"/>
<path d="M210.059 -111.291L235.497 351.107" stroke="#F5CF48" strokeWidth="0.2"/>
<path d="M212.906 -110.428L238.345 351.97" stroke="#F5CF48" strokeWidth="0.2"/>
<path d="M215.75 -109.565L241.189 352.833" stroke="#F5CF48" strokeWidth="0.2"/>
<path d="M218.598 -108.702L244.036 353.696" stroke="#F5CF48" strokeWidth="0.2"/>
<path d="M221.445 -107.839L246.884 354.559" stroke="#F5CF48" strokeWidth="0.2"/>
<path d="M224.289 -106.976L249.728 355.422" stroke="#F5CF48" strokeWidth="0.2"/>
<path d="M227.137 -106.113L252.575 356.286" stroke="#F5CF48" strokeWidth="0.2"/>
<path d="M229.98 -105.25L255.419 357.149" stroke="#F5CF48" strokeWidth="0.2"/>
<path d="M232.828 -104.387L258.267 358.012" stroke="#F5CF48" strokeWidth="0.2"/>
<path d="M235.676 -103.523L261.114 358.875" stroke="#F5CF48" strokeWidth="0.2"/>
<path d="M238.52 -102.66L263.958 359.738" stroke="#F5CF48" strokeWidth="0.2"/>
<path d="M241.367 -101.797L266.806 360.601" stroke="#F5CF48" strokeWidth="0.2"/>
<path d="M244.215 -100.934L269.653 361.464" stroke="#F5CF48" strokeWidth="0.2"/>
<path d="M247.059 -100.071L272.497 362.327" stroke="#F5CF48" strokeWidth="0.2"/>
<path d="M249.902 -99.2083L275.341 363.19" stroke="#F5CF48" strokeWidth="0.2"/>
<path d="M252.75 -98.3452L278.189 364.053" stroke="#F5CF48" strokeWidth="0.2"/>
<path d="M255.598 -97.4822L281.036 364.916" stroke="#F5CF48" strokeWidth="0.2"/>
<path d="M-322.926 66.5768L244.559 353.473" stroke="#F5CF48" strokeWidth="0.2"/>
<path d="M-320.754 64.5436L246.731 351.44" stroke="#F5CF48" strokeWidth="0.2"/>
<path d="M-318.586 62.5104L248.899 349.406" stroke="#F5CF48" strokeWidth="0.2"/>
<path d="M-316.414 60.4772L251.071 347.373" stroke="#F5CF48" strokeWidth="0.2"/>
<path d="M-314.242 58.4442L253.243 345.34" stroke="#F5CF48" strokeWidth="0.2"/>
<path d="M-312.074 56.4109L255.411 343.307" stroke="#F5CF48" strokeWidth="0.2"/>
<path d="M-309.902 54.3777L257.582 341.274" stroke="#F5CF48" strokeWidth="0.2"/>
<path d="M-307.73 52.3445L259.754 339.241" stroke="#F5CF48" strokeWidth="0.2"/>
<path d="M-305.562 50.3113L261.922 337.207" stroke="#F5CF48" strokeWidth="0.2"/>
<path d="M-303.391 48.2783L264.094 335.174" stroke="#F5CF48" strokeWidth="0.2"/>
<path d="M-301.223 46.2451L266.262 333.141" stroke="#F5CF48" strokeWidth="0.2"/>
<path d="M-299.051 44.2119L268.434 331.108" stroke="#F5CF48" strokeWidth="0.2"/>
<path d="M-296.879 42.1787L270.606 329.075" stroke="#F5CF48" strokeWidth="0.2"/>
<path d="M-294.711 40.1455L272.774 327.042" stroke="#F5CF48" strokeWidth="0.2"/>
<path d="M-292.539 38.1123L274.946 325.008" stroke="#F5CF48" strokeWidth="0.2"/>
<path d="M-290.367 36.0791L277.118 322.975" stroke="#F5CF48" strokeWidth="0.2"/>
<path d="M-288.195 34.0458L279.289 320.942" stroke="#F5CF48" strokeWidth="0.2"/>
<path d="M-286.027 32.0127L281.457 318.909" stroke="#F5CF48" strokeWidth="0.2"/>
<path d="M-283.855 29.9796L283.629 316.876" stroke="#F5CF48" strokeWidth="0.2"/>
<path d="M-281.688 27.9463L285.797 314.842" stroke="#F5CF48" strokeWidth="0.2"/>
<path d="M-279.516 25.9131L287.969 312.809" stroke="#F5CF48" strokeWidth="0.2"/>
<path d="M-277.348 23.8799L290.137 310.776" stroke="#F5CF48" strokeWidth="0.2"/>
<path d="M-275.176 21.8467L292.309 308.743" stroke="#F5CF48" strokeWidth="0.2"/>
<path d="M-273.008 19.8135L294.477 306.71" stroke="#F5CF48" strokeWidth="0.2"/>
<path d="M-270.836 17.7804L296.649 304.676" stroke="#F5CF48" strokeWidth="0.2"/>
<path d="M-268.664 15.7471L298.821 302.643" stroke="#F5CF48" strokeWidth="0.2"/>
<path d="M-266.492 13.7139L300.993 300.61" stroke="#F5CF48" strokeWidth="0.2"/>
<path d="M-264.324 11.6807L303.161 298.577" stroke="#F5CF48" strokeWidth="0.2"/>
<path d="M-262.152 9.64764L305.332 296.544" stroke="#F5CF48" strokeWidth="0.2"/>
<path d="M-259.984 7.61444L307.5 294.51" stroke="#F5CF48" strokeWidth="0.2"/>
<path d="M-257.812 5.58124L309.672 292.477" stroke="#F5CF48" strokeWidth="0.2"/>
<path d="M-255.641 3.54797L311.844 290.444" stroke="#F5CF48" strokeWidth="0.2"/>
<path d="M-253.473 1.51483L314.012 288.411" stroke="#F5CF48" strokeWidth="0.2"/>
<path d="M-251.301 -0.518433L316.184 286.378" stroke="#F5CF48" strokeWidth="0.2"/>
<path d="M-249.129 -2.55145L318.356 284.345" stroke="#F5CF48" strokeWidth="0.2"/>
<path d="M-246.961 -4.58459L320.524 282.311" stroke="#F5CF48" strokeWidth="0.2"/>
<path d="M-244.789 -6.6178L322.696 280.278" stroke="#F5CF48" strokeWidth="0.2"/>
<path d="M-242.617 -8.651L324.868 278.245" stroke="#F5CF48" strokeWidth="0.2"/>
<path d="M-240.449 -10.6842L327.036 276.212" stroke="#F5CF48" strokeWidth="0.2"/>
<path d="M-238.277 -12.7173L329.207 274.179" stroke="#F5CF48" strokeWidth="0.2"/>
<path d="M-236.109 -14.7506L331.375 272.145" stroke="#F5CF48" strokeWidth="0.2"/>
<path d="M-233.938 -16.7838L333.547 270.112" stroke="#F5CF48" strokeWidth="0.2"/>
<path d="M-231.766 -18.8171L335.719 268.079" stroke="#F5CF48" strokeWidth="0.2"/>
<path d="M-229.598 -20.8501L337.887 266.046" stroke="#F5CF48" strokeWidth="0.2"/>
<path d="M-227.426 -22.8833L340.059 264.013" stroke="#F5CF48" strokeWidth="0.2"/>
<path d="M-225.258 -24.9166L342.227 261.979" stroke="#F5CF48" strokeWidth="0.2"/>
<path d="M-223.086 -26.9498L344.399 259.946" stroke="#F5CF48" strokeWidth="0.2"/>
<path d="M-220.914 -28.983L346.571 257.913" stroke="#F5CF48" strokeWidth="0.2"/>
<path d="M-218.746 -31.0162L348.739 255.88" stroke="#F5CF48" strokeWidth="0.2"/>
<path d="M-216.574 -33.0494L350.911 253.847" stroke="#F5CF48" strokeWidth="0.2"/>
<path d="M-214.402 -35.0825L353.082 251.814" stroke="#F5CF48" strokeWidth="0.2"/>
<path d="M-212.234 -37.1158L355.25 249.78" stroke="#F5CF48" strokeWidth="0.2"/>
<path d="M-210.062 -39.1489L357.422 247.747" stroke="#F5CF48" strokeWidth="0.2"/>
<path d="M-207.891 -41.1821L359.594 245.714" stroke="#F5CF48" strokeWidth="0.2"/>
<path d="M-205.723 -43.2153L361.762 243.681" stroke="#F5CF48" strokeWidth="0.2"/>
<path d="M-203.551 -45.2485L363.934 241.648" stroke="#F5CF48" strokeWidth="0.2"/>
<path d="M-201.383 -47.2817L366.102 239.614" stroke="#F5CF48" strokeWidth="0.2"/>
<path d="M-199.211 -49.3149L368.274 237.581" stroke="#F5CF48" strokeWidth="0.2"/>
<path d="M-197.039 -51.3481L370.446 235.548" stroke="#F5CF48" strokeWidth="0.2"/>
<path d="M-194.867 -53.3811L372.618 233.515" stroke="#F5CF48" strokeWidth="0.2"/>
<path d="M-192.699 -55.4144L374.786 231.482" stroke="#F5CF48" strokeWidth="0.2"/>
<path d="M-190.527 -57.4475L376.957 229.449" stroke="#F5CF48" strokeWidth="0.2"/>
<path d="M-188.359 -59.4807L379.125 227.415" stroke="#F5CF48" strokeWidth="0.2"/>
<path d="M-186.188 -61.5139L381.297 225.382" stroke="#F5CF48" strokeWidth="0.2"/>
<path d="M-184.016 -63.5471L383.469 223.349" stroke="#F5CF48" strokeWidth="0.2"/>
<path d="M-181.848 -65.5803L385.637 221.316" stroke="#F5CF48" strokeWidth="0.2"/>
<path d="M-179.676 -67.6135L387.809 219.283" stroke="#F5CF48" strokeWidth="0.2"/>
<path d="M-177.504 -69.6466L389.981 217.249" stroke="#F5CF48" strokeWidth="0.2"/>
<path d="M-175.336 -71.6799L392.149 215.216" stroke="#F5CF48" strokeWidth="0.2"/>
<path d="M-173.168 -73.713L394.317 213.183" stroke="#F5CF48" strokeWidth="0.2"/>
<path d="M-170.996 -75.7462L396.489 211.15" stroke="#F5CF48" strokeWidth="0.2"/>
<path d="M-168.824 -77.7795L398.661 209.117" stroke="#F5CF48" strokeWidth="0.2"/>
<path d="M-166.656 -79.8126L400.828 207.083" stroke="#F5CF48" strokeWidth="0.2"/>
<path d="M-164.484 -81.8458L403 205.05" stroke="#F5CF48" strokeWidth="0.2"/>
<path d="M-162.312 -83.8791L405.172 203.017" stroke="#F5CF48" strokeWidth="0.2"/>
<path d="M-160.145 -85.9123L407.34 200.984" stroke="#F5CF48" strokeWidth="0.2"/>
<path d="M-157.973 -87.9456L409.512 198.951" stroke="#F5CF48" strokeWidth="0.2"/>
<path d="M-155.801 -89.9786L411.684 196.917" stroke="#F5CF48" strokeWidth="0.2"/>
<path d="M-153.633 -92.0118L413.852 194.884" stroke="#F5CF48" strokeWidth="0.2"/>
<path d="M-151.461 -94.045L416.024 192.851" stroke="#F5CF48" strokeWidth="0.2"/>
<path d="M-149.289 -96.0782L418.196 190.818" stroke="#F5CF48" strokeWidth="0.2"/>
<path d="M-147.121 -98.1114L420.364 188.785" stroke="#F5CF48" strokeWidth="0.2"/>
<path d="M-144.949 -100.145L422.536 186.751" stroke="#F5CF48" strokeWidth="0.2"/>
<path d="M-142.777 -102.178L424.707 184.718" stroke="#F5CF48" strokeWidth="0.2"/>
<path d="M-140.609 -104.211L426.875 182.685" stroke="#F5CF48" strokeWidth="0.2"/>
<path d="M-138.438 -106.244L429.047 180.652" stroke="#F5CF48" strokeWidth="0.2"/>
<path d="M-136.266 -108.277L431.219 178.619" stroke="#F5CF48" strokeWidth="0.2"/>
<path d="M-134.098 -110.31L433.387 176.586" stroke="#F5CF48" strokeWidth="0.2"/>
<path d="M-131.926 -112.344L435.559 174.552" stroke="#F5CF48" strokeWidth="0.2"/>
<path d="M-129.754 -114.377L437.731 172.519" stroke="#F5CF48" strokeWidth="0.2"/>
<path d="M-127.586 -116.41L439.899 170.486" stroke="#F5CF48" strokeWidth="0.2"/>
<path d="M-125.414 -118.443L442.071 168.453" stroke="#F5CF48" strokeWidth="0.2"/>
<path d="M-123.246 -120.476L444.239 166.42" stroke="#F5CF48" strokeWidth="0.2"/>
<path d="M-121.074 -122.51L446.411 164.387" stroke="#F5CF48" strokeWidth="0.2"/>
<path d="M-118.906 -124.543L448.578 162.353" stroke="#F5CF48" strokeWidth="0.2"/>
<path d="M-116.734 -126.576L450.75 160.32" stroke="#F5CF48" strokeWidth="0.2"/>
<path d="M-114.566 -128.609L452.918 158.287" stroke="#F5CF48" strokeWidth="0.2"/>
<path d="M-112.395 -130.642L455.09 156.254" stroke="#F5CF48" strokeWidth="0.2"/>
<path d="M-110.223 -132.676L457.262 154.221" stroke="#F5CF48" strokeWidth="0.2"/>
<path d="M-108.051 -134.709L459.434 152.187" stroke="#F5CF48" strokeWidth="0.2"/>
<path d="M-105.883 -136.742L461.602 150.154" stroke="#F5CF48" strokeWidth="0.2"/>
<path d="M-103.711 -138.775L463.774 148.121" stroke="#F5CF48" strokeWidth="0.2"/>
<path d="M-101.543 -140.808L465.942 146.088" stroke="#F5CF48" strokeWidth="0.2"/>
<path d="M-99.3711 -142.841L468.114 144.055" stroke="#F5CF48" strokeWidth="0.2"/>
<path d="M-97.1992 -144.875L470.286 142.021" stroke="#F5CF48" strokeWidth="0.2"/>
<path d="M-95.0273 -146.908L472.457 139.988" stroke="#F5CF48" strokeWidth="0.2"/>
<path d="M-92.8594 -148.941L474.625 137.955" stroke="#F5CF48" strokeWidth="0.2"/>
<path d="M-90.6875 -150.974L476.797 135.922" stroke="#F5CF48" strokeWidth="0.2"/>
<path d="M-88.5195 -153.007L478.965 133.889" stroke="#F5CF48" strokeWidth="0.2"/>
<path d="M-86.3477 -155.04L481.137 131.856" stroke="#F5CF48" strokeWidth="0.2"/>
<path d="M-84.1758 -157.074L483.309 129.822" stroke="#F5CF48" strokeWidth="0.2"/>
<path d="M-82.0078 -159.107L485.477 127.789" stroke="#F5CF48" strokeWidth="0.2"/>
<path d="M-79.8359 -161.14L487.649 125.756" stroke="#F5CF48" strokeWidth="0.2"/>
<path d="M-77.6641 -163.173L489.821 123.723" stroke="#F5CF48" strokeWidth="0.2"/>
<path d="M-75.4961 -165.206L491.989 121.69" stroke="#F5CF48" strokeWidth="0.2"/>
<path d="M-73.3242 -167.24L494.161 119.656" stroke="#F5CF48" strokeWidth="0.2"/>
<path d="M-71.1562 -169.273L496.328 117.623" stroke="#F5CF48" strokeWidth="0.2"/>
<path d="M-68.9844 -171.306L498.5 115.59" stroke="#F5CF48" strokeWidth="0.2"/>
<path d="M-66.8164 -173.339L500.668 113.557" stroke="#F5CF48" strokeWidth="0.2"/>
<path d="M-64.6445 -175.372L502.84 111.524" stroke="#F5CF48" strokeWidth="0.2"/>
<path d="M-62.4727 -177.406L505.012 109.49" stroke="#F5CF48" strokeWidth="0.2"/>
<path d="M-60.3047 -179.439L507.18 107.457" stroke="#F5CF48" strokeWidth="0.2"/>
<path d="M-58.1328 -181.472L509.352 105.424" stroke="#F5CF48" strokeWidth="0.2"/>
<path d="M-55.9609 -183.505L511.524 103.391" stroke="#F5CF48" strokeWidth="0.2"/>
<path d="M-53.793 -185.539L513.692 101.358" stroke="#F5CF48" strokeWidth="0.2"/>
<path d="M-51.6211 -187.572L515.864 99.3244" stroke="#F5CF48" strokeWidth="0.2"/>
<path d="M-49.4492 -189.606L518.036 97.29" stroke="#F5CF48" strokeWidth="0.2"/>
</g>
<g opacity="0.2">
<path opacity="0.6" d="M65.2994 109.302L248.689 107.36L249.746 125.916L66.8076 135.765L65.2994 109.302Z" fill="#F5CF48"/>
</g>
<g opacity="0.2">
<path opacity="0.6" d="M166.68 58.3481L187.222 125.142L208.337 225.012L224.881 230.03L191.975 112.173L182.019 63.0013L166.68 58.3481Z" fill="#F5CF48"/>
</g>
<path d="M198.716 211.225C198.735 211.401 173.16 203.759 141.626 194.152C110.092 184.546 84.4705 176.661 84.445 176.435C84.4195 176.209 110.001 183.902 141.552 193.499C173.103 203.097 198.714 211.053 198.716 211.225Z" fill="white"/>
<path d="M181.98 110.407C178.775 110.444 175.298 108.599 172.031 106.27C168.765 103.942 165.607 101.123 162.32 98.91C154.211 93.5082 145.78 92.0815 138.747 94.9212C138.397 95.0075 138.111 95.2568 137.928 95.6337C137.806 96.1418 137.84 96.752 138.027 97.3538L148.128 138.007C148.381 139.409 148.939 140.798 149.725 141.982C150.949 143.569 152.56 143.62 153.982 143.565C158.505 143.529 162.865 142.813 166.99 141.43C171.126 140.009 174.579 136.977 177.015 132.627C178.092 130.521 178.869 128.13 180.006 126.116C181.054 123.968 182.782 122.674 184.87 122.472L181.98 110.407Z" fill="#FEF9E7"/>
<path d="M240.514 140.712C237.505 123.82 234.482 106.839 229.549 90.0319C221.419 87.3469 214.03 90.2736 207.961 94.89C201.892 99.5065 196.7 105.727 190.559 110.2L191.317 121.897C193.665 121.542 196.272 122.311 198.752 124.092C201.2 125.847 203.592 127.854 205.901 130.091C211.233 135.146 216.874 139.256 222.631 142.28C228.384 145.107 234.365 146.168 239.237 144.107C239.887 143.962 240.391 143.449 240.644 142.673C240.723 142.064 240.678 141.391 240.514 140.712V140.712Z" fill="#FEF9E7"/>
<g opacity="0.3">
<path opacity="0.3" d="M181.98 110.407C178.775 110.444 175.298 108.599 172.031 106.27C168.765 103.942 165.607 101.123 162.32 98.91C154.211 93.5082 145.78 92.0815 138.747 94.9212C138.397 95.0075 138.111 95.2568 137.928 95.6337C137.806 96.1418 137.84 96.752 138.027 97.3538L148.128 138.007C148.381 139.409 148.939 140.798 149.725 141.982C150.949 143.569 152.56 143.62 153.982 143.565C158.505 143.529 162.865 142.813 166.99 141.43C171.126 140.009 174.579 136.977 177.015 132.627C178.092 130.521 178.869 128.13 180.006 126.116C181.054 123.968 182.782 122.674 184.87 122.472L181.98 110.407Z" fill="#F5CF48"/>
</g>
<path d="M181.976 110.407L182.183 111.163C182.325 111.717 182.514 112.48 182.771 113.457L185.019 122.433L185.027 122.581L184.915 122.547C183.448 122.65 182.166 123.363 181.222 124.601C180.112 126.121 179.188 127.882 178.469 129.846C177.611 132.113 176.497 134.121 175.155 135.821C173.645 137.704 171.888 139.215 169.929 140.317C165.863 142.732 160.746 143.526 155.262 143.821C153.902 143.846 152.544 144.212 150.885 143.332C150.479 143.11 150.087 142.784 149.733 142.376C149.379 141.967 149.072 141.484 148.831 140.958C148.401 139.935 148.067 138.876 147.839 137.811C146.808 133.668 145.752 129.42 144.676 125.116C143.099 118.777 141.567 112.584 140.075 106.598C139.339 103.615 138.604 100.668 137.893 97.8008C137.634 97.0202 137.543 96.2192 137.634 95.5091C137.894 94.9439 138.326 94.5886 138.856 94.5057C139.75 94.1566 140.645 93.8323 141.55 93.6688C145.029 92.8926 148.779 93.05 152.623 94.1336C156.005 95.0452 159.42 96.6764 162.739 98.9655C165.738 101.091 168.341 103.316 170.677 105.022C172.66 106.586 174.701 107.89 176.765 108.911C178.069 109.55 179.38 109.984 180.667 110.205C181.542 110.336 182.027 110.337 182.01 110.356C181.901 110.381 181.789 110.392 181.673 110.388C181.351 110.394 181.024 110.376 180.693 110.334C179.4 110.167 178.078 109.766 176.76 109.141C174.675 108.155 172.609 106.871 170.602 105.315C168.247 103.579 165.636 101.376 162.655 99.2562C155.634 94.4995 148.317 92.7078 141.852 94.1618C140.95 94.3747 140.051 94.6372 139.157 94.9739C138.71 95.1422 138.262 95.2982 138.132 95.7453C138.074 96.3376 138.163 96.9966 138.386 97.6342C139.104 100.511 139.838 103.45 140.587 106.45C142.07 112.421 143.611 118.616 145.197 124.958C146.265 129.271 147.316 133.502 148.35 137.65C148.558 138.654 148.87 139.655 149.278 140.619C149.479 141.061 149.736 141.467 150.032 141.811C150.329 142.154 150.659 142.427 151 142.613C152.404 143.367 153.768 143.088 155.164 143.061C160.631 142.786 165.709 141.955 169.736 139.65C171.669 138.588 173.41 137.129 174.916 135.311C176.247 133.638 177.363 131.673 178.237 129.46C178.974 127.492 179.923 125.738 181.065 124.237C182.05 122.97 183.388 122.256 184.913 122.182L184.831 122.352C183.927 118.514 183.218 115.526 182.735 113.471L182.191 111.141C182.029 110.703 181.976 110.407 181.976 110.407Z" fill="#F5CF48"/>
<g opacity="0.3">
<path opacity="0.3" d="M240.514 140.712C237.505 123.82 234.482 106.839 229.549 90.0319C221.419 87.3469 214.03 90.2736 207.961 94.89C201.892 99.5065 196.7 105.727 190.559 110.2L191.317 121.897C193.665 121.542 196.272 122.311 198.752 124.092C201.2 125.847 203.592 127.854 205.901 130.091C211.233 135.146 216.874 139.256 222.631 142.28C228.384 145.107 234.365 146.168 239.237 144.107C239.887 143.962 240.391 143.449 240.644 142.673C240.723 142.064 240.678 141.391 240.514 140.712V140.712Z" fill="#F5CF48"/>
</g>
<path d="M240.51 140.712C240.636 141.18 240.709 141.649 240.726 142.104C240.744 142.677 240.596 143.171 240.312 143.486C239.923 143.882 239.462 144.154 238.95 144.289C235.759 145.523 232.176 145.641 228.462 144.634C223.729 143.502 217.91 140.326 211.733 135.352C210.186 134.072 208.615 132.74 207.019 131.356C205.413 129.944 203.799 128.409 202.127 126.965C200.436 125.461 198.669 124.214 196.872 123.255C195.014 122.248 193.136 121.876 191.429 122.176L191.122 122.241L191.096 121.795C190.885 118.083 190.595 114.128 190.329 110.095L190.32 109.934L190.416 109.866C193.311 107.753 196.123 105.14 198.956 102.424C203.599 97.9584 208.175 93.5944 213.333 91.1094C218.491 88.6245 224.114 87.8982 229.526 89.7102L229.675 89.7553L229.731 89.9426C233.166 102.173 235.965 114.469 238.105 126.728C238.915 131.169 239.516 134.646 239.924 137.008C240.119 138.174 240.27 139.071 240.371 139.722C240.387 139.994 240.455 140.234 240.484 140.413C240.496 140.493 240.501 140.572 240.497 140.648C240.497 140.648 240.493 140.573 240.438 140.411L240.298 139.712C240.176 139.066 240.005 138.164 239.787 137.003C239.338 134.581 238.684 131.111 237.856 126.688C235.646 114.454 232.809 102.189 229.369 89.9907L229.565 90.2327C224.238 88.4709 218.667 89.1522 213.612 91.6806C208.557 94.2089 203.948 98.4779 199.325 102.974C196.483 105.687 193.663 108.309 190.741 110.426L190.828 110.198C191.057 114.219 191.338 118.171 191.577 121.892L191.245 121.512C193.028 121.212 194.984 121.604 196.92 122.65C198.757 123.632 200.562 124.911 202.29 126.455C203.981 127.917 205.586 129.462 207.183 130.87C208.78 132.279 210.328 133.624 211.87 134.87C217.194 139.38 222.839 142.558 228.447 144.204C232.13 145.24 235.695 145.188 238.891 144.052C239.396 143.911 239.85 143.637 240.234 143.243C240.506 142.957 240.656 142.504 240.655 141.972C240.621 141.556 240.573 141.135 240.51 140.712Z" fill="#F5CF48"/>
<path d="M186.293 125.202C186.293 125.202 184.098 125.011 182.795 132.763C181.491 140.515 180.094 177.9 180.094 177.9L208.298 196.123L192.737 128.3L186.293 125.202Z" fill="#FEF9E7"/>
<path d="M194.611 127.615L213.243 174.152L226.186 154.024C226.186 154.024 206.786 127.21 195.241 124.085L194.611 127.615Z" fill="#FEF9E7"/>
<g opacity="0.3">
<path opacity="0.3" d="M186.293 125.202C186.293 125.202 184.098 125.011 182.795 132.763C181.491 140.516 180.094 177.9 180.094 177.9L208.298 196.123L192.737 128.3L186.293 125.202Z" fill="#F5CF48"/>
</g>
<g opacity="0.3">
<path opacity="0.3" d="M194.611 127.615L213.243 174.152L226.186 154.024C226.186 154.024 206.786 127.21 195.241 124.085L194.611 127.615Z" fill="#F5CF48"/>
</g>
<path d="M186.292 125.202C186.427 125.227 186.564 125.269 186.701 125.327L187.93 125.882L192.755 128.136L192.829 128.158L192.835 128.257C195.718 140.539 201.577 165.896 208.504 196.064L208.626 196.612L208.228 196.358L200.364 191.272L180.045 178.165L179.85 178.106L179.835 177.846C180.499 161.594 181.197 147.711 182.045 138.057C182.216 134.19 182.921 130.608 184.128 127.477C184.471 126.65 184.95 125.97 185.54 125.473C185.699 125.358 185.876 125.276 186.065 125.231C186.192 125.209 186.265 125.219 186.266 125.231L186.077 125.283C185.904 125.35 185.744 125.449 185.601 125.576C185.041 126.095 184.588 126.781 184.263 127.603C183.127 130.773 182.476 134.363 182.337 138.219C181.573 147.898 180.94 161.8 180.304 178.061L180.118 177.676L200.456 190.802L208.32 195.887L208.054 196.183C201.145 166.02 195.387 140.657 192.64 128.368L192.729 128.493L187.925 126.123L186.692 125.494L186.292 125.202Z" fill="#F5CF48"/>
<path d="M194.609 127.615C194.609 127.615 194.605 127.541 194.596 127.38L194.694 126.692L195.145 124.032L195.141 123.958L195.234 123.986C198.011 124.622 202.748 127.567 208.143 132.766C214.581 139.056 220.684 146.128 226.339 153.852L226.518 154.101L226.392 154.293L220.457 163.511L213.439 174.406L213.229 174.719L213.037 174.236L199.747 140.812L195.934 131.142L194.928 128.551C194.802 128.258 194.696 127.957 194.611 127.652C194.611 127.652 194.757 127.964 195.01 128.564L196.071 131.148C197.007 133.462 198.343 136.701 200.015 140.856C203.367 149.17 208.028 160.738 213.422 174.109L213.032 173.991L220.074 163.042L226.019 153.84L226.043 154.261C220.422 146.567 214.371 139.497 207.992 133.171C202.605 127.949 197.995 124.97 195.249 124.246L195.319 124.194L194.789 126.77C194.731 127.032 194.69 127.263 194.644 127.431C194.637 127.495 194.625 127.557 194.609 127.615V127.615Z" fill="#F5CF48"/>
<path d="M182.872 119.19C182.877 119.277 181.641 119.23 179.65 119.246C177.659 119.263 174.934 119.385 171.997 119.795C169.06 120.205 166.494 120.874 164.663 121.449C163.7 121.822 162.707 122.118 161.689 122.335C161.9 122.135 162.141 121.987 162.404 121.895C162.883 121.639 163.596 121.333 164.49 120.984C166.844 120.117 169.291 119.502 171.814 119.143C174.33 118.771 176.914 118.649 179.55 118.778C180.568 118.832 181.385 118.897 181.965 118.988C182.259 118.989 182.565 119.057 182.872 119.19V119.19Z" fill="#F5CF48"/>
<path d="M181.648 114.904C180.613 114.71 179.57 114.438 178.523 114.09C176.013 113.396 173.52 112.896 171.054 112.591C168.175 112.252 165.605 112.215 163.722 112.203C162.734 112.257 161.725 112.223 160.701 112.101C160.936 111.991 161.191 111.934 161.459 111.93C161.966 111.852 162.703 111.784 163.613 111.732C166.007 111.58 168.452 111.647 170.935 111.934C173.418 112.229 175.94 112.794 178.478 113.626C179.408 113.908 180.24 114.246 180.783 114.471C181.073 114.56 181.365 114.706 181.648 114.904V114.904Z" fill="#F5CF48"/>
<path d="M219.774 112.972C219.781 113.083 218.302 112.622 215.928 112.17C212.847 111.572 209.825 111.405 206.908 111.671C204 111.972 201.222 112.727 198.621 113.925C196.637 114.867 195.494 115.651 195.433 115.535C195.66 115.277 195.914 115.061 196.191 114.89C196.902 114.352 197.651 113.884 198.432 113.49C200.998 112.131 203.787 111.298 206.734 111.01C209.691 110.735 212.772 110.971 215.911 111.715C217.106 112.004 218.082 112.288 218.756 112.578C219.094 112.66 219.435 112.792 219.774 112.972Z" fill="#F5CF48"/>
<path d="M218.971 123.647C218.71 123.75 218.431 123.8 218.138 123.796C217.603 123.865 216.811 123.904 215.815 123.906C213.223 123.913 210.575 123.642 207.892 123.096C205.209 122.552 202.499 121.73 199.785 120.636C198.745 120.2 197.911 119.825 197.318 119.523C197.016 119.404 196.714 119.234 196.421 119.02C197.537 119.333 198.657 119.721 199.777 120.184C202.47 121.143 205.155 121.896 207.818 122.441C210.479 122.969 213.115 123.302 215.715 123.438C216.785 123.429 217.872 123.499 218.971 123.647V123.647Z" fill="#F5CF48"/>
<path d="M196.878 120.739C196.405 118.404 195.674 116.077 194.713 113.843C193.916 111.887 193.585 110.084 191.672 108.592C190.823 108.028 189.946 107.712 189.109 107.669C188.273 107.627 187.5 107.858 186.852 108.346C185.558 106.482 183.599 106.727 182.374 107.68C181.781 108.206 181.334 108.961 181.069 109.883C180.804 110.806 180.729 111.872 180.849 112.994C181.118 115.236 181.775 117.52 182.764 119.656C184.068 122.86 185.964 125.728 188.203 127.885C189.217 128.804 190.314 129.415 191.392 129.661C192.47 129.907 193.494 129.781 194.369 129.293C195.49 128.675 196.331 127.523 196.78 125.994C197.229 124.464 197.263 122.63 196.878 120.739V120.739Z" fill="#FEF9E7"/>
<g opacity="0.3">
<path opacity="0.3" d="M196.875 120.739C196.401 118.404 195.671 116.077 194.709 113.843C193.912 111.887 193.581 110.084 191.669 108.592C190.819 108.028 189.942 107.712 189.105 107.669C188.269 107.627 187.496 107.858 186.848 108.346C185.554 106.482 183.595 106.727 182.37 107.68C181.777 108.206 181.33 108.961 181.065 109.883C180.8 110.806 180.725 111.872 180.845 112.994C181.114 115.236 181.771 117.52 182.76 119.656C184.064 122.86 185.96 125.728 188.199 127.885C189.213 128.804 190.31 129.415 191.388 129.661C192.466 129.907 193.49 129.781 194.365 129.293C195.486 128.675 196.327 127.523 196.776 125.994C197.225 124.464 197.259 122.63 196.875 120.739V120.739Z" fill="#F5CF48"/>
</g>
<path d="M196.876 120.739C196.956 120.981 197.013 121.228 197.046 121.471C197.156 122.157 197.216 122.835 197.225 123.496C197.249 125.606 196.691 127.424 195.654 128.618C194.617 129.812 193.169 130.303 191.575 130.002C190.07 129.69 188.534 128.711 187.204 127.217C185.748 125.604 184.469 123.685 183.447 121.578C182.295 119.356 181.423 116.967 180.881 114.549C180.564 113.168 180.498 111.804 180.689 110.586C180.88 109.367 181.322 108.334 181.973 107.584C182.635 106.961 183.453 106.625 184.357 106.604C184.794 106.567 185.265 106.688 185.727 106.958C186.189 107.228 186.628 107.637 187.003 108.149L186.697 108.056C187.495 107.37 188.525 107.145 189.63 107.413C190.61 107.532 191.633 108.113 192.529 109.059C193.294 109.94 193.906 111.051 194.281 112.242C194.643 113.288 195.033 114.209 195.358 115.098C195.873 116.448 196.294 117.827 196.616 119.213C196.705 119.579 196.778 119.947 196.834 120.312C196.847 120.548 196.854 120.671 196.854 120.671C196.854 120.671 196.724 120.158 196.47 119.217C196.097 117.847 195.643 116.489 195.115 115.158C194.783 114.315 194.363 113.349 193.984 112.309C193.631 111.209 193.059 110.186 192.346 109.38C191.515 108.532 190.574 108.019 189.677 107.926C188.66 107.687 187.711 107.893 186.97 108.516L186.832 108.669L186.673 108.438C186.352 108.013 185.979 107.676 185.589 107.456C185.199 107.235 184.802 107.139 184.435 107.175C183.612 107.201 182.868 107.514 182.267 108.086C181.679 108.781 181.281 109.73 181.11 110.845C180.939 111.96 181 113.205 181.287 114.466C181.811 116.793 182.65 119.093 183.756 121.234C184.735 123.26 185.956 125.111 187.347 126.677C188.592 128.098 190.036 129.04 191.456 129.358C192.69 129.616 193.842 129.374 194.769 128.661C195.448 128.15 195.994 127.412 196.374 126.493C196.754 125.575 196.96 124.496 196.978 123.323C196.987 122.477 196.953 121.614 196.876 120.739V120.739Z" fill="#F5CF48"/>
<path d="M186.699 126.321C186.63 126.227 187.111 125.534 187.646 124.176C188.351 122.427 188.73 120.381 188.761 118.164C188.792 115.947 188.473 113.604 187.825 111.279C187.33 109.488 186.866 108.411 186.937 108.371C187.457 109.259 187.866 110.231 188.141 111.23C188.904 113.624 189.287 116.066 189.261 118.367C189.236 120.672 188.795 122.77 187.975 124.495C187.672 125.254 187.238 125.875 186.699 126.321Z" fill="#F5CF48"/>
<path d="M195.439 115.536C195.552 116.452 195.547 117.339 195.424 118.158C195.237 120.192 194.775 122.059 194.057 123.678C193.346 125.317 192.373 126.67 191.187 127.671C190.726 128.132 190.177 128.439 189.567 128.578C191.196 127.217 192.566 125.423 193.622 123.266C195.273 119.523 195.266 115.386 195.439 115.536Z" fill="#F5CF48"/>
<path d="M173.886 110.116C173.434 109.902 172.985 109.639 172.543 109.332L168.903 107.012C164.916 104.372 160.877 102.086 156.817 100.172C152.755 98.2645 148.686 97.1859 144.757 96.9753C143.573 96.928 142.411 96.9815 141.275 97.1354C140.863 97.2222 140.438 97.2681 140.004 97.2726C140.375 97.0729 140.775 96.9414 141.197 96.8805C142.314 96.6236 143.47 96.4947 144.656 96.4948C148.596 96.5679 152.706 97.5923 156.808 99.5242C160.892 101.45 164.95 103.808 168.942 106.573C170.472 107.609 171.7 108.48 172.548 109.09C173.004 109.385 173.452 109.728 173.886 110.116V110.116Z" fill="white"/>
<path d="M169.542 114.455C168.364 114.488 167.158 114.386 165.933 114.151C164.745 114.137 163.529 113.983 162.298 113.692C164.555 113.174 167.033 113.435 169.542 114.455Z" fill="white"/>
<path d="M168.204 121.88C168.269 122.057 167.685 122.391 166.903 122.628C166.122 122.866 165.438 122.901 165.373 122.724C165.309 122.546 165.893 122.212 166.674 121.975C167.455 121.738 168.141 121.751 168.204 121.88Z" fill="white"/>
<path d="M183.393 117.489C183.346 117.475 183.023 116.927 182.69 115.902C182.266 114.544 182.059 113.162 182.085 111.863C182.103 110.576 182.349 109.403 182.803 108.433C183.173 107.706 183.514 107.432 183.561 107.447C182.999 108.804 182.661 110.37 182.563 112.069C182.613 113.834 182.893 115.667 183.393 117.489V117.489Z" fill="white"/>
<path d="M189.941 121.25C189.859 120.299 189.84 119.366 189.882 118.46C189.762 117.501 189.708 116.557 189.721 115.638C190.087 116.622 190.294 117.643 190.326 118.616C190.357 119.59 190.213 120.489 189.904 121.239L189.941 121.25Z" fill="white"/>
<path d="M207.85 98.7855C205.892 100.706 203.822 102.441 201.649 103.982C199.58 105.708 197.404 107.241 195.131 108.572C197.086 106.646 199.156 104.911 201.331 103.375C203.4 101.649 205.576 100.117 207.85 98.7855Z" fill="white"/>
<path d="M203.887 113.916C202.697 114.827 201.302 115.327 199.786 115.383C200.331 114.831 200.987 114.473 201.718 114.328C202.366 113.971 203.104 113.83 203.887 113.916V113.916Z" fill="white"/>
<path d="M184.478 140.655C184.09 138.197 184.047 135.802 184.35 133.6C184.5 131.306 185.001 129.215 185.827 127.444C185.962 127.558 185.218 130.227 184.86 133.876C184.501 137.525 184.618 140.698 184.478 140.655Z" fill="white"/>
<path d="M203.691 144.137C202.026 140.486 200.63 136.704 199.531 132.866C200.429 134.654 201.198 136.519 201.822 138.425C202.586 140.289 203.213 142.205 203.691 144.137V144.137Z" fill="white"/>
</g>
<defs>
<clipPath id="clip0_459_7986">
<rect x="0.898438" width="595.7" height="205.077" rx="42" fill="white"/>
</clipPath>
</defs>
</svg>
