<svg width="68" height="68" viewBox="0 0 68 68" fill="none" xmlns="http://www.w3.org/2000/svg">
<circle opacity="0.1" cx="34" cy="34" r="34" fill="white"/>
<path d="M38 24H30C26 24 24 26 24 30V43C24 43.55 24.45 44 25 44H38C42 44 44 42 44 38V30C44 26 42 24 38 24ZM36 37.25H29C28.59 37.25 28.25 36.91 28.25 36.5C28.25 36.09 28.59 35.75 29 35.75H36C36.41 35.75 36.75 36.09 36.75 36.5C36.75 36.91 36.41 37.25 36 37.25ZM39 32.25H29C28.59 32.25 28.25 31.91 28.25 31.5C28.25 31.09 28.59 30.75 29 30.75H39C39.41 30.75 39.75 31.09 39.75 31.5C39.75 31.91 39.41 32.25 39 32.25Z" fill="#FFFFFE"/>
</svg>
