<svg width="596" height="206" viewBox="0 0 596 206" fill="none" xmlns="http://www.w3.org/2000/svg">
<g clip-path="url(#clip0_460_8852)">
<rect y="0.145905" width="595.7" height="205.077" rx="42" fill="#F3F2FD"/>
<rect width="176.067" height="223.018" rx="17" transform="matrix(-1 8.74228e-08 -0.302536 0.953138 241.637 65.9316)" fill="#7D209F"/>
<path d="M228.891 89.321L234.725 79.9887L228.891 69.3663L216.662 55.3304L208.73 51.0946L206.974 102.648L228.891 89.321Z" fill="#7D209F"/>
<rect width="176.067" height="223.018" rx="17" transform="matrix(-1 8.74228e-08 -0.302536 0.953138 226.781 50.1459)" fill="#EBE9FB"/>
<mask id="mask0_460_8852" style="mask-type:alpha" maskUnits="userSpaceOnUse" x="10" y="66" width="363" height="301">
<path d="M342.503 67.0938L120.058 66.6432C114.792 66.4346 108.426 69.4271 102.359 74.9623C96.2931 80.4976 90.9568 90.6743 87.6435 98.711L14.5217 325.217C11.2084 333.254 10.1227 341.044 11.5033 346.875C12.884 352.705 16.618 356.098 21.8838 356.306L266.59 366.31C271.451 366.503 277.327 363.74 282.927 358.631C288.527 353.521 293.391 346.483 296.449 339.065L371.636 102.769C371.882 93.378 373.493 90.8664 368.909 83.0848C364.324 75.3032 347.373 67.2631 342.513 67.0705L342.503 67.0938Z" fill="white"/>
</mask>
<g mask="url(#mask0_460_8852)">
<g opacity="0.2">
<path d="M544.816 -205.716L269.325 466.409" stroke="#7D209F" strokeWidth="0.2"/>
<path d="M540.156 -205.901L264.665 466.224" stroke="#7D209F" strokeWidth="0.2"/>
<path d="M535.496 -206.085L260.005 466.04" stroke="#7D209F" strokeWidth="0.2"/>
<path d="M530.828 -206.271L255.337 465.854" stroke="#7D209F" strokeWidth="0.2"/>
<path d="M526.172 -206.455L250.681 465.67" stroke="#7D209F" strokeWidth="0.2"/>
<path d="M521.512 -206.64L246.021 465.485" stroke="#7D209F" strokeWidth="0.2"/>
<path d="M516.852 -206.824L241.36 465.301" stroke="#7D209F" strokeWidth="0.2"/>
<path d="M512.184 -207.01L236.692 465.115" stroke="#7D209F" strokeWidth="0.2"/>
<path d="M507.523 -207.193L232.032 464.932" stroke="#7D209F" strokeWidth="0.2"/>
<path d="M502.863 -207.378L227.372 464.747" stroke="#7D209F" strokeWidth="0.2"/>
<path d="M498.203 -207.563L222.712 464.562" stroke="#7D209F" strokeWidth="0.2"/>
<path d="M493.543 -207.748L218.052 464.377" stroke="#7D209F" strokeWidth="0.2"/>
<path d="M488.879 -207.932L213.388 464.193" stroke="#7D209F" strokeWidth="0.2"/>
<path d="M484.219 -208.117L208.728 464.008" stroke="#7D209F" strokeWidth="0.2"/>
<path d="M479.559 -208.302L204.067 463.823" stroke="#7D209F" strokeWidth="0.2"/>
<path d="M474.898 -208.486L199.407 463.639" stroke="#7D209F" strokeWidth="0.2"/>
<path d="M470.234 -208.672L194.743 463.453" stroke="#7D209F" strokeWidth="0.2"/>
<path d="M465.574 -208.856L190.083 463.269" stroke="#7D209F" strokeWidth="0.2"/>
<path d="M460.914 -209.04L185.423 463.085" stroke="#7D209F" strokeWidth="0.2"/>
<path d="M456.25 -209.226L180.759 462.899" stroke="#7D209F" strokeWidth="0.2"/>
<path d="M451.59 -209.41L176.099 462.715" stroke="#7D209F" strokeWidth="0.2"/>
<path d="M446.934 -209.594L171.442 462.531" stroke="#7D209F" strokeWidth="0.2"/>
<path d="M442.27 -209.78L166.778 462.345" stroke="#7D209F" strokeWidth="0.2"/>
<path d="M437.609 -209.964L162.118 462.161" stroke="#7D209F" strokeWidth="0.2"/>
<path d="M432.949 -210.149L157.458 461.976" stroke="#7D209F" strokeWidth="0.2"/>
<path d="M428.285 -210.333L152.794 461.792" stroke="#7D209F" strokeWidth="0.2"/>
<path d="M423.625 -210.519L148.134 461.606" stroke="#7D209F" strokeWidth="0.2"/>
<path d="M418.965 -210.702L143.474 461.423" stroke="#7D209F" strokeWidth="0.2"/>
<path d="M414.305 -210.887L138.813 461.238" stroke="#7D209F" strokeWidth="0.2"/>
<path d="M409.637 -211.072L134.146 461.053" stroke="#7D209F" strokeWidth="0.2"/>
<path d="M404.977 -211.257L129.485 460.868" stroke="#7D209F" strokeWidth="0.2"/>
<path d="M400.316 -211.441L124.825 460.684" stroke="#7D209F" strokeWidth="0.2"/>
<path d="M395.656 -211.627L120.165 460.498" stroke="#7D209F" strokeWidth="0.2"/>
<path d="M390.992 -211.811L115.501 460.314" stroke="#7D209F" strokeWidth="0.2"/>
<path d="M386.34 -211.995L110.849 460.13" stroke="#7D209F" strokeWidth="0.2"/>
<path d="M381.672 -212.18L106.181 459.945" stroke="#7D209F" strokeWidth="0.2"/>
<path d="M377.012 -212.365L101.521 459.76" stroke="#7D209F" strokeWidth="0.2"/>
<path d="M372.352 -212.549L96.8604 459.576" stroke="#7D209F" strokeWidth="0.2"/>
<path d="M367.688 -212.734L92.1963 459.391" stroke="#7D209F" strokeWidth="0.2"/>
<path d="M363.027 -212.919L87.5362 459.206" stroke="#7D209F" strokeWidth="0.2"/>
<path d="M358.363 -213.104L82.8721 459.021" stroke="#7D209F" strokeWidth="0.2"/>
<path d="M353.707 -213.287L78.2158 458.838" stroke="#7D209F" strokeWidth="0.2"/>
<path d="M349.047 -213.473L73.5557 458.652" stroke="#7D209F" strokeWidth="0.2"/>
<path d="M344.383 -213.658L68.8916 458.467" stroke="#7D209F" strokeWidth="0.2"/>
<path d="M339.723 -213.842L64.2315 458.283" stroke="#7D209F" strokeWidth="0.2"/>
<path d="M335.055 -214.027L59.5635 458.097" stroke="#7D209F" strokeWidth="0.2"/>
<path d="M330.395 -214.212L54.9033 457.913" stroke="#7D209F" strokeWidth="0.2"/>
<path d="M325.738 -214.397L50.2471 457.728" stroke="#7D209F" strokeWidth="0.2"/>
<path d="M321.078 -214.581L45.5869 457.544" stroke="#7D209F" strokeWidth="0.2"/>
<path d="M316.418 -214.766L40.9268 457.359" stroke="#7D209F" strokeWidth="0.2"/>
<path d="M311.75 -214.95L36.2588 457.175" stroke="#7D209F" strokeWidth="0.2"/>
<path d="M307.09 -215.136L31.5987 456.989" stroke="#7D209F" strokeWidth="0.2"/>
<path d="M302.43 -215.32L26.9385 456.805" stroke="#7D209F" strokeWidth="0.2"/>
<path d="M297.77 -215.505L22.2783 456.62" stroke="#7D209F" strokeWidth="0.2"/>
<path d="M293.109 -215.689L17.6182 456.436" stroke="#7D209F" strokeWidth="0.2"/>
<path d="M288.453 -215.874L12.9619 456.251" stroke="#7D209F" strokeWidth="0.2"/>
<path d="M283.785 -216.058L8.29397 456.067" stroke="#7D209F" strokeWidth="0.2"/>
<path d="M279.125 -216.243L3.63381 455.882" stroke="#7D209F" strokeWidth="0.2"/>
<path d="M274.461 -216.428L-1.03025 455.697" stroke="#7D209F" strokeWidth="0.2"/>
<path d="M269.801 -216.613L-5.69041 455.512" stroke="#7D209F" strokeWidth="0.2"/>
<path d="M265.141 -216.797L-10.3506 455.328" stroke="#7D209F" strokeWidth="0.2"/>
<path d="M260.48 -216.982L-15.0107 455.143" stroke="#7D209F" strokeWidth="0.2"/>
<path d="M255.82 -217.166L-19.6709 454.959" stroke="#7D209F" strokeWidth="0.2"/>
<path d="M251.16 -217.351L-24.331 454.774" stroke="#7D209F" strokeWidth="0.2"/>
<path d="M246.496 -217.536L-28.9951 454.589" stroke="#7D209F" strokeWidth="0.2"/>
<path d="M241.836 -217.721L-33.6553 454.404" stroke="#7D209F" strokeWidth="0.2"/>
<path d="M237.176 -217.905L-38.3154 454.22" stroke="#7D209F" strokeWidth="0.2"/>
<path d="M232.516 -218.09L-42.9756 454.035" stroke="#7D209F" strokeWidth="0.2"/>
<path d="M227.852 -218.275L-47.6396 453.85" stroke="#7D209F" strokeWidth="0.2"/>
<path d="M223.191 -218.459L-52.2998 453.666" stroke="#7D209F" strokeWidth="0.2"/>
<path d="M218.531 -218.643L-56.9599 453.482" stroke="#7D209F" strokeWidth="0.2"/>
<path d="M213.863 -218.829L-61.6279 453.296" stroke="#7D209F" strokeWidth="0.2"/>
<path d="M209.203 -219.013L-66.2881 453.112" stroke="#7D209F" strokeWidth="0.2"/>
<path d="M204.543 -219.197L-70.9482 452.928" stroke="#7D209F" strokeWidth="0.2"/>
<path d="M199.879 -219.384L-75.6123 452.741" stroke="#7D209F" strokeWidth="0.2"/>
<path d="M195.223 -219.567L-80.2685 452.558" stroke="#7D209F" strokeWidth="0.2"/>
<path d="M190.566 -219.752L-84.9248 452.373" stroke="#7D209F" strokeWidth="0.2"/>
<path d="M185.898 -219.937L-89.5928 452.188" stroke="#7D209F" strokeWidth="0.2"/>
<path d="M181.238 -220.122L-94.2529 452.003" stroke="#7D209F" strokeWidth="0.2"/>
<path d="M176.578 -220.306L-98.9131 451.819" stroke="#7D209F" strokeWidth="0.2"/>
<path d="M171.918 -220.49L-103.573 451.635" stroke="#7D209F" strokeWidth="0.2"/>
<path d="M167.254 -220.675L-108.237 451.45" stroke="#7D209F" strokeWidth="0.2"/>
<path d="M162.594 -220.86L-112.897 451.265" stroke="#7D209F" strokeWidth="0.2"/>
<path d="M157.934 -221.044L-117.558 451.081" stroke="#7D209F" strokeWidth="0.2"/>
<path d="M153.273 -221.229L-122.218 450.896" stroke="#7D209F" strokeWidth="0.2"/>
<path d="M148.613 -221.414L-126.878 450.711" stroke="#7D209F" strokeWidth="0.2"/>
<path d="M143.953 -221.598L-131.538 450.527" stroke="#7D209F" strokeWidth="0.2"/>
<path d="M139.289 -221.783L-136.202 450.342" stroke="#7D209F" strokeWidth="0.2"/>
<path d="M134.629 -221.968L-140.862 450.157" stroke="#7D209F" strokeWidth="0.2"/>
<path d="M129.969 -222.152L-145.522 449.973" stroke="#7D209F" strokeWidth="0.2"/>
<path d="M125.305 -222.338L-150.187 449.787" stroke="#7D209F" strokeWidth="0.2"/>
<path d="M120.645 -222.522L-154.847 449.603" stroke="#7D209F" strokeWidth="0.2"/>
<path d="M115.984 -222.707L-159.507 449.418" stroke="#7D209F" strokeWidth="0.2"/>
<path d="M111.316 -222.892L-164.175 449.233" stroke="#7D209F" strokeWidth="0.2"/>
<path d="M106.656 -223.076L-168.835 449.049" stroke="#7D209F" strokeWidth="0.2"/>
<path d="M102.004 -223.261L-173.487 448.864" stroke="#7D209F" strokeWidth="0.2"/>
<path d="M97.3359 -223.445L-178.155 448.68" stroke="#7D209F" strokeWidth="0.2"/>
<path d="M92.6758 -223.631L-182.815 448.494" stroke="#7D209F" strokeWidth="0.2"/>
<path d="M88.0195 -223.815L-187.472 448.31" stroke="#7D209F" strokeWidth="0.2"/>
<path d="M83.3516 -224L-192.14 448.125" stroke="#7D209F" strokeWidth="0.2"/>
<path d="M78.6914 -224.185L-196.8 447.94" stroke="#7D209F" strokeWidth="0.2"/>
<path d="M74.0312 -224.369L-201.46 447.756" stroke="#7D209F" strokeWidth="0.2"/>
<path d="M69.3711 -224.553L-206.12 447.572" stroke="#7D209F" strokeWidth="0.2"/>
<path d="M64.707 -224.739L-210.784 447.386" stroke="#7D209F" strokeWidth="0.2"/>
<path d="M60.0469 -224.923L-215.444 447.202" stroke="#7D209F" strokeWidth="0.2"/>
<path d="M55.3906 -225.107L-220.101 447.018" stroke="#7D209F" strokeWidth="0.2"/>
<path d="M50.7266 -225.293L-224.765 446.832" stroke="#7D209F" strokeWidth="0.2"/>
<path d="M46.0664 -225.477L-229.425 446.648" stroke="#7D209F" strokeWidth="0.2"/>
<path d="M41.4062 -225.661L-234.085 446.464" stroke="#7D209F" strokeWidth="0.2"/>
<path d="M36.7422 -225.846L-238.749 446.279" stroke="#7D209F" strokeWidth="0.2"/>
<path d="M32.082 -226.032L-243.409 446.093" stroke="#7D209F" strokeWidth="0.2"/>
<path d="M27.4219 -226.216L-248.069 445.909" stroke="#7D209F" strokeWidth="0.2"/>
<path d="M22.7578 -226.4L-252.733 445.725" stroke="#7D209F" strokeWidth="0.2"/>
<path d="M18.0977 -226.586L-257.394 445.539" stroke="#7D209F" strokeWidth="0.2"/>
<path d="M13.4375 -226.769L-262.054 445.356" stroke="#7D209F" strokeWidth="0.2"/>
</g>
<g opacity="0.2">
<path d="M687.957 204.837L-300.514 338.138" stroke="#7D209F" strokeWidth="0.2"/>
<path d="M685.789 200.708L-302.681 334.009" stroke="#7D209F" strokeWidth="0.2"/>
<path d="M683.621 196.579L-304.849 329.88" stroke="#7D209F" strokeWidth="0.2"/>
<path d="M681.449 192.45L-307.021 325.751" stroke="#7D209F" strokeWidth="0.2"/>
<path d="M679.277 188.32L-309.193 321.622" stroke="#7D209F" strokeWidth="0.2"/>
<path d="M677.109 184.191L-311.361 317.493" stroke="#7D209F" strokeWidth="0.2"/>
<path d="M674.938 180.063L-313.533 313.364" stroke="#7D209F" strokeWidth="0.2"/>
<path d="M672.77 175.934L-315.701 309.235" stroke="#7D209F" strokeWidth="0.2"/>
<path d="M670.598 171.804L-317.873 305.106" stroke="#7D209F" strokeWidth="0.2"/>
<path d="M668.426 167.676L-320.045 300.977" stroke="#7D209F" strokeWidth="0.2"/>
<path d="M666.258 163.547L-322.213 296.848" stroke="#7D209F" strokeWidth="0.2"/>
<path d="M664.086 159.417L-324.385 292.718" stroke="#7D209F" strokeWidth="0.2"/>
<path d="M661.91 155.288L-326.56 288.589" stroke="#7D209F" strokeWidth="0.2"/>
<path d="M659.746 151.159L-328.724 284.461" stroke="#7D209F" strokeWidth="0.2"/>
<path d="M657.57 147.03L-330.9 280.332" stroke="#7D209F" strokeWidth="0.2"/>
<path d="M655.398 142.901L-333.072 276.202" stroke="#7D209F" strokeWidth="0.2"/>
<path d="M653.23 138.772L-335.24 272.073" stroke="#7D209F" strokeWidth="0.2"/>
<path d="M651.059 134.643L-337.412 267.944" stroke="#7D209F" strokeWidth="0.2"/>
<path d="M648.887 130.513L-339.584 263.815" stroke="#7D209F" strokeWidth="0.2"/>
<path d="M646.719 126.385L-341.752 259.687" stroke="#7D209F" strokeWidth="0.2"/>
<path d="M644.551 122.257L-343.92 255.558" stroke="#7D209F" strokeWidth="0.2"/>
<path d="M642.379 118.127L-346.092 251.428" stroke="#7D209F" strokeWidth="0.2"/>
<path d="M640.207 113.998L-348.264 247.299" stroke="#7D209F" strokeWidth="0.2"/>
<path d="M638.035 109.868L-350.435 243.169" stroke="#7D209F" strokeWidth="0.2"/>
<path d="M635.867 105.739L-352.603 239.041" stroke="#7D209F" strokeWidth="0.2"/>
<path d="M633.695 101.61L-354.775 234.912" stroke="#7D209F" strokeWidth="0.2"/>
<path d="M631.527 97.4818L-356.943 230.783" stroke="#7D209F" strokeWidth="0.2"/>
<path d="M629.355 93.352L-359.115 226.653" stroke="#7D209F" strokeWidth="0.2"/>
<path d="M627.18 89.2231L-361.291 222.524" stroke="#7D209F" strokeWidth="0.2"/>
<path d="M625.016 85.0942L-363.455 218.395" stroke="#7D209F" strokeWidth="0.2"/>
<path d="M622.84 80.9654L-365.631 214.267" stroke="#7D209F" strokeWidth="0.2"/>
<path d="M620.668 76.8355L-367.803 210.137" stroke="#7D209F" strokeWidth="0.2"/>
<path d="M618.5 72.7068L-369.971 206.008" stroke="#7D209F" strokeWidth="0.2"/>
<path d="M616.328 68.5772L-372.142 201.878" stroke="#7D209F" strokeWidth="0.2"/>
<path d="M614.156 64.4484L-374.314 197.75" stroke="#7D209F" strokeWidth="0.2"/>
<path d="M611.988 60.3196L-376.482 193.621" stroke="#7D209F" strokeWidth="0.2"/>
<path d="M609.816 56.1909L-378.654 189.492" stroke="#7D209F" strokeWidth="0.2"/>
<path d="M607.648 52.0619L-380.822 185.363" stroke="#7D209F" strokeWidth="0.2"/>
<path d="M605.477 47.9321L-382.994 181.233" stroke="#7D209F" strokeWidth="0.2"/>
<path d="M603.305 43.8034L-385.166 177.105" stroke="#7D209F" strokeWidth="0.2"/>
<path d="M601.129 39.6735L-387.342 172.975" stroke="#7D209F" strokeWidth="0.2"/>
<path d="M598.965 35.5448L-389.506 168.846" stroke="#7D209F" strokeWidth="0.2"/>
<path d="M596.797 31.4169L-391.674 164.718" stroke="#7D209F" strokeWidth="0.2"/>
<path d="M594.625 27.2881L-393.846 160.589" stroke="#7D209F" strokeWidth="0.2"/>
<path d="M592.449 23.1583L-396.021 156.46" stroke="#7D209F" strokeWidth="0.2"/>
<path d="M590.281 19.0294L-398.189 152.331" stroke="#7D209F" strokeWidth="0.2"/>
<path d="M588.109 14.9008L-400.361 148.202" stroke="#7D209F" strokeWidth="0.2"/>
<path d="M585.941 10.7718L-402.529 144.073" stroke="#7D209F" strokeWidth="0.2"/>
<path d="M583.77 6.64197L-404.701 139.943" stroke="#7D209F" strokeWidth="0.2"/>
<path d="M581.598 2.51313L-406.873 135.814" stroke="#7D209F" strokeWidth="0.2"/>
<path d="M579.43 -1.61674L-409.041 131.684" stroke="#7D209F" strokeWidth="0.2"/>
<path d="M577.258 -5.74536L-411.213 127.556" stroke="#7D209F" strokeWidth="0.2"/>
<path d="M575.086 -9.8742L-413.385 123.427" stroke="#7D209F" strokeWidth="0.2"/>
<path d="M572.918 -14.0041L-415.553 119.297" stroke="#7D209F" strokeWidth="0.2"/>
<path d="M570.746 -18.1329L-417.724 115.168" stroke="#7D209F" strokeWidth="0.2"/>
<path d="M568.574 -22.2617L-419.896 111.039" stroke="#7D209F" strokeWidth="0.2"/>
<path d="M566.406 -26.3915L-422.064 106.91" stroke="#7D209F" strokeWidth="0.2"/>
<path d="M564.234 -30.5204L-424.236 102.781" stroke="#7D209F" strokeWidth="0.2"/>
<path d="M562.059 -34.6489L-426.412 98.6523" stroke="#7D209F" strokeWidth="0.2"/>
<path d="M559.891 -38.7777L-428.58 94.5235" stroke="#7D209F" strokeWidth="0.2"/>
<path d="M557.719 -42.9075L-430.752 90.3937" stroke="#7D209F" strokeWidth="0.2"/>
<path d="M555.547 -47.0365L-432.924 86.2648" stroke="#7D209F" strokeWidth="0.2"/>
<path d="M553.379 -51.1651L-435.092 82.1361" stroke="#7D209F" strokeWidth="0.2"/>
<path d="M551.207 -55.295L-437.264 78.0062" stroke="#7D209F" strokeWidth="0.2"/>
<path d="M549.035 -59.4239L-439.435 73.8774" stroke="#7D209F" strokeWidth="0.2"/>
<path d="M546.867 -63.5525L-441.603 69.7487" stroke="#7D209F" strokeWidth="0.2"/>
</g>
</g>
<circle cx="12.8049" cy="12.8049" r="12.8049" transform="matrix(-1 8.74228e-08 -0.302536 0.953138 182.871 109.733)" fill="#7D209F"/>
<circle cx="12.8049" cy="12.8049" r="12.8049" transform="matrix(-1 8.74228e-08 -0.302536 0.953138 167.375 158.552)" fill="#7D209F"/>
<circle cx="12.8049" cy="12.8049" r="12.8049" transform="matrix(-1 8.74228e-08 -0.302536 0.953138 131.648 109.733)" fill="#7D209F"/>
<circle cx="12.8049" cy="12.8049" r="12.8049" transform="matrix(-1 8.74228e-08 -0.302536 0.953138 116.152 158.552)" fill="#7D209F"/>
<circle cx="12.8049" cy="12.8049" r="12.8049" transform="matrix(-1 8.74228e-08 -0.302536 0.953138 80.4297 109.733)" fill="#7D209F"/>
<circle cx="12.8049" cy="12.8049" r="12.8049" transform="matrix(-1 8.74228e-08 -0.302536 0.953138 64.9336 158.552)" fill="#7D209F"/>
<rect width="129.116" height="20.2744" transform="matrix(-1 8.74228e-08 -0.302536 0.953138 196.848 69.05)" fill="#7D209F"/>
</g>
<defs>
<clipPath id="clip0_460_8852">
<rect y="0.145905" width="595.7" height="205.077" rx="42" fill="white"/>
</clipPath>
</defs>
</svg>
