<svg width="20" height="20" viewBox="0 0 20 20" fill="none" xmlns="http://www.w3.org/2000/svg">
<path fill-rule="evenodd" clip-rule="evenodd" d="M7.67614 1.70372C7.67614 1.13098 8.04901 0.666687 8.50896 0.666687L18.5025 0.666688C18.9624 0.666688 19.3353 1.13099 19.3353 1.70372C19.3353 2.27646 18.9624 2.74076 18.5025 2.74076L8.50896 2.74076C8.04901 2.74076 7.67614 2.27646 7.67614 1.70372ZM7.67578 18.2963C7.67578 17.7236 8.04864 17.2593 8.50859 17.2593L18.5021 17.2593C18.9621 17.2593 19.335 17.7236 19.335 18.2963C19.335 18.8691 18.9621 19.3334 18.5021 19.3334H8.50859C8.04864 19.3334 7.67578 18.8691 7.67578 18.2963Z" fill="#7165E3"/>
<path fill-rule="evenodd" clip-rule="evenodd" d="M4.93307 6.53343C5.2583 6.93842 5.2583 7.59503 4.93307 8.00002L3.85633 8.96297H18.5016C18.9616 8.96297 19.3345 9.42726 19.3345 10C19.3345 10.5727 18.9616 11.037 18.5016 11.037H3.85633L4.93307 12C5.2583 12.405 5.2583 13.0616 4.93307 13.4666C4.60783 13.8716 4.08053 13.8716 3.75529 13.4666L1.45772 10.8868C1.00754 10.3813 1.00754 9.61871 1.45772 9.11324L3.75529 6.53343C4.08053 6.12844 4.60783 6.12844 4.93307 6.53343Z" fill="#7165E3"/>
</svg>
