<svg width="12" height="11" viewBox="0 0 12 11" fill="none" xmlns="http://www.w3.org/2000/svg">
<path d="M5.55 10.875H3.45C1.495 10.875 0.625 10.005 0.625 8.05V5.95C0.625 3.995 1.495 3.125 3.45 3.125H5.55C7.505 3.125 8.375 3.995 8.375 5.95V8.05C8.375 10.005 7.505 10.875 5.55 10.875ZM3.45 3.875C1.9 3.875 1.375 4.4 1.375 5.95V8.05C1.375 9.6 1.9 10.125 3.45 10.125H5.55C7.1 10.125 7.625 9.6 7.625 8.05V5.95C7.625 4.4 7.1 3.875 5.55 3.875H3.45V3.875Z" fill="#7165E3"/>
<path d="M8.55 7.875H8C7.795 7.875 7.625 7.705 7.625 7.5V5.95C7.625 4.4 7.1 3.875 5.55 3.875H4C3.795 3.875 3.625 3.705 3.625 3.5V2.95C3.625 0.995 4.495 0.125 6.45 0.125H8.55C10.505 0.125 11.375 0.995 11.375 2.95V5.05C11.375 7.005 10.505 7.875 8.55 7.875ZM8.375 7.125H8.55C10.1 7.125 10.625 6.6 10.625 5.05V2.95C10.625 1.4 10.1 0.875 8.55 0.875H6.45C4.9 0.875 4.375 1.4 4.375 2.95V3.125H5.55C7.505 3.125 8.375 3.995 8.375 5.95V7.125Z" fill="#7165E3"/>
</svg>
