<svg width="562" height="224" viewBox="0 0 562 224" fill="none" xmlns="http://www.w3.org/2000/svg">
<g clip-path="url(#clip0_401_3613)">
<path d="M561.534 177.973V72.0461C561.534 48.5678 543.863 28.8524 520.524 26.293L448.018 18.3416C336.851 6.15042 224.684 6.15041 113.516 18.3416L41.0099 26.293C17.6714 28.8524 0 48.5678 0 72.0462V177.973C0 203.393 20.6072 224 46.0274 224H515.507C540.927 224 561.534 203.393 561.534 177.973Z" fill="#EBE9FB"/>
<path d="M106.269 72.9818L252.153 117.234C255.022 118.105 257.861 120.453 260.044 123.763C262.227 127.072 263.575 131.071 263.792 134.881L270.101 245.594C270.318 249.403 269.386 252.711 267.51 254.789C265.635 256.868 262.968 257.546 260.099 256.675L114.215 212.423C111.565 211.619 108.945 209.452 106.93 206.397C104.915 203.342 103.671 199.65 103.47 196.134L97.0349 83.1998C96.8345 79.6833 97.6947 76.6301 99.4262 74.7117C101.158 72.7934 103.619 72.1672 106.268 72.9708L106.269 72.9818Z" fill="#7165E3"/>
<path d="M100.522 85.9616L97.925 77.3737L100.319 73.7666L116.205 62.1183L122.526 60.5689L113.111 100.181L100.522 85.9616Z" fill="#7165E3"/>
<path d="M123.815 60.7738L269.699 105.026C272.569 105.897 275.408 108.245 277.591 111.555C279.774 114.864 281.122 118.863 281.339 122.673L287.648 233.386C287.865 237.195 286.933 240.503 285.057 242.581C283.181 244.66 280.515 245.338 277.645 244.467L131.761 200.215C129.112 199.411 126.492 197.244 124.477 194.189C122.462 191.134 121.218 187.442 121.017 183.926L114.582 70.9918C114.381 67.4753 115.242 64.4221 116.973 62.5037C118.705 60.5854 121.166 59.9592 123.815 60.7628L123.815 60.7738Z" fill="#F7F6FD"/>
<mask id="mask0_401_3613" style="mask-type:alpha" maskUnits="userSpaceOnUse" x="114" y="60" width="174" height="185">
<path d="M123.806 60.7731L269.694 105.014C272.564 105.884 275.402 108.232 277.585 111.541C279.769 114.85 281.117 118.85 281.335 122.659L287.653 233.372C287.87 237.181 286.938 240.489 285.063 242.567C283.187 244.646 280.521 245.324 277.651 244.454L131.763 200.213C129.114 199.41 126.494 197.243 124.479 194.188C122.463 191.133 121.219 187.442 121.018 183.925L114.573 70.9919C114.372 67.4754 115.232 64.4221 116.964 62.5036C118.695 60.5851 121.156 59.9587 123.805 60.7621L123.806 60.7731Z" fill="#F7F6FD"/>
</mask>
<g mask="url(#mask0_401_3613)">
<path d="M79.166 -213.558L116.124 458.236" stroke="#D7D4F7" strokeWidth="0.306849"/>
<path d="M83.2988 -212.304L120.257 459.49" stroke="#D7D4F7" strokeWidth="0.306849"/>
<path d="M87.4375 -211.05L124.396 460.744" stroke="#D7D4F7" strokeWidth="0.306849"/>
<path d="M91.5684 -209.796L128.527 461.998" stroke="#D7D4F7" strokeWidth="0.306849"/>
<path d="M95.7012 -208.542L132.66 463.252" stroke="#D7D4F7" strokeWidth="0.306849"/>
<path d="M99.8359 -207.288L136.794 464.506" stroke="#D7D4F7" strokeWidth="0.306849"/>
<path d="M103.973 -206.034L140.931 465.76" stroke="#D7D4F7" strokeWidth="0.306849"/>
<path d="M108.109 -204.78L145.068 467.014" stroke="#D7D4F7" strokeWidth="0.306849"/>
<path d="M112.244 -203.527L149.202 468.267" stroke="#D7D4F7" strokeWidth="0.306849"/>
<path d="M116.379 -202.272L153.337 469.521" stroke="#D7D4F7" strokeWidth="0.306849"/>
<path d="M120.512 -201.019L157.47 470.775" stroke="#D7D4F7" strokeWidth="0.306849"/>
<path d="M124.648 -199.765L161.607 472.029" stroke="#D7D4F7" strokeWidth="0.306849"/>
<path d="M128.781 -198.511L165.74 473.283" stroke="#D7D4F7" strokeWidth="0.306849"/>
<path d="M132.918 -197.257L169.876 474.537" stroke="#D7D4F7" strokeWidth="0.306849"/>
<path d="M137.053 -196.003L174.011 475.791" stroke="#D7D4F7" strokeWidth="0.306849"/>
<path d="M141.189 -194.749L178.148 477.045" stroke="#D7D4F7" strokeWidth="0.306849"/>
<path d="M145.322 -193.495L182.281 478.299" stroke="#D7D4F7" strokeWidth="0.306849"/>
<path d="M149.455 -192.242L186.413 479.552" stroke="#D7D4F7" strokeWidth="0.306849"/>
<path d="M153.594 -190.988L190.552 480.806" stroke="#D7D4F7" strokeWidth="0.306849"/>
<path d="M157.725 -189.734L194.683 482.06" stroke="#D7D4F7" strokeWidth="0.306849"/>
<path d="M161.861 -188.48L198.82 483.314" stroke="#D7D4F7" strokeWidth="0.306849"/>
<path d="M165.996 -187.226L202.954 484.568" stroke="#D7D4F7" strokeWidth="0.306849"/>
<path d="M170.133 -185.972L207.091 485.822" stroke="#D7D4F7" strokeWidth="0.306849"/>
<path d="M174.266 -184.718L211.224 487.076" stroke="#D7D4F7" strokeWidth="0.306849"/>
<path d="M178.4 -183.464L215.359 488.33" stroke="#D7D4F7" strokeWidth="0.306849"/>
<path d="M182.537 -182.21L219.495 489.584" stroke="#D7D4F7" strokeWidth="0.306849"/>
<path d="M186.67 -180.956L223.628 490.838" stroke="#D7D4F7" strokeWidth="0.306849"/>
<path d="M190.807 -179.703L227.765 492.091" stroke="#D7D4F7" strokeWidth="0.306849"/>
<path d="M194.939 -178.449L231.898 493.345" stroke="#D7D4F7" strokeWidth="0.306849"/>
<path d="M199.078 -177.195L236.036 494.599" stroke="#D7D4F7" strokeWidth="0.306849"/>
<path d="M203.207 -175.941L240.165 495.853" stroke="#D7D4F7" strokeWidth="0.306849"/>
<path d="M207.342 -174.687L244.3 497.107" stroke="#D7D4F7" strokeWidth="0.306849"/>
<path d="M211.479 -173.433L248.437 498.361" stroke="#D7D4F7" strokeWidth="0.306849"/>
<path d="M215.613 -172.179L252.572 499.615" stroke="#D7D4F7" strokeWidth="0.306849"/>
<path d="M219.75 -170.925L256.708 500.869" stroke="#D7D4F7" strokeWidth="0.306849"/>
<path d="M223.881 -169.671L260.839 502.123" stroke="#D7D4F7" strokeWidth="0.306849"/>
<path d="M228.02 -168.417L264.978 503.376" stroke="#D7D4F7" strokeWidth="0.306849"/>
<path d="M232.15 -167.164L269.109 504.63" stroke="#D7D4F7" strokeWidth="0.306849"/>
<path d="M236.285 -165.91L273.244 505.884" stroke="#D7D4F7" strokeWidth="0.306849"/>
<path d="M240.422 -164.656L277.38 507.138" stroke="#D7D4F7" strokeWidth="0.306849"/>
<path d="M244.561 -163.402L281.519 508.392" stroke="#D7D4F7" strokeWidth="0.306849"/>
<path d="M248.693 -162.148L285.652 509.646" stroke="#D7D4F7" strokeWidth="0.306849"/>
<path d="M252.824 -160.894L289.783 510.9" stroke="#D7D4F7" strokeWidth="0.306849"/>
<path d="M256.961 -159.64L293.919 512.154" stroke="#D7D4F7" strokeWidth="0.306849"/>
<path d="M261.096 -158.386L298.054 513.408" stroke="#D7D4F7" strokeWidth="0.306849"/>
<path d="M265.232 -157.133L302.191 514.661" stroke="#D7D4F7" strokeWidth="0.306849"/>
<path d="M269.365 -155.879L306.324 515.915" stroke="#D7D4F7" strokeWidth="0.306849"/>
<path d="M273.504 -154.625L310.462 517.169" stroke="#D7D4F7" strokeWidth="0.306849"/>
<path d="M277.635 -153.371L314.593 518.423" stroke="#D7D4F7" strokeWidth="0.306849"/>
<path d="M281.77 -152.117L318.728 519.677" stroke="#D7D4F7" strokeWidth="0.306849"/>
<path d="M285.906 -150.863L322.865 520.931" stroke="#D7D4F7" strokeWidth="0.306849"/>
<path d="M-409.881 131.375L414.588 548.192" stroke="#D7D4F7" strokeWidth="0.306849"/>
<path d="M-406.727 128.422L417.742 545.238" stroke="#D7D4F7" strokeWidth="0.306849"/>
<path d="M-403.572 125.468L420.896 542.284" stroke="#D7D4F7" strokeWidth="0.306849"/>
<path d="M-400.418 122.514L424.051 539.33" stroke="#D7D4F7" strokeWidth="0.306849"/>
<path d="M-397.264 119.56L427.205 536.376" stroke="#D7D4F7" strokeWidth="0.306849"/>
<path d="M-394.113 116.606L430.355 533.422" stroke="#D7D4F7" strokeWidth="0.306849"/>
<path d="M-390.961 113.652L433.508 530.468" stroke="#D7D4F7" strokeWidth="0.306849"/>
<path d="M-387.805 110.698L436.664 527.514" stroke="#D7D4F7" strokeWidth="0.306849"/>
<path d="M-384.652 107.744L439.816 524.56" stroke="#D7D4F7" strokeWidth="0.306849"/>
<path d="M-381.5 104.791L442.969 521.607" stroke="#D7D4F7" strokeWidth="0.306849"/>
<path d="M-378.348 101.837L446.121 518.653" stroke="#D7D4F7" strokeWidth="0.306849"/>
<path d="M-375.191 98.8826L449.277 515.699" stroke="#D7D4F7" strokeWidth="0.306849"/>
<path d="M-372.039 95.9287L452.43 512.745" stroke="#D7D4F7" strokeWidth="0.306849"/>
<path d="M-368.889 92.9747L455.58 509.791" stroke="#D7D4F7" strokeWidth="0.306849"/>
<path d="M-365.73 90.0209L458.738 506.837" stroke="#D7D4F7" strokeWidth="0.306849"/>
<path d="M-362.58 87.0669L461.889 503.883" stroke="#D7D4F7" strokeWidth="0.306849"/>
<path d="M-359.424 84.1129L465.045 500.929" stroke="#D7D4F7" strokeWidth="0.306849"/>
<path d="M-356.27 81.159L468.199 497.975" stroke="#D7D4F7" strokeWidth="0.306849"/>
<path d="M-353.119 78.2052L471.35 495.021" stroke="#D7D4F7" strokeWidth="0.306849"/>
<path d="M-349.965 75.2513L474.504 492.067" stroke="#D7D4F7" strokeWidth="0.306849"/>
<path d="M-346.812 72.2974L477.656 489.114" stroke="#D7D4F7" strokeWidth="0.306849"/>
<path d="M-343.662 69.3434L480.807 486.16" stroke="#D7D4F7" strokeWidth="0.306849"/>
<path d="M-340.504 66.3895L483.965 483.206" stroke="#D7D4F7" strokeWidth="0.306849"/>
<path d="M-337.354 63.4355L487.115 480.252" stroke="#D7D4F7" strokeWidth="0.306849"/>
<path d="M-334.199 60.4817L490.27 477.298" stroke="#D7D4F7" strokeWidth="0.306849"/>
<path d="M-331.045 57.5277L493.424 474.344" stroke="#D7D4F7" strokeWidth="0.306849"/>
<path d="M-327.895 54.5737L496.574 471.39" stroke="#D7D4F7" strokeWidth="0.306849"/>
<path d="M-324.738 51.6198L499.73 468.436" stroke="#D7D4F7" strokeWidth="0.306849"/>
<path d="M-321.588 48.6661L502.881 465.482" stroke="#D7D4F7" strokeWidth="0.306849"/>
<path d="M-318.436 45.7121L506.033 462.528" stroke="#D7D4F7" strokeWidth="0.306849"/>
<path d="M-315.277 42.7581L509.191 459.574" stroke="#D7D4F7" strokeWidth="0.306849"/>
<path d="M-312.127 39.8042L512.342 456.62" stroke="#D7D4F7" strokeWidth="0.306849"/>
<path d="M-308.975 36.8503L515.494 453.667" stroke="#D7D4F7" strokeWidth="0.306849"/>
<path d="M-305.82 33.8963L518.648 450.712" stroke="#D7D4F7" strokeWidth="0.306849"/>
<path d="M-302.668 30.9427L521.801 447.759" stroke="#D7D4F7" strokeWidth="0.306849"/>
<path d="M-299.514 27.9888L524.955 444.805" stroke="#D7D4F7" strokeWidth="0.306849"/>
<path d="M-296.361 25.0348L528.107 441.851" stroke="#D7D4F7" strokeWidth="0.306849"/>
<path d="M-293.207 22.0809L531.262 438.897" stroke="#D7D4F7" strokeWidth="0.306849"/>
<path d="M-290.053 19.127L534.416 435.943" stroke="#D7D4F7" strokeWidth="0.306849"/>
<path d="M-286.902 16.1731L537.566 432.989" stroke="#D7D4F7" strokeWidth="0.306849"/>
<path d="M-283.75 13.2191L540.719 430.035" stroke="#D7D4F7" strokeWidth="0.306849"/>
<path d="M-280.592 10.2652L543.877 427.081" stroke="#D7D4F7" strokeWidth="0.306849"/>
<path d="M-277.441 7.31117L547.027 424.127" stroke="#D7D4F7" strokeWidth="0.306849"/>
<path d="M-274.289 4.35745L550.18 421.174" stroke="#D7D4F7" strokeWidth="0.306849"/>
<path d="M-271.133 1.40349L553.336 418.22" stroke="#D7D4F7" strokeWidth="0.306849"/>
<path d="M-267.982 -1.55048L556.486 415.266" stroke="#D7D4F7" strokeWidth="0.306849"/>
<path d="M-264.83 -4.50443L559.639 412.312" stroke="#D7D4F7" strokeWidth="0.306849"/>
<path d="M-261.672 -7.45834L562.797 409.358" stroke="#D7D4F7" strokeWidth="0.306849"/>
<path d="M-258.521 -10.4123L565.947 406.404" stroke="#D7D4F7" strokeWidth="0.306849"/>
<path d="M-255.365 -13.3662L569.104 403.45" stroke="#D7D4F7" strokeWidth="0.306849"/>
<path d="M-252.213 -16.3201L572.256 400.496" stroke="#D7D4F7" strokeWidth="0.306849"/>
<path d="M-249.062 -19.274L575.406 397.542" stroke="#D7D4F7" strokeWidth="0.306849"/>
<path d="M-245.908 -22.2278L578.561 394.588" stroke="#D7D4F7" strokeWidth="0.306849"/>
<path d="M-242.752 -25.1818L581.717 391.634" stroke="#D7D4F7" strokeWidth="0.306849"/>
<path d="M-239.602 -28.1357L584.867 388.681" stroke="#D7D4F7" strokeWidth="0.306849"/>
<path d="M-236.447 -31.0896L588.021 385.727" stroke="#D7D4F7" strokeWidth="0.306849"/>
<path d="M-233.297 -34.0436L591.172 382.773" stroke="#D7D4F7" strokeWidth="0.306849"/>
<path d="M-230.141 -36.9976L594.328 379.819" stroke="#D7D4F7" strokeWidth="0.306849"/>
<path d="M-226.988 -39.9515L597.48 376.865" stroke="#D7D4F7" strokeWidth="0.306849"/>
<path d="M-223.83 -42.9051L600.639 373.911" stroke="#D7D4F7" strokeWidth="0.306849"/>
<path d="M-220.68 -45.8591L603.789 370.957" stroke="#D7D4F7" strokeWidth="0.306849"/>
<path d="M-217.527 -48.813L606.941 368.003" stroke="#D7D4F7" strokeWidth="0.306849"/>
<path d="M-214.375 -51.7669L610.094 365.049" stroke="#D7D4F7" strokeWidth="0.306849"/>
<path d="M-211.223 -54.7208L613.246 362.095" stroke="#D7D4F7" strokeWidth="0.306849"/>
<path d="M-208.068 -57.6748L616.4 359.141" stroke="#D7D4F7" strokeWidth="0.306849"/>
<path d="M-204.914 -60.6287L619.555 356.188" stroke="#D7D4F7" strokeWidth="0.306849"/>
<path d="M-201.76 -63.5827L622.709 353.234" stroke="#D7D4F7" strokeWidth="0.306849"/>
<path d="M-198.605 -66.5365L625.863 350.28" stroke="#D7D4F7" strokeWidth="0.306849"/>
<path d="M-195.455 -69.4904L629.014 347.326" stroke="#D7D4F7" strokeWidth="0.306849"/>
<path d="M-192.303 -72.4443L632.166 344.372" stroke="#D7D4F7" strokeWidth="0.306849"/>
<path d="M-189.145 -75.3983L635.324 341.418" stroke="#D7D4F7" strokeWidth="0.306849"/>
<path d="M-185.994 -78.3523L638.475 338.464" stroke="#D7D4F7" strokeWidth="0.306849"/>
<path d="M-182.84 -81.3061L641.629 335.51" stroke="#D7D4F7" strokeWidth="0.306849"/>
<path d="M-179.689 -84.2601L644.779 332.556" stroke="#D7D4F7" strokeWidth="0.306849"/>
<path d="M-176.535 -87.214L647.934 329.602" stroke="#D7D4F7" strokeWidth="0.306849"/>
<path d="M-173.381 -90.168L651.088 326.648" stroke="#D7D4F7" strokeWidth="0.306849"/>
<path d="M-170.229 -93.122L654.24 323.694" stroke="#D7D4F7" strokeWidth="0.306849"/>
<path d="M-167.072 -96.0756L657.396 320.741" stroke="#D7D4F7" strokeWidth="0.306849"/>
<path d="M-163.92 -99.0296L660.549 317.787" stroke="#D7D4F7" strokeWidth="0.306849"/>
<path d="M-160.768 -101.984L663.701 314.833" stroke="#D7D4F7" strokeWidth="0.306849"/>
<path d="M-157.613 -104.937L666.855 311.879" stroke="#D7D4F7" strokeWidth="0.306849"/>
<path d="M-154.465 -107.891L670.004 308.925" stroke="#D7D4F7" strokeWidth="0.306849"/>
<path d="M-151.305 -110.845L673.164 305.971" stroke="#D7D4F7" strokeWidth="0.306849"/>
<path d="M-148.152 -113.799L676.316 303.017" stroke="#D7D4F7" strokeWidth="0.306849"/>
<path d="M-145.004 -116.753L679.465 300.063" stroke="#D7D4F7" strokeWidth="0.306849"/>
<path d="M-141.848 -119.707L682.621 297.109" stroke="#D7D4F7" strokeWidth="0.306849"/>
<path d="M-138.695 -122.661L685.773 294.155" stroke="#D7D4F7" strokeWidth="0.306849"/>
<path d="M-135.541 -125.615L688.928 291.201" stroke="#D7D4F7" strokeWidth="0.306849"/>
<path d="M-132.389 -128.569L692.08 288.248" stroke="#D7D4F7" strokeWidth="0.306849"/>
<path d="M-129.234 -131.523L695.234 285.294" stroke="#D7D4F7" strokeWidth="0.306849"/>
<path d="M-126.08 -134.477L698.389 282.34" stroke="#D7D4F7" strokeWidth="0.306849"/>
<path d="M-122.928 -137.43L701.541 279.386" stroke="#D7D4F7" strokeWidth="0.306849"/>
<path d="M-119.779 -140.384L704.689 276.432" stroke="#D7D4F7" strokeWidth="0.306849"/>
<path d="M-116.621 -143.338L707.848 273.478" stroke="#D7D4F7" strokeWidth="0.306849"/>
<path d="M-113.471 -146.292L710.998 270.524" stroke="#D7D4F7" strokeWidth="0.306849"/>
<path d="M-110.311 -149.246L714.158 267.57" stroke="#D7D4F7" strokeWidth="0.306849"/>
<path d="M-107.162 -152.2L717.307 264.616" stroke="#D7D4F7" strokeWidth="0.306849"/>
<path d="M-104.008 -155.154L720.461 261.662" stroke="#D7D4F7" strokeWidth="0.306849"/>
<path d="M-100.855 -158.108L723.613 258.708" stroke="#D7D4F7" strokeWidth="0.306849"/>
<path d="M-97.7031 -161.062L726.766 255.754" stroke="#D7D4F7" strokeWidth="0.306849"/>
<path d="M-94.5488 -164.016L729.92 252.8" stroke="#D7D4F7" strokeWidth="0.306849"/>
<path d="M-91.3945 -166.97L733.074 249.846" stroke="#D7D4F7" strokeWidth="0.306849"/>
<path d="M-88.2441 -169.923L736.225 246.893" stroke="#D7D4F7" strokeWidth="0.306849"/>
<path d="M-85.0859 -172.877L739.383 243.939" stroke="#D7D4F7" strokeWidth="0.306849"/>
<path d="M-81.9355 -175.831L742.533 240.985" stroke="#D7D4F7" strokeWidth="0.306849"/>
<path d="M-78.7812 -178.785L745.687 238.031" stroke="#D7D4F7" strokeWidth="0.306849"/>
<path d="M-75.625 -181.739L748.844 235.077" stroke="#D7D4F7" strokeWidth="0.306849"/>
<path d="M-72.4766 -184.693L751.992 232.123" stroke="#D7D4F7" strokeWidth="0.306849"/>
<path d="M-69.3223 -187.647L755.146 229.169" stroke="#D7D4F7" strokeWidth="0.306849"/>
<path d="M-66.166 -190.601L758.303 226.216" stroke="#D7D4F7" strokeWidth="0.306849"/>
<path d="M-63.0156 -193.555L761.453 223.262" stroke="#D7D4F7" strokeWidth="0.306849"/>
<path d="M-59.8633 -196.509L764.605 220.308" stroke="#D7D4F7" strokeWidth="0.306849"/>
<path d="M-56.7051 -199.463L767.764 217.354" stroke="#D7D4F7" strokeWidth="0.306849"/>
<path d="M-53.5547 -202.416L770.914 214.4" stroke="#D7D4F7" strokeWidth="0.306849"/>
<path d="M-50.4023 -205.37L774.066 211.446" stroke="#D7D4F7" strokeWidth="0.306849"/>
<path d="M-47.2461 -208.324L777.223 208.492" stroke="#D7D4F7" strokeWidth="0.306849"/>
<path d="M-44.0957 -211.278L780.373 205.538" stroke="#D7D4F7" strokeWidth="0.306849"/>
<path d="M-40.9414 -214.232L783.527 202.584" stroke="#D7D4F7" strokeWidth="0.306849"/>
<path d="M-37.791 -217.186L786.678 199.63" stroke="#D7D4F7" strokeWidth="0.306849"/>
<path d="M-34.6367 -220.14L789.832 196.676" stroke="#D7D4F7" strokeWidth="0.306849"/>
<path d="M-31.4805 -223.094L792.988 193.722" stroke="#D7D4F7" strokeWidth="0.306849"/>
<path d="M-28.3301 -226.048L796.139 190.768" stroke="#D7D4F7" strokeWidth="0.306849"/>
<path d="M-25.1758 -229.002L799.293 187.815" stroke="#D7D4F7" strokeWidth="0.306849"/>
<path d="M-22.0215 -231.956L802.447 184.861" stroke="#D7D4F7" strokeWidth="0.306849"/>
<path d="M-18.8711 -234.91L805.598 181.907" stroke="#D7D4F7" strokeWidth="0.306849"/>
<path d="M-15.7148 -237.864L808.754 178.953" stroke="#D7D4F7" strokeWidth="0.306849"/>
<path d="M-12.5625 -240.819L811.906 175.997" stroke="#D7D4F7" strokeWidth="0.306849"/>
</g>
<g opacity="0.2">
<path opacity="0.2" d="M118.084 132.217L281.783 130.483L282.727 147.046L119.43 155.838L118.084 132.217Z" fill="#7165E3"/>
</g>
<g opacity="0.2">
<path opacity="0.4" d="M208.57 86.7331L226.907 146.356L245.755 235.503L260.522 239.982L231.149 134.779L222.263 90.8867L208.57 86.7331Z" fill="#7165E3"/>
</g>
<path d="M237.176 223.197C237.193 223.354 214.364 216.532 186.215 207.957C158.067 199.382 135.197 192.344 135.174 192.142C135.151 191.94 157.986 198.807 186.149 207.374C214.313 215.941 237.174 223.043 237.176 223.197Z" fill="white"/>
<path d="M222.234 133.203C219.373 133.236 216.269 131.589 213.353 129.51C210.437 127.432 207.619 124.916 204.684 122.94C197.446 118.118 189.92 116.845 183.642 119.38C183.33 119.457 183.074 119.679 182.912 120.016C182.802 120.469 182.833 121.014 182.999 121.551L192.016 157.84C192.242 159.091 192.74 160.331 193.442 161.387C194.534 162.804 195.972 162.85 197.241 162.801C201.279 162.768 205.171 162.13 208.853 160.895C212.545 159.627 215.627 156.92 217.801 153.037C218.763 151.157 219.457 149.023 220.472 147.225C221.407 145.308 222.949 144.152 224.813 143.972L222.234 133.203Z" fill="#F7F6FD"/>
<path d="M274.483 160.254C271.797 145.176 269.098 130.017 264.695 115.015C257.438 112.618 250.842 115.231 245.424 119.352C240.007 123.473 235.373 129.025 229.891 133.018L230.567 143.459C232.663 143.142 234.991 143.829 237.204 145.418C239.389 146.985 241.524 148.777 243.585 150.773C248.345 155.285 253.38 158.954 258.52 161.654C263.655 164.178 268.994 165.124 273.342 163.284C273.922 163.155 274.373 162.697 274.599 162.005C274.669 161.461 274.629 160.86 274.483 160.254Z" fill="#F7F6FD"/>
<g opacity="0.3">
<path opacity="0.3" d="M222.232 133.203C219.371 133.236 216.267 131.589 213.351 129.51C210.435 127.432 207.617 124.916 204.682 122.94C197.444 118.118 189.918 116.845 183.64 119.38C183.328 119.457 183.072 119.679 182.91 120.016C182.8 120.469 182.831 121.014 182.997 121.551L192.014 157.839C192.24 159.09 192.738 160.331 193.44 161.387C194.532 162.804 195.97 162.85 197.239 162.801C201.277 162.768 205.169 162.13 208.851 160.895C212.543 159.627 215.625 156.92 217.799 153.037C218.761 151.157 219.455 149.023 220.47 147.225C221.405 145.308 222.947 144.152 224.811 143.972L222.232 133.203Z" fill="#7165E3"/>
</g>
<path d="M222.235 133.203L222.42 133.878C222.546 134.372 222.715 135.053 222.944 135.925L224.951 143.937L224.958 144.07L224.858 144.04C223.549 144.131 222.404 144.768 221.562 145.873C220.571 147.229 219.746 148.801 219.105 150.555C218.339 152.578 217.344 154.371 216.146 155.888C214.798 157.569 213.229 158.918 211.481 159.901C207.852 162.057 203.284 162.766 198.389 163.029C197.175 163.051 195.962 163.378 194.482 162.593C194.119 162.394 193.769 162.104 193.453 161.739C193.138 161.374 192.864 160.943 192.648 160.473C192.265 159.561 191.966 158.615 191.762 157.664C190.842 153.966 189.9 150.174 188.939 146.333C187.532 140.674 186.165 135.146 184.832 129.803C184.175 127.139 183.519 124.509 182.884 121.95C182.653 121.253 182.573 120.538 182.653 119.904C182.885 119.4 183.271 119.083 183.744 119.009C184.542 118.697 185.341 118.407 186.149 118.262C189.254 117.569 192.602 117.709 196.033 118.676C199.052 119.49 202.1 120.946 205.063 122.99C207.74 124.887 210.064 126.873 212.149 128.396C213.919 129.792 215.741 130.956 217.583 131.868C218.747 132.438 219.917 132.825 221.066 133.022C221.848 133.14 222.28 133.14 222.265 133.157C222.168 133.179 222.068 133.189 221.964 133.186C221.677 133.191 221.385 133.175 221.089 133.137C219.935 132.989 218.755 132.631 217.578 132.072C215.717 131.192 213.874 130.046 212.082 128.658C209.979 127.108 207.649 125.142 204.988 123.249C198.72 119.003 192.189 117.404 186.418 118.702C185.614 118.892 184.811 119.126 184.013 119.426C183.614 119.577 183.214 119.716 183.098 120.115C183.047 120.644 183.126 121.232 183.324 121.801C183.965 124.369 184.621 126.992 185.29 129.67C186.613 135 187.988 140.53 189.404 146.192C190.357 150.041 191.296 153.818 192.219 157.521C192.404 158.417 192.683 159.311 193.047 160.171C193.227 160.566 193.456 160.928 193.721 161.235C193.986 161.541 194.28 161.785 194.584 161.951C195.838 162.624 197.055 162.374 198.302 162.351C203.181 162.105 207.715 161.364 211.308 159.306C213.034 158.358 214.589 157.056 215.932 155.433C217.121 153.94 218.117 152.185 218.897 150.21C219.555 148.453 220.402 146.888 221.421 145.548C222.301 144.417 223.495 143.779 224.856 143.713L224.783 143.865C223.976 140.439 223.343 137.772 222.912 135.938L222.427 133.858C222.282 133.467 222.235 133.203 222.235 133.203Z" fill="#7165E3"/>
<g opacity="0.3">
<path opacity="0.3" d="M274.479 160.254C271.793 145.176 269.094 130.017 264.691 115.015C257.434 112.618 250.838 115.231 245.42 119.352C240.003 123.472 235.369 129.025 229.887 133.017L230.564 143.459C232.659 143.142 234.987 143.829 237.2 145.418C239.385 146.985 241.52 148.777 243.582 150.773C248.341 155.285 253.376 158.954 258.516 161.654C263.651 164.177 268.99 165.124 273.339 163.284C273.919 163.155 274.369 162.697 274.595 162.005C274.665 161.461 274.625 160.86 274.479 160.254Z" fill="#7165E3"/>
</g>
<path d="M274.48 160.254C274.592 160.671 274.657 161.091 274.673 161.496C274.689 162.008 274.557 162.449 274.303 162.73C273.956 163.083 273.545 163.326 273.088 163.447C270.239 164.549 267.04 164.654 263.726 163.755C259.5 162.745 254.306 159.91 248.793 155.469C247.412 154.327 246.009 153.138 244.585 151.902C243.151 150.642 241.711 149.272 240.218 147.983C238.708 146.64 237.131 145.527 235.527 144.672C233.869 143.773 232.193 143.44 230.668 143.708L230.394 143.766L230.372 143.368C230.183 140.054 229.924 136.524 229.687 132.924L229.678 132.78L229.765 132.72C232.349 130.833 234.858 128.501 237.387 126.077C241.532 122.091 245.616 118.195 250.221 115.977C254.825 113.759 259.845 113.111 264.675 114.728L264.808 114.768L264.859 114.936C267.924 125.852 270.423 136.829 272.333 147.771C273.056 151.735 273.592 154.84 273.957 156.948C274.13 157.988 274.266 158.789 274.356 159.37C274.37 159.613 274.431 159.827 274.456 159.987C274.468 160.059 274.472 160.129 274.468 160.197C274.468 160.197 274.465 160.13 274.416 159.985L274.29 159.361C274.181 158.785 274.029 157.979 273.834 156.943C273.434 154.781 272.85 151.684 272.111 147.736C270.138 136.815 267.606 125.867 264.535 114.978L264.71 115.194C259.955 113.622 254.982 114.23 250.47 116.487C245.958 118.744 241.844 122.554 237.717 126.567C235.18 128.989 232.663 131.33 230.054 133.22L230.132 133.016C230.337 136.606 230.587 140.134 230.801 143.455L230.504 143.115C232.095 142.848 233.842 143.198 235.57 144.131C237.21 145.007 238.821 146.149 240.363 147.528C241.873 148.833 243.306 150.212 244.731 151.469C246.157 152.727 247.538 153.927 248.915 155.04C253.668 159.065 258.706 161.902 263.712 163.371C267 164.296 270.181 164.249 273.035 163.235C273.485 163.109 273.891 162.865 274.233 162.513C274.477 162.258 274.611 161.854 274.609 161.379C274.579 161.007 274.536 160.632 274.48 160.254Z" fill="#7165E3"/>
<path d="M226.084 146.409C226.084 146.409 224.125 146.238 222.962 153.159C221.798 160.079 220.552 193.449 220.552 193.449L245.727 209.716L231.837 149.175L226.084 146.409Z" fill="#F7F6FD"/>
<path d="M233.507 148.564L250.14 190.104L261.693 172.137C261.693 172.137 244.375 148.202 234.07 145.413L233.507 148.564Z" fill="#F7F6FD"/>
<g opacity="0.3">
<path opacity="0.3" d="M226.086 146.41C226.086 146.41 224.127 146.239 222.964 153.159C221.8 160.079 220.554 193.449 220.554 193.449L245.729 209.716L231.839 149.175L226.086 146.41Z" fill="#7165E3"/>
</g>
<g opacity="0.3">
<path opacity="0.3" d="M233.509 148.563L250.142 190.104L261.694 172.136C261.694 172.136 244.377 148.202 234.072 145.412L233.509 148.563Z" fill="#7165E3"/>
</g>
<path d="M226.087 146.41C226.207 146.432 226.33 146.469 226.452 146.52L227.549 147.016L231.856 149.028L231.922 149.048L231.927 149.136C234.501 160.099 239.73 182.734 245.914 209.663L246.023 210.152L245.668 209.925L238.648 205.386L220.511 193.686L220.336 193.633L220.323 193.401C220.915 178.894 221.539 166.502 222.296 157.884C222.449 154.432 223.078 151.235 224.155 148.44C224.461 147.702 224.889 147.095 225.415 146.651C225.558 146.548 225.715 146.476 225.884 146.435C225.997 146.415 226.063 146.424 226.064 146.435L225.895 146.482C225.741 146.542 225.598 146.629 225.47 146.743C224.97 147.206 224.565 147.819 224.276 148.552C223.262 151.382 222.681 154.587 222.557 158.028C221.875 166.669 221.309 179.078 220.742 193.593L220.575 193.25L238.73 204.966L245.75 209.505L245.512 209.769C239.345 182.845 234.205 160.205 231.753 149.236L231.833 149.347L227.545 147.232L226.444 146.67L226.087 146.41Z" fill="#7165E3"/>
<path d="M233.509 148.563C233.509 148.563 233.505 148.497 233.497 148.354L233.585 147.74L233.988 145.365L233.984 145.299L234.067 145.324C236.546 145.892 240.774 148.52 245.589 153.161C251.336 158.776 256.784 165.089 261.832 171.983L261.992 172.205L261.879 172.377L256.582 180.605L250.318 190.331L250.13 190.61L249.958 190.178L238.095 160.343L234.692 151.712L233.793 149.399C233.681 149.137 233.586 148.869 233.511 148.597C233.511 148.597 233.641 148.875 233.867 149.41L234.814 151.717C235.65 153.783 236.842 156.674 238.334 160.383C241.326 167.804 245.487 178.13 250.302 190.066L249.954 189.96L256.24 180.187L261.546 171.972L261.568 172.348C256.55 165.48 251.149 159.169 245.455 153.522C240.646 148.861 236.531 146.202 234.08 145.556L234.143 145.51L233.67 147.809C233.618 148.043 233.581 148.249 233.541 148.399C233.534 148.456 233.523 148.511 233.509 148.563Z" fill="#7165E3"/>
<path d="M223.028 141.043C223.033 141.12 221.929 141.079 220.152 141.093C218.375 141.108 215.943 141.216 213.321 141.583C210.699 141.949 208.409 142.546 206.774 143.06C205.914 143.392 205.028 143.656 204.119 143.85C204.308 143.672 204.523 143.54 204.758 143.457C205.185 143.229 205.822 142.955 206.62 142.644C208.721 141.871 210.905 141.322 213.157 141.001C215.403 140.669 217.71 140.56 220.063 140.675C220.971 140.723 221.7 140.781 222.219 140.863C222.481 140.863 222.754 140.924 223.028 141.043Z" fill="#7165E3"/>
<path d="M221.942 137.217C221.018 137.043 220.086 136.801 219.151 136.49C216.911 135.871 214.686 135.424 212.485 135.152C209.915 134.85 207.621 134.816 205.94 134.806C205.058 134.854 204.158 134.824 203.244 134.715C203.453 134.617 203.68 134.565 203.92 134.562C204.373 134.493 205.03 134.432 205.843 134.385C207.979 134.25 210.162 134.31 212.378 134.566C214.595 134.829 216.846 135.334 219.112 136.076C219.942 136.328 220.685 136.63 221.169 136.831C221.428 136.91 221.688 137.04 221.942 137.217Z" fill="#7165E3"/>
<path d="M255.973 135.492C255.979 135.591 254.659 135.18 252.539 134.776C249.79 134.243 247.092 134.094 244.488 134.331C241.892 134.599 239.412 135.274 237.091 136.343C235.32 137.184 234.3 137.884 234.245 137.781C234.448 137.55 234.675 137.357 234.922 137.204C235.557 136.724 236.225 136.307 236.922 135.955C239.212 134.742 241.703 133.998 244.332 133.741C246.972 133.495 249.722 133.706 252.524 134.37C253.591 134.628 254.462 134.882 255.064 135.14C255.366 135.214 255.671 135.332 255.973 135.492Z" fill="#7165E3"/>
<path d="M255.254 145.021C255.022 145.113 254.773 145.157 254.512 145.154C254.034 145.216 253.326 145.251 252.437 145.252C250.124 145.258 247.76 145.017 245.366 144.529C242.971 144.044 240.551 143.31 238.128 142.334C237.201 141.944 236.456 141.609 235.927 141.34C235.657 141.233 235.388 141.082 235.126 140.891C236.122 141.17 237.122 141.517 238.122 141.93C240.525 142.786 242.922 143.459 245.3 143.945C247.674 144.416 250.027 144.713 252.348 144.835C253.304 144.827 254.274 144.889 255.254 145.021Z" fill="#7165E3"/>
<path d="M235.534 142.425C235.112 140.342 234.46 138.264 233.601 136.27C232.89 134.524 232.594 132.915 230.887 131.583C230.129 131.079 229.346 130.797 228.599 130.759C227.853 130.721 227.163 130.928 226.585 131.363C225.429 129.699 223.68 129.917 222.587 130.769C222.058 131.238 221.659 131.912 221.422 132.735C221.186 133.559 221.119 134.51 221.226 135.512C221.466 137.514 222.052 139.552 222.935 141.458C224.099 144.319 225.792 146.879 227.791 148.804C228.695 149.624 229.675 150.17 230.637 150.39C231.599 150.609 232.513 150.496 233.294 150.061C234.294 149.509 235.046 148.481 235.446 147.116C235.847 145.75 235.878 144.113 235.534 142.425Z" fill="#F7F6FD"/>
<g opacity="0.3">
<path opacity="0.3" d="M235.532 142.425C235.11 140.342 234.458 138.264 233.599 136.27C232.888 134.524 232.592 132.915 230.885 131.583C230.127 131.079 229.344 130.797 228.597 130.759C227.851 130.721 227.161 130.928 226.583 131.363C225.428 129.699 223.678 129.917 222.585 130.769C222.056 131.238 221.657 131.912 221.42 132.735C221.184 133.559 221.117 134.51 221.224 135.512C221.464 137.514 222.05 139.552 222.933 141.458C224.097 144.319 225.79 146.879 227.789 148.804C228.694 149.624 229.673 150.17 230.635 150.39C231.597 150.609 232.511 150.496 233.292 150.061C234.293 149.509 235.044 148.481 235.444 147.116C235.845 145.75 235.876 144.113 235.532 142.425Z" fill="#7165E3"/>
</g>
<path d="M235.532 142.425C235.604 142.642 235.655 142.862 235.684 143.079C235.781 143.691 235.835 144.296 235.844 144.886C235.865 146.77 235.367 148.392 234.441 149.458C233.515 150.524 232.223 150.963 230.8 150.694C229.457 150.415 228.086 149.541 226.898 148.208C225.598 146.768 224.457 145.055 223.545 143.174C222.517 141.191 221.738 139.058 221.254 136.9C220.971 135.668 220.912 134.45 221.083 133.362C221.254 132.274 221.648 131.352 222.229 130.683C222.82 130.127 223.55 129.827 224.357 129.808C224.747 129.775 225.168 129.883 225.58 130.124C225.993 130.365 226.384 130.73 226.719 131.187L226.445 131.104C227.158 130.492 228.078 130.291 229.064 130.531C229.938 130.637 230.852 131.155 231.651 131.999C232.335 132.785 232.881 133.777 233.216 134.84C233.538 135.774 233.887 136.596 234.177 137.39C234.636 138.595 235.013 139.826 235.3 141.063C235.38 141.39 235.445 141.718 235.494 142.045C235.506 142.255 235.512 142.365 235.512 142.365C235.512 142.365 235.397 141.907 235.169 141.067C234.836 139.844 234.432 138.632 233.96 137.443C233.664 136.691 233.289 135.829 232.95 134.901C232.635 133.919 232.124 133.006 231.488 132.286C230.746 131.529 229.907 131.072 229.106 130.988C228.198 130.774 227.351 130.959 226.689 131.515L226.566 131.651L226.424 131.445C226.138 131.066 225.805 130.765 225.457 130.568C225.108 130.372 224.755 130.286 224.427 130.318C223.692 130.341 223.028 130.62 222.491 131.131C221.967 131.751 221.611 132.598 221.459 133.593C221.306 134.589 221.36 135.7 221.617 136.826C222.085 138.903 222.833 140.956 223.821 142.867C224.694 144.676 225.784 146.328 227.026 147.726C228.138 148.994 229.427 149.835 230.694 150.119C231.795 150.35 232.824 150.133 233.651 149.497C234.257 149.04 234.744 148.382 235.084 147.562C235.423 146.742 235.606 145.779 235.623 144.732C235.631 143.977 235.601 143.206 235.532 142.425Z" fill="#7165E3"/>
<path d="M226.444 147.408C226.382 147.325 226.811 146.706 227.289 145.494C227.918 143.932 228.257 142.106 228.284 140.127C228.312 138.148 228.027 136.057 227.448 133.981C227.006 132.382 226.593 131.421 226.656 131.386C227.12 132.178 227.486 133.045 227.731 133.937C228.412 136.075 228.753 138.254 228.73 140.308C228.708 142.366 228.315 144.239 227.582 145.778C227.312 146.456 226.925 147.01 226.444 147.408Z" fill="#7165E3"/>
<path d="M234.247 137.781C234.348 138.598 234.344 139.391 234.234 140.121C234.067 141.937 233.654 143.603 233.014 145.049C232.379 146.512 231.511 147.72 230.452 148.613C230.04 149.024 229.55 149.299 229.006 149.423C230.46 148.208 231.683 146.607 232.626 144.681C234.099 141.34 234.093 137.647 234.247 137.781Z" fill="#7165E3"/>
<path d="M215.009 132.943C214.606 132.752 214.205 132.518 213.811 132.243L210.561 130.172C207.002 127.816 203.397 125.775 199.773 124.066C196.147 122.364 192.515 121.401 189.008 121.213C187.951 121.171 186.913 121.219 185.9 121.356C185.532 121.434 185.153 121.474 184.765 121.479C185.096 121.3 185.453 121.183 185.83 121.128C186.827 120.899 187.859 120.784 188.918 120.784C192.435 120.849 196.103 121.764 199.765 123.488C203.41 125.207 207.033 127.312 210.596 129.781C211.962 130.705 213.058 131.483 213.815 132.027C214.222 132.29 214.622 132.597 215.009 132.943Z" fill="white"/>
<path d="M211.133 136.816C210.082 136.845 209.005 136.754 207.913 136.544C206.852 136.532 205.766 136.395 204.668 136.135C206.682 135.673 208.894 135.906 211.133 136.816Z" fill="white"/>
<path d="M209.939 143.444C209.997 143.602 209.476 143.9 208.778 144.112C208.081 144.324 207.471 144.356 207.413 144.197C207.355 144.038 207.876 143.741 208.574 143.529C209.272 143.317 209.884 143.329 209.939 143.444Z" fill="white"/>
<path d="M223.498 139.524C223.456 139.512 223.167 139.023 222.87 138.108C222.492 136.895 222.307 135.662 222.331 134.503C222.347 133.354 222.566 132.306 222.972 131.441C223.302 130.792 223.606 130.548 223.648 130.56C223.147 131.772 222.845 133.17 222.757 134.686C222.801 136.262 223.052 137.898 223.498 139.524Z" fill="white"/>
<path d="M229.342 142.882C229.269 142.033 229.251 141.199 229.289 140.391C229.182 139.535 229.134 138.692 229.146 137.872C229.472 138.75 229.657 139.661 229.685 140.531C229.713 141.4 229.584 142.202 229.309 142.872L229.342 142.882Z" fill="white"/>
<path d="M245.327 122.829C243.579 124.543 241.732 126.092 239.792 127.468C237.946 129.009 236.003 130.376 233.974 131.565C235.719 129.846 237.567 128.297 239.509 126.926C241.355 125.385 243.298 124.017 245.327 122.829Z" fill="white"/>
<path d="M241.79 136.335C240.727 137.149 239.482 137.594 238.129 137.645C238.615 137.152 239.201 136.832 239.853 136.702C240.431 136.384 241.09 136.259 241.79 136.335Z" fill="white"/>
<path d="M224.465 160.203C224.118 158.009 224.08 155.871 224.351 153.905C224.484 151.858 224.932 149.992 225.669 148.411C225.789 148.512 225.125 150.895 224.805 154.152C224.485 157.409 224.589 160.241 224.465 160.203Z" fill="white"/>
<path d="M241.618 163.311C240.131 160.052 238.885 156.677 237.904 153.251C238.706 154.846 239.392 156.511 239.949 158.213C240.631 159.877 241.191 161.587 241.618 163.311Z" fill="white"/>
<g opacity="0.3" filter="url(#filter0_f_401_3613)">
<path d="M65.9707 108.092L211.467 110.068L260.82 233.9H69.8164L65.9707 108.092Z" fill="#7165E3"/>
</g>
<path d="M38.7349 121.299H191.183C194.182 121.299 197.58 122.722 200.63 125.255C203.679 127.788 206.13 131.224 207.444 134.806L245.619 238.921C246.932 242.504 247.001 245.939 245.809 248.473C244.617 251.006 242.263 252.429 239.264 252.429H86.8157C84.0473 252.429 80.9107 251.115 78.0958 248.777C75.2808 246.438 73.0183 243.267 71.8057 239.96L32.8648 133.757C31.6523 130.45 31.5891 127.279 32.6893 124.94C33.7894 122.602 35.9627 121.288 38.731 121.288L38.7349 121.299Z" fill="#7165E3"/>
<path d="M37.0069 135.388L32.0293 127.923L33.2735 123.776L45.0939 108.018L50.6929 104.701L53.182 145.34L37.0069 135.388Z" fill="#7165E3"/>
<path d="M51.1802 104.711H203.628C206.627 104.711 210.025 106.134 213.075 108.668C216.124 111.201 218.575 114.637 219.889 118.219L258.064 222.334C259.378 225.916 259.446 229.352 258.254 231.885C257.063 234.418 254.708 235.842 251.709 235.842H99.261C96.4926 235.842 93.356 234.528 90.5411 232.189C87.7262 229.851 85.4636 226.68 84.251 223.373L45.3101 117.17C44.0976 113.863 44.0345 110.691 45.1346 108.353C46.2347 106.015 48.408 104.701 51.1764 104.701L51.1802 104.711Z" fill="#F7F6FD"/>
<mask id="mask1_401_3613" style="mask-type:alpha" maskUnits="userSpaceOnUse" x="44" y="104" width="216" height="132">
<path d="M51.1802 104.711H203.628C206.627 104.711 210.025 106.134 213.075 108.668C216.124 111.201 218.575 114.637 219.889 118.219L258.064 222.334C259.378 225.916 259.446 229.352 258.254 231.885C257.063 234.418 254.708 235.841 251.709 235.841H99.261C96.4926 235.841 93.356 234.528 90.5411 232.189C87.7262 229.851 85.4636 226.68 84.251 223.373L45.3101 117.17C44.0976 113.863 44.0345 110.691 45.1346 108.353C46.2347 106.014 48.408 104.701 51.1764 104.701L51.1802 104.711Z" fill="#F7F6FD"/>
</mask>
<g mask="url(#mask1_401_3613)">
<path d="M-163.008 -114.519L45.2078 456.961" stroke="#D7D4F7" strokeWidth="0.306849"/>
<path d="M-159.098 -114.519L49.1179 456.961" stroke="#D7D4F7" strokeWidth="0.306849"/>
<path d="M-155.191 -114.519L53.0242 456.961" stroke="#D7D4F7" strokeWidth="0.306849"/>
<path d="M-151.285 -114.519L56.9304 456.961" stroke="#D7D4F7" strokeWidth="0.306849"/>
<path d="M-147.383 -114.519L60.8328 456.961" stroke="#D7D4F7" strokeWidth="0.306849"/>
<path d="M-143.477 -114.519L64.739 456.961" stroke="#D7D4F7" strokeWidth="0.306849"/>
<path d="M-139.568 -114.519L68.6472 456.961" stroke="#D7D4F7" strokeWidth="0.306849"/>
<path d="M-135.664 -114.519L72.5515 456.961" stroke="#D7D4F7" strokeWidth="0.306849"/>
<path d="M-131.76 -114.519L76.4558 456.961" stroke="#D7D4F7" strokeWidth="0.306849"/>
<path d="M-127.854 -114.519L80.3621 456.961" stroke="#D7D4F7" strokeWidth="0.306849"/>
<path d="M-123.945 -114.519L84.2703 456.961" stroke="#D7D4F7" strokeWidth="0.306849"/>
<path d="M-120.039 -114.519L88.1765 456.961" stroke="#D7D4F7" strokeWidth="0.306849"/>
<path d="M-116.133 -114.519L92.0828 456.961" stroke="#D7D4F7" strokeWidth="0.306849"/>
<path d="M-112.227 -114.519L95.989 456.961" stroke="#D7D4F7" strokeWidth="0.306849"/>
<path d="M-108.32 -114.519L99.8953 456.961" stroke="#D7D4F7" strokeWidth="0.306849"/>
<path d="M-104.416 -114.519L103.8 456.961" stroke="#D7D4F7" strokeWidth="0.306849"/>
<path d="M-100.51 -114.519L107.706 456.961" stroke="#D7D4F7" strokeWidth="0.306849"/>
<path d="M-96.6055 -114.519L111.61 456.961" stroke="#D7D4F7" strokeWidth="0.306849"/>
<path d="M-92.6973 -114.519L115.518 456.961" stroke="#D7D4F7" strokeWidth="0.306849"/>
<path d="M-88.793 -114.519L119.423 456.961" stroke="#D7D4F7" strokeWidth="0.306849"/>
<path d="M-84.8848 -114.519L123.331 456.961" stroke="#D7D4F7" strokeWidth="0.306849"/>
<path d="M-80.9785 -114.519L127.237 456.961" stroke="#D7D4F7" strokeWidth="0.306849"/>
<path d="M-77.0742 -114.519L131.141 456.961" stroke="#D7D4F7" strokeWidth="0.306849"/>
<path d="M-73.1699 -114.519L135.046 456.961" stroke="#D7D4F7" strokeWidth="0.306849"/>
<path d="M-69.2617 -114.519L138.954 456.961" stroke="#D7D4F7" strokeWidth="0.306849"/>
<path d="M-65.3535 -114.519L142.862 456.961" stroke="#D7D4F7" strokeWidth="0.306849"/>
<path d="M-61.4492 -114.519L146.766 456.961" stroke="#D7D4F7" strokeWidth="0.306849"/>
<path d="M-57.5449 -114.519L150.671 456.961" stroke="#D7D4F7" strokeWidth="0.306849"/>
<path d="M-53.6387 -114.519L154.577 456.961" stroke="#D7D4F7" strokeWidth="0.306849"/>
<path d="M-49.7305 -114.519L158.485 456.961" stroke="#D7D4F7" strokeWidth="0.306849"/>
<path d="M-45.8281 -114.519L162.387 456.961" stroke="#D7D4F7" strokeWidth="0.306849"/>
<path d="M-41.916 -114.519L166.3 456.961" stroke="#D7D4F7" strokeWidth="0.306849"/>
<path d="M-38.0117 -114.519L170.204 456.961" stroke="#D7D4F7" strokeWidth="0.306849"/>
<path d="M-34.1055 -114.519L174.11 456.961" stroke="#D7D4F7" strokeWidth="0.306849"/>
<path d="M-30.2012 -114.519L178.014 456.961" stroke="#D7D4F7" strokeWidth="0.306849"/>
<path d="M-26.2949 -114.519L181.921 456.961" stroke="#D7D4F7" strokeWidth="0.306849"/>
<path d="M-22.3867 -114.519L185.829 456.961" stroke="#D7D4F7" strokeWidth="0.306849"/>
<path d="M-18.4863 -114.519L189.729 456.961" stroke="#D7D4F7" strokeWidth="0.306849"/>
<path d="M-14.5781 -114.519L193.637 456.961" stroke="#D7D4F7" strokeWidth="0.306849"/>
<path d="M-10.668 -114.519L197.548 456.961" stroke="#D7D4F7" strokeWidth="0.306849"/>
<path d="M-6.76172 -114.519L201.454 456.961" stroke="#D7D4F7" strokeWidth="0.306849"/>
<path d="M-2.85938 -114.519L205.356 456.961" stroke="#D7D4F7" strokeWidth="0.306849"/>
<path d="M1.04688 -114.519L209.262 456.961" stroke="#D7D4F7" strokeWidth="0.306849"/>
<path d="M4.95312 -114.519L213.169 456.961" stroke="#D7D4F7" strokeWidth="0.306849"/>
<path d="M8.85938 -114.519L217.075 456.961" stroke="#D7D4F7" strokeWidth="0.306849"/>
<path d="M12.7637 -114.519L220.979 456.961" stroke="#D7D4F7" strokeWidth="0.306849"/>
<path d="M16.6699 -114.519L224.885 456.961" stroke="#D7D4F7" strokeWidth="0.306849"/>
<path d="M20.5801 -114.519L228.796 456.961" stroke="#D7D4F7" strokeWidth="0.306849"/>
<path d="M24.4863 -114.519L232.702 456.961" stroke="#D7D4F7" strokeWidth="0.306849"/>
<path d="M28.3887 -114.519L236.604 456.961" stroke="#D7D4F7" strokeWidth="0.306849"/>
<path d="M32.2949 -114.519L240.51 456.961" stroke="#D7D4F7" strokeWidth="0.306849"/>
<path d="M36.2012 -114.519L244.417 456.961" stroke="#D7D4F7" strokeWidth="0.306849"/>
<path d="M40.1094 -114.519L248.325 456.961" stroke="#D7D4F7" strokeWidth="0.306849"/>
<path d="M44.0098 -114.519L252.225 456.961" stroke="#D7D4F7" strokeWidth="0.306849"/>
<path d="M47.918 -114.519L256.134 456.961" stroke="#D7D4F7" strokeWidth="0.306849"/>
<path d="M51.8242 -114.519L260.04 456.961" stroke="#D7D4F7" strokeWidth="0.306849"/>
<path d="M55.7344 -114.519L263.95 456.961" stroke="#D7D4F7" strokeWidth="0.306849"/>
<path d="M59.6348 -114.519L267.85 456.961" stroke="#D7D4F7" strokeWidth="0.306849"/>
<path d="M63.543 -114.519L271.759 456.961" stroke="#D7D4F7" strokeWidth="0.306849"/>
<path d="M67.4492 -114.519L275.665 456.961" stroke="#D7D4F7" strokeWidth="0.306849"/>
<path d="M71.3555 -114.519L279.571 456.961" stroke="#D7D4F7" strokeWidth="0.306849"/>
<path d="M75.2637 -114.519L283.479 456.961" stroke="#D7D4F7" strokeWidth="0.306849"/>
<path d="M79.166 -114.519L287.382 456.961" stroke="#D7D4F7" strokeWidth="0.306849"/>
<path d="M83.0742 -114.519L291.29 456.961" stroke="#D7D4F7" strokeWidth="0.306849"/>
<path d="M86.9805 -114.519L295.196 456.961" stroke="#D7D4F7" strokeWidth="0.306849"/>
<path d="M90.8887 -114.519L299.104 456.961" stroke="#D7D4F7" strokeWidth="0.306849"/>
<path d="M94.791 -114.519L303.007 456.961" stroke="#D7D4F7" strokeWidth="0.306849"/>
<path d="M98.6953 -114.519L306.911 456.961" stroke="#D7D4F7" strokeWidth="0.306849"/>
<path d="M102.605 -114.519L310.821 456.961" stroke="#D7D4F7" strokeWidth="0.306849"/>
<path d="M106.512 -114.519L314.727 456.961" stroke="#D7D4F7" strokeWidth="0.306849"/>
<path d="M110.42 -114.519L318.635 456.961" stroke="#D7D4F7" strokeWidth="0.306849"/>
<path d="M114.32 -114.519L322.536 456.961" stroke="#D7D4F7" strokeWidth="0.306849"/>
<path d="M118.23 -114.519L326.446 456.961" stroke="#D7D4F7" strokeWidth="0.306849"/>
<path d="M122.133 -114.519L330.348 456.961" stroke="#D7D4F7" strokeWidth="0.306849"/>
<path d="M126.041 -114.519L334.257 456.961" stroke="#D7D4F7" strokeWidth="0.306849"/>
<path d="M129.943 -114.519L338.159 456.961" stroke="#D7D4F7" strokeWidth="0.306849"/>
<path d="M133.854 -114.519L342.069 456.961" stroke="#D7D4F7" strokeWidth="0.306849"/>
<path d="M137.758 -114.519L345.973 456.961" stroke="#D7D4F7" strokeWidth="0.306849"/>
<path d="M141.666 -114.519L349.882 456.961" stroke="#D7D4F7" strokeWidth="0.306849"/>
<path d="M145.574 -114.519L353.79 456.961" stroke="#D7D4F7" strokeWidth="0.306849"/>
<path d="M149.477 -114.519L357.692 456.961" stroke="#D7D4F7" strokeWidth="0.306849"/>
<path d="M153.383 -114.519L361.598 456.961" stroke="#D7D4F7" strokeWidth="0.306849"/>
<path d="M157.289 -114.519L365.505 456.961" stroke="#D7D4F7" strokeWidth="0.306849"/>
<path d="M161.191 -114.519L369.407 456.961" stroke="#D7D4F7" strokeWidth="0.306849"/>
<path d="M165.1 -114.519L373.315 456.961" stroke="#D7D4F7" strokeWidth="0.306849"/>
<path d="M169.006 -114.519L377.221 456.961" stroke="#D7D4F7" strokeWidth="0.306849"/>
<path d="M172.916 -114.519L381.132 456.961" stroke="#D7D4F7" strokeWidth="0.306849"/>
<path d="M176.816 -114.519L385.032 456.961" stroke="#D7D4F7" strokeWidth="0.306849"/>
<path d="M180.725 -114.519L388.94 456.961" stroke="#D7D4F7" strokeWidth="0.306849"/>
<path d="M184.631 -114.519L392.846 456.961" stroke="#D7D4F7" strokeWidth="0.306849"/>
<path d="M188.537 -114.519L396.753 456.961" stroke="#D7D4F7" strokeWidth="0.306849"/>
<path d="M192.439 -114.519L400.655 456.961" stroke="#D7D4F7" strokeWidth="0.306849"/>
<path d="M196.348 -114.519L404.563 456.961" stroke="#D7D4F7" strokeWidth="0.306849"/>
<path d="M200.252 -114.519L408.468 456.961" stroke="#D7D4F7" strokeWidth="0.306849"/>
<path d="M204.162 -114.519L412.378 456.961" stroke="#D7D4F7" strokeWidth="0.306849"/>
<path d="M208.068 -114.519L416.284 456.961" stroke="#D7D4F7" strokeWidth="0.306849"/>
<path d="M211.973 -114.519L420.188 456.961" stroke="#D7D4F7" strokeWidth="0.306849"/>
<path d="M215.879 -114.519L424.094 456.961" stroke="#D7D4F7" strokeWidth="0.306849"/>
<path d="M219.785 -114.519L428.001 456.961" stroke="#D7D4F7" strokeWidth="0.306849"/>
<path d="M223.691 -114.519L431.907 456.961" stroke="#D7D4F7" strokeWidth="0.306849"/>
<path d="M227.594 -114.519L435.809 456.961" stroke="#D7D4F7" strokeWidth="0.306849"/>
<path d="M231.506 -114.519L439.721 456.961" stroke="#D7D4F7" strokeWidth="0.306849"/>
<path d="M235.41 -114.519L443.626 456.961" stroke="#D7D4F7" strokeWidth="0.306849"/>
<path d="M239.314 -114.519L447.53 456.961" stroke="#D7D4F7" strokeWidth="0.306849"/>
<path d="M243.223 -114.519L451.438 456.961" stroke="#D7D4F7" strokeWidth="0.306849"/>
<path d="M247.127 -114.519L455.343 456.961" stroke="#D7D4F7" strokeWidth="0.306849"/>
<path d="M251.035 -114.519L459.251 456.961" stroke="#D7D4F7" strokeWidth="0.306849"/>
<path d="M254.938 -114.519L463.153 456.961" stroke="#D7D4F7" strokeWidth="0.306849"/>
<path d="M258.846 -114.519L467.061 456.961" stroke="#D7D4F7" strokeWidth="0.306849"/>
<path d="M-329.582 220.852L493.025 365.148" stroke="#D7D4F7" strokeWidth="0.306849"/>
<path d="M-327.627 217.469L494.98 361.765" stroke="#D7D4F7" strokeWidth="0.306849"/>
<path d="M-325.678 214.086L496.929 358.382" stroke="#D7D4F7" strokeWidth="0.306849"/>
<path d="M-323.723 210.703L498.884 355" stroke="#D7D4F7" strokeWidth="0.306849"/>
<path d="M-321.77 207.321L500.837 351.617" stroke="#D7D4F7" strokeWidth="0.306849"/>
<path d="M-319.814 203.938L502.793 348.234" stroke="#D7D4F7" strokeWidth="0.306849"/>
<path d="M-317.863 200.555L504.744 344.851" stroke="#D7D4F7" strokeWidth="0.306849"/>
<path d="M-315.912 197.173L506.695 341.469" stroke="#D7D4F7" strokeWidth="0.306849"/>
<path d="M-313.957 193.79L508.65 338.086" stroke="#D7D4F7" strokeWidth="0.306849"/>
<path d="M-312.006 190.407L510.601 334.704" stroke="#D7D4F7" strokeWidth="0.306849"/>
<path d="M-310.055 187.025L512.552 331.321" stroke="#D7D4F7" strokeWidth="0.306849"/>
<path d="M-308.1 183.642L514.507 327.938" stroke="#D7D4F7" strokeWidth="0.306849"/>
<path d="M-306.146 180.259L516.46 324.555" stroke="#D7D4F7" strokeWidth="0.306849"/>
<path d="M-304.191 176.876L518.416 321.173" stroke="#D7D4F7" strokeWidth="0.306849"/>
<path d="M-302.242 173.494L520.365 317.79" stroke="#D7D4F7" strokeWidth="0.306849"/>
<path d="M-300.291 170.111L522.316 314.407" stroke="#D7D4F7" strokeWidth="0.306849"/>
<path d="M-298.332 166.728L524.275 311.024" stroke="#D7D4F7" strokeWidth="0.306849"/>
<path d="M-296.381 163.346L526.226 307.642" stroke="#D7D4F7" strokeWidth="0.306849"/>
<path d="M-294.43 159.963L528.177 304.259" stroke="#D7D4F7" strokeWidth="0.306849"/>
<path d="M-292.473 156.58L530.134 300.876" stroke="#D7D4F7" strokeWidth="0.306849"/>
<path d="M-290.521 153.197L532.085 297.494" stroke="#D7D4F7" strokeWidth="0.306849"/>
<path d="M-288.566 149.815L534.041 294.111" stroke="#D7D4F7" strokeWidth="0.306849"/>
<path d="M-286.617 146.432L535.99 290.728" stroke="#D7D4F7" strokeWidth="0.306849"/>
<path d="M-284.664 143.049L537.943 287.345" stroke="#D7D4F7" strokeWidth="0.306849"/>
<path d="M-282.709 139.666L539.898 283.963" stroke="#D7D4F7" strokeWidth="0.306849"/>
<path d="M-280.758 136.284L541.849 280.58" stroke="#D7D4F7" strokeWidth="0.306849"/>
<path d="M-278.805 132.901L543.802 277.197" stroke="#D7D4F7" strokeWidth="0.306849"/>
<path d="M-276.85 129.518L545.757 273.814" stroke="#D7D4F7" strokeWidth="0.306849"/>
<path d="M-274.9 126.135L547.707 270.432" stroke="#D7D4F7" strokeWidth="0.306849"/>
<path d="M-272.945 122.753L549.662 267.049" stroke="#D7D4F7" strokeWidth="0.306849"/>
<path d="M-270.992 119.37L551.615 263.666" stroke="#D7D4F7" strokeWidth="0.306849"/>
<path d="M-269.041 115.987L553.566 260.283" stroke="#D7D4F7" strokeWidth="0.306849"/>
<path d="M-267.084 112.605L555.523 256.901" stroke="#D7D4F7" strokeWidth="0.306849"/>
<path d="M-265.131 109.222L557.476 253.518" stroke="#D7D4F7" strokeWidth="0.306849"/>
<path d="M-263.176 105.839L559.431 250.135" stroke="#D7D4F7" strokeWidth="0.306849"/>
<path d="M-261.227 102.457L561.38 246.753" stroke="#D7D4F7" strokeWidth="0.306849"/>
<path d="M-259.275 99.074L563.332 243.37" stroke="#D7D4F7" strokeWidth="0.306849"/>
<path d="M-257.32 95.6912L565.287 239.987" stroke="#D7D4F7" strokeWidth="0.306849"/>
<path d="M-255.369 92.3085L567.238 236.605" stroke="#D7D4F7" strokeWidth="0.306849"/>
<path d="M-253.416 88.9259L569.191 233.222" stroke="#D7D4F7" strokeWidth="0.306849"/>
<path d="M-251.459 85.5431L571.148 229.839" stroke="#D7D4F7" strokeWidth="0.306849"/>
<path d="M-249.508 82.1603L573.099 226.456" stroke="#D7D4F7" strokeWidth="0.306849"/>
<path d="M-247.555 78.7776L575.052 223.074" stroke="#D7D4F7" strokeWidth="0.306849"/>
<path d="M-245.604 75.395L577.003 219.691" stroke="#D7D4F7" strokeWidth="0.306849"/>
<path d="M-243.65 72.0121L578.957 216.308" stroke="#D7D4F7" strokeWidth="0.306849"/>
<path d="M-241.697 68.6295L580.91 212.926" stroke="#D7D4F7" strokeWidth="0.306849"/>
<path d="M-239.746 65.2467L582.861 209.543" stroke="#D7D4F7" strokeWidth="0.306849"/>
<path d="M-237.787 61.864L584.82 206.16" stroke="#D7D4F7" strokeWidth="0.306849"/>
<path d="M-235.834 58.4814L586.773 202.777" stroke="#D7D4F7" strokeWidth="0.306849"/>
<path d="M-233.885 55.0985L588.722 199.395" stroke="#D7D4F7" strokeWidth="0.306849"/>
<path d="M-231.932 51.7157L590.675 196.012" stroke="#D7D4F7" strokeWidth="0.306849"/>
<path d="M-229.977 48.3329L592.63 192.629" stroke="#D7D4F7" strokeWidth="0.306849"/>
<path d="M-228.023 44.9504L594.584 189.247" stroke="#D7D4F7" strokeWidth="0.306849"/>
<path d="M-226.07 41.5676L596.537 185.864" stroke="#D7D4F7" strokeWidth="0.306849"/>
<path d="M-224.123 38.1848L598.484 182.481" stroke="#D7D4F7" strokeWidth="0.306849"/>
<path d="M-222.166 34.8021L600.441 179.098" stroke="#D7D4F7" strokeWidth="0.306849"/>
<path d="M-220.213 31.4195L602.394 175.716" stroke="#D7D4F7" strokeWidth="0.306849"/>
<path d="M-218.262 28.0368L604.345 172.333" stroke="#D7D4F7" strokeWidth="0.306849"/>
<path d="M-216.309 24.6543L606.298 168.95" stroke="#D7D4F7" strokeWidth="0.306849"/>
<path d="M-214.354 21.2715L608.253 165.568" stroke="#D7D4F7" strokeWidth="0.306849"/>
<path d="M-212.4 17.8888L610.207 162.185" stroke="#D7D4F7" strokeWidth="0.306849"/>
<path d="M-210.451 14.5059L612.156 158.802" stroke="#D7D4F7" strokeWidth="0.306849"/>
<path d="M-208.49 11.1233L614.117 155.419" stroke="#D7D4F7" strokeWidth="0.306849"/>
<path d="M-206.541 7.74058L616.066 152.037" stroke="#D7D4F7" strokeWidth="0.306849"/>
<path d="M-204.588 4.35788L618.019 148.654" stroke="#D7D4F7" strokeWidth="0.306849"/>
<path d="M-202.633 0.975044L619.974 145.271" stroke="#D7D4F7" strokeWidth="0.306849"/>
<path d="M-200.682 -2.40755L621.925 141.889" stroke="#D7D4F7" strokeWidth="0.306849"/>
<path d="M-198.73 -5.79034L623.877 138.506" stroke="#D7D4F7" strokeWidth="0.306849"/>
<path d="M-196.777 -9.17312L625.83 135.123" stroke="#D7D4F7" strokeWidth="0.306849"/>
<path d="M-194.822 -12.5558L627.785 131.74" stroke="#D7D4F7" strokeWidth="0.306849"/>
<path d="M-192.873 -15.9385L629.734 128.358" stroke="#D7D4F7" strokeWidth="0.306849"/>
<path d="M-190.918 -19.3212L631.689 124.975" stroke="#D7D4F7" strokeWidth="0.306849"/>
<path d="M-188.965 -22.704L633.642 121.592" stroke="#D7D4F7" strokeWidth="0.306849"/>
<path d="M-187.018 -26.0867L635.589 118.209" stroke="#D7D4F7" strokeWidth="0.306849"/>
<path d="M-185.061 -29.4695L637.546 114.827" stroke="#D7D4F7" strokeWidth="0.306849"/>
<path d="M-183.107 -32.8522L639.5 111.444" stroke="#D7D4F7" strokeWidth="0.306849"/>
<path d="M-181.154 -36.2349L641.453 108.061" stroke="#D7D4F7" strokeWidth="0.306849"/>
<path d="M-179.197 -39.6176L643.41 104.678" stroke="#D7D4F7" strokeWidth="0.306849"/>
</g>
<g opacity="0.4">
<path opacity="0.2" d="M66.438 174.742L222.586 125.564L228.297 141.14L74.583 196.955L66.438 174.742Z" fill="#7165E3"/>
</g>
<g opacity="0.4">
<path opacity="0.2" d="M140.553 105.446L174.681 156.681L218.596 236.519H234.027L175.381 144.372L154.862 105.446H140.553Z" fill="#7165E3"/>
</g>
<path d="M166.384 145.453C163.656 146.315 160.208 145.64 156.814 144.497C153.42 143.354 149.993 141.765 146.611 140.726C138.285 138.213 130.714 139.179 125.442 143.427C125.165 143.591 124.985 143.878 124.927 144.248C124.954 144.713 125.142 145.226 125.457 145.691L144.619 177.8C145.199 178.932 146.036 179.974 147.013 180.781C148.47 181.82 149.859 181.446 151.06 181.031C154.914 179.828 158.453 178.087 161.619 175.837C164.783 173.551 166.947 170.066 167.9 165.719C168.275 163.642 168.319 161.398 168.768 159.383C169.107 157.276 170.247 155.723 171.978 155.009L166.384 145.453Z" fill="#F7F6FD"/>
<path d="M224.244 156.173C217.296 142.523 210.314 128.801 201.745 115.723C194.105 115.536 188.551 119.95 184.563 125.466C180.576 130.982 177.752 137.641 173.666 143.053L177.344 152.849C179.257 151.936 181.684 151.918 184.264 152.797C186.809 153.662 189.373 154.756 191.925 156.069C197.789 159.005 203.673 161.054 209.374 162.146C215.021 163.07 220.405 162.426 224.032 159.403C224.55 159.111 224.847 158.542 224.863 157.814C224.772 157.273 224.559 156.71 224.244 156.173Z" fill="#F7F6FD"/>
<g opacity="0.3">
<path opacity="0.4" d="M166.388 145.453C163.66 146.315 160.212 145.64 156.818 144.497C153.424 143.354 149.997 141.765 146.615 140.726C138.289 138.213 130.718 139.179 125.446 143.427C125.169 143.591 124.989 143.878 124.931 144.248C124.958 144.713 125.146 145.226 125.461 145.691L144.623 177.8C145.203 178.932 146.039 179.974 147.017 180.781C148.474 181.82 149.863 181.446 151.064 181.031C154.918 179.828 158.457 178.087 161.622 175.837C164.787 173.551 166.951 170.066 167.904 165.719C168.278 163.642 168.323 161.398 168.772 159.383C169.111 157.276 170.251 155.723 171.982 155.009L166.388 145.453Z" fill="#7165E3"/>
</g>
<path d="M166.385 145.453L166.758 146.045C167.022 146.481 167.382 147.083 167.855 147.852L172.1 154.937L172.146 155.061H172.042C170.815 155.529 169.904 156.47 169.419 157.772C168.864 159.358 168.531 161.102 168.427 162.966C168.281 165.125 167.85 167.129 167.144 168.929C166.342 170.928 165.232 172.675 163.844 174.123C160.997 177.239 156.832 179.244 152.224 180.916C151.069 181.29 150.003 181.955 148.359 181.633C147.954 181.549 147.534 181.372 147.126 181.115C146.719 180.857 146.331 180.524 145.989 180.137C145.357 179.375 144.797 178.557 144.326 177.707C142.371 174.434 140.369 171.079 138.334 167.682C135.345 162.675 132.432 157.783 129.606 153.056C128.204 150.698 126.813 148.371 125.463 146.107C125.039 145.507 124.754 144.846 124.648 144.216C124.723 143.666 125.001 143.251 125.432 143.043C126.105 142.513 126.785 142.004 127.516 141.63C130.287 140.065 133.531 139.228 137.095 139.158C140.22 139.06 143.56 139.568 146.988 140.664C150.101 141.703 152.901 142.928 155.338 143.78C157.437 144.603 159.519 145.188 161.546 145.525C162.826 145.733 164.058 145.764 165.214 145.619C165.996 145.504 166.41 145.38 166.401 145.401C166.315 145.45 166.221 145.488 166.122 145.515C165.848 145.603 165.563 145.672 165.27 145.723C164.123 145.915 162.889 145.915 161.601 145.723C159.565 145.42 157.468 144.859 155.35 144.05C152.888 143.178 150.087 141.973 146.992 140.934C139.761 138.69 133.047 139.055 127.902 141.973C127.187 142.388 126.487 142.845 125.81 143.365C125.472 143.624 125.129 143.874 125.134 144.289C125.239 144.81 125.485 145.35 125.84 145.837C127.2 148.108 128.588 150.428 130.006 152.797C132.819 157.513 135.74 162.405 138.738 167.412C140.768 170.819 142.762 174.161 144.721 177.436C145.158 178.241 145.685 179.014 146.283 179.732C146.569 180.058 146.894 180.338 147.236 180.555C147.578 180.771 147.931 180.919 148.27 180.989C149.665 181.27 150.758 180.677 151.944 180.293C156.542 178.641 160.665 176.616 163.506 173.603C164.883 172.195 165.992 170.498 166.807 168.555C167.511 166.781 167.955 164.813 168.128 162.696C168.247 160.825 168.604 159.08 169.19 157.502C169.703 156.165 170.661 155.208 171.945 154.75L171.919 154.916C170.152 151.872 168.772 149.504 167.827 147.873L166.759 146.024C166.507 145.691 166.385 145.453 166.385 145.453Z" fill="#7165E3"/>
<g opacity="0.3">
<path opacity="0.4" d="M224.242 156.173C217.294 142.523 210.312 128.801 201.744 115.723C194.103 115.536 188.549 119.951 184.562 125.466C180.574 130.982 177.75 137.641 173.664 143.053L177.342 152.849C179.255 151.936 181.682 151.918 184.262 152.797C186.807 153.662 189.371 154.756 191.923 156.069C197.787 159.005 203.671 161.054 209.372 162.146C215.019 163.07 220.403 162.426 224.03 159.403C224.548 159.111 224.845 158.542 224.861 157.814C224.77 157.273 224.557 156.71 224.242 156.173Z" fill="#7165E3"/>
</g>
<path d="M224.243 156.173C224.471 156.539 224.656 156.921 224.788 157.305C224.952 157.79 224.954 158.25 224.792 158.593C224.563 159.032 224.24 159.384 223.838 159.632C221.432 161.513 218.401 162.542 214.968 162.644C210.631 162.904 204.838 161.699 198.273 159.05C196.62 158.357 194.932 157.627 193.211 156.858C191.473 156.069 189.697 155.175 187.895 154.375C186.06 153.528 184.228 152.921 182.444 152.568C180.596 152.189 178.896 152.358 177.515 153.056L177.269 153.191L177.132 152.817C175.99 149.701 174.718 146.398 173.445 143.022L173.396 142.887L173.461 142.804C175.386 140.248 177.11 137.288 178.827 134.234C181.636 129.216 184.414 124.303 188.176 120.844C191.938 117.385 196.553 115.307 201.646 115.453H201.784L201.881 115.598C207.983 125.155 213.561 134.933 218.565 144.85C220.408 148.434 221.822 151.249 222.783 153.16C223.251 154.105 223.613 154.833 223.868 155.362C223.952 155.591 224.072 155.778 224.143 155.923C224.175 155.989 224.199 156.055 224.215 156.121C224.215 156.121 224.193 156.058 224.103 155.934L223.802 155.373C223.531 154.853 223.152 154.126 222.664 153.191C221.653 151.238 220.195 148.444 218.342 144.881C213.284 135.003 207.683 125.262 201.584 115.733L201.814 115.889C196.807 115.764 192.225 117.79 188.562 121.259C184.899 124.729 182.069 129.57 179.285 134.608C177.56 137.662 175.83 140.632 173.883 143.198L173.898 142.98C175.136 146.356 176.399 149.659 177.568 152.776L177.186 152.537C178.631 151.819 180.403 151.647 182.328 152.038C184.152 152.401 186.026 153.026 187.901 153.898C189.725 154.708 191.496 155.612 193.225 156.401C194.954 157.191 196.625 157.938 198.265 158.603C203.982 161.076 209.627 162.328 214.843 162.281C218.258 162.211 221.29 161.243 223.726 159.445C224.12 159.193 224.437 158.842 224.663 158.406C224.822 158.091 224.832 157.665 224.693 157.211C224.557 156.864 224.407 156.517 224.243 156.173Z" fill="#7165E3"/>
<path d="M173.91 156.973C173.91 156.973 171.985 157.378 172.881 164.337C173.776 171.297 182.27 203.593 182.27 203.593L211.083 211.851L180.217 157.949L173.91 156.973Z" fill="#F7F6FD"/>
<path d="M181.638 156.879L209.612 191.803L215.452 171.256C215.452 171.256 191.933 153.378 181.262 153.7L181.638 156.879Z" fill="#F7F6FD"/>
<g opacity="0.3">
<path opacity="0.4" d="M173.908 156.973C173.908 156.973 171.983 157.378 172.879 164.337C173.774 171.297 182.268 203.593 182.268 203.593L211.081 211.851L180.215 157.949L173.908 156.973Z" fill="#7165E3"/>
</g>
<g opacity="0.3">
<path opacity="0.4" d="M181.636 156.879L209.61 191.803L215.45 171.256C215.45 171.256 191.931 153.379 181.26 153.701L181.636 156.879Z" fill="#7165E3"/>
</g>
<path d="M173.91 156.973C174.032 156.959 174.16 156.959 174.292 156.973L175.485 157.129L180.191 157.804H180.26L180.29 157.887C185.936 167.631 197.51 187.772 211.245 211.747L211.491 212.184L211.085 212.069L203.05 209.763L182.297 203.832H182.115L182.035 203.614C178.391 189.559 175.39 177.52 173.613 169.054C172.757 165.706 172.432 162.464 172.651 159.476C172.73 158.681 172.962 157.976 173.338 157.399C173.444 157.259 173.574 157.144 173.724 157.056C173.826 157.004 173.892 156.993 173.895 157.004L173.748 157.097C173.617 157.199 173.506 157.325 173.416 157.471C173.072 158.06 172.863 158.763 172.799 159.549C172.65 162.551 173.024 165.786 173.905 169.116C175.76 177.582 178.821 189.621 182.492 203.676L182.233 203.396L203.006 209.337L211.042 211.643L210.891 211.966C197.174 187.991 185.684 167.818 180.153 158.032L180.261 158.115L175.544 157.336L174.328 157.118L173.91 156.973Z" fill="#7165E3"/>
<path d="M181.637 156.879C181.637 156.879 181.614 156.817 181.565 156.682L181.47 156.069L181.167 153.68L181.144 153.617H181.231C183.768 153.441 188.577 154.729 194.532 157.772C201.661 161.477 208.707 165.936 215.539 171.069L215.756 171.235L215.699 171.432L213.018 180.844L209.846 191.969L209.747 192.291L209.458 191.927L189.445 166.82L183.683 159.549L182.152 157.596C181.968 157.378 181.8 157.149 181.649 156.91C181.649 156.91 181.854 157.139 182.226 157.585L183.802 159.518C185.201 161.252 187.181 163.673 189.686 166.789C194.703 173.022 201.682 181.695 209.755 191.72H209.391L212.569 180.542L215.262 171.141L215.392 171.495C208.597 166.379 201.596 161.908 194.508 158.157C188.554 155.092 183.844 153.742 181.311 153.835L181.357 153.773L181.572 156.11C181.591 156.349 181.615 156.557 181.62 156.713C181.63 156.769 181.636 156.825 181.637 156.879Z" fill="#7165E3"/>
<path d="M169.424 152.724C169.451 152.796 168.383 153.077 166.686 153.607C164.99 154.137 162.694 154.947 160.291 156.058C157.889 157.17 155.87 158.406 154.455 159.372C153.729 159.94 152.958 160.45 152.144 160.899C152.273 160.674 152.44 160.485 152.641 160.338C152.984 159.995 153.514 159.549 154.187 159.019C155.973 157.669 157.904 156.51 159.966 155.549C162.018 154.58 164.195 153.806 166.48 153.233C167.362 153.015 168.077 152.859 168.597 152.786C168.848 152.71 169.127 152.689 169.424 152.724Z" fill="#7165E3"/>
<path d="M167.273 149.379C166.339 149.481 165.377 149.519 164.392 149.493C162.069 149.551 159.809 149.77 157.624 150.148C155.077 150.605 152.872 151.239 151.261 151.716C150.431 152.019 149.56 152.251 148.654 152.412C148.826 152.258 149.029 152.142 149.257 152.07C149.67 151.872 150.281 151.623 151.046 151.342C153.051 150.592 155.157 150.016 157.352 149.618C159.55 149.226 161.851 149.056 164.234 149.109C165.101 149.109 165.9 149.182 166.422 149.234C166.693 149.234 166.98 149.283 167.273 149.379Z" fill="#7165E3"/>
<path d="M199.346 137.849C199.38 137.942 197.997 137.932 195.852 138.16C193.066 138.448 190.441 139.089 188.018 140.072C185.612 141.082 183.435 142.447 181.524 144.144C180.073 145.463 179.3 146.429 179.218 146.346C179.345 146.066 179.506 145.816 179.698 145.598C180.166 144.954 180.684 144.361 181.249 143.822C183.089 141.996 185.256 140.561 187.698 139.552C190.153 138.551 192.846 137.955 195.72 137.776C196.816 137.714 197.723 137.703 198.374 137.776C198.684 137.759 199.01 137.783 199.346 137.849Z" fill="#7165E3"/>
<path d="M201.419 147.177C201.223 147.332 200.997 147.447 200.747 147.52C200.308 147.717 199.641 147.956 198.791 148.216C196.579 148.893 194.246 149.348 191.813 149.577C189.381 149.807 186.852 149.807 184.25 149.577C183.25 149.473 182.44 149.369 181.855 149.265C181.566 149.241 181.265 149.175 180.959 149.068C181.993 149.046 183.05 149.087 184.127 149.192C186.675 149.313 189.164 149.261 191.581 149.036C193.99 148.798 196.328 148.399 198.584 147.842C199.496 147.557 200.442 147.335 201.419 147.177Z" fill="#7165E3"/>
<path d="M181.791 150.418C180.782 148.546 179.555 146.748 178.155 145.089C176.967 143.624 176.217 142.17 174.197 141.391C173.325 141.129 172.494 141.087 171.768 141.267C171.043 141.447 170.443 141.845 170.016 142.43C168.427 141.173 166.817 141.89 166.018 143.022C165.647 143.624 165.461 144.385 165.474 145.242C165.487 146.099 165.699 147.028 166.092 147.956C166.903 149.801 168.056 151.582 169.454 153.15C171.398 155.549 173.761 157.507 176.233 158.77C177.337 159.292 178.432 159.53 179.417 159.461C180.401 159.392 181.243 159.018 181.864 158.375C182.661 157.557 183.082 156.355 183.069 154.932C183.056 153.509 182.61 151.933 181.791 150.418Z" fill="#F7F6FD"/>
<g opacity="0.4">
<path opacity="0.3" d="M181.795 150.418C180.786 148.546 179.559 146.748 178.159 145.089C176.971 143.624 176.221 142.17 174.201 141.391C173.329 141.129 172.498 141.087 171.772 141.267C171.047 141.447 170.447 141.845 170.02 142.43C168.431 141.173 166.821 141.89 166.022 143.022C165.651 143.624 165.465 144.385 165.478 145.242C165.491 146.099 165.703 147.028 166.096 147.956C166.907 149.801 168.06 151.582 169.458 153.15C171.402 155.549 173.765 157.508 176.237 158.77C177.341 159.292 178.436 159.53 179.42 159.461C180.405 159.392 181.247 159.018 181.868 158.375C182.665 157.557 183.086 156.355 183.073 154.932C183.06 153.509 182.614 151.933 181.795 150.418Z" fill="#7165E3"/>
</g>
<path d="M181.791 150.418C181.922 150.604 182.035 150.8 182.126 151C182.397 151.557 182.624 152.12 182.804 152.682C183.37 154.479 183.365 156.176 182.788 157.465C182.212 158.754 181.103 159.549 179.663 159.705C178.297 159.827 176.731 159.389 175.207 158.458C173.546 157.457 171.956 156.149 170.537 154.615C168.978 153.015 167.614 151.2 166.524 149.275C165.895 148.178 165.486 147.03 165.333 145.939C165.181 144.849 165.29 143.852 165.652 143.043C166.056 142.339 166.668 141.84 167.435 141.588C167.798 141.443 168.232 141.425 168.697 141.535C169.162 141.646 169.642 141.882 170.096 142.222H169.809C170.314 141.429 171.135 140.97 172.148 140.913C173.016 140.761 174.04 140.992 175.051 141.567C175.933 142.121 176.744 142.912 177.373 143.832C177.952 144.632 178.525 145.317 179.032 145.993C179.822 147.012 180.539 148.081 181.173 149.182C181.345 149.472 181.502 149.767 181.644 150.065C181.717 150.262 181.755 150.366 181.755 150.366C181.755 150.366 181.511 149.961 181.049 149.223C180.376 148.15 179.637 147.107 178.84 146.107C178.339 145.473 177.729 144.757 177.136 143.967C176.55 143.119 175.796 142.393 174.978 141.89C174.048 141.38 173.112 141.186 172.322 141.339C171.391 141.398 170.634 141.82 170.162 142.544L170.084 142.71L169.888 142.554C169.504 142.275 169.098 142.083 168.708 141.996C168.317 141.909 167.954 141.93 167.649 142.056C166.953 142.291 166.398 142.751 166.033 143.396C165.711 144.141 165.617 145.055 165.76 146.052C165.902 147.048 166.277 148.096 166.849 149.099C167.9 150.951 169.213 152.698 170.712 154.241C172.073 155.717 173.596 156.982 175.189 157.959C176.622 158.851 178.099 159.281 179.394 159.185C180.515 159.086 181.437 158.58 182.044 157.731C182.491 157.118 182.766 156.347 182.853 155.464C182.939 154.58 182.836 153.605 182.548 152.599C182.336 151.874 182.084 151.145 181.791 150.418Z" fill="#7165E3"/>
<path d="M174.542 157.824C174.459 157.762 174.69 157.045 174.795 155.747C174.944 154.07 174.738 152.224 174.19 150.322C173.642 148.42 172.763 146.502 171.606 144.684C170.719 143.282 170.044 142.482 170.095 142.43C170.768 143.053 171.37 143.777 171.864 144.559C173.136 146.407 174.096 148.394 174.67 150.366C175.245 152.341 175.413 154.248 175.159 155.934C175.097 156.661 174.887 157.303 174.542 157.824Z" fill="#7165E3"/>
<path d="M179.213 146.346C179.548 147.099 179.773 147.858 179.88 148.59C180.247 150.376 180.336 152.09 180.143 153.659C179.96 155.244 179.48 156.651 178.726 157.814C178.452 158.327 178.062 158.732 177.577 159.009C178.616 157.423 179.321 155.536 179.665 153.42C180.105 149.795 179.027 146.263 179.213 146.346Z" fill="#7165E3"/>
<path d="M159.398 147.301C158.957 147.235 158.505 147.128 158.049 146.979L154.337 145.941C150.248 144.719 146.206 143.813 142.242 143.229C138.278 142.653 134.522 142.786 131.111 143.624C130.088 143.89 129.109 144.237 128.179 144.663C127.85 144.844 127.499 144.993 127.129 145.11C127.394 144.843 127.702 144.627 128.046 144.466C128.933 143.957 129.888 143.547 130.901 143.24C134.286 142.281 138.061 142.092 142.066 142.679C146.053 143.265 150.131 144.228 154.257 145.556C155.832 146.045 157.107 146.47 157.99 146.772C158.456 146.905 158.927 147.082 159.398 147.301Z" fill="white"/>
<path d="M156.814 152.132C155.817 152.465 154.76 152.691 153.653 152.807C152.635 153.103 151.556 153.287 150.429 153.358C152.223 152.33 154.407 151.911 156.814 152.132Z" fill="white"/>
<path d="M157.594 158.822C157.696 158.957 157.283 159.393 156.677 159.798C156.071 160.203 155.497 160.411 155.395 160.276C155.294 160.141 155.706 159.705 156.312 159.299C156.918 158.894 157.508 158.728 157.594 158.822Z" fill="white"/>
<path d="M169.436 151.135C169.393 151.135 168.974 150.75 168.425 149.961C167.711 148.911 167.176 147.784 166.862 146.668C166.543 145.563 166.449 144.497 166.586 143.551C166.714 142.835 166.934 142.513 166.977 142.513C166.85 143.818 166.967 145.243 167.323 146.72C167.823 148.214 168.538 149.708 169.436 151.135Z" fill="white"/>
<path d="M176 152.651C175.684 151.86 175.425 151.067 175.227 150.283C174.876 149.495 174.585 148.702 174.359 147.914C174.926 148.66 175.367 149.478 175.646 150.302C175.926 151.125 176.035 151.931 175.965 152.651H176Z" fill="white"/>
<path d="M185.477 128.822C184.302 130.97 182.984 132.988 181.527 134.868C180.207 136.878 178.745 138.751 177.148 140.477C178.319 138.325 179.638 136.307 181.098 134.431C182.418 132.421 183.88 130.548 185.477 128.822Z" fill="white"/>
<path d="M186.015 142.772C185.235 143.86 184.172 144.648 182.892 145.089C183.214 144.476 183.682 144 184.269 143.687C184.73 143.214 185.324 142.903 186.015 142.772Z" fill="white"/>
<path d="M176.363 170.643C175.395 168.643 174.737 166.608 174.426 164.649C173.959 162.651 173.846 160.735 174.092 159.009C174.236 159.071 174.293 161.543 174.932 164.753C175.571 167.963 176.493 170.643 176.363 170.643Z" fill="white"/>
<path d="M193.675 168.638C191.306 165.951 189.134 163.083 187.201 160.089C188.431 161.383 189.571 162.777 190.598 164.244C191.734 165.638 192.766 167.112 193.675 168.638Z" fill="white"/>
</g>
<defs>
<filter id="filter0_f_401_3613" x="35.2858" y="77.4069" width="256.219" height="187.178" filterUnits="userSpaceOnUse" color-interpolation-filters="sRGB">
<feFlood flood-opacity="0" result="BackgroundImageFix"/>
<feBlend mode="normal" in="SourceGraphic" in2="BackgroundImageFix" result="shape"/>
<feGaussianBlur stdDeviation="15.3425" result="effect1_foregroundBlur_401_3613"/>
</filter>
<clipPath id="clip0_401_3613">
<rect width="561.534" height="224" rx="46.0274" fill="white"/>
</clipPath>
</defs>
</svg>
