<svg width="597" height="206" viewBox="0 0 597 206" fill="none" xmlns="http://www.w3.org/2000/svg">
<g clip-path="url(#clip0_401_4226)">
<path d="M596.35 156.329V48.9084C596.35 21.9417 574.49 0.0808411 547.523 0.0808411H49.4819C22.5151 0.0808411 0.654297 21.9417 0.654297 48.9084V156.329C0.654297 183.296 22.5151 205.157 49.4818 205.157H547.523C574.49 205.157 596.35 183.296 596.35 156.329Z" fill="#FAE69E"/>
<path d="M62.4005 76.9296C62.4005 76.9296 66.4644 69.4323 72.9107 59.0797C72.9107 59.0797 93.6157 74.5472 93.4581 73.6889C93.3004 72.8306 62.4005 76.9296 62.4005 76.9296Z" fill="#F5CF48"/>
<path d="M62.4063 77.8055H62.5289C73.4245 76.3516 91.2042 74.197 93.1486 74.4597C93.6566 74.6699 93.8143 74.5648 93.9894 74.4597C94.1407 74.3577 94.2591 74.2141 94.3306 74.0463C94.4021 73.8785 94.4235 73.6935 94.3923 73.5138C94.3923 73.2686 94.2872 73.0233 93.7092 72.8832C92.518 72.4102 80.6765 63.7393 73.5121 58.3791C73.4157 58.3063 73.305 58.2545 73.1873 58.2274C73.0696 58.2002 72.9474 58.1982 72.8289 58.2215C72.7106 58.2408 72.5979 58.2852 72.4982 58.3517C72.3985 58.4181 72.3142 58.5051 72.2509 58.6069C65.7871 68.8718 61.7407 76.4392 61.6356 76.5092C61.5625 76.6428 61.5254 76.7931 61.5282 76.9453C61.5309 77.0975 61.5732 77.2464 61.6511 77.3773C61.7289 77.5081 61.8395 77.6164 61.9719 77.6915C62.1043 77.7666 62.2541 77.8059 62.4063 77.8055ZM90.4335 72.8307C86.6148 73.0409 79.0649 73.8642 64.0704 75.8436C65.5243 73.2336 68.8 67.5055 73.2843 60.3586C82.6384 67.3654 87.6308 70.9914 90.3809 72.8307H90.4335Z" fill="#F5CF48"/>
<path d="M330.046 392.919L163.634 416.619C160.221 417.071 156.759 416.291 153.869 414.419C150.979 412.547 148.852 409.706 147.869 406.407L61.7552 84.2694C60.0035 77.5955 64.2602 71.7273 71.3195 71.1492L241.007 57.4684C244.361 57.3036 247.674 58.271 250.412 60.2153C253.15 62.1595 255.156 64.9677 256.106 68.1888L338.734 379.676C339.163 381.122 339.271 382.643 339.052 384.135C338.832 385.627 338.29 387.053 337.463 388.313C336.635 389.574 335.543 390.639 334.262 391.435C332.981 392.23 331.542 392.737 330.046 392.919Z" fill="#F5CF48"/>
<path d="M161.795 417.688C162.469 417.684 163.142 417.637 163.81 417.548L330.221 393.83C331.831 393.632 333.379 393.089 334.76 392.24C336.141 391.391 337.323 390.254 338.226 388.907C339.124 387.523 339.715 385.963 339.96 384.331C340.205 382.7 340.097 381.035 339.645 379.448L257.018 68.0134C256.007 64.5921 253.879 61.608 250.974 59.5378C248.069 57.4676 244.553 56.4305 240.99 56.5923L71.3025 70.2731C69.5824 70.3756 67.9059 70.8556 66.3922 71.6791C64.8784 72.5026 63.5646 73.6493 62.544 75.0377C61.6053 76.4032 60.983 77.9608 60.7224 79.5972C60.4618 81.2335 60.5695 82.9074 61.0376 84.4969L147.151 406.634C148.088 409.801 150.016 412.584 152.652 414.574C155.288 416.563 158.493 417.655 161.795 417.688ZM329.958 392.095L163.547 415.813C160.339 416.241 157.082 415.512 154.363 413.756C151.644 412 149.64 409.332 148.71 406.232L62.6667 84.1115C62.2607 82.7693 62.1617 81.3529 62.3769 79.9673C62.5922 78.5816 63.1163 77.2621 63.9104 76.1063C64.7871 74.9167 65.9182 73.9377 67.2213 73.2407C68.5243 72.5437 69.9665 72.1463 71.4427 72.0774L241.13 58.344C244.284 58.1783 247.401 59.083 249.977 60.9112C252.552 62.7395 254.435 65.3841 255.319 68.4163L337.894 379.904C338.285 381.25 338.383 382.664 338.18 384.051C337.978 385.438 337.48 386.766 336.72 387.944C335.949 389.08 334.943 390.039 333.771 390.755C332.599 391.471 331.287 391.928 329.923 392.095H329.958Z" fill="#F5CF48"/>
<path d="M340.869 375.191L174.458 398.892C171.045 399.336 167.586 398.553 164.698 396.683C161.81 394.812 159.682 391.975 158.692 388.68L72.5962 66.542C70.8445 59.868 75.1011 53.9998 82.1605 53.4218L251.883 39.741C255.239 39.5784 258.552 40.5464 261.293 42.49C264.034 44.4336 266.043 47.2405 267 50.4614L349.575 361.896C350.013 363.346 350.128 364.875 349.911 366.374C349.695 367.873 349.153 369.307 348.323 370.574C347.493 371.842 346.396 372.912 345.108 373.71C343.82 374.507 342.373 375.013 340.869 375.191Z" fill="#FEF9E7"/>
<mask id="mask0_401_4226" style="mask-type:alpha" maskUnits="userSpaceOnUse" x="71" y="39" width="246" height="218">
<path d="M252.148 39.6737L81.718 52.8666C78.3366 53.8921 74.9919 56.6585 72.4198 60.5574C69.8476 64.4562 72.6762 62.4726 72.4201 66.961L119.924 241.445C119.668 245.933 120.765 249.83 122.975 252.279C125.185 254.728 128.326 255.527 131.708 254.502L303.418 256.619C306.539 255.673 309.627 253.119 312.001 249.52C314.375 245.921 315.842 241.572 316.079 237.429L266.798 50.24C267.034 46.0968 262.25 43.9729 260.21 41.7126C258.17 39.4522 255.27 38.7142 252.149 39.6607L252.148 39.6737Z" fill="#F7F6FD"/>
</mask>
<g mask="url(#mask0_401_4226)">
<path d="M357.389 -264.537L313.844 526.972" stroke="#F7D96E" strokeWidth="0.325517"/>
<path d="M352.516 -263.06L308.971 528.449" stroke="#F7D96E" strokeWidth="0.325517"/>
<path d="M347.645 -261.583L304.1 529.927" stroke="#F7D96E" strokeWidth="0.325517"/>
<path d="M342.771 -260.105L299.227 531.404" stroke="#F7D96E" strokeWidth="0.325517"/>
<path d="M337.902 -258.628L294.358 532.881" stroke="#F7D96E" strokeWidth="0.325517"/>
<path d="M333.029 -257.151L289.485 534.359" stroke="#F7D96E" strokeWidth="0.325517"/>
<path d="M328.158 -255.673L284.614 535.836" stroke="#F7D96E" strokeWidth="0.325517"/>
<path d="M323.285 -254.196L279.741 537.313" stroke="#F7D96E" strokeWidth="0.325517"/>
<path d="M318.414 -252.719L274.87 538.791" stroke="#F7D96E" strokeWidth="0.325517"/>
<path d="M313.541 -251.241L269.997 540.268" stroke="#F7D96E" strokeWidth="0.325517"/>
<path d="M308.666 -249.764L265.122 541.745" stroke="#F7D96E" strokeWidth="0.325517"/>
<path d="M303.799 -248.287L260.254 543.223" stroke="#F7D96E" strokeWidth="0.325517"/>
<path d="M298.924 -246.809L255.379 544.7" stroke="#F7D96E" strokeWidth="0.325517"/>
<path d="M294.055 -245.332L250.51 546.178" stroke="#F7D96E" strokeWidth="0.325517"/>
<path d="M289.184 -243.855L245.639 547.655" stroke="#F7D96E" strokeWidth="0.325517"/>
<path d="M284.312 -242.377L240.768 549.132" stroke="#F7D96E" strokeWidth="0.325517"/>
<path d="M279.441 -240.9L235.897 550.609" stroke="#F7D96E" strokeWidth="0.325517"/>
<path d="M274.568 -239.423L231.024 552.087" stroke="#F7D96E" strokeWidth="0.325517"/>
<path d="M269.695 -237.945L226.151 553.564" stroke="#F7D96E" strokeWidth="0.325517"/>
<path d="M264.826 -236.468L221.282 555.042" stroke="#F7D96E" strokeWidth="0.325517"/>
<path d="M259.951 -234.991L216.407 556.519" stroke="#F7D96E" strokeWidth="0.325517"/>
<path d="M255.082 -233.513L211.538 557.996" stroke="#F7D96E" strokeWidth="0.325517"/>
<path d="M250.209 -232.036L206.665 559.473" stroke="#F7D96E" strokeWidth="0.325517"/>
<path d="M245.34 -230.559L201.795 560.951" stroke="#F7D96E" strokeWidth="0.325517"/>
<path d="M240.469 -229.081L196.924 562.428" stroke="#F7D96E" strokeWidth="0.325517"/>
<path d="M235.598 -227.604L192.053 563.906" stroke="#F7D96E" strokeWidth="0.325517"/>
<path d="M230.727 -226.127L187.182 565.383" stroke="#F7D96E" strokeWidth="0.325517"/>
<path d="M225.852 -224.649L182.307 566.86" stroke="#F7D96E" strokeWidth="0.325517"/>
<path d="M220.979 -223.172L177.434 568.337" stroke="#F7D96E" strokeWidth="0.325517"/>
<path d="M216.109 -221.694L172.565 569.815" stroke="#F7D96E" strokeWidth="0.325517"/>
<path d="M211.236 -220.217L167.692 571.292" stroke="#F7D96E" strokeWidth="0.325517"/>
<path d="M206.365 -218.74L162.821 572.77" stroke="#F7D96E" strokeWidth="0.325517"/>
<path d="M201.494 -217.263L157.95 574.247" stroke="#F7D96E" strokeWidth="0.325517"/>
<path d="M196.623 -215.785L153.079 575.724" stroke="#F7D96E" strokeWidth="0.325517"/>
<path d="M191.748 -214.308L148.204 577.202" stroke="#F7D96E" strokeWidth="0.325517"/>
<path d="M186.879 -212.831L143.334 578.679" stroke="#F7D96E" strokeWidth="0.325517"/>
<path d="M182.006 -211.353L138.461 580.156" stroke="#F7D96E" strokeWidth="0.325517"/>
<path d="M177.135 -209.876L133.59 581.633" stroke="#F7D96E" strokeWidth="0.325517"/>
<path d="M172.266 -208.399L128.721 583.111" stroke="#F7D96E" strokeWidth="0.325517"/>
<path d="M167.393 -206.921L123.848 584.588" stroke="#F7D96E" strokeWidth="0.325517"/>
<path d="M162.523 -205.444L118.979 586.066" stroke="#F7D96E" strokeWidth="0.325517"/>
<path d="M157.646 -203.967L114.102 587.543" stroke="#F7D96E" strokeWidth="0.325517"/>
<path d="M152.779 -202.489L109.235 589.02" stroke="#F7D96E" strokeWidth="0.325517"/>
<path d="M147.902 -201.012L104.358 590.497" stroke="#F7D96E" strokeWidth="0.325517"/>
<path d="M143.033 -199.535L99.4888 591.975" stroke="#F7D96E" strokeWidth="0.325517"/>
<path d="M138.162 -198.057L94.6177 593.452" stroke="#F7D96E" strokeWidth="0.325517"/>
<path d="M133.289 -196.58L89.7446 594.93" stroke="#F7D96E" strokeWidth="0.325517"/>
<path d="M128.418 -195.103L84.8735 596.407" stroke="#F7D96E" strokeWidth="0.325517"/>
<path d="M123.549 -193.625L80.0044 597.884" stroke="#F7D96E" strokeWidth="0.325517"/>
<path d="M118.676 -192.148L75.1314 599.361" stroke="#F7D96E" strokeWidth="0.325517"/>
<path d="M113.803 -190.671L70.2583 600.839" stroke="#F7D96E" strokeWidth="0.325517"/>
<path d="M108.934 -189.193L65.3892 602.316" stroke="#F7D96E" strokeWidth="0.325517"/>
<path d="M104.062 -187.716L60.5181 603.794" stroke="#F7D96E" strokeWidth="0.325517"/>
<path d="M99.1895 -186.239L55.645 605.271" stroke="#F7D96E" strokeWidth="0.325517"/>
<path d="M94.3164 -184.761L50.772 606.748" stroke="#F7D96E" strokeWidth="0.325517"/>
<path d="M89.4453 -183.284L45.9009 608.225" stroke="#F7D96E" strokeWidth="0.325517"/>
<path d="M84.5742 -181.807L41.0298 609.703" stroke="#F7D96E" strokeWidth="0.325517"/>
<path d="M79.7012 -180.329L36.1567 611.18" stroke="#F7D96E" strokeWidth="0.325517"/>
<path d="M74.8301 -178.852L31.2856 612.658" stroke="#F7D96E" strokeWidth="0.325517"/>
<path d="M987.172 125.613L15.7808 616.707" stroke="#F7D96E" strokeWidth="0.325517"/>
<path d="M983.457 122.133L12.066 613.226" stroke="#F7D96E" strokeWidth="0.325517"/>
<path d="M979.74 118.652L8.34919 609.746" stroke="#F7D96E" strokeWidth="0.325517"/>
<path d="M976.023 115.172L4.6324 606.266" stroke="#F7D96E" strokeWidth="0.325517"/>
<path d="M972.311 111.692L0.919506 602.786" stroke="#F7D96E" strokeWidth="0.325517"/>
<path d="M968.594 108.211L-2.79729 599.305" stroke="#F7D96E" strokeWidth="0.325517"/>
<path d="M964.879 104.731L-6.51213 595.825" stroke="#F7D96E" strokeWidth="0.325517"/>
<path d="M961.162 101.251L-10.2289 592.345" stroke="#F7D96E" strokeWidth="0.325517"/>
<path d="M957.449 97.7706L-13.9418 588.864" stroke="#F7D96E" strokeWidth="0.325517"/>
<path d="M953.738 94.2905L-17.6528 585.384" stroke="#F7D96E" strokeWidth="0.325517"/>
<path d="M950.02 90.8101L-21.3715 581.904" stroke="#F7D96E" strokeWidth="0.325517"/>
<path d="M946.307 87.3298L-25.0844 578.424" stroke="#F7D96E" strokeWidth="0.325517"/>
<path d="M942.588 83.8495L-28.8032 574.943" stroke="#F7D96E" strokeWidth="0.325517"/>
<path d="M938.875 80.3691L-32.516 571.463" stroke="#F7D96E" strokeWidth="0.325517"/>
<path d="M935.16 76.8888L-36.2309 567.983" stroke="#F7D96E" strokeWidth="0.325517"/>
<path d="M931.445 73.4084L-39.9457 564.502" stroke="#F7D96E" strokeWidth="0.325517"/>
<path d="M927.729 69.928L-43.6625 561.022" stroke="#F7D96E" strokeWidth="0.325517"/>
<path d="M924.016 66.4478L-47.3754 557.542" stroke="#F7D96E" strokeWidth="0.325517"/>
<path d="M920.299 62.9676L-51.0922 554.061" stroke="#F7D96E" strokeWidth="0.325517"/>
<path d="M916.582 59.4873L-54.809 550.581" stroke="#F7D96E" strokeWidth="0.325517"/>
<path d="M912.869 56.007L-58.5219 547.101" stroke="#F7D96E" strokeWidth="0.325517"/>
<path d="M909.154 52.5266L-62.2367 543.62" stroke="#F7D96E" strokeWidth="0.325517"/>
<path d="M905.438 49.0462L-65.9535 540.14" stroke="#F7D96E" strokeWidth="0.325517"/>
<path d="M901.723 45.5659L-69.6684 536.66" stroke="#F7D96E" strokeWidth="0.325517"/>
<path d="M898.006 42.0856L-73.3852 533.179" stroke="#F7D96E" strokeWidth="0.325517"/>
<path d="M894.293 38.6053L-77.0981 529.699" stroke="#F7D96E" strokeWidth="0.325517"/>
<path d="M890.576 35.1249L-80.8149 526.219" stroke="#F7D96E" strokeWidth="0.325517"/>
<path d="M886.859 31.6446L-84.5317 522.738" stroke="#F7D96E" strokeWidth="0.325517"/>
<path d="M883.145 28.1645L-88.2465 519.258" stroke="#F7D96E" strokeWidth="0.325517"/>
<path d="M879.432 24.6841L-91.9594 515.778" stroke="#F7D96E" strokeWidth="0.325517"/>
<path d="M875.715 21.2038L-95.6762 512.298" stroke="#F7D96E" strokeWidth="0.325517"/>
<path d="M872 17.7234L-99.391 508.817" stroke="#F7D96E" strokeWidth="0.325517"/>
<path d="M868.281 14.2431L-103.11 505.337" stroke="#F7D96E" strokeWidth="0.325517"/>
<path d="M864.57 10.7628L-106.821 501.857" stroke="#F7D96E" strokeWidth="0.325517"/>
<path d="M860.854 7.28278L-110.538 498.377" stroke="#F7D96E" strokeWidth="0.325517"/>
<path d="M857.139 3.80249L-114.252 494.896" stroke="#F7D96E" strokeWidth="0.325517"/>
<path d="M853.424 0.322144L-117.967 491.416" stroke="#F7D96E" strokeWidth="0.325517"/>
<path d="M849.707 -3.15823L-121.684 487.936" stroke="#F7D96E" strokeWidth="0.325517"/>
<path d="M845.994 -6.6386L-125.397 484.455" stroke="#F7D96E" strokeWidth="0.325517"/>
<path d="M842.277 -10.1189L-129.114 480.975" stroke="#F7D96E" strokeWidth="0.325517"/>
<path d="M838.562 -13.5992L-132.829 477.495" stroke="#F7D96E" strokeWidth="0.325517"/>
<path d="M834.848 -17.0796L-136.543 474.014" stroke="#F7D96E" strokeWidth="0.325517"/>
<path d="M831.135 -20.5599L-140.256 470.534" stroke="#F7D96E" strokeWidth="0.325517"/>
<path d="M827.418 -24.04L-143.973 467.054" stroke="#F7D96E" strokeWidth="0.325517"/>
<path d="M823.703 -27.5204L-147.688 463.573" stroke="#F7D96E" strokeWidth="0.325517"/>
<path d="M819.984 -31.0007L-151.407 460.093" stroke="#F7D96E" strokeWidth="0.325517"/>
<path d="M816.271 -34.4811L-155.12 456.613" stroke="#F7D96E" strokeWidth="0.325517"/>
<path d="M812.559 -37.9614L-158.832 453.132" stroke="#F7D96E" strokeWidth="0.325517"/>
<path d="M808.84 -41.4417L-162.551 449.652" stroke="#F7D96E" strokeWidth="0.325517"/>
<path d="M805.125 -44.9221L-166.266 446.172" stroke="#F7D96E" strokeWidth="0.325517"/>
<path d="M801.412 -48.4023L-169.979 442.692" stroke="#F7D96E" strokeWidth="0.325517"/>
<path d="M797.693 -51.8827L-173.698 439.211" stroke="#F7D96E" strokeWidth="0.325517"/>
<path d="M793.98 -55.3629L-177.411 435.731" stroke="#F7D96E" strokeWidth="0.325517"/>
<path d="M790.262 -58.8433L-181.129 432.251" stroke="#F7D96E" strokeWidth="0.325517"/>
<path d="M786.549 -62.3235L-184.842 428.77" stroke="#F7D96E" strokeWidth="0.325517"/>
<path d="M782.834 -65.8039L-188.557 425.29" stroke="#F7D96E" strokeWidth="0.325517"/>
<path d="M779.117 -69.2842L-192.274 421.81" stroke="#F7D96E" strokeWidth="0.325517"/>
<path d="M775.402 -72.7646L-195.989 418.329" stroke="#F7D96E" strokeWidth="0.325517"/>
<path d="M771.689 -76.2449L-199.702 414.849" stroke="#F7D96E" strokeWidth="0.325517"/>
<path d="M767.973 -79.7249L-203.418 411.369" stroke="#F7D96E" strokeWidth="0.325517"/>
<path d="M764.256 -83.2052L-207.135 407.889" stroke="#F7D96E" strokeWidth="0.325517"/>
<path d="M760.541 -86.6855L-210.85 404.408" stroke="#F7D96E" strokeWidth="0.325517"/>
<path d="M756.83 -90.1659L-214.561 400.928" stroke="#F7D96E" strokeWidth="0.325517"/>
<path d="M753.111 -93.6462L-218.28 397.448" stroke="#F7D96E" strokeWidth="0.325517"/>
<path d="M749.395 -97.1266L-221.997 393.967" stroke="#F7D96E" strokeWidth="0.325517"/>
<path d="M745.684 -100.607L-225.707 390.487" stroke="#F7D96E" strokeWidth="0.325517"/>
<path d="M741.969 -104.087L-229.422 387.007" stroke="#F7D96E" strokeWidth="0.325517"/>
<path d="M738.252 -107.567L-233.139 383.526" stroke="#F7D96E" strokeWidth="0.325517"/>
<path d="M734.533 -111.048L-236.858 380.046" stroke="#F7D96E" strokeWidth="0.325517"/>
<path d="M730.82 -114.528L-240.571 376.566" stroke="#F7D96E" strokeWidth="0.325517"/>
<path d="M727.107 -118.008L-244.284 373.085" stroke="#F7D96E" strokeWidth="0.325517"/>
<path d="M723.391 -121.489L-248 369.605" stroke="#F7D96E" strokeWidth="0.325517"/>
<path d="M719.674 -124.969L-251.717 366.125" stroke="#F7D96E" strokeWidth="0.325517"/>
<path d="M715.961 -128.449L-255.43 362.645" stroke="#F7D96E" strokeWidth="0.325517"/>
<path d="M712.244 -131.93L-259.147 359.164" stroke="#F7D96E" strokeWidth="0.325517"/>
<path d="M708.531 -135.41L-262.86 355.684" stroke="#F7D96E" strokeWidth="0.325517"/>
<path d="M704.816 -138.89L-266.575 352.203" stroke="#F7D96E" strokeWidth="0.325517"/>
<path d="M701.098 -142.371L-270.293 348.723" stroke="#F7D96E" strokeWidth="0.325517"/>
<path d="M697.383 -145.851L-274.008 345.243" stroke="#F7D96E" strokeWidth="0.325517"/>
<path d="M693.672 -149.331L-277.719 341.763" stroke="#F7D96E" strokeWidth="0.325517"/>
<path d="M689.955 -152.812L-281.436 338.282" stroke="#F7D96E" strokeWidth="0.325517"/>
<path d="M686.238 -156.292L-285.153 334.802" stroke="#F7D96E" strokeWidth="0.325517"/>
<path d="M682.523 -159.772L-288.868 331.322" stroke="#F7D96E" strokeWidth="0.325517"/>
<path d="M678.809 -163.253L-292.582 327.841" stroke="#F7D96E" strokeWidth="0.325517"/>
<path d="M675.094 -166.732L-296.297 324.361" stroke="#F7D96E" strokeWidth="0.325517"/>
<path d="M671.377 -170.213L-300.014 320.881" stroke="#F7D96E" strokeWidth="0.325517"/>
<path d="M667.66 -173.693L-303.731 317.401" stroke="#F7D96E" strokeWidth="0.325517"/>
<path d="M663.947 -177.174L-307.444 313.92" stroke="#F7D96E" strokeWidth="0.325517"/>
<path d="M660.232 -180.654L-311.159 310.44" stroke="#F7D96E" strokeWidth="0.325517"/>
<path d="M656.516 -184.134L-314.875 306.96" stroke="#F7D96E" strokeWidth="0.325517"/>
<path d="M652.803 -187.615L-318.588 303.479" stroke="#F7D96E" strokeWidth="0.325517"/>
<path d="M649.086 -191.095L-322.305 299.999" stroke="#F7D96E" strokeWidth="0.325517"/>
<path d="M645.369 -194.575L-326.022 296.519" stroke="#F7D96E" strokeWidth="0.325517"/>
<path d="M641.654 -198.055L-329.737 293.038" stroke="#F7D96E" strokeWidth="0.325517"/>
<path d="M637.941 -201.536L-333.45 289.558" stroke="#F7D96E" strokeWidth="0.325517"/>
<path d="M634.225 -205.016L-337.166 286.078" stroke="#F7D96E" strokeWidth="0.325517"/>
<path d="M630.508 -208.496L-340.883 282.597" stroke="#F7D96E" strokeWidth="0.325517"/>
<path d="M626.793 -211.977L-344.598 279.117" stroke="#F7D96E" strokeWidth="0.325517"/>
<path d="M623.08 -215.457L-348.311 275.637" stroke="#F7D96E" strokeWidth="0.325517"/>
<path d="M619.363 -218.937L-352.028 272.156" stroke="#F7D96E" strokeWidth="0.325517"/>
<path d="M615.648 -222.418L-355.743 268.676" stroke="#F7D96E" strokeWidth="0.325517"/>
<path d="M611.93 -225.898L-359.461 265.196" stroke="#F7D96E" strokeWidth="0.325517"/>
<path d="M608.219 -229.378L-363.172 261.716" stroke="#F7D96E" strokeWidth="0.325517"/>
<path d="M604.504 -232.859L-366.887 258.235" stroke="#F7D96E" strokeWidth="0.325517"/>
<path d="M600.785 -236.339L-370.606 254.755" stroke="#F7D96E" strokeWidth="0.325517"/>
<path d="M597.07 -239.819L-374.321 251.275" stroke="#F7D96E" strokeWidth="0.325517"/>
<path d="M593.357 -243.3L-378.034 247.794" stroke="#F7D96E" strokeWidth="0.325517"/>
<path d="M589.641 -246.78L-381.75 244.314" stroke="#F7D96E" strokeWidth="0.325517"/>
<path d="M585.928 -250.26L-385.463 240.834" stroke="#F7D96E" strokeWidth="0.325517"/>
<path d="M582.213 -253.74L-389.178 237.354" stroke="#F7D96E" strokeWidth="0.325517"/>
<path d="M578.494 -257.221L-392.897 233.873" stroke="#F7D96E" strokeWidth="0.325517"/>
<path d="M574.781 -260.701L-396.61 230.393" stroke="#F7D96E" strokeWidth="0.325517"/>
<path d="M571.07 -264.181L-400.321 226.913" stroke="#F7D96E" strokeWidth="0.325517"/>
<path d="M567.35 -267.661L-404.041 223.432" stroke="#F7D96E" strokeWidth="0.325517"/>
<path d="M563.635 -271.142L-407.756 219.952" stroke="#F7D96E" strokeWidth="0.325517"/>
<path d="M559.916 -274.622L-411.475 216.472" stroke="#F7D96E" strokeWidth="0.325517"/>
<path d="M556.205 -278.102L-415.186 212.991" stroke="#F7D96E" strokeWidth="0.325517"/>
<path d="M552.492 -281.583L-418.899 209.511" stroke="#F7D96E" strokeWidth="0.325517"/>
<path d="M548.775 -285.063L-422.616 206.031" stroke="#F7D96E" strokeWidth="0.325517"/>
<path d="M545.061 -288.543L-426.33 202.551" stroke="#F7D96E" strokeWidth="0.325517"/>
<path d="M541.344 -292.024L-430.047 199.07" stroke="#F7D96E" strokeWidth="0.325517"/>
<path d="M537.631 -295.504L-433.76 195.59" stroke="#F7D96E" strokeWidth="0.325517"/>
<path d="M533.914 -298.984L-437.477 192.109" stroke="#F7D96E" strokeWidth="0.325517"/>
<path d="M530.199 -302.465L-441.192 188.629" stroke="#F7D96E" strokeWidth="0.325517"/>
<path d="M526.484 -305.945L-444.907 185.149" stroke="#F7D96E" strokeWidth="0.325517"/>
<path d="M522.77 -309.425L-448.622 181.668" stroke="#F7D96E" strokeWidth="0.325517"/>
<path d="M519.053 -312.908L-452.338 178.186" stroke="#F7D96E" strokeWidth="0.325517"/>
</g>
<path d="M172.62 399.925C173.294 399.922 173.967 399.875 174.634 399.785L341.046 376.067C342.655 375.869 344.203 375.327 345.584 374.478C346.966 373.628 348.148 372.492 349.051 371.145C349.95 369.761 350.542 368.201 350.786 366.569C351.031 364.937 350.923 363.272 350.47 361.686L267.825 50.2511C266.813 46.833 264.684 43.8532 261.778 41.7889C258.872 39.7245 255.357 38.6949 251.797 38.865L82.1447 52.5458C80.4097 52.6368 78.7165 53.1114 77.1869 53.9352C75.6573 54.7591 74.3293 55.9118 73.2986 57.3104C72.3644 58.6779 71.7448 60.2355 71.4843 61.871C71.2238 63.5066 71.3289 65.1795 71.7921 66.7696L157.906 388.907C158.852 392.079 160.794 394.862 163.443 396.846C166.093 398.83 169.31 399.91 172.62 399.925ZM252.9 40.5817C255.881 40.6642 258.759 41.6859 261.124 43.5009C263.49 45.3159 265.222 47.8315 266.073 50.689L348.718 362.124C349.11 363.47 349.207 364.884 349.005 366.271C348.802 367.658 348.304 368.986 347.545 370.164C346.773 371.3 345.768 372.259 344.595 372.975C343.423 373.691 342.111 374.148 340.748 374.315L174.337 398.033C171.136 398.448 167.893 397.712 165.185 395.957C162.477 394.202 160.481 391.542 159.552 388.452L73.4913 66.3317C73.0891 64.989 72.992 63.5733 73.2072 62.1883C73.4224 60.8032 73.9443 59.4838 74.735 58.3264C75.6135 57.1346 76.7474 56.1542 78.0537 55.4571C79.36 54.76 80.8056 54.3638 82.2848 54.2975L251.954 40.6167L252.9 40.5817Z" fill="#F5CF48"/>
<path d="M89.081 87.7375L262.797 72.6904L329.449 323.989L158.273 346.744L89.081 87.7375Z" fill="#F5CF48"/>
<path d="M140.476 66.1391L190.102 61.9876C190.217 61.9772 190.329 61.9443 190.431 61.8907C190.533 61.8372 190.624 61.7639 190.698 61.6753C190.772 61.5866 190.828 61.4843 190.862 61.3741C190.897 61.2638 190.909 61.1479 190.899 61.0329C190.888 60.9179 190.856 60.806 190.802 60.7037C190.748 60.6014 190.675 60.5107 190.587 60.4367C190.498 60.3626 190.396 60.3068 190.285 60.2724C190.175 60.2379 190.059 60.2255 189.944 60.2359L140.336 64.3699C140.104 64.3699 139.881 64.4622 139.717 64.6264C139.552 64.7907 139.46 65.0134 139.46 65.2457C139.46 65.478 139.552 65.7008 139.717 65.865C139.881 66.0293 140.104 66.1216 140.336 66.1216L140.476 66.1391Z" fill="#E0BC3E"/>
<path d="M196.988 61.4096L203.574 60.8666C203.689 60.8578 203.8 60.8262 203.902 60.7736C204.004 60.721 204.095 60.6484 204.168 60.5602C204.242 60.472 204.297 60.37 204.33 60.2601C204.364 60.1502 204.374 60.0348 204.362 59.9206C204.34 59.6898 204.229 59.4767 204.053 59.3264C203.876 59.176 203.648 59.1001 203.417 59.1149L196.848 59.6754C196.615 59.6754 196.393 59.7677 196.228 59.9319C196.064 60.0962 195.972 60.319 195.972 60.5512C195.972 60.7835 196.064 61.0063 196.228 61.1706C196.393 61.3348 196.615 61.4271 196.848 61.4271L196.988 61.4096Z" fill="#E0BC3E"/>
<path d="M148.256 226.402C148.256 226.402 126.92 156.054 145.418 140.464L235.946 129.568C235.946 129.568 251.466 145.737 253.708 158.156C255.951 170.576 274.729 197.026 267.722 212.809L148.256 226.402Z" fill="#E0BC3E"/>
<path d="M148.252 227.278H148.34L267.823 213.667C267.974 213.649 268.117 213.593 268.239 213.504C268.362 213.415 268.46 213.296 268.524 213.159C273.376 202.194 266.282 186.376 260.571 173.659C257.751 167.387 255.316 161.957 254.616 157.998C252.356 145.456 237.274 129.621 236.626 128.955C236.532 128.857 236.416 128.783 236.289 128.737C236.161 128.692 236.025 128.676 235.89 128.692L145.362 139.605C145.196 139.628 145.039 139.695 144.907 139.798C126.181 155.563 146.658 223.775 147.464 226.665C147.517 226.835 147.621 226.985 147.762 227.095C147.903 227.204 148.074 227.268 148.252 227.278ZM267.053 211.986L148.883 225.456C146.746 218.134 129.246 155.844 145.782 141.375L235.61 130.549C237.747 132.861 250.849 147.295 252.846 158.384C253.6 162.553 256.069 168.071 258.925 174.447C264.32 186.586 271.204 201.738 267.053 211.986Z" fill="#E0BC3E"/>
<path d="M145.415 140.464C145.415 140.464 154.594 141.725 160.217 160.819C168.818 190.037 180.151 251.697 187.316 274.889C197.826 308.627 225.853 313.427 225.853 313.427L344.355 296.243C344.355 296.243 296.131 279.531 287.986 251.119C279.42 221.182 267.561 164.62 264.355 151.99C258.697 129.621 235.89 129.621 235.89 129.621L145.415 140.464Z" fill="#FEF9E7"/>
<path d="M225.905 314.25H226.027L344.53 297.066C344.725 297.036 344.904 296.942 345.04 296.8C345.177 296.657 345.262 296.474 345.283 296.277C345.302 296.083 345.256 295.888 345.151 295.722C345.046 295.557 344.889 295.432 344.705 295.367C344.214 295.209 296.796 278.463 288.878 250.821C282.94 230.063 275.32 196.115 270.293 173.641C268.033 163.569 266.246 155.598 265.265 151.727C259.502 128.955 236.17 128.692 235.942 128.692L145.309 139.605C145.098 139.631 144.904 139.732 144.762 139.89C144.62 140.048 144.541 140.252 144.538 140.464C144.54 140.675 144.616 140.879 144.754 141.04C144.892 141.2 145.082 141.306 145.291 141.34C145.432 141.34 154.05 142.934 159.305 161.064C163.667 175.848 168.694 198.9 173.581 221.2C178.346 243.043 182.865 263.678 186.404 275.152C191.869 292.827 202.169 302.514 209.982 307.523C214.77 310.731 220.118 313.013 225.747 314.25H225.905ZM340.939 295.822L225.922 312.498C223.873 312.078 197.895 306.28 188.155 274.626C184.652 263.223 180.115 242.623 175.351 220.832C170.481 198.498 165.418 175.41 161.057 160.573C157.361 148.049 152.141 143.056 148.795 140.937L236.047 130.427C236.853 130.427 258.136 130.724 263.566 152.165C264.53 156.001 266.316 163.954 268.576 174.026C273.621 196.518 281.241 230.501 287.197 251.311C291.488 266.253 306.763 277.902 318.832 285.032C325.92 289.178 333.31 292.785 340.939 295.822Z" fill="#E0BC3E"/>
<path d="M176.649 167.773H176.737L253.812 159.014C253.928 159.004 254.041 158.969 254.144 158.914C254.246 158.858 254.336 158.782 254.408 158.69C254.481 158.598 254.533 158.492 254.563 158.379C254.593 158.267 254.6 158.149 254.582 158.033C254.556 157.804 254.44 157.594 254.26 157.449C254.079 157.305 253.849 157.238 253.619 157.263L176.544 166.021C176.312 166.033 176.094 166.136 175.938 166.309C175.782 166.481 175.701 166.708 175.712 166.941C175.724 167.173 175.827 167.391 176 167.547C176.172 167.703 176.4 167.784 176.632 167.773H176.649Z" fill="#F5CF48"/>
<path d="M179.87 187.602H179.975L194.444 185.955C194.559 185.942 194.67 185.905 194.771 185.848C194.872 185.792 194.961 185.716 195.032 185.625C195.104 185.533 195.157 185.429 195.188 185.318C195.219 185.206 195.228 185.089 195.214 184.974C195.201 184.859 195.164 184.748 195.108 184.647C195.051 184.546 194.975 184.457 194.884 184.386C194.792 184.314 194.688 184.261 194.577 184.23C194.465 184.199 194.348 184.19 194.233 184.204L179.782 185.833C179.667 185.839 179.554 185.867 179.45 185.916C179.346 185.966 179.253 186.035 179.175 186.12C179.098 186.206 179.038 186.305 179 186.414C178.961 186.522 178.944 186.637 178.95 186.752C178.956 186.867 178.984 186.98 179.033 187.084C179.083 187.188 179.152 187.282 179.237 187.359C179.323 187.436 179.423 187.496 179.531 187.535C179.639 187.573 179.755 187.59 179.87 187.584V187.602Z" fill="#F5CF48"/>
<path d="M210.543 184.116L256.928 178.861C257.16 178.835 257.373 178.718 257.519 178.536C257.665 178.354 257.733 178.121 257.708 177.889C257.682 177.656 257.565 177.444 257.383 177.298C257.201 177.151 256.968 177.084 256.735 177.109L210.35 182.364C210.235 182.371 210.123 182.401 210.019 182.451C209.916 182.501 209.823 182.572 209.746 182.658C209.67 182.744 209.611 182.845 209.574 182.953C209.536 183.062 209.52 183.178 209.527 183.293C209.534 183.408 209.564 183.52 209.614 183.624C209.664 183.727 209.735 183.82 209.821 183.897C209.907 183.973 210.007 184.032 210.116 184.069C210.225 184.107 210.34 184.123 210.456 184.116H210.543Z" fill="#F5CF48"/>
<path d="M184.632 206.083H184.737L208.578 203.385C208.809 203.354 209.019 203.235 209.163 203.051C209.307 202.868 209.373 202.636 209.348 202.404C209.318 202.173 209.198 201.963 209.015 201.819C208.831 201.675 208.599 201.608 208.367 201.633L184.544 204.348C184.43 204.359 184.318 204.393 184.217 204.448C184.116 204.502 184.027 204.577 183.955 204.667C183.883 204.757 183.83 204.86 183.799 204.971C183.768 205.082 183.759 205.198 183.774 205.312C183.799 205.522 183.9 205.717 184.058 205.858C184.216 206 184.42 206.08 184.632 206.083Z" fill="#F5CF48"/>
<path d="M231.44 200.775H231.545L261.78 197.271C261.895 197.259 262.006 197.223 262.108 197.168C262.209 197.112 262.298 197.037 262.371 196.947C262.443 196.856 262.497 196.753 262.529 196.642C262.562 196.531 262.572 196.414 262.559 196.299C262.547 196.184 262.511 196.073 262.456 195.971C262.4 195.87 262.325 195.78 262.235 195.708C262.144 195.636 262.041 195.582 261.929 195.549C261.818 195.517 261.702 195.507 261.587 195.52L231.335 198.935C231.104 198.966 230.894 199.086 230.75 199.269C230.606 199.452 230.54 199.685 230.564 199.916C230.573 200.144 230.669 200.36 230.832 200.52C230.995 200.679 231.212 200.77 231.44 200.775Z" fill="#F5CF48"/>
</g>
<defs>
<clipPath id="clip0_401_4226">
<rect x="0.654297" y="0.0808716" width="595.696" height="205.076" rx="48.8275" fill="white"/>
</clipPath>
</defs>
</svg>
