<svg width="48" height="48" viewBox="0 0 48 48" fill="none" xmlns="http://www.w3.org/2000/svg">
<circle cx="24" cy="24" r="24" fill="#E81313"/>
<path d="M16.481 18.856L16.4812 18.8559L18.1812 18.6893L18.1829 18.6891C22.5708 18.2437 27.0263 18.416 31.5086 18.8559L31.5089 18.856C31.5717 18.8621 31.625 18.9223 31.6181 18.9931L31.618 18.9931L31.6172 19.0033C31.613 19.0583 31.5642 19.1083 31.4991 19.1083H31.499H31.4989H31.4988H31.4987H31.4986H31.4985H31.4984H31.4983H31.4982H31.4981H31.498H31.4979H31.4978H31.4977H31.4976H31.4975H31.4974H31.4973H31.4972H31.4971H31.497H31.4969H31.4968H31.4967H31.4966H31.4965H31.4964H31.4963H31.4962H31.4961H31.496H31.4959H31.4958H31.4956H31.4955H31.4954H31.4953H31.4952H31.4951H31.495H31.4949H31.4948H31.4947H31.4946H31.4945H31.4944H31.4943H31.4942H31.4941H31.494H31.4939H31.4937H31.4936H31.4935H31.4934H31.4933H31.4932H31.4931H31.493H31.4929H31.4928H31.4927H31.4926H31.4925H31.4923H31.4922H31.4921H31.492H31.4919H31.4918H31.4917H31.4916H31.4915H31.4914H31.4912H31.4911H31.491H31.4909H31.4908H31.4907H31.4906H31.4905H31.4903H31.4902H31.4901H31.49H31.4899H31.4898H31.4897H31.4896H31.4894H31.4893H31.4892H31.4891H31.489H31.4889H31.4888H31.4886H31.4885H31.4884H31.4883H31.4882H31.4881H31.488H31.4878H31.4877H31.4876H31.4875H31.4874H31.4873H31.4871H31.487H31.4869H31.4868H31.4867H31.4866H31.4864H31.4863H31.4862H31.4861H31.486H31.4859H31.4857H31.4856H31.4855H31.4854H31.4853H31.4851H31.485H31.4849H31.4848H31.4847H31.4845H31.4844H31.4843H31.4842H31.4841H31.4839H31.4838H31.4837H31.4836H31.4835H31.4833H31.4832H31.4831H31.483H31.4829H31.4827H31.4826H31.4825H31.4824H31.4822H31.4821H31.482H31.4819H31.4818H31.4816H31.4815H31.4814H31.4813H31.4811H31.481H31.4809H31.4808H31.4806H31.4805H31.4804H31.4803H31.4801H31.48H31.4799H31.4798H31.4796H31.4795H31.4794H31.4793H31.4791H31.479H31.4789H31.4788H31.4786H31.4785H31.4784H31.4783H31.4781H31.478H31.4779H31.4778H31.4776H31.4775H31.4774H31.4773H31.4771H31.477H31.4769H31.4767H31.4766H31.4765H31.4764H31.4762H31.4761H31.476H31.4758H31.4757H31.4756H31.4755H31.4753H31.4752H31.4751H31.4749H31.4748H31.4747H31.4745H31.4744H31.4743H31.4742H31.474H31.4739H31.4738H31.4736H31.4735H31.4734H31.4732H31.4731H31.473H31.4729H31.4727H31.4726H31.4725H31.4723H31.4722H31.4721H31.4719H31.4718H31.4717H31.4715H31.4714H31.4713H31.4711H31.471H31.4709H31.4707H31.4706H31.4705H31.4703H31.4702H31.4701H31.4699H31.4698H31.4697H31.4695H31.4694H31.4693H31.4691H31.469H31.4689H31.4687H31.4686H31.4685H31.4683H31.4682H31.4681H31.4679H31.4678H31.4677H31.4675H31.4674H31.4672H31.4671H31.467H31.4668H31.4667H31.4666H31.4664H31.4663H31.4662H31.466H31.4659H31.4658H31.4656H31.4655H31.4653H31.4652H31.4651H31.4649H31.4648H31.4647H31.4645H31.4644H31.4642H31.4641H31.464H31.4638H31.4637H31.4636H31.4634H31.4633H31.4631H31.463H31.4629H31.4627H31.4626H31.4625H31.4623H31.4622H31.462H31.4619H31.4618H31.4616H31.4615H31.4613H31.4612H31.4611H31.4609H31.4608H31.4607H31.4605H31.4604H31.4602H31.4601H31.46H31.4598H31.4597H31.4595H31.4594H31.4593H31.4591H31.459H31.4588H31.4587H31.4586H31.4584H31.4583H31.4581H31.458H31.4579H31.4577H31.4576H31.4574H31.4574C27.0385 18.6666 22.6111 18.4988 18.2161 18.9441C18.2159 18.9442 18.2156 18.9442 18.2153 18.9442L16.5183 19.1106C16.5182 19.1106 16.518 19.1106 16.5179 19.1106C16.4377 19.118 16.3785 19.064 16.3718 18.9943C16.3645 18.9175 16.4149 18.8624 16.481 18.856Z" fill="#FFFFFE" stroke="#FFFFFE"/>
<path d="M21.0652 18.2666C21.0651 18.2666 21.065 18.2666 21.0649 18.2666L21.0605 18.2658C21.0314 18.2607 21.0019 18.2431 20.9806 18.2131C20.9595 18.1835 20.9541 18.153 20.9585 18.1279L20.9591 18.1245L21.1424 17.0328L21.1425 17.0322C21.2126 16.6119 21.2795 16.2693 21.489 16.0104C21.6707 15.786 22.0354 15.5417 22.9076 15.5417H25.091C25.9621 15.5417 26.3296 15.7931 26.5134 16.024C26.725 16.2897 26.7903 16.6366 26.8558 17.0388L26.8558 17.0388L26.8563 17.0418L27.0397 18.1251L27.0398 18.1258C27.0455 18.1593 27.0374 18.1922 27.0181 18.2194C26.9986 18.2467 26.9736 18.2604 26.9501 18.2639L26.9501 18.2638L26.9402 18.2655C26.9068 18.2712 26.8738 18.2631 26.8466 18.2438C26.8193 18.2243 26.8056 18.1993 26.8021 18.1759L26.8022 18.1758L26.8006 18.1666L26.6177 17.0853L26.6153 17.071C26.5887 16.905 26.5612 16.7341 26.5203 16.5895C26.4765 16.4343 26.4026 16.2516 26.2456 16.1008C26.0859 15.9475 25.8934 15.8776 25.7099 15.8424C25.5326 15.8084 25.3259 15.8 25.0993 15.8H22.916C22.6922 15.8 22.4879 15.8067 22.3139 15.8374C22.1343 15.8691 21.9399 15.9339 21.7774 16.086C21.6173 16.2359 21.543 16.4198 21.4989 16.5739C21.4585 16.7151 21.4301 16.8839 21.4022 17.0501C21.4009 17.0578 21.3996 17.0656 21.3983 17.0733L21.207 18.1546L21.2069 18.1546L21.2058 18.1617C21.1959 18.2222 21.1432 18.2667 21.0826 18.2667L21.0652 18.2666Z" fill="#FFFFFE" stroke="#FFFFFE"/>
<path d="M18.1646 21.6261L18.1647 21.6261L18.1644 21.6218C18.1623 21.5939 18.1714 21.5636 18.1953 21.5364C18.2182 21.5105 18.2483 21.4947 18.2796 21.4909C18.3585 21.4903 18.4115 21.5454 18.4169 21.6102L18.9584 29.9989L18.9584 29.9989L18.9587 30.0028L18.9603 30.0261C18.9819 30.3246 19.003 30.6166 19.0519 30.8685C19.1031 31.1322 19.1939 31.4064 19.3923 31.6379C19.7932 32.1056 20.4631 32.2083 21.324 32.2083H26.674C27.5381 32.2083 28.2108 32.1059 28.612 31.6379C28.8111 31.4057 28.9011 31.1306 28.9512 30.8663C28.9993 30.6124 29.0187 30.3182 29.0384 30.0177L29.0396 29.9995L29.0396 29.9989L29.5811 21.6102C29.5863 21.5489 29.6439 21.4904 29.7187 21.4909C29.7933 21.4994 29.838 21.561 29.8336 21.6227L29.8334 21.6261L29.2919 30.0148C29.2919 30.0153 29.2919 30.0159 29.2918 30.0164C29.2439 30.695 29.1897 31.2709 28.882 31.7006C28.6072 32.0846 28.0393 32.4583 26.674 32.4583H21.324C19.9587 32.4583 19.3908 32.0846 19.116 31.7006C18.8084 31.2709 18.7541 30.695 18.7062 30.0163C18.7062 30.0158 18.7061 30.0153 18.7061 30.0148L18.1646 21.6261Z" fill="#FFFFFE" stroke="#FFFFFE"/>
<path d="M25.3844 28.375H22.6094C22.2677 28.375 21.9844 28.0917 21.9844 27.75C21.9844 27.4083 22.2677 27.125 22.6094 27.125H25.3844C25.726 27.125 26.0094 27.4083 26.0094 27.75C26.0094 28.0917 25.726 28.375 25.3844 28.375Z" fill="#FFFFFE"/>
<path d="M26.0846 25.0417H21.918C21.5763 25.0417 21.293 24.7584 21.293 24.4167C21.293 24.075 21.5763 23.7917 21.918 23.7917H26.0846C26.4263 23.7917 26.7096 24.075 26.7096 24.4167C26.7096 24.7584 26.4263 25.0417 26.0846 25.0417Z" fill="#FFFFFE"/>
</svg>
