<svg width="20" height="22" viewBox="0 0 20 22" fill="none" xmlns="http://www.w3.org/2000/svg">
<path d="M3.29194 18.0938C2.68194 18.0938 2.11194 17.8838 1.70194 17.4938C1.18194 17.0038 0.93194 16.2638 1.02194 15.4638L1.39194 12.2238C1.46194 11.6138 1.83194 10.8038 2.26194 10.3638L10.4719 1.67378C12.5219 -0.496221 14.6619 -0.55622 16.8319 1.49378C19.0019 3.54378 19.0619 5.68378 17.0119 7.85378L8.80194 16.5438C8.38194 16.9938 7.60194 17.4138 6.99194 17.5138L3.77194 18.0638C3.60194 18.0738 3.45194 18.0938 3.29194 18.0938ZM13.6819 1.48378C12.9119 1.48378 12.2419 1.96378 11.5619 2.68378L3.35194 11.3838C3.15194 11.5938 2.92194 12.0938 2.88194 12.3838L2.51194 15.6238C2.47194 15.9538 2.55194 16.2238 2.73194 16.3938C2.91194 16.5638 3.18194 16.6238 3.51194 16.5738L6.73194 16.0238C7.02194 15.9738 7.50194 15.7138 7.70194 15.5038L15.9119 6.81378C17.1519 5.49378 17.6019 4.27378 15.7919 2.57378C14.9919 1.80378 14.3019 1.48378 13.6819 1.48378Z" fill="#7165E3"/>
<path d="M15.0904 9.52382C15.0704 9.52382 15.0404 9.52382 15.0204 9.52382C11.9004 9.21382 9.39044 6.84382 8.91044 3.74382C8.85044 3.33382 9.13044 2.95382 9.54044 2.88382C9.95044 2.82382 10.3304 3.10382 10.4004 3.51382C10.7804 5.93382 12.7404 7.79382 15.1804 8.03382C15.5904 8.07382 15.8904 8.44382 15.8504 8.85382C15.8004 9.23382 15.4704 9.52382 15.0904 9.52382Z" fill="#7165E3"/>
<path d="M18.75 21.3238H0.75C0.34 21.3238 0 20.9838 0 20.5738C0 20.1638 0.34 19.8238 0.75 19.8238H18.75C19.16 19.8238 19.5 20.1638 19.5 20.5738C19.5 20.9838 19.16 21.3238 18.75 21.3238Z" fill="#7165E3"/>
</svg>
