<svg width="367" height="286" viewBox="0 0 367 286" fill="none" xmlns="http://www.w3.org/2000/svg">
<path d="M74.3539 27.1295L27.4221 153.959L226.53 228.299L273.461 101.469L74.3539 27.1295Z" fill="white"/>
<path d="M226.51 228.321L126.987 191.857L27.0801 154.866L26.1699 154.549L26.52 153.635L73.1131 26.6964L73.5682 25.4305L74.7934 25.9228L273.733 100.75L274.433 101.031L274.188 101.734L250.349 165.239L226.51 228.321ZM226.51 228.321L249.614 164.536L272.718 101.242L273.173 102.227L73.8832 28.3843L75.5636 27.6107L28.3403 154.198L27.7452 152.967L126.952 190.345L226.51 228.321Z" fill="#C7C7C7"/>
<path opacity="0.2" d="M273.453 101.488C262.531 106.2 251.609 110.525 240.687 115.132C229.765 119.738 218.843 123.887 207.886 128.177C196.93 132.467 185.063 137.038 173.651 141.398L172.6 141.82L142.25 153.248L140.78 153.776L140.01 152.404C134.829 143.028 129.671 133.51 124.537 123.852C124.33 123.524 124.143 123.184 123.977 122.832C118.143 112.072 112.308 101.231 106.474 90.3065C100.966 79.9452 95.5169 69.49 90.126 58.9411C84.84 48.3921 79.3791 37.8432 74.1982 27.2943C80.3243 37.1048 86.1353 47.1966 92.0863 57.1126C98.0373 67.0286 103.848 77.2259 109.589 87.388C116.03 98.6402 122.437 109.998 128.808 121.461L143.335 147.2C152.472 143.684 161.678 140.414 170.815 137.144C183.032 132.713 195.319 128.283 207.501 123.958C218.458 120.125 229.415 116.292 240.407 112.565C251.399 108.837 262.356 105.005 273.453 101.488Z" fill="black"/>
<path opacity="0.2" d="M128.213 124.309H127.863L123.767 125.786C117.186 128.177 110.57 130.322 103.919 132.291C95.7972 134.788 87.5708 137.038 79.4143 139.324C71.2579 141.609 62.9265 143.473 54.595 145.266C46.2636 147.06 37.9322 148.783 29.4607 150.049C37.4771 146.989 45.5985 144.387 53.7199 141.891C61.8413 139.394 70.1027 137.179 78.2241 134.858C86.3456 132.537 94.747 130.674 103.078 128.88C109.695 127.404 116.381 126.067 123.137 124.942L127.828 124.204L128.213 124.309Z" fill="black"/>
<path opacity="0.2" d="M227.525 224.067C221.959 217.562 216.708 210.775 211.597 203.953C206.486 197.132 201.55 190.17 196.65 183.172C191.749 176.175 187.093 169.107 182.647 161.793C178.937 155.921 175.331 150.013 171.935 143.93C171.165 142.629 170.465 141.328 169.765 140.027C169.772 139.933 169.772 139.839 169.765 139.746L170.01 139.992L173.091 143.508C177.466 148.783 181.597 154.057 185.728 159.648C190.839 166.505 195.739 173.467 200.605 180.465C205.471 187.462 210.197 194.53 214.608 201.844C219.018 209.158 223.464 216.507 227.525 224.067Z" fill="black"/>
<path d="M306.631 9.99848L284.388 26.8793L285.468 59.1165L265.114 42.9979L253.869 52.5929L211.137 0L306.631 9.99848Z" fill="#F5CF48"/>
<path d="M276.022 33.739C276.022 34.7254 285.468 59.1163 285.468 59.1163L265.114 42.9977L276.022 33.739Z" fill="#F5CF48"/>
<g opacity="0.3">
<path opacity="0.3" d="M276.022 33.739C276.022 34.7254 285.468 59.1163 285.468 59.1163L265.114 42.9977L276.022 33.739Z" fill="black"/>
</g>
<path d="M211.137 0L276.022 33.7392L285.468 59.1165L284.388 26.8793L211.137 0Z" fill="#F5CF48"/>
<path opacity="0.1" d="M211.137 0L276.022 33.7392L285.468 59.1165L284.388 26.8793L211.137 0Z" fill="black"/>
<path d="M301.49 32.8232C299.495 32.8522 297.51 32.5413 295.62 31.904C293.639 31.6616 291.718 31.0614 289.953 30.133C291.958 29.8705 293.997 30.0699 295.913 30.7159C297.915 30.9604 299.828 31.6833 301.49 32.8232V32.8232Z" fill="#3F1E4B"/>
<path d="M323.261 42.1266C319.488 40.8925 315.918 39.1098 312.668 36.8359C314.676 37.0262 316.61 37.6868 318.313 38.7639C321.259 40.2435 323.441 41.8351 323.261 42.1266Z" fill="#3F1E4B"/>
<path d="M342.13 56.3846C341.883 56.6312 339.881 54.9498 337.362 52.8425C334.843 50.7353 332.864 48.9418 333.156 48.6504C335.074 49.3258 336.807 50.439 338.217 51.901C340.668 54.0531 342.377 56.1604 342.13 56.3846Z" fill="#3F1E4B"/>
<path d="M356.524 75.1038C356.209 75.2607 354.725 73.0861 352.925 70.396C351.666 68.8542 350.677 67.1108 350.002 65.2398C350.249 65.0381 352.138 66.966 353.96 69.7234C355.229 71.2896 356.108 73.1335 356.524 75.1038V75.1038Z" fill="#3F1E4B"/>
<path d="M364.688 97.2302C363.723 95.4916 363.054 93.6052 362.709 91.6481C361.957 89.8003 361.539 87.8347 361.472 85.8418C362.687 87.4555 363.511 89.3278 363.879 91.3118C364.635 93.1877 364.913 95.221 364.688 97.2302Z" fill="#3F1E4B"/>
<path d="M365.902 120.769C365.501 118.822 365.417 116.824 365.655 114.851C365.485 112.869 365.668 110.873 366.195 108.955C366.882 110.848 367.121 112.873 366.893 114.873C367.034 116.889 366.695 118.909 365.902 120.769Z" fill="#3F1E4B"/>
<path d="M359.762 143.501C360.004 141.533 360.566 139.618 361.427 137.83C361.885 135.907 362.644 134.069 363.676 132.382C363.785 134.402 363.375 136.416 362.484 138.233C362.026 140.186 361.091 141.996 359.762 143.501Z" fill="#3F1E4B"/>
<path d="M346.021 162.646C345.797 162.377 347.551 160.404 349.687 157.983C351.824 155.562 353.533 153.5 353.825 153.746C353.187 155.666 352.082 157.399 350.609 158.79C348.428 161.301 346.246 162.893 346.021 162.646Z" fill="#3F1E4B"/>
<path d="M326.185 175.379C327.704 174.098 329.42 173.069 331.267 172.331C332.929 171.233 334.76 170.415 336.688 169.909C335.381 171.461 333.713 172.669 331.83 173.429C330.138 174.533 328.199 175.203 326.185 175.379Z" fill="#3F1E4B"/>
<path d="M303.11 180.334C304.991 179.645 306.975 179.273 308.98 179.236C310.925 178.79 312.93 178.662 314.917 178.855C313.152 179.852 311.166 180.399 309.137 180.446C307.151 180.92 305.077 180.882 303.11 180.334Z" fill="#3F1E4B"/>
<path d="M279.945 175.962C283.791 176.761 287.555 177.909 291.19 179.392C289.174 179.643 287.128 179.365 285.253 178.585C283.283 178.19 281.453 177.286 279.945 175.962Z" fill="#3F1E4B"/>
<path d="M263.527 159.732C263.864 159.62 264.899 161.974 266.743 164.619C268.587 167.264 270.364 169.103 270.116 169.439C269.869 169.775 267.665 168.094 265.731 165.336C264.37 163.777 263.591 161.797 263.527 159.732Z" fill="#3F1E4B"/>
<path d="M273.512 141.371C273.512 141.73 271.061 142.515 268.497 144.33C265.933 146.146 264.561 148.41 264.246 148.231C263.931 148.052 264.921 145.362 267.777 143.344C269.367 141.983 271.418 141.277 273.512 141.371V141.371Z" fill="#3F1E4B"/>
<path d="M293.844 149.779C293.529 149.958 292.089 147.761 289.75 145.609C287.411 143.457 285.027 142.381 285.252 142.044C287.342 142.208 289.289 143.163 290.695 144.712C292.31 145.979 293.425 147.773 293.844 149.779V149.779Z" fill="#3F1E4B"/>
<path d="M294.609 172.667C294.776 170.714 295.145 168.783 295.711 166.906C295.879 164.945 296.248 163.007 296.813 161.122C297.417 163.079 297.417 165.172 296.813 167.13C296.658 169.156 295.89 171.087 294.609 172.667V172.667Z" fill="#3F1E4B"/>
<path d="M279.203 190.265C279 189.974 281.047 188.293 283.498 186.208C285.95 184.123 287.996 182.329 288.154 182.554C288.311 182.778 286.849 184.975 284.308 187.037C281.767 189.1 279.383 190.557 279.203 190.265Z" fill="#3F1E4B"/>
<path d="M258.174 201.16C259.662 199.819 261.406 198.789 263.302 198.134C265.031 197.117 266.953 196.469 268.947 196.229C265.739 198.602 262.07 200.282 258.174 201.16V201.16Z" fill="#3F1E4B"/>
<path d="M237.011 211.876C236.831 211.585 238.967 209.993 241.801 208.289C243.454 207.139 245.345 206.373 247.334 206.047C247.514 206.384 245.219 207.751 242.408 209.365C240.802 210.565 238.964 211.42 237.011 211.876V211.876Z" fill="#3F1E4B"/>
<path d="M219.018 227.3C218.771 227.076 220.323 224.879 222.684 222.57C223.987 221.032 225.625 219.813 227.475 219.005C227.699 219.274 225.878 221.247 223.561 223.489C221.245 225.731 219.378 227.524 219.018 227.3Z" fill="#3F1E4B"/>
<path d="M205.523 246.625C205.9 244.646 206.732 242.782 207.952 241.177C209.684 238.375 211.461 236.357 211.731 236.559C211.147 238.463 210.226 240.247 209.009 241.827C207.3 244.584 205.838 246.781 205.523 246.625Z" fill="#3F1E4B"/>
<path d="M196.888 268.594C196.773 266.585 197.143 264.579 197.967 262.743C198.39 260.77 199.277 258.927 200.553 257.362C199.895 261.259 198.66 265.036 196.888 268.571V268.594Z" fill="#3F1E4B"/>
<path d="M267.198 169.542L100.269 179.651L106.652 286L273.581 275.891L267.198 169.542Z" fill="#7165E3"/>
<path opacity="0.2" d="M267.208 169.633C260.928 176.509 254.334 183.132 247.929 189.882C241.523 196.631 234.992 203.191 228.461 209.815C221.93 216.438 214.834 223.503 207.989 230.253L207.361 230.947L189.149 248.862L188.207 249.682L187.265 248.925L167.044 233.344L166.353 232.776L143.495 215.051C136.252 209.331 129.03 203.528 121.829 197.64C114.607 191.711 107.386 185.907 100.289 179.852C107.762 184.961 115.172 190.386 122.583 195.622C129.993 200.857 137.403 206.346 144.813 211.833C152.224 217.321 161.267 224.008 169.431 230.19L187.831 244.067C193.357 238.706 198.883 233.344 204.472 228.045L226.766 206.787L246.861 187.863C253.706 181.87 260.363 175.562 267.208 169.633Z" fill="black"/>
<path opacity="0.2" d="M169.808 232.46L167.358 234.857C163.339 238.705 159.257 242.364 155.113 245.896C150.026 250.312 144.814 254.538 139.602 258.512C134.389 262.486 129.051 266.776 123.651 270.75C118.25 274.724 112.724 278.572 107.009 282.167C111.845 277.436 116.868 272.958 121.892 268.605C126.916 264.253 132.191 259.963 137.404 255.989C142.616 252.015 148.016 247.726 153.417 243.752C157.75 240.598 162.146 237.444 166.605 234.479L169.808 232.46V232.46Z" fill="black"/>
<path opacity="0.2" d="M272.986 272.58C266.706 269.679 260.991 266.272 255.151 263.182C249.311 260.091 243.533 256.432 237.819 253.026C232.104 249.619 226.452 245.897 220.863 242.113C216.342 239.085 211.82 235.805 207.487 232.651L204.661 230.569L208.052 232.209C212.825 234.606 217.535 237.192 222.245 239.842C228.064 243.122 233.841 246.528 239.577 250.061C245.292 253.593 250.943 257.189 256.47 260.911C261.996 264.632 267.648 268.417 272.986 272.58Z" fill="black"/>
<path d="M66.391 144.211C64.7491 150.653 61.2277 156.465 56.2723 160.912C51.3168 165.358 45.1498 168.241 38.5509 169.194C31.9521 170.148 25.2178 169.129 19.1996 166.268C13.1814 163.406 8.14959 158.83 4.74032 153.119C1.33105 147.407 -0.302535 140.815 0.0461397 134.178C0.394814 127.541 2.71008 121.156 6.69919 115.83C10.6883 110.504 16.1721 106.477 22.4572 104.258C28.7423 102.039 35.5464 101.727 42.0093 103.362C50.6751 105.559 58.1112 111.096 62.6832 118.756C67.2552 126.416 68.5888 135.572 66.391 144.211V144.211Z" fill="#7165E3"/>
<path d="M46.1595 117.719C46.7569 117.96 42.9301 129.211 37.6016 142.859C36.8104 144.839 35.9869 146.738 35.3249 148.605L34.9212 149.619L33.904 149.233C22.9725 145.032 14.9799 141.572 15.1736 141.073C15.3674 140.574 23.6669 143.181 34.679 147.157L33.2581 147.8C33.9686 145.933 34.7113 144.018 35.4702 142.038C40.7825 128.374 45.5782 117.542 46.1595 117.719Z" fill="white"/>
</svg>
