<svg width="22" height="22" viewBox="0 0 22 22" fill="none" xmlns="http://www.w3.org/2000/svg">
<path d="M8.47188 14.2799C8.28188 14.2799 8.09187 14.2099 7.94187 14.0599C7.12187 13.2399 6.67188 12.1499 6.67188 10.9999C6.67188 8.60992 8.61188 6.66992 11.0019 6.66992C12.1519 6.66992 13.2419 7.11992 14.0619 7.93992C14.2019 8.07992 14.2819 8.26992 14.2819 8.46992C14.2819 8.66992 14.2019 8.85992 14.0619 8.99992L9.00188 14.0599C8.85188 14.2099 8.66188 14.2799 8.47188 14.2799ZM11.0019 8.16992C9.44188 8.16992 8.17188 9.43992 8.17188 10.9999C8.17188 11.4999 8.30188 11.9799 8.54188 12.3999L12.4019 8.53992C11.9819 8.29992 11.5019 8.16992 11.0019 8.16992Z" fill="#FFFFFE"/>
<path d="M4.60375 17.51C4.43375 17.51 4.25375 17.45 4.11375 17.33C3.04375 16.42 2.08375 15.3 1.26375 14C0.20375 12.35 0.20375 9.65998 1.26375 7.99998C3.70375 4.17998 7.25375 1.97998 11.0037 1.97998C13.2037 1.97998 15.3738 2.73998 17.2738 4.16998C17.6038 4.41998 17.6737 4.88998 17.4237 5.21998C17.1737 5.54998 16.7038 5.61998 16.3738 5.36998C14.7338 4.12998 12.8737 3.47998 11.0037 3.47998C7.77375 3.47998 4.68375 5.41998 2.52375 8.80998C1.77375 9.97998 1.77375 12.02 2.52375 13.19C3.27375 14.36 4.13375 15.37 5.08375 16.19C5.39375 16.46 5.43375 16.93 5.16375 17.25C5.02375 17.42 4.81375 17.51 4.60375 17.51Z" fill="#FFFFFE"/>
<path d="M10.9947 20.0195C9.66469 20.0195 8.36469 19.7495 7.11469 19.2195C6.73469 19.0595 6.55469 18.6195 6.71469 18.2395C6.87469 17.8595 7.31469 17.6795 7.69469 17.8395C8.75469 18.2895 9.86469 18.5195 10.9847 18.5195C14.2147 18.5195 17.3047 16.5795 19.4647 13.1895C20.2147 12.0195 20.2147 9.97951 19.4647 8.80951C19.1547 8.31951 18.8147 7.84951 18.4547 7.40951C18.1947 7.08951 18.2447 6.61951 18.5647 6.34951C18.8847 6.08951 19.3547 6.12951 19.6247 6.45951C20.0147 6.93951 20.3947 7.45951 20.7347 7.99951C21.7947 9.64951 21.7947 12.3395 20.7347 13.9995C18.2947 17.8195 14.7447 20.0195 10.9947 20.0195Z" fill="#FFFFFE"/>
<path d="M11.6837 15.2699C11.3337 15.2699 11.0137 15.0199 10.9437 14.6599C10.8637 14.2499 11.1337 13.8599 11.5437 13.7899C12.6437 13.5899 13.5637 12.6699 13.7637 11.5699C13.8437 11.1599 14.2337 10.8999 14.6437 10.9699C15.0537 11.0499 15.3237 11.4399 15.2437 11.8499C14.9237 13.5799 13.5437 14.9499 11.8237 15.2699C11.7737 15.2599 11.7337 15.2699 11.6837 15.2699Z" fill="#FFFFFE"/>
<path d="M1.00531 21.7502C0.815312 21.7502 0.625313 21.6802 0.475313 21.5302C0.185313 21.2402 0.185313 20.7602 0.475313 20.4702L7.94531 13.0002C8.23531 12.7102 8.71531 12.7102 9.00531 13.0002C9.29531 13.2902 9.29531 13.7702 9.00531 14.0602L1.53531 21.5302C1.38531 21.6802 1.19531 21.7502 1.00531 21.7502Z" fill="#FFFFFE"/>
<path d="M13.5366 9.21994C13.3466 9.21994 13.1566 9.14994 13.0066 8.99994C12.7166 8.70994 12.7166 8.22994 13.0066 7.93994L20.4766 0.469941C20.7666 0.179941 21.2466 0.179941 21.5366 0.469941C21.8266 0.759941 21.8266 1.23994 21.5366 1.52994L14.0666 8.99994C13.9166 9.14994 13.7266 9.21994 13.5366 9.21994Z" fill="#FFFFFE"/>
</svg>
