<svg width="24" height="23" viewBox="0 0 24 23" fill="none" xmlns="http://www.w3.org/2000/svg">
<path d="M22.0071 7.2173L13.9221 0.753965C12.6737 -0.249369 10.6554 -0.249369 9.41873 0.742298L1.33373 7.2173C0.423727 7.94063 -0.159606 9.46896 0.0387272 10.6123L1.59039 19.899C1.87039 21.5556 3.45706 22.8973 5.13706 22.8973H18.2037C19.8721 22.8973 21.4704 21.544 21.7504 19.899L23.3021 10.6123C23.4887 9.46896 22.9054 7.94063 22.0071 7.2173ZM11.6704 15.5356C10.0604 15.5356 8.75373 14.229 8.75373 12.619C8.75373 11.009 10.0604 9.7023 11.6704 9.7023C13.2804 9.7023 14.5871 11.009 14.5871 12.619C14.5871 14.229 13.2804 15.5356 11.6704 15.5356Z" fill="#FFFFFE"/>
</svg>
