<svg width="26" height="25" viewBox="0 0 26 25" fill="none" xmlns="http://www.w3.org/2000/svg">
<path d="M19.0771 24.6575H6.01043C3.8871 24.6575 1.95043 23.0242 1.60043 20.9242L0.0487637 11.6376C-0.196236 10.1909 0.503769 8.33591 1.65877 7.41424L9.74378 0.939181C11.3071 -0.320819 13.7688 -0.309141 15.3438 0.950859L23.4288 7.41424C24.5721 8.33591 25.2721 10.1909 25.0388 11.6376L23.4871 20.9242C23.1371 22.9892 21.1654 24.6575 19.0771 24.6575ZM12.5321 1.76754C11.9138 1.76754 11.2954 1.95417 10.8404 2.31584L2.75544 8.7909C2.09044 9.32756 1.63544 10.5175 1.77544 11.3575L3.32711 20.6442C3.53711 21.8692 4.7621 22.9075 6.01043 22.9075H19.0771C20.3254 22.9075 21.5504 21.8692 21.7604 20.6325L23.3121 11.3459C23.4521 10.5059 22.9854 9.30422 22.3321 8.77922L14.2471 2.31584C13.7804 1.95417 13.1621 1.76754 12.5321 1.76754Z" fill="#7165E3"/>
<path d="M12.7917 16.1204C10.7033 16.1204 9 14.4171 9 12.3288C9 10.2404 10.7033 8.53711 12.7917 8.53711C14.88 8.53711 16.5833 10.2404 16.5833 12.3288C16.5833 14.4171 14.88 16.1204 12.7917 16.1204ZM12.7917 10.2871C11.6717 10.2871 10.75 11.2088 10.75 12.3288C10.75 13.4488 11.6717 14.3704 12.7917 14.3704C13.9117 14.3704 14.8333 13.4488 14.8333 12.3288C14.8333 11.2088 13.9117 10.2871 12.7917 10.2871Z" fill="#7165E3"/>
</svg>
