<svg width="22" height="22" viewBox="0 0 22 22" fill="none" xmlns="http://www.w3.org/2000/svg">
<path d="M17.3467 14.9317C17.125 14.9317 16.9034 14.85 16.7284 14.675C16.39 14.3367 16.39 13.7767 16.7284 13.4383L19.0967 11.07L16.7284 8.70166C16.39 8.36333 16.39 7.80333 16.7284 7.46499C17.0667 7.12666 17.6267 7.12666 17.965 7.46499L20.9517 10.4517C21.29 10.79 21.29 11.35 20.9517 11.6883L17.965 14.675C17.79 14.85 17.5684 14.9317 17.3467 14.9317Z" fill="#E81313"/>
<path d="M20.2517 11.945H8.38672C7.90839 11.945 7.51172 11.5483 7.51172 11.07C7.51172 10.5916 7.90839 10.195 8.38672 10.195H20.2517C20.7301 10.195 21.1267 10.5916 21.1267 11.07C21.1267 11.5483 20.7301 11.945 20.2517 11.945Z" fill="#E81313"/>
<path d="M10.7201 21.2083C4.71172 21.2083 0.511719 17.0083 0.511719 11C0.511719 4.99166 4.71172 0.791656 10.7201 0.791656C11.1984 0.791656 11.5951 1.18832 11.5951 1.66666C11.5951 2.14499 11.1984 2.54166 10.7201 2.54166C5.73839 2.54166 2.26172 6.01832 2.26172 11C2.26172 15.9817 5.73839 19.4583 10.7201 19.4583C11.1984 19.4583 11.5951 19.855 11.5951 20.3333C11.5951 20.8117 11.1984 21.2083 10.7201 21.2083Z" fill="#E81313"/>
</svg>
