<svg width="30" height="26" viewBox="0 0 30 26" fill="none" xmlns="http://www.w3.org/2000/svg">
<path d="M7.40589 11.9541L7.40483 11.9539C5.65593 11.6452 3.98874 11.8946 2.54118 12.5591C2.39942 12.623 2.26562 12.5218 2.26562 12.3909V7.46165C2.26562 5.13387 2.92819 3.55346 4.0097 2.5492C5.09791 1.53872 6.68843 1.03857 8.6887 1.03857H22.5349C24.5351 1.03857 26.1256 1.53872 27.2139 2.5492C28.2954 3.55346 28.9579 5.13387 28.9579 7.46165V15.7832C28.9579 18.111 28.2954 19.6914 27.2139 20.6956C26.1256 21.7061 24.5351 22.2063 22.5349 22.2063H13.9641C13.8957 22.2063 13.8377 22.1756 13.8016 22.1322C13.7683 22.0921 13.7581 22.0484 13.7691 22.0029C13.9315 21.411 14.0199 20.8046 14.0347 20.1847C14.1375 16.2488 11.2981 12.6496 7.40589 11.9541ZM11.6502 11.6155C11.6502 13.8024 13.4249 15.577 15.6118 15.577C17.7987 15.577 19.5733 13.8024 19.5733 11.6155C19.5733 9.42859 17.7987 7.65396 15.6118 7.65396C13.4249 7.65396 11.6502 9.42859 11.6502 11.6155ZM24.6118 15.9232C25.4556 15.9232 26.1502 15.2286 26.1502 14.3847V8.84627C26.1502 8.00243 25.4556 7.30781 24.6118 7.30781C23.7679 7.30781 23.0733 8.00243 23.0733 8.84627V14.3847C23.0733 15.2286 23.7679 15.9232 24.6118 15.9232Z" fill="#E81313" stroke="#E81313"/>
<path d="M1.61561 22.5199L1.61567 22.5199L1.61147 22.5131C1.14726 21.7603 0.882812 20.8679 0.882812 19.9232C0.882812 18.6537 1.35972 17.4952 2.14346 16.5974C3.06419 15.5509 4.41105 14.8848 5.92127 14.8848C8.70513 14.8848 10.9597 17.1394 10.9597 19.9232C10.9597 20.8679 10.6953 21.7603 10.2311 22.5131L10.2309 22.513L10.2248 22.5236C9.96266 22.9729 9.62604 23.3715 9.24151 23.694L9.23482 23.6996L9.22833 23.7054C8.3499 24.496 7.19486 24.9617 5.92127 24.9617C4.08248 24.9617 2.4842 23.9802 1.61561 22.5199ZM8.49021 22.4645L8.49026 22.4645L8.49615 22.4584C9.08179 21.8526 9.09025 20.8897 8.49021 20.2897L8.10992 19.9094L8.44867 19.5706C9.04548 18.9738 9.04548 17.9926 8.44867 17.3958C7.85187 16.799 6.87068 16.799 6.27387 17.3958L5.93512 17.7346L5.55483 17.3543C4.95803 16.7575 3.97683 16.7575 3.38003 17.3543C2.78323 17.9511 2.78323 18.9323 3.38003 19.5291L3.76032 19.9094L3.35234 20.3174C2.75554 20.9142 2.75554 21.8954 3.35234 22.4922C3.65874 22.7986 4.05121 22.9432 4.43974 22.9432C4.82826 22.9432 5.22073 22.7986 5.52714 22.4922L5.93512 22.0842L6.31541 22.4645C6.62182 22.7709 7.01428 22.9155 7.40281 22.9155C7.79134 22.9155 8.18381 22.7709 8.49021 22.4645Z" fill="#E81313" stroke="#E81313"/>
</svg>
