<svg width="22" height="26" viewBox="0 0 22 26" fill="none" xmlns="http://www.w3.org/2000/svg">
<path d="M11.0225 22.9517C8.3042 22.9517 5.58586 22.52 3.00753 21.6567C2.02753 21.3183 1.28086 20.63 0.954196 19.7317C0.615863 18.8333 0.73253 17.8417 1.2692 16.955L2.61086 14.7267C2.89086 14.26 3.14753 13.3267 3.14753 12.7783V9.40666C3.14753 5.06666 6.68253 1.53166 11.0225 1.53166C15.3625 1.53166 18.8975 5.06666 18.8975 9.40666V12.7783C18.8975 13.315 19.1542 14.26 19.4342 14.7383L20.7642 16.955C21.2659 17.795 21.3592 18.81 21.0209 19.7317C20.6825 20.6533 19.9475 21.3533 19.0259 21.6567C16.4592 22.52 13.7409 22.9517 11.0225 22.9517ZM11.0225 3.28166C7.65086 3.28166 4.89753 6.02333 4.89753 9.40666V12.7783C4.89753 13.63 4.54753 14.89 4.11586 15.625L2.7742 17.8533C2.51753 18.285 2.44753 18.74 2.5992 19.125C2.7392 19.5217 3.0892 19.825 3.56753 19.9883C8.4442 21.6217 13.6125 21.6217 18.4892 19.9883C18.9092 19.8483 19.2359 19.5333 19.3875 19.1133C19.5392 18.6933 19.5042 18.2383 19.2709 17.8533L17.9292 15.625C17.4859 14.8667 17.1475 13.6183 17.1475 12.7667V9.40666C17.1475 6.02333 14.4059 3.28166 11.0225 3.28166Z" fill="#7165E3"/>
<path d="M13.1934 3.59666C13.1117 3.59666 13.0301 3.585 12.9484 3.56166C12.6101 3.46833 12.2834 3.39833 11.9684 3.35166C10.9767 3.22333 10.0201 3.29333 9.12172 3.56166C8.79505 3.66666 8.44505 3.56166 8.22338 3.31666C8.00172 3.07166 7.93172 2.72166 8.06005 2.40666C8.53838 1.18166 9.70505 0.376663 11.0351 0.376663C12.3651 0.376663 13.5317 1.17 14.0101 2.40666C14.1267 2.72166 14.0684 3.07166 13.8467 3.31666C13.6717 3.50333 13.4267 3.59666 13.1934 3.59666Z" fill="#7165E3"/>
<path d="M11.0234 25.6117C9.86844 25.6117 8.74844 25.145 7.93177 24.3283C7.1151 23.5117 6.64844 22.3917 6.64844 21.2367H8.39844C8.39844 21.925 8.67844 22.6017 9.16844 23.0917C9.65844 23.5817 10.3351 23.8617 11.0234 23.8617C12.4701 23.8617 13.6484 22.6833 13.6484 21.2367H15.3984C15.3984 23.6517 13.4384 25.6117 11.0234 25.6117Z" fill="#7165E3"/>
</svg>
