<svg width="48" height="48" viewBox="0 0 48 48" fill="none" xmlns="http://www.w3.org/2000/svg">
<circle cx="24" cy="24" r="24" fill="#F2F2F2"/>
<path d="M23.0991 30.875H19.8724C19.3041 30.875 18.7999 30.8567 18.3507 30.7925C15.9399 30.5267 15.2891 29.39 15.2891 26.2917V21.7083C15.2891 18.61 15.9399 17.4733 18.3507 17.2075C18.7999 17.1433 19.3041 17.125 19.8724 17.125H23.0441" stroke="#7165E3" stroke-width="1.5" strokeLinecap="round" stroke-linejoin="round"/>
<path d="M26.7656 17.125H28.1223C28.6906 17.125 29.1948 17.1433 29.644 17.2075C32.0548 17.4733 32.7056 18.61 32.7056 21.7083V26.2917C32.7056 29.39 32.0548 30.5267 29.644 30.7925C29.1948 30.8567 28.6906 30.875 28.1223 30.875H26.7656" stroke="#7165E3" stroke-width="1.5" strokeLinecap="round" stroke-linejoin="round"/>
<path d="M26.75 14.8333V33.1667" stroke="#7165E3" stroke-width="1.5" strokeLinecap="round" stroke-linejoin="round"/>
<path d="M23.172 24H23.1803" stroke="#7165E3" stroke-width="2" strokeLinecap="round" stroke-linejoin="round"/>
<path d="M19.5002 24H19.5084" stroke="#7165E3" stroke-width="2" strokeLinecap="round" stroke-linejoin="round"/>
</svg>
