<svg width="48" height="48" viewBox="0 0 48 48" fill="none" xmlns="http://www.w3.org/2000/svg">
<circle cx="24" cy="24" r="24" fill="#F2F2F2"/>
<path d="M18.5 22.1667V20.3333C18.5 17.2992 19.4167 14.8333 24 14.8333C28.5833 14.8333 29.5 17.2992 29.5 20.3333V22.1667" stroke="#7165E3" stroke-width="1.5" strokeLinecap="round" stroke-linejoin="round"/>
<path d="M28.5859 33.1667H19.4193C15.7526 33.1667 14.8359 32.25 14.8359 28.5833V26.75C14.8359 23.0833 15.7526 22.1667 19.4193 22.1667H28.5859C32.2526 22.1667 33.1693 23.0833 33.1693 26.75V28.5833C33.1693 32.25 32.2526 33.1667 28.5859 33.1667Z" stroke="#7165E3" stroke-width="1.5" strokeLinecap="round" stroke-linejoin="round"/>
<path d="M27.6642 27.6667H27.6725" stroke="#7165E3" stroke-width="2" strokeLinecap="round" stroke-linejoin="round"/>
<path d="M23.9924 27.6667H24.0006" stroke="#7165E3" stroke-width="2" strokeLinecap="round" stroke-linejoin="round"/>
<path d="M20.3283 27.6667H20.3365" stroke="#7165E3" stroke-width="2" strokeLinecap="round" stroke-linejoin="round"/>
</svg>
