<svg width="22" height="26" viewBox="0 0 22 26" fill="none" xmlns="http://www.w3.org/2000/svg">
<path d="M10.9993 13.875C7.30102 13.875 4.29102 10.865 4.29102 7.16667C4.29102 3.46833 7.30102 0.458332 10.9993 0.458332C14.6977 0.458332 17.7077 3.46833 17.7077 7.16667C17.7077 10.865 14.6977 13.875 10.9993 13.875ZM10.9993 2.20833C8.26935 2.20833 6.04102 4.43667 6.04102 7.16667C6.04102 9.89667 8.26935 12.125 10.9993 12.125C13.7293 12.125 15.9577 9.89667 15.9577 7.16667C15.9577 4.43667 13.7293 2.20833 10.9993 2.20833Z" fill="#7165E3"/>
<path d="M21.0218 25.5417C20.5435 25.5417 20.1468 25.145 20.1468 24.6667C20.1468 20.6417 16.0402 17.375 11.0002 17.375C5.96018 17.375 1.85352 20.6417 1.85352 24.6667C1.85352 25.145 1.45685 25.5417 0.978516 25.5417C0.500182 25.5417 0.103516 25.145 0.103516 24.6667C0.103516 19.685 4.99184 15.625 11.0002 15.625C17.0085 15.625 21.8968 19.685 21.8968 24.6667C21.8968 25.145 21.5002 25.5417 21.0218 25.5417Z" fill="#7165E3"/>
</svg>
