<svg width="134" height="31" viewBox="0 0 134 31" fill="none" xmlns="http://www.w3.org/2000/svg">
<g clip-path="url(#clip0_2431_33745)">
<path d="M19.1653 30.835L2.51497 26.243C1.02895 25.8327 0 24.4826 0 22.9433V21.4861L21.9419 15.5485L24.6364 25.3807C25.5474 28.7031 22.4895 31.7521 19.1653 30.835Z" fill="url(#paint0_linear_2431_33745)"/>
<path d="M21.7875 19.4658L2.09746 24.794C1.04036 25.0797 0 24.2842 0 23.1901V9.08659C0 6.78601 1.54305 4.77111 3.76523 4.17014L18.3082 0.234544C22.5381 -0.909665 26.7011 2.27224 26.7011 6.65001V13.0495C26.7011 16.0514 24.6873 18.6809 21.7875 19.4658Z" fill="#7165E3"/>
</g>
<g clip-path="url(#clip1_2431_33745)">
<path d="M56.3837 12.1325C56.3837 13.7609 56.0152 15.2128 55.2791 16.4881C54.5431 17.7634 53.5336 18.7217 52.2505 19.3652L54.0368 22.6497C54.9774 24.3791 53.7497 26.5011 51.8099 26.5011C50.8932 26.5011 50.0466 25.999 49.5945 25.1864L46.8561 20.265H44.174V23.9069C44.174 25.3396 43.0339 26.5011 41.6276 26.5011H41.6088C40.2026 26.5 39.0625 25.3385 39.0625 23.9058V6.60164C39.0625 5.16467 40.2057 4 41.6162 4H48.4649C50.7575 4 52.6503 4.76581 54.1443 6.2985C55.6372 7.83013 56.3837 9.7755 56.3837 12.1325ZM44.174 8.24281V16.0211H47.6756C48.706 16.0211 49.5527 15.6574 50.2157 14.9277C50.8786 14.1991 51.2096 13.2674 51.2096 12.1314C51.2096 10.9955 50.8786 10.0637 50.2157 9.33516C49.5527 8.60658 48.706 8.24175 47.6756 8.24175H44.174V8.24281Z" fill="#7165E3"/>
<path d="M62.3677 8.03966C61.922 8.49383 61.3603 8.72145 60.6827 8.72145C60.0051 8.72145 59.4476 8.49383 59.0102 8.03966C58.5728 7.58549 58.3535 7.03028 58.3535 6.37402C58.3535 5.70074 58.5728 5.13702 59.0102 4.68285C59.4476 4.22762 60.0051 4 60.6827 4C61.3603 4 61.922 4.23187 62.3677 4.69455C62.8135 5.15723 63.037 5.7167 63.037 6.37296C63.037 7.02921 62.8135 7.58443 62.3677 8.03966Z" fill="#7165E3"/>
<path d="M58.3574 24.0856V12.8834C58.3574 11.5496 59.4181 10.469 60.7273 10.469C62.0365 10.469 63.0972 11.5496 63.0972 12.8834V24.0866C63.0972 25.4204 62.0365 26.5011 60.7273 26.5011C59.4181 26.5 58.3574 25.4194 58.3574 24.0856Z" fill="#7165E3"/>
<path d="M79.0981 4H79.1294C80.4292 4 81.4836 5.07426 81.4836 6.39848V24.1015C81.4836 25.4257 80.4292 26.5 79.1294 26.5C77.8296 26.5 76.7751 25.4257 76.7751 24.1015V23.9441C76.3617 24.7014 75.727 25.3172 74.8698 25.7906C74.0127 26.2639 73.0679 26.5 72.0353 26.5C69.8669 26.5 68.1526 25.7533 66.8936 24.2589C65.6334 22.7656 65.0039 20.8404 65.0039 18.4845C65.0039 16.17 65.6543 14.2555 66.9552 12.7409C68.256 11.2263 69.9703 10.469 72.0969 10.469C73.1503 10.469 74.0899 10.7009 74.9158 11.1635C75.7416 11.6262 76.3607 12.258 76.7741 13.0568V11.7624H76.7428V6.39848C76.7449 5.07426 77.7983 4 79.0981 4ZM73.3988 22.4922C74.5347 22.4922 75.4127 22.1136 76.0318 21.3563C76.6509 20.599 76.961 19.6417 76.961 18.4845C76.961 17.3485 76.6509 16.4019 76.0318 15.6446C75.4127 14.8873 74.5347 14.5087 73.3988 14.5087C72.3245 14.5087 71.4632 14.8767 70.8128 15.6127C70.1624 16.3498 69.8366 17.306 69.8366 18.4845C69.8366 19.663 70.1624 20.6256 70.8128 21.3722C71.4632 22.1189 72.3256 22.4922 73.3988 22.4922Z" fill="#7165E3"/>
<path d="M88.3209 8.03966C87.8751 8.49383 87.3134 8.72145 86.6358 8.72145C85.9583 8.72145 85.4008 8.49383 84.9633 8.03966C84.5259 7.58549 84.3066 7.03028 84.3066 6.37402C84.3066 5.70074 84.5259 5.13702 84.9633 4.68285C85.4008 4.22762 85.9583 4 86.6358 4C87.3134 4 87.8751 4.23187 88.3209 4.69455C88.7667 5.15723 88.9901 5.7167 88.9901 6.37296C88.9901 7.02921 88.7667 7.58443 88.3209 8.03966Z" fill="#7165E3"/>
<path d="M84.2793 24.0856V12.8834C84.2793 11.5496 85.34 10.469 86.6492 10.469C87.9584 10.469 89.0191 11.5496 89.0191 12.8834V24.0866C89.0191 25.4204 87.9584 26.5011 86.6492 26.5011C85.3411 26.5 84.2793 25.4194 84.2793 24.0856Z" fill="#7165E3"/>
<path d="M91.5547 24.0856V12.8834C91.5547 11.5496 92.6154 10.469 93.9246 10.469C95.2338 10.469 96.2945 11.5496 96.2945 12.8834V13.0887C96.6244 12.3101 97.1663 11.6794 97.9211 11.1955C98.6749 10.7115 99.557 10.4701 100.57 10.4701C102.924 10.4701 104.483 11.4061 105.247 13.278C105.659 12.4367 106.29 11.7581 107.137 11.2423C107.983 10.7264 108.944 10.469 110.017 10.469C113.548 10.469 115.313 12.5314 115.313 16.654V24.0856C115.313 25.4194 114.253 26.5 112.943 26.5H112.912C111.603 26.5 110.542 25.4194 110.542 24.0856V17.5379C110.542 15.5393 109.799 14.5395 108.312 14.5395C106.64 14.5395 105.803 15.7808 105.803 18.2633V24.0856C105.803 25.4194 104.743 26.5 103.433 26.5H103.402C102.093 26.5 101.032 25.4194 101.032 24.0856V17.506C101.032 15.5287 100.299 14.5395 98.8325 14.5395C98.0067 14.5395 97.3771 14.8182 96.9428 15.3755C96.5096 15.9329 96.2924 16.8954 96.2924 18.2633V24.0856C96.2924 25.4194 95.2317 26.5 93.9225 26.5C92.6154 26.5 91.5547 25.4194 91.5547 24.0856Z" fill="#7165E3"/>
<path d="M124.551 26.5C122.383 26.5 120.668 25.7533 119.409 24.2589C118.149 22.7656 117.52 20.8404 117.52 18.4845C117.52 16.17 118.17 14.2555 119.471 12.7409C120.772 11.2263 122.486 10.469 124.613 10.469C125.666 10.469 126.606 10.7009 127.431 11.1635C128.257 11.6262 128.876 12.258 129.29 13.0568V12.8675C129.29 11.5433 130.344 10.469 131.644 10.469C132.944 10.469 133.998 11.5433 133.998 12.8675V24.1015C133.998 25.4257 132.944 26.5 131.644 26.5C130.344 26.5 129.29 25.4257 129.29 24.1015V23.9441C128.876 24.7014 128.242 25.3172 127.384 25.7906C126.528 26.2639 125.583 26.5 124.551 26.5ZM125.914 22.4923C127.05 22.4923 127.928 22.1136 128.547 21.3563C129.167 20.599 129.477 19.6417 129.477 18.4845C129.477 17.3485 129.167 16.4019 128.547 15.6446C127.928 14.8873 127.05 14.5087 125.914 14.5087C124.84 14.5087 123.979 14.8767 123.328 15.6127C122.678 16.3498 122.352 17.306 122.352 18.4845C122.352 19.663 122.678 20.6256 123.328 21.3723C123.979 22.1189 124.84 22.4923 125.914 22.4923Z" fill="#7165E3"/>
</g>
<defs>
<linearGradient id="paint0_linear_2431_33745" x1="16.8118" y1="30.9997" x2="13.7824" y2="19.2659" gradientUnits="userSpaceOnUse">
<stop stop-color="#7165E3"/>
<stop offset="0.3035" stop-color="#6D63E3"/>
<stop offset="0.5782" stop-color="#625DE3"/>
<stop offset="0.841" stop-color="#5053E3"/>
<stop offset="1" stop-color="#414BE3"/>
</linearGradient>
<clipPath id="clip0_2431_33745">
<rect width="26.7011" height="31" fill="white"/>
</clipPath>
<clipPath id="clip1_2431_33745">
<rect width="94.9373" height="22.5" fill="white" transform="translate(39.0625 4)"/>
</clipPath>
</defs>
</svg>
