<svg width="18" height="18" viewBox="0 0 18 18" fill="none" xmlns="http://www.w3.org/2000/svg">
<path d="M8.58464 17.125C3.8763 17.125 0.0429688 13.2917 0.0429688 8.58335C0.0429688 3.87502 3.8763 0.041687 8.58464 0.041687C13.293 0.041687 17.1263 3.87502 17.1263 8.58335C17.1263 13.2917 13.293 17.125 8.58464 17.125ZM8.58464 1.29169C4.55964 1.29169 1.29297 4.56669 1.29297 8.58335C1.29297 12.6 4.55964 15.875 8.58464 15.875C12.6096 15.875 15.8763 12.6 15.8763 8.58335C15.8763 4.56669 12.6096 1.29169 8.58464 1.29169Z" fill="#FFFFFE"/>
<path d="M17.3365 17.9583C17.1781 17.9583 17.0198 17.9 16.8948 17.775L15.2281 16.1083C14.9865 15.8667 14.9865 15.4667 15.2281 15.225C15.4698 14.9833 15.8698 14.9833 16.1115 15.225L17.7781 16.8917C18.0198 17.1333 18.0198 17.5333 17.7781 17.775C17.6531 17.9 17.4948 17.9583 17.3365 17.9583Z" fill="#FFFFFE"/>
</svg>
