<svg width="24" height="26" viewBox="0 0 24 26" fill="none" xmlns="http://www.w3.org/2000/svg">
<path d="M12.0005 25.5417C11.7205 25.5417 11.4405 25.5068 11.1721 25.4251C5.11715 23.7568 0.730469 18.0984 0.730469 11.9617V6.84003C0.730469 5.53336 1.67548 4.12175 2.88881 3.62009L9.38715 0.960052C11.0788 0.271719 12.9338 0.271719 14.6138 0.960052L21.1121 3.62009C22.3255 4.12175 23.2705 5.53336 23.2705 6.84003V11.9617C23.2705 18.0867 18.8721 23.7451 12.8288 25.4251C12.5605 25.5068 12.2805 25.5417 12.0005 25.5417ZM12.0005 2.20839C11.3355 2.20839 10.6821 2.33675 10.0521 2.59341L3.55382 5.25338C2.99382 5.48671 2.48047 6.24504 2.48047 6.8517V11.9734C2.48047 17.3284 6.33048 22.2751 11.6388 23.7451C11.8721 23.8151 12.1288 23.8151 12.3621 23.7451C17.6705 22.2751 21.5205 17.3284 21.5205 11.9734V6.8517C21.5205 6.24504 21.0071 5.48671 20.4471 5.25338L13.9488 2.59341C13.3188 2.33675 12.6655 2.20839 12.0005 2.20839Z" fill="#7165E3"/>
<path d="M12.0013 14.4583C10.228 14.4583 8.79297 13.0233 8.79297 11.25C8.79297 9.47666 10.228 8.04166 12.0013 8.04166C13.7746 8.04166 15.2096 9.47666 15.2096 11.25C15.2096 13.0233 13.7746 14.4583 12.0013 14.4583ZM12.0013 9.79166C11.1963 9.79166 10.543 10.445 10.543 11.25C10.543 12.055 11.1963 12.7083 12.0013 12.7083C12.8063 12.7083 13.4596 12.055 13.4596 11.25C13.4596 10.445 12.8063 9.79166 12.0013 9.79166Z" fill="#7165E3"/>
<path d="M12 17.9583C11.5217 17.9583 11.125 17.5617 11.125 17.0833V13.5833C11.125 13.105 11.5217 12.7083 12 12.7083C12.4783 12.7083 12.875 13.105 12.875 13.5833V17.0833C12.875 17.5617 12.4783 17.9583 12 17.9583Z" fill="#7165E3"/>
</svg>
