<svg width="596" height="206" viewBox="0 0 596 206" fill="none" xmlns="http://www.w3.org/2000/svg">
<g clip-path="url(#clip0_460_8546)">
<rect width="595.9" height="205.146" rx="42" fill="#EBE9FB"/>
<path d="M263.296 68.1063H82.3203C78.7601 68.1063 74.7262 70.1767 71.1061 73.862C67.4859 77.5473 64.5761 82.5457 63.0167 87.7575L17.698 239.223C16.1386 244.435 16.0574 249.434 17.4722 253.119C18.8871 256.804 21.682 258.875 25.2423 258.875H206.218C209.504 258.875 213.228 256.963 216.569 253.562C219.911 250.16 222.597 245.546 224.036 240.735L270.264 86.2308C271.703 81.4199 271.778 76.806 270.472 73.4042C269.166 70.0023 266.586 68.0912 263.3 68.0912L263.296 68.1063Z" fill="#7165E3"/>
<path d="M226.358 75.5829L231.398 66.3195L230.138 61.1731L218.168 41.6171L212.498 37.5L209.977 87.9341L226.358 75.5829Z" fill="#7165E3"/>
<path d="M248.522 43.975H67.5469C63.9866 43.975 59.9527 46.0454 56.3326 49.7307C52.7125 53.416 49.8027 58.4144 48.2433 63.6262L2.92458 215.092C1.3652 220.304 1.28399 225.302 2.69881 228.988C4.11364 232.673 6.90859 234.743 10.4688 234.743H191.444C194.73 234.743 198.454 232.832 201.796 229.43C205.137 226.028 207.823 221.415 209.263 216.604L255.491 62.0995C256.93 57.2886 257.005 52.6747 255.699 49.2728C254.393 45.871 251.813 43.9599 248.527 43.9599L248.522 43.975Z" fill="#F7F6FD"/>
<mask id="mask0_460_8546" style="mask-type:alpha" maskUnits="userSpaceOnUse" x="1" y="43" width="256" height="192">
<path d="M248.522 43.9749H67.5469C63.9866 43.9749 59.9527 46.0453 56.3326 49.7307C52.7125 53.416 49.8027 58.4144 48.2433 63.6262L2.92458 215.092C1.3652 220.304 1.28399 225.302 2.69881 228.987C4.11364 232.673 6.90859 234.743 10.4688 234.743H191.444C194.73 234.743 198.454 232.832 201.796 229.43C205.137 226.028 207.823 221.415 209.263 216.604L255.491 62.0995C256.93 57.2885 257.005 52.6747 255.699 49.2728C254.393 45.871 251.813 43.9598 248.527 43.9598L248.522 43.9749Z" fill="#F7F6FD"/>
</mask>
<g mask="url(#mask0_460_8546)">
<path d="M464.496 -234.556L253.64 474.662" stroke="#D7D4F7" strokeWidth="0.277778"/>
<path d="M460.547 -234.556L249.691 474.662" stroke="#D7D4F7" strokeWidth="0.277778"/>
<path d="M456.586 -234.556L245.73 474.662" stroke="#D7D4F7" strokeWidth="0.277778"/>
<path d="M452.633 -234.556L241.777 474.662" stroke="#D7D4F7" strokeWidth="0.277778"/>
<path d="M448.676 -234.556L237.82 474.662" stroke="#D7D4F7" strokeWidth="0.277778"/>
<path d="M444.723 -234.556L233.867 474.662" stroke="#D7D4F7" strokeWidth="0.277778"/>
<path d="M440.766 -234.556L229.91 474.662" stroke="#D7D4F7" strokeWidth="0.277778"/>
<path d="M436.812 -234.556L225.957 474.662" stroke="#D7D4F7" strokeWidth="0.277778"/>
<path d="M432.855 -234.556L222 474.662" stroke="#D7D4F7" strokeWidth="0.277778"/>
<path d="M428.902 -234.556L218.046 474.662" stroke="#D7D4F7" strokeWidth="0.277778"/>
<path d="M424.945 -234.556L214.089 474.662" stroke="#D7D4F7" strokeWidth="0.277778"/>
<path d="M420.992 -234.556L210.136 474.662" stroke="#D7D4F7" strokeWidth="0.277778"/>
<path d="M417.035 -234.556L206.179 474.662" stroke="#D7D4F7" strokeWidth="0.277778"/>
<path d="M413.082 -234.556L202.226 474.662" stroke="#D7D4F7" strokeWidth="0.277778"/>
<path d="M409.125 -234.556L198.269 474.662" stroke="#D7D4F7" strokeWidth="0.277778"/>
<path d="M405.172 -234.556L194.316 474.662" stroke="#D7D4F7" strokeWidth="0.277778"/>
<path d="M401.211 -234.556L190.355 474.662" stroke="#D7D4F7" strokeWidth="0.277778"/>
<path d="M397.254 -234.556L186.398 474.662" stroke="#D7D4F7" strokeWidth="0.277778"/>
<path d="M393.305 -234.556L182.449 474.662" stroke="#D7D4F7" strokeWidth="0.277778"/>
<path d="M389.344 -234.556L178.488 474.662" stroke="#D7D4F7" strokeWidth="0.277778"/>
<path d="M385.391 -234.556L174.535 474.662" stroke="#D7D4F7" strokeWidth="0.277778"/>
<path d="M381.434 -234.556L170.578 474.662" stroke="#D7D4F7" strokeWidth="0.277778"/>
<path d="M377.48 -234.556L166.625 474.662" stroke="#D7D4F7" strokeWidth="0.277778"/>
<path d="M373.52 -234.556L162.664 474.662" stroke="#D7D4F7" strokeWidth="0.277778"/>
<path d="M369.562 -234.556L158.707 474.662" stroke="#D7D4F7" strokeWidth="0.277778"/>
<path d="M365.609 -234.556L154.754 474.662" stroke="#D7D4F7" strokeWidth="0.277778"/>
<path d="M361.652 -234.556L150.796 474.662" stroke="#D7D4F7" strokeWidth="0.277778"/>
<path d="M357.699 -234.556L146.843 474.662" stroke="#D7D4F7" strokeWidth="0.277778"/>
<path d="M353.742 -234.556L142.886 474.662" stroke="#D7D4F7" strokeWidth="0.277778"/>
<path d="M349.789 -234.556L138.933 474.662" stroke="#D7D4F7" strokeWidth="0.277778"/>
<path d="M345.832 -234.556L134.976 474.662" stroke="#D7D4F7" strokeWidth="0.277778"/>
<path d="M341.879 -234.556L131.023 474.662" stroke="#D7D4F7" strokeWidth="0.277778"/>
<path d="M337.922 -234.556L127.066 474.662" stroke="#D7D4F7" strokeWidth="0.277778"/>
<path d="M333.969 -234.556L123.113 474.662" stroke="#D7D4F7" strokeWidth="0.277778"/>
<path d="M330.008 -234.556L119.152 474.662" stroke="#D7D4F7" strokeWidth="0.277778"/>
<path d="M326.055 -234.556L115.199 474.662" stroke="#D7D4F7" strokeWidth="0.277778"/>
<path d="M322.102 -234.556L111.246 474.662" stroke="#D7D4F7" strokeWidth="0.277778"/>
<path d="M318.145 -234.556L107.289 474.662" stroke="#D7D4F7" strokeWidth="0.277778"/>
<path d="M314.188 -234.556L103.332 474.662" stroke="#D7D4F7" strokeWidth="0.277778"/>
<path d="M310.234 -234.556L99.3785 474.662" stroke="#D7D4F7" strokeWidth="0.277778"/>
<path d="M306.277 -234.556L95.4215 474.662" stroke="#D7D4F7" strokeWidth="0.277778"/>
<path d="M302.324 -234.556L91.4684 474.662" stroke="#D7D4F7" strokeWidth="0.277778"/>
<path d="M298.363 -234.556L87.5074 474.662" stroke="#D7D4F7" strokeWidth="0.277778"/>
<path d="M294.414 -234.556L83.5582 474.662" stroke="#D7D4F7" strokeWidth="0.277778"/>
<path d="M290.457 -234.556L79.6012 474.662" stroke="#D7D4F7" strokeWidth="0.277778"/>
<path d="M286.496 -234.556L75.6402 474.662" stroke="#D7D4F7" strokeWidth="0.277778"/>
<path d="M282.547 -234.556L71.691 474.662" stroke="#D7D4F7" strokeWidth="0.277778"/>
<path d="M278.586 -234.556L67.7301 474.662" stroke="#D7D4F7" strokeWidth="0.277778"/>
<path d="M274.633 -234.556L63.777 474.662" stroke="#D7D4F7" strokeWidth="0.277778"/>
<path d="M270.676 -234.556L59.8199 474.662" stroke="#D7D4F7" strokeWidth="0.277778"/>
<path d="M266.723 -234.556L55.8668 474.662" stroke="#D7D4F7" strokeWidth="0.277778"/>
<path d="M262.766 -234.556L51.9098 474.662" stroke="#D7D4F7" strokeWidth="0.277778"/>
<path d="M258.812 -234.556L47.9566 474.662" stroke="#D7D4F7" strokeWidth="0.277778"/>
<path d="M254.855 -234.556L43.9996 474.662" stroke="#D7D4F7" strokeWidth="0.277778"/>
<path d="M250.902 -234.556L40.0465 474.662" stroke="#D7D4F7" strokeWidth="0.277778"/>
<path d="M246.945 -234.556L36.0895 474.662" stroke="#D7D4F7" strokeWidth="0.277778"/>
<path d="M242.984 -234.556L32.1285 474.662" stroke="#D7D4F7" strokeWidth="0.277778"/>
<path d="M239.031 -234.556L28.1754 474.662" stroke="#D7D4F7" strokeWidth="0.277778"/>
<path d="M235.082 -234.556L24.2262 474.662" stroke="#D7D4F7" strokeWidth="0.277778"/>
<path d="M231.121 -234.556L20.2652 474.662" stroke="#D7D4F7" strokeWidth="0.277778"/>
<path d="M227.164 -234.556L16.3082 474.662" stroke="#D7D4F7" strokeWidth="0.277778"/>
<path d="M223.211 -234.556L12.3551 474.662" stroke="#D7D4F7" strokeWidth="0.277778"/>
<path d="M219.254 -234.556L8.39805 474.662" stroke="#D7D4F7" strokeWidth="0.277778"/>
<path d="M215.301 -234.556L4.44493 474.662" stroke="#D7D4F7" strokeWidth="0.277778"/>
<path d="M211.344 -234.556L0.487895 474.662" stroke="#D7D4F7" strokeWidth="0.277778"/>
<path d="M207.391 -234.556L-3.46523 474.662" stroke="#D7D4F7" strokeWidth="0.277778"/>
<path d="M203.434 -234.556L-7.42226 474.662" stroke="#D7D4F7" strokeWidth="0.277778"/>
<path d="M199.473 -234.556L-11.3832 474.662" stroke="#D7D4F7" strokeWidth="0.277778"/>
<path d="M195.523 -234.556L-15.3324 474.662" stroke="#D7D4F7" strokeWidth="0.277778"/>
<path d="M191.562 -234.556L-19.2934 474.662" stroke="#D7D4F7" strokeWidth="0.277778"/>
<path d="M187.609 -234.556L-23.2465 474.662" stroke="#D7D4F7" strokeWidth="0.277778"/>
<path d="M183.652 -234.556L-27.2035 474.662" stroke="#D7D4F7" strokeWidth="0.277778"/>
<path d="M179.699 -234.556L-31.1566 474.662" stroke="#D7D4F7" strokeWidth="0.277778"/>
<path d="M175.742 -234.556L-35.1137 474.662" stroke="#D7D4F7" strokeWidth="0.277778"/>
<path d="M171.789 -234.556L-39.0668 474.662" stroke="#D7D4F7" strokeWidth="0.277778"/>
<path d="M167.832 -234.556L-43.0238 474.662" stroke="#D7D4F7" strokeWidth="0.277778"/>
<path d="M163.879 -234.556L-46.9769 474.662" stroke="#D7D4F7" strokeWidth="0.277778"/>
<path d="M159.922 -234.556L-50.934 474.662" stroke="#D7D4F7" strokeWidth="0.277778"/>
<path d="M155.965 -234.556L-54.891 474.662" stroke="#D7D4F7" strokeWidth="0.277778"/>
<path d="M152.008 -234.556L-58.848 474.662" stroke="#D7D4F7" strokeWidth="0.277778"/>
<path d="M148.059 -234.556L-62.7973 474.662" stroke="#D7D4F7" strokeWidth="0.277778"/>
<path d="M144.098 -234.556L-66.7582 474.662" stroke="#D7D4F7" strokeWidth="0.277778"/>
<path d="M140.145 -234.556L-70.7113 474.662" stroke="#D7D4F7" strokeWidth="0.277778"/>
<path d="M136.188 -234.556L-74.6684 474.662" stroke="#D7D4F7" strokeWidth="0.277778"/>
<path d="M132.234 -234.556L-78.6215 474.662" stroke="#D7D4F7" strokeWidth="0.277778"/>
<path d="M128.277 -234.556L-82.5785 474.662" stroke="#D7D4F7" strokeWidth="0.277778"/>
<path d="M124.324 -234.556L-86.5316 474.662" stroke="#D7D4F7" strokeWidth="0.277778"/>
<path d="M120.367 -234.556L-90.4887 474.662" stroke="#D7D4F7" strokeWidth="0.277778"/>
<path d="M116.406 -234.556L-94.4496 474.662" stroke="#D7D4F7" strokeWidth="0.277778"/>
<path d="M112.457 -234.556L-98.3988 474.662" stroke="#D7D4F7" strokeWidth="0.277778"/>
<path d="M108.504 -234.556L-102.352 474.662" stroke="#D7D4F7" strokeWidth="0.277778"/>
<path d="M104.543 -234.556L-106.313 474.662" stroke="#D7D4F7" strokeWidth="0.277778"/>
<path d="M100.594 -234.556L-110.262 474.662" stroke="#D7D4F7" strokeWidth="0.277778"/>
<path d="M96.6328 -234.556L-114.223 474.662" stroke="#D7D4F7" strokeWidth="0.277778"/>
<path d="M92.6758 -234.556L-118.18 474.662" stroke="#D7D4F7" strokeWidth="0.277778"/>
<path d="M88.7227 -234.556L-122.133 474.662" stroke="#D7D4F7" strokeWidth="0.277778"/>
<path d="M84.7656 -234.556L-126.09 474.662" stroke="#D7D4F7" strokeWidth="0.277778"/>
<path d="M80.8125 -234.556L-130.043 474.662" stroke="#D7D4F7" strokeWidth="0.277778"/>
<path d="M76.8555 -234.556L-134 474.662" stroke="#D7D4F7" strokeWidth="0.277778"/>
<path d="M72.9023 -234.556L-137.954 474.662" stroke="#D7D4F7" strokeWidth="0.277778"/>
<path d="M68.9453 -234.556L-141.911 474.662" stroke="#D7D4F7" strokeWidth="0.277778"/>
<path d="M64.9844 -234.556L-145.871 474.662" stroke="#D7D4F7" strokeWidth="0.277778"/>
<path d="M61.0352 -234.556L-149.821 474.662" stroke="#D7D4F7" strokeWidth="0.277778"/>
<path d="M57.0742 -234.556L-153.782 474.662" stroke="#D7D4F7" strokeWidth="0.277778"/>
<path d="M53.1211 -234.556L-157.735 474.662" stroke="#D7D4F7" strokeWidth="0.277778"/>
<path d="M49.1641 -234.556L-161.692 474.662" stroke="#D7D4F7" strokeWidth="0.277778"/>
<path d="M45.2109 -234.556L-165.645 474.662" stroke="#D7D4F7" strokeWidth="0.277778"/>
<path d="M41.2539 -234.556L-169.602 474.662" stroke="#D7D4F7" strokeWidth="0.277778"/>
<path d="M37.3008 -234.556L-173.555 474.662" stroke="#D7D4F7" strokeWidth="0.277778"/>
<path d="M33.3438 -234.556L-177.512 474.662" stroke="#D7D4F7" strokeWidth="0.277778"/>
<path d="M29.3828 -234.556L-181.473 474.662" stroke="#D7D4F7" strokeWidth="0.277778"/>
<path d="M25.4336 -234.556L-185.422 474.662" stroke="#D7D4F7" strokeWidth="0.277778"/>
<path d="M21.4805 -234.556L-189.375 474.662" stroke="#D7D4F7" strokeWidth="0.277778"/>
<path d="M17.5195 -234.556L-193.336 474.662" stroke="#D7D4F7" strokeWidth="0.277778"/>
<path d="M13.5703 -234.556L-197.286 474.662" stroke="#D7D4F7" strokeWidth="0.277778"/>
<path d="M9.60938 -234.556L-201.246 474.662" stroke="#D7D4F7" strokeWidth="0.277778"/>
<path d="M5.65234 -234.556L-205.204 474.662" stroke="#D7D4F7" strokeWidth="0.277778"/>
<path d="M1.69922 -234.556L-209.157 474.662" stroke="#D7D4F7" strokeWidth="0.277778"/>
<path d="M607.488 202.635L-225.55 381.71" stroke="#D7D4F7" strokeWidth="0.277778"/>
<path d="M605.508 198.437L-227.53 377.511" stroke="#D7D4F7" strokeWidth="0.277778"/>
<path d="M603.527 194.239L-229.511 373.314" stroke="#D7D4F7" strokeWidth="0.277778"/>
<path d="M601.551 190.041L-231.487 369.116" stroke="#D7D4F7" strokeWidth="0.277778"/>
<path d="M599.578 185.843L-233.46 364.917" stroke="#D7D4F7" strokeWidth="0.277778"/>
<path d="M597.598 181.645L-235.44 360.72" stroke="#D7D4F7" strokeWidth="0.277778"/>
<path d="M595.617 177.447L-237.421 356.521" stroke="#D7D4F7" strokeWidth="0.277778"/>
<path d="M593.641 173.249L-239.397 352.323" stroke="#D7D4F7" strokeWidth="0.277778"/>
<path d="M591.66 169.051L-241.378 348.125" stroke="#D7D4F7" strokeWidth="0.277778"/>
<path d="M589.688 164.853L-243.351 343.927" stroke="#D7D4F7" strokeWidth="0.277778"/>
<path d="M587.707 160.655L-245.331 339.729" stroke="#D7D4F7" strokeWidth="0.277778"/>
<path d="M585.727 156.457L-247.312 335.531" stroke="#D7D4F7" strokeWidth="0.277778"/>
<path d="M583.75 152.259L-249.288 331.333" stroke="#D7D4F7" strokeWidth="0.277778"/>
<path d="M581.777 148.062L-251.261 327.136" stroke="#D7D4F7" strokeWidth="0.277778"/>
<path d="M579.797 143.863L-253.241 322.937" stroke="#D7D4F7" strokeWidth="0.277778"/>
<path d="M577.82 139.665L-255.218 318.739" stroke="#D7D4F7" strokeWidth="0.277778"/>
<path d="M575.84 135.467L-257.198 314.541" stroke="#D7D4F7" strokeWidth="0.277778"/>
<path d="M573.863 131.269L-259.175 310.344" stroke="#D7D4F7" strokeWidth="0.277778"/>
<path d="M571.887 127.071L-261.151 306.145" stroke="#D7D4F7" strokeWidth="0.277778"/>
<path d="M569.91 122.873L-263.128 301.947" stroke="#D7D4F7" strokeWidth="0.277778"/>
<path d="M567.93 118.675L-265.108 297.749" stroke="#D7D4F7" strokeWidth="0.277778"/>
<path d="M565.953 114.477L-267.085 293.551" stroke="#D7D4F7" strokeWidth="0.277778"/>
<path d="M563.973 110.279L-269.065 289.353" stroke="#D7D4F7" strokeWidth="0.277778"/>
<path d="M561.996 106.081L-271.042 285.155" stroke="#D7D4F7" strokeWidth="0.277778"/>
<path d="M560.02 101.883L-273.019 280.957" stroke="#D7D4F7" strokeWidth="0.277778"/>
<path d="M558.043 97.685L-274.995 276.759" stroke="#D7D4F7" strokeWidth="0.277778"/>
<path d="M556.062 93.4871L-276.976 272.561" stroke="#D7D4F7" strokeWidth="0.277778"/>
<path d="M554.086 89.2889L-278.952 268.363" stroke="#D7D4F7" strokeWidth="0.277778"/>
<path d="M552.105 85.0909L-280.933 264.165" stroke="#D7D4F7" strokeWidth="0.277778"/>
<path d="M550.133 80.8928L-282.905 259.967" stroke="#D7D4F7" strokeWidth="0.277778"/>
<path d="M548.152 76.6949L-284.886 255.769" stroke="#D7D4F7" strokeWidth="0.277778"/>
<path d="M546.176 72.4969L-286.862 251.571" stroke="#D7D4F7" strokeWidth="0.277778"/>
<path d="M544.195 68.2986L-288.843 247.373" stroke="#D7D4F7" strokeWidth="0.277778"/>
<path d="M542.223 64.1007L-290.815 243.175" stroke="#D7D4F7" strokeWidth="0.277778"/>
<path d="M540.242 59.9028L-292.796 238.977" stroke="#D7D4F7" strokeWidth="0.277778"/>
<path d="M538.266 55.7047L-294.772 234.779" stroke="#D7D4F7" strokeWidth="0.277778"/>
<path d="M536.285 51.5066L-296.753 230.581" stroke="#D7D4F7" strokeWidth="0.277778"/>
<path d="M534.305 47.3091L-298.733 226.383" stroke="#D7D4F7" strokeWidth="0.277778"/>
<path d="M532.332 43.1109L-300.706 222.185" stroke="#D7D4F7" strokeWidth="0.277778"/>
<path d="M530.352 38.9128L-302.687 217.987" stroke="#D7D4F7" strokeWidth="0.277778"/>
<path d="M528.375 34.7149L-304.663 213.789" stroke="#D7D4F7" strokeWidth="0.277778"/>
<path d="M526.395 30.517L-306.644 209.591" stroke="#D7D4F7" strokeWidth="0.277778"/>
<path d="M524.422 26.3188L-308.616 205.393" stroke="#D7D4F7" strokeWidth="0.277778"/>
<path d="M522.441 22.1208L-310.597 201.195" stroke="#D7D4F7" strokeWidth="0.277778"/>
<path d="M520.465 17.9229L-312.573 196.997" stroke="#D7D4F7" strokeWidth="0.277778"/>
<path d="M518.484 13.7248L-314.554 192.799" stroke="#D7D4F7" strokeWidth="0.277778"/>
<path d="M516.504 9.52664L-316.534 188.601" stroke="#D7D4F7" strokeWidth="0.277778"/>
<path d="M514.531 5.32867L-318.507 184.403" stroke="#D7D4F7" strokeWidth="0.277778"/>
<path d="M512.555 1.13074L-320.483 180.205" stroke="#D7D4F7" strokeWidth="0.277778"/>
<path d="M510.574 -3.06732L-322.464 176.007" stroke="#D7D4F7" strokeWidth="0.277778"/>
<path d="M508.602 -7.26532L-324.437 171.809" stroke="#D7D4F7" strokeWidth="0.277778"/>
<path d="M506.621 -11.4634L-326.417 167.611" stroke="#D7D4F7" strokeWidth="0.277778"/>
<path d="M504.641 -15.6614L-328.397 163.413" stroke="#D7D4F7" strokeWidth="0.277778"/>
<path d="M502.664 -19.8594L-330.374 159.215" stroke="#D7D4F7" strokeWidth="0.277778"/>
<path d="M500.684 -24.0574L-332.355 155.017" stroke="#D7D4F7" strokeWidth="0.277778"/>
<path d="M498.711 -28.2556L-334.327 150.819" stroke="#D7D4F7" strokeWidth="0.277778"/>
<path d="M496.73 -32.4536L-336.308 146.621" stroke="#D7D4F7" strokeWidth="0.277778"/>
<path d="M494.754 -36.6516L-338.284 142.423" stroke="#D7D4F7" strokeWidth="0.277778"/>
<path d="M492.773 -40.8496L-340.265 138.225" stroke="#D7D4F7" strokeWidth="0.277778"/>
<path d="M490.801 -45.0477L-342.237 134.026" stroke="#D7D4F7" strokeWidth="0.277778"/>
<path d="M488.82 -49.2457L-344.218 129.828" stroke="#D7D4F7" strokeWidth="0.277778"/>
<path d="M486.84 -53.4436L-346.198 125.631" stroke="#D7D4F7" strokeWidth="0.277778"/>
<path d="M484.863 -57.6415L-348.175 121.433" stroke="#D7D4F7" strokeWidth="0.277778"/>
<path d="M482.891 -61.8394L-350.147 117.235" stroke="#D7D4F7" strokeWidth="0.277778"/>
<path d="M480.91 -66.0374L-352.128 113.037" stroke="#D7D4F7" strokeWidth="0.277778"/>
<path d="M478.93 -70.2355L-354.108 108.839" stroke="#D7D4F7" strokeWidth="0.277778"/>
<path d="M476.953 -74.4337L-356.085 104.641" stroke="#D7D4F7" strokeWidth="0.277778"/>
<path d="M474.973 -78.6315L-358.065 100.443" stroke="#D7D4F7" strokeWidth="0.277778"/>
<path d="M473 -82.8295L-360.038 96.2447" stroke="#D7D4F7" strokeWidth="0.277778"/>
<path d="M471.02 -87.0276L-362.019 92.0466" stroke="#D7D4F7" strokeWidth="0.277778"/>
<path d="M469.039 -91.2257L-363.999 87.8485" stroke="#D7D4F7" strokeWidth="0.277778"/>
<path d="M467.062 -95.4236L-365.976 83.6506" stroke="#D7D4F7" strokeWidth="0.277778"/>
<path d="M465.09 -99.6216L-367.948 79.4525" stroke="#D7D4F7" strokeWidth="0.277778"/>
<path d="M463.109 -103.82L-369.929 75.2543" stroke="#D7D4F7" strokeWidth="0.277778"/>
<path d="M461.129 -108.018L-371.909 71.0564" stroke="#D7D4F7" strokeWidth="0.277778"/>
<path d="M459.152 -112.216L-373.886 66.8585" stroke="#D7D4F7" strokeWidth="0.277778"/>
<path d="M457.172 -116.414L-375.866 62.6605" stroke="#D7D4F7" strokeWidth="0.277778"/>
<path d="M455.199 -120.612L-377.839 58.4624" stroke="#D7D4F7" strokeWidth="0.277778"/>
<path d="M453.223 -124.81L-379.815 54.2643" stroke="#D7D4F7" strokeWidth="0.277778"/>
<path d="M451.242 -129.008L-381.796 50.0661" stroke="#D7D4F7" strokeWidth="0.277778"/>
<path d="M449.262 -133.206L-383.776 45.8682" stroke="#D7D4F7" strokeWidth="0.277778"/>
</g>
<g opacity="0.4">
<path opacity="0.2" d="M230.41 145.856L45.0428 74.3117L38.263 96.9715L220.741 178.171L230.41 145.856Z" fill="#7165E3"/>
</g>
<g opacity="0.4">
<path opacity="0.2" d="M142.426 45.0441L101.911 119.581L49.779 235.729H31.4596L101.081 101.673L125.439 45.0441H142.426Z" fill="#7165E3"/>
</g>
<path d="M111.758 103.245C114.997 104.5 119.09 103.517 123.119 101.855C127.148 100.193 131.217 97.8806 135.231 96.3694C145.115 92.713 154.103 94.1184 160.362 100.299C160.69 100.538 160.904 100.955 160.973 101.492C160.941 102.17 160.718 102.915 160.344 103.593L137.596 150.305C136.908 151.951 135.915 153.467 134.754 154.642C133.025 156.153 131.375 155.609 129.95 155.004C125.375 153.255 121.174 150.722 117.415 147.448C113.659 144.123 111.09 139.053 109.958 132.729C109.514 129.707 109.461 126.442 108.928 123.511C108.526 120.447 107.172 118.187 105.117 117.149L111.758 103.245Z" fill="#F7F6FD"/>
<path d="M43.074 118.841C51.3217 98.9837 59.6112 79.0206 69.7827 59.9944C78.8525 59.7224 85.4457 66.1451 90.1799 74.1696C94.9141 82.1941 98.2654 91.881 103.117 99.7544L98.7501 114.005C96.4788 112.678 93.5977 112.652 90.5359 113.93C87.5136 115.188 84.4706 116.781 81.4411 118.69C74.4792 122.962 67.4948 125.942 60.7264 127.53C54.0229 128.875 47.6314 127.938 43.3255 123.541C42.7111 123.116 42.3577 122.288 42.339 121.229C42.4472 120.442 42.6997 119.622 43.074 118.841V118.841Z" fill="#F7F6FD"/>
<g opacity="0.3">
<path opacity="0.4" d="M111.754 103.246C114.993 104.5 119.086 103.518 123.115 101.855C127.144 100.193 131.213 97.8807 135.227 96.3695C145.111 92.7131 154.099 94.1185 160.358 100.299C160.686 100.538 160.9 100.955 160.969 101.492C160.937 102.17 160.714 102.915 160.34 103.593L137.592 150.305C136.904 151.951 135.911 153.467 134.75 154.642C133.021 156.153 131.372 155.609 129.946 155.004C125.371 153.255 121.17 150.722 117.412 147.448C113.655 144.123 111.086 139.053 109.955 132.729C109.51 129.707 109.457 126.443 108.924 123.511C108.522 120.447 107.168 118.187 105.113 117.149L111.754 103.246Z" fill="#7165E3"/>
</g>
<path d="M111.76 103.245L111.317 104.107C111.004 104.742 110.577 105.618 110.016 106.736L104.976 117.043L104.922 117.224H105.045C106.502 117.904 107.583 119.274 108.158 121.168C108.817 123.475 109.212 126.012 109.336 128.724C109.509 131.864 110.021 134.78 110.86 137.399C111.812 140.307 113.129 142.848 114.776 144.955C118.156 149.489 123.101 152.405 128.571 154.838C129.942 155.382 131.208 156.349 133.16 155.881C133.64 155.758 134.138 155.501 134.623 155.127C135.107 154.752 135.567 154.268 135.973 153.705C136.724 152.596 137.388 151.405 137.948 150.169C140.268 145.408 142.644 140.527 145.06 135.585C148.609 128.301 152.066 121.184 155.421 114.308C157.086 110.877 158.737 107.492 160.34 104.198C160.843 103.325 161.181 102.364 161.308 101.447C161.218 100.647 160.889 100.042 160.377 99.7394C159.578 98.9687 158.77 98.2282 157.903 97.6842C154.614 95.4081 150.763 94.1901 146.531 94.0875C142.822 93.9456 138.857 94.6853 134.787 96.2788C131.092 97.79 127.768 99.5732 124.874 100.812C122.383 102.009 119.911 102.86 117.505 103.351C115.986 103.653 114.523 103.699 113.15 103.487C112.222 103.321 111.73 103.14 111.742 103.17C111.844 103.241 111.955 103.297 112.073 103.336C112.398 103.464 112.736 103.565 113.084 103.638C114.446 103.919 115.91 103.919 117.439 103.638C119.857 103.199 122.346 102.382 124.86 101.205C127.783 99.9359 131.108 98.1829 134.783 96.6717C143.366 93.4074 151.336 93.9389 157.445 98.1829C158.294 98.7874 159.124 99.4523 159.928 100.208C160.33 100.586 160.736 100.948 160.73 101.553C160.606 102.311 160.314 103.096 159.892 103.805C158.278 107.109 156.63 110.484 154.947 113.93C151.607 120.791 148.139 127.908 144.58 135.192C142.171 140.149 139.803 145.01 137.478 149.776C136.959 150.945 136.334 152.071 135.624 153.115C135.284 153.589 134.899 153.997 134.493 154.312C134.086 154.627 133.668 154.842 133.265 154.944C131.609 155.352 130.312 154.491 128.904 153.931C123.445 151.529 118.551 148.582 115.177 144.199C113.544 142.15 112.226 139.682 111.259 136.855C110.424 134.274 109.897 131.411 109.691 128.332C109.549 125.609 109.126 123.071 108.43 120.776C107.821 118.83 106.684 117.438 105.16 116.771L105.191 117.013C107.288 112.585 108.926 109.139 110.048 106.767L111.316 104.077C111.615 103.593 111.76 103.245 111.76 103.245Z" fill="#7165E3"/>
<g opacity="0.3">
<path opacity="0.4" d="M43.0701 118.841C51.3178 98.9837 59.6073 79.0206 69.7787 59.9945C78.8486 59.7225 85.4417 66.1451 90.176 74.1696C94.9102 82.1941 98.2615 91.881 103.113 99.7544L98.7462 114.005C96.4749 112.678 93.5938 112.652 90.532 113.93C87.5097 115.188 84.4667 116.781 81.4372 118.69C74.4753 122.962 67.4909 125.942 60.7225 127.53C54.0189 128.875 47.6275 127.938 43.3216 123.541C42.7071 123.116 42.3538 122.288 42.3351 121.229C42.4433 120.442 42.6958 119.622 43.0701 118.841V118.841Z" fill="#7165E3"/>
</g>
<path d="M43.0759 118.841C42.8048 119.374 42.5863 119.93 42.4286 120.488C42.2341 121.194 42.2324 121.864 42.424 122.362C42.6958 123.001 43.0796 123.512 43.5574 123.873C46.4136 126.61 50.011 128.108 54.0866 128.256C59.2348 128.634 66.112 126.881 73.9059 123.027C75.8684 122.02 77.8716 120.957 79.9153 119.838C81.9784 118.69 84.0867 117.39 86.2263 116.227C88.4044 114.994 90.5791 114.11 92.6965 113.597C94.8902 113.046 96.9088 113.291 98.5483 114.307L98.8396 114.504L99.0024 113.96C100.359 109.426 101.869 104.62 103.379 99.709L103.438 99.5126L103.361 99.3917C101.076 95.6741 99.0285 91.3671 96.991 86.9242C93.6563 79.625 90.3587 72.477 85.8927 67.4447C81.4267 62.4123 75.9474 59.3899 69.9021 59.6015H69.7374L69.6226 59.8131C62.3782 73.7167 55.7574 87.9424 49.8165 102.369C47.6285 107.582 45.9502 111.678 44.8093 114.458C44.2537 115.834 43.8239 116.891 43.5213 117.662C43.4218 117.995 43.2786 118.267 43.1948 118.478C43.1572 118.574 43.1283 118.67 43.1088 118.765C43.1088 118.765 43.136 118.675 43.2417 118.493L43.5991 117.677C43.9213 116.922 44.3717 115.864 44.9502 114.504C46.1503 111.663 47.8814 107.598 50.081 102.414C56.0857 88.0434 62.7345 73.8718 69.9757 60.0095L69.7019 60.2362C75.6455 60.0548 81.0856 63.0017 85.4338 68.0491C89.7821 73.0966 93.1422 80.1388 96.4473 87.4682C98.4951 91.9112 100.548 96.2332 102.86 99.9659L102.842 99.6486C101.372 104.56 99.8724 109.366 98.4851 113.899L98.9391 113.552C97.2234 112.507 95.1192 112.257 92.8344 112.826C90.6691 113.354 88.4449 114.263 86.2181 115.531C84.0533 116.71 81.9508 118.025 79.898 119.173C77.8453 120.322 75.862 121.41 73.915 122.377C67.1286 125.975 60.4275 127.796 54.2345 127.727C50.1807 127.626 46.5822 126.218 43.6903 123.601C43.222 123.235 42.8454 122.724 42.5774 122.09C42.3891 121.632 42.3763 121.012 42.5414 120.352C42.7036 119.847 42.8819 119.342 43.0759 118.841Z" fill="#7165E3"/>
<path d="M102.827 120.005C102.827 120.005 105.112 120.594 104.049 130.719C102.986 140.844 92.9026 187.828 92.9026 187.828L58.6979 199.842L95.3391 121.425L102.827 120.005Z" fill="#F7F6FD"/>
<path d="M93.6536 119.869L60.4444 170.676L53.5115 140.784C53.5115 140.784 81.4322 114.776 94.1002 115.245L93.6536 119.869Z" fill="#F7F6FD"/>
<g opacity="0.3">
<path opacity="0.4" d="M102.827 120.005C102.827 120.005 105.112 120.594 104.049 130.719C102.986 140.844 92.9026 187.828 92.9026 187.828L58.6978 199.842L95.3391 121.425L102.827 120.005Z" fill="#7165E3"/>
</g>
<g opacity="0.3">
<path opacity="0.4" d="M93.6536 119.869L60.4444 170.676L53.5115 140.784C53.5115 140.784 81.4322 114.776 94.1002 115.245L93.6536 119.869Z" fill="#7165E3"/>
</g>
<path d="M102.827 120.005C102.683 119.985 102.531 119.985 102.374 120.005L100.958 120.232L95.3717 121.214H95.2893L95.2532 121.335C88.5512 135.51 74.8109 164.812 58.5064 199.691L58.2135 200.326L58.6957 200.16L68.2349 196.805L92.8708 188.176H93.087L93.182 187.858C97.5081 167.412 101.07 149.897 103.18 137.58C104.196 132.71 104.582 127.993 104.322 123.647C104.229 122.49 103.952 121.465 103.507 120.625C103.381 120.421 103.227 120.253 103.049 120.126C102.927 120.05 102.849 120.035 102.845 120.05L103.02 120.186C103.175 120.335 103.307 120.517 103.413 120.73C103.822 121.586 104.07 122.61 104.146 123.753C104.323 128.12 103.879 132.827 102.834 137.671C100.631 149.987 96.9971 167.502 92.64 187.949L92.9475 187.541L68.2865 196.185L58.7473 199.54L58.9263 200.008C75.2102 165.13 88.8507 135.782 95.4164 121.546L95.2875 121.667L100.888 120.534L102.332 120.217L102.827 120.005Z" fill="#7165E3"/>
<path d="M93.6475 119.869C93.6475 119.869 93.6747 119.778 93.7334 119.582L93.8458 118.69L94.2062 115.214L94.2333 115.124H94.1304C91.1184 114.867 85.4097 116.741 78.3397 121.168C69.8763 126.558 61.5125 133.045 53.4015 140.512L53.1439 140.754L53.2124 141.041L56.3951 154.732L60.16 170.917L60.2773 171.386L60.6208 170.857L84.3783 134.331L91.2191 123.753L93.0369 120.911C93.2546 120.595 93.4547 120.261 93.634 119.914C93.634 119.914 93.3903 120.247 92.9488 120.896L91.0782 123.707C89.417 126.231 87.0662 129.752 84.0933 134.286C78.1371 143.353 69.8519 155.972 60.2686 170.555H60.701L56.9278 154.294L53.7302 140.618L53.5765 141.131C61.6428 133.689 69.9539 127.184 78.368 121.727C85.4368 117.269 91.0285 115.305 94.0354 115.441L93.9802 115.35L93.7247 118.75C93.7031 119.098 93.6744 119.4 93.6684 119.627C93.6566 119.709 93.6496 119.79 93.6475 119.869V119.869Z" fill="#7165E3"/>
<path d="M108.151 113.824C108.12 113.929 109.388 114.337 111.402 115.108C113.416 115.879 116.141 117.058 118.993 118.675C121.846 120.292 124.242 122.09 125.922 123.495C126.784 124.322 127.699 125.063 128.665 125.717C128.512 125.389 128.314 125.115 128.075 124.901C127.668 124.402 127.039 123.752 126.24 122.982C124.12 121.018 121.828 119.331 119.38 117.934C116.943 116.523 114.359 115.398 111.647 114.564C110.599 114.247 109.75 114.02 109.133 113.914C108.835 113.804 108.504 113.774 108.151 113.824V113.824Z" fill="#7165E3"/>
<path d="M110.709 108.958C111.818 109.106 112.96 109.162 114.129 109.124C116.887 109.208 119.569 109.526 122.163 110.076C125.187 110.741 127.804 111.663 129.717 112.358C130.703 112.798 131.736 113.137 132.812 113.371C132.608 113.146 132.367 112.978 132.096 112.872C131.606 112.585 130.88 112.222 129.973 111.814C127.593 110.723 125.092 109.885 122.486 109.305C119.878 108.735 117.146 108.488 114.317 108.565C113.287 108.565 112.339 108.671 111.719 108.746C111.398 108.747 111.057 108.818 110.709 108.958V108.958Z" fill="#7165E3"/>
<path d="M72.6303 92.1833C72.5896 92.3193 74.2311 92.3042 76.7777 92.6367C80.0852 93.0555 83.2011 93.9872 86.0771 95.4173C88.9339 96.887 91.5188 98.8731 93.7873 101.341C95.5091 103.261 96.427 104.666 96.525 104.545C96.3741 104.138 96.1831 103.774 95.9548 103.457C95.399 102.52 94.7839 101.657 94.1128 100.873C91.9291 98.217 89.3566 96.1298 86.4576 94.6617C83.5434 93.2048 80.3467 92.3373 76.9348 92.0776C75.6337 91.9869 74.5572 91.9718 73.7842 92.0776C73.4161 92.0526 73.0291 92.088 72.6303 92.1833Z" fill="#7165E3"/>
<path d="M70.1653 105.754C70.3978 105.979 70.666 106.147 70.9633 106.253C71.4849 106.54 72.2766 106.888 73.2859 107.265C75.9116 108.25 78.6804 108.912 81.5687 109.245C84.4566 109.581 87.458 109.581 90.5469 109.245C91.7349 109.094 92.6965 108.943 93.3904 108.792C93.7338 108.757 94.0913 108.66 94.4544 108.505C93.2272 108.473 91.9719 108.533 90.6936 108.686C87.6682 108.862 84.7138 108.786 81.845 108.459C78.9851 108.112 76.2097 107.532 73.531 106.721C72.4486 106.307 71.3253 105.984 70.1653 105.754V105.754Z" fill="#7165E3"/>
<path d="M93.4683 110.469C94.6661 107.746 96.1231 105.13 97.7853 102.716C99.195 100.586 100.085 98.47 102.484 97.3366C103.518 96.9558 104.505 96.8941 105.367 97.1563C106.228 97.4186 106.94 97.9976 107.447 98.8478C109.333 97.0192 111.245 98.062 112.193 99.7092C112.633 100.586 112.854 101.692 112.839 102.939C112.823 104.185 112.572 105.538 112.105 106.887C111.142 109.572 109.774 112.162 108.114 114.443C105.806 117.934 103.001 120.783 100.067 122.619C98.7564 123.379 97.4562 123.725 96.2875 123.625C95.1187 123.524 94.1192 122.981 93.3819 122.045C92.4356 120.855 91.9365 119.106 91.9519 117.036C91.9674 114.966 92.4966 112.674 93.4683 110.469V110.469Z" fill="#F7F6FD"/>
<g opacity="0.4">
<path opacity="0.3" d="M93.4644 110.469C94.6622 107.746 96.1192 105.13 97.7813 102.716C99.1911 100.586 100.082 98.47 102.48 97.3365C103.515 96.9558 104.501 96.8941 105.363 97.1563C106.224 97.4186 106.936 97.9976 107.443 98.8478C109.329 97.0192 111.241 98.0619 112.19 99.7092C112.629 100.586 112.85 101.692 112.835 102.939C112.82 104.185 112.568 105.538 112.101 106.887C111.138 109.572 109.77 112.162 108.11 114.443C105.802 117.934 102.998 120.783 100.063 122.619C98.7525 123.379 97.4523 123.725 96.2835 123.625C95.1148 123.524 94.1153 122.981 93.3779 122.045C92.4317 120.855 91.9325 119.106 91.948 117.036C91.9634 114.966 92.4927 112.674 93.4644 110.469V110.469Z" fill="#7165E3"/>
</g>
<path d="M93.4695 110.469C93.3138 110.74 93.1801 111.025 93.0721 111.315C92.7502 112.126 92.4807 112.946 92.2676 113.764C91.5948 116.377 91.6012 118.846 92.2856 120.721C92.9699 122.596 94.2866 123.752 95.9961 123.979C97.6176 124.158 99.4767 123.521 101.285 122.166C103.258 120.71 105.145 118.807 106.829 116.574C108.681 114.247 110.3 111.607 111.594 108.807C112.34 107.211 112.826 105.54 113.007 103.954C113.188 102.367 113.058 100.917 112.628 99.7395C112.149 98.7161 111.423 97.9898 110.512 97.6238C110.081 97.4123 109.566 97.3859 109.014 97.5469C108.462 97.7079 107.892 98.0512 107.354 98.5457H107.693C107.094 97.3924 106.119 96.7237 104.917 96.6416C103.886 96.42 102.67 96.756 101.471 97.5936C100.424 98.3992 99.4612 99.5494 98.7145 100.888C98.0266 102.052 97.3472 103.049 96.7444 104.031C95.8073 105.515 94.9556 107.07 94.2032 108.671C93.9994 109.093 93.8125 109.522 93.6438 109.955C93.5579 110.242 93.5127 110.394 93.5127 110.394C93.5127 110.394 93.8023 109.804 94.3498 108.731C95.1497 107.169 96.0272 105.653 96.9727 104.198C97.5677 103.276 98.2915 102.233 98.9955 101.084C99.6919 99.8503 100.587 98.7946 101.557 98.0621C102.661 97.3208 103.772 97.0386 104.711 97.2611C105.816 97.3465 106.715 97.9608 107.275 99.0141L107.368 99.2559L107.6 99.0293C108.056 98.6226 108.538 98.3436 109.001 98.217C109.465 98.0905 109.896 98.1203 110.257 98.3039C111.085 98.6458 111.743 99.3149 112.176 100.253C112.558 101.338 112.67 102.667 112.501 104.117C112.331 105.567 111.887 107.092 111.207 108.55C109.96 111.245 108.402 113.787 106.622 116.03C105.006 118.179 103.198 120.019 101.307 121.441C99.6062 122.737 97.8521 123.364 96.3148 123.224C94.9841 123.079 93.8899 122.343 93.1692 121.108C92.6388 120.217 92.3119 119.094 92.209 117.81C92.1062 116.525 92.2295 115.106 92.5714 113.643C92.8223 112.588 93.1223 111.527 93.4695 110.469V110.469Z" fill="#7165E3"/>
<path d="M102.074 121.244C102.173 121.153 101.899 120.111 101.774 118.222C101.597 115.782 101.842 113.097 102.493 110.33C103.143 107.563 104.187 104.772 105.56 102.127C106.613 100.087 107.414 98.9234 107.354 98.8479C106.554 99.7546 105.84 100.808 105.254 101.946C103.744 104.634 102.605 107.525 101.923 110.394C101.24 113.267 101.041 116.041 101.343 118.494C101.416 119.551 101.665 120.486 102.074 121.244Z" fill="#7165E3"/>
<path d="M96.5255 104.545C96.1289 105.641 95.861 106.745 95.7342 107.809C95.2982 110.408 95.1927 112.902 95.4221 115.184C95.6393 117.49 96.2089 119.537 97.1039 121.229C97.43 121.975 97.8925 122.564 98.4681 122.967C97.2345 120.661 96.3976 117.916 95.9895 114.836C95.4671 109.562 96.747 104.424 96.5255 104.545Z" fill="#7165E3"/>
<path d="M120.055 105.935C120.579 105.839 121.115 105.682 121.657 105.467L126.063 103.955C130.918 102.178 135.716 100.86 140.422 100.011C145.128 99.1725 149.587 99.3663 153.635 100.586C154.85 100.973 156.012 101.478 157.116 102.097C157.508 102.36 157.924 102.577 158.363 102.747C158.049 102.359 157.683 102.044 157.274 101.81C156.221 101.069 155.088 100.473 153.885 100.026C149.867 98.6318 145.385 98.3559 140.631 99.2103C135.897 100.063 131.056 101.464 126.158 103.396C124.288 104.107 122.775 104.726 121.727 105.164C121.174 105.359 120.615 105.617 120.055 105.935V105.935Z" fill="white"/>
<path d="M123.127 112.962C124.311 113.447 125.566 113.776 126.88 113.945C128.089 114.375 129.369 114.643 130.707 114.746C128.578 113.251 125.985 112.641 123.127 112.962Z" fill="white"/>
<path d="M122.191 122.695C122.07 122.891 122.56 123.526 123.28 124.115C123.999 124.705 124.681 125.007 124.801 124.81C124.922 124.614 124.432 123.979 123.713 123.39C122.993 122.8 122.294 122.559 122.191 122.695Z" fill="white"/>
<path d="M108.141 111.512C108.192 111.512 108.689 110.953 109.342 109.804C110.189 108.276 110.824 106.637 111.197 105.014C111.575 103.407 111.687 101.856 111.524 100.48C111.373 99.4372 111.111 98.9687 111.06 98.9687C111.211 100.867 111.072 102.941 110.649 105.089C110.056 107.264 109.207 109.436 108.141 111.512V111.512Z" fill="white"/>
<path d="M100.342 113.718C100.718 112.567 101.025 111.414 101.26 110.272C101.677 109.126 102.022 107.973 102.291 106.827C101.618 107.911 101.094 109.101 100.762 110.3C100.431 111.498 100.301 112.67 100.383 113.718H100.342Z" fill="white"/>
<path d="M89.0907 79.0511C90.4852 82.1759 92.0505 85.112 93.7796 87.8463C95.3465 90.7712 97.0819 93.4955 98.9776 96.0069C97.5877 92.8769 96.0223 89.9405 94.2887 87.2116C92.7217 84.2867 90.9864 81.5624 89.0907 79.0511Z" fill="white"/>
<path d="M88.4602 99.3465C89.3865 100.928 90.6479 102.075 92.1675 102.717C91.7851 101.825 91.2297 101.132 90.5333 100.676C89.9863 99.9888 89.2806 99.5361 88.4602 99.3465V99.3465Z" fill="white"/>
<path d="M99.9122 139.892C101.062 136.983 101.843 134.023 102.212 131.172C102.766 128.266 102.901 125.479 102.608 122.967C102.437 123.057 102.37 126.654 101.611 131.324C100.852 135.993 99.7577 139.892 99.9122 139.892Z" fill="white"/>
<path d="M79.3578 136.976C82.1694 133.067 84.7482 128.894 87.043 124.538C85.5827 126.421 84.2296 128.45 83.0104 130.583C81.6619 132.611 80.4366 134.756 79.3578 136.976V136.976Z" fill="white"/>
</g>
<defs>
<clipPath id="clip0_460_8546">
<rect width="595.9" height="205.146" rx="42" fill="white"/>
</clipPath>
</defs>
</svg>
