<svg width="64" height="64" viewBox="0 0 64 64" fill="none" xmlns="http://www.w3.org/2000/svg">
<circle opacity="0.1" cx="32" cy="32" r="31.5" fill="#F8F7FE" stroke="#7165E3"/>
<path d="M22.5547 43.04L24.9147 44.8667C25.2214 45.1733 25.9014 45.32 26.368 45.32H29.2614C30.1814 45.32 31.168 44.64 31.3947 43.72L33.2214 38.16C33.608 37.0933 32.9147 36.1733 31.768 36.1733H28.7147C28.2614 36.1733 27.8747 35.7866 27.9547 35.2532L28.3414 32.8133C28.488 32.1333 28.0347 31.3599 27.3547 31.1333C26.7414 30.9066 25.9814 31.2133 25.6747 31.6666L22.5547 36.32" stroke="#7165E3" strokeWidth="1.5" stroke-miterlimit="10"/>
<path d="M18.6641 43.04V35.5734C18.6641 34.5067 19.1174 34.1199 20.1841 34.1199H20.9441C22.0107 34.1199 22.4641 34.5067 22.4641 35.5734V43.04C22.4641 44.1067 22.0107 44.4933 20.9441 44.4933H20.1841C19.1174 44.4933 18.6641 44.12 18.6641 43.04Z" stroke="#7165E3" strokeWidth="1.5" strokeLinecap="round" stroke-linejoin="round"/>
<path d="M41.4385 20.96L39.0785 19.1333C38.7718 18.8266 38.0918 18.68 37.6251 18.68H34.7318C33.8118 18.68 32.8251 19.36 32.5985 20.28L30.7718 25.84C30.3851 26.9067 31.0785 27.8267 32.2251 27.8267H35.2785C35.7318 27.8267 36.1185 28.2134 36.0385 28.7467L35.6518 31.1867C35.5051 31.8667 35.9585 32.64 36.6385 32.8667C37.2518 33.0934 38.0118 32.7867 38.3185 32.3333L41.4385 27.68" stroke="#7165E3" strokeWidth="1.5" stroke-miterlimit="10"/>
<path d="M45.3312 20.96V28.4266C45.3312 29.4933 44.8779 29.88 43.8112 29.88H43.0512C41.9846 29.88 41.5312 29.4933 41.5312 28.4266V20.96C41.5312 19.8933 41.9846 19.5067 43.0512 19.5067H43.8112C44.8779 19.5067 45.3312 19.88 45.3312 20.96Z" stroke="#7165E3" strokeWidth="1.5" strokeLinecap="round" stroke-linejoin="round"/>
</svg>
