<svg width="26" height="26" viewBox="0 0 26 26" fill="none" xmlns="http://www.w3.org/2000/svg">
<path d="M16.625 20.8834H6.125C2.22833 20.8834 0 18.655 0 14.7584V8.45833C0 4.56166 2.22833 2.33333 6.125 2.33333H9.275C9.555 2.33333 9.82333 2.4734 9.98667 2.69506C10.15 2.91673 10.1967 3.21998 10.1033 3.48832C9.975 3.84998 9.91667 4.24666 9.91667 4.66666V9.21669C9.91667 10.1034 10.185 10.8383 10.6983 11.3516C11.2117 11.865 11.9467 12.1334 12.8333 12.1334C13.3117 12.1334 13.7083 12.53 13.7083 13.0084V14.4083L16.8933 12.2734C17.0333 12.18 17.2083 12.1217 17.3833 12.1217H20.4167C20.8367 12.1217 21.2333 12.0633 21.595 11.935C21.8633 11.8416 22.155 11.8883 22.3883 12.0516C22.6217 12.2149 22.75 12.4833 22.75 12.7633V14.7467C22.75 18.655 20.5217 20.8834 16.625 20.8834ZM6.125 4.08333C3.185 4.08333 1.75 5.51833 1.75 8.45833V14.7584C1.75 17.6984 3.185 19.1334 6.125 19.1334H16.625C19.565 19.1334 21 17.6984 21 14.7584V13.8483C20.8133 13.8717 20.615 13.8834 20.4167 13.8834H17.6517L14.5017 15.9833C13.9883 16.3099 13.3467 16.345 12.8217 16.0533C12.2967 15.7733 11.97 15.225 11.97 14.63V13.8133C10.99 13.6616 10.1267 13.23 9.47333 12.5884C8.645 11.76 8.17833 10.5584 8.17833 9.21669V4.66666C8.17833 4.46833 8.19 4.27 8.20167 4.08333H6.125V4.08333Z" fill="#7165E3"/>
<path d="M13.591 16.2517C13.3227 16.2517 13.0543 16.1817 12.8093 16.0533C12.2843 15.7733 11.9577 15.225 11.9577 14.63V13.8133C10.9777 13.6616 10.1143 13.23 9.46102 12.5884C8.63268 11.76 8.16602 10.5584 8.16602 9.21669V4.66667C8.16602 4.04833 8.25935 3.46501 8.44602 2.92834C9.09935 1.09668 10.7327 0 12.8327 0H20.416C23.1577 0 25.0827 1.91333 25.0827 4.66667V9.21669C25.0827 11.3167 23.9977 12.95 22.166 13.6034C21.606 13.79 21.0227 13.8834 20.416 13.8834H17.651L14.501 15.9833C14.221 16.1699 13.906 16.2517 13.591 16.2517ZM12.8327 1.75C11.491 1.75 10.4993 2.39167 10.1027 3.5C9.98602 3.85 9.91602 4.24667 9.91602 4.66667V9.21669C9.91602 10.1034 10.1843 10.8383 10.6977 11.3516C11.211 11.865 11.946 12.1334 12.8327 12.1334C13.311 12.1334 13.7077 12.53 13.7077 13.0084V14.4083L16.8927 12.2734C17.0327 12.18 17.2077 12.1217 17.3827 12.1217H20.416C20.836 12.1217 21.2327 12.0633 21.5943 11.935C22.7027 11.5383 23.3327 10.5467 23.3327 9.20502V4.65499C23.3327 2.85832 22.2127 1.73832 20.416 1.73832H12.8327V1.75Z" fill="#7165E3"/>
<path d="M15.5758 25.0833H7.17578C6.69745 25.0833 6.30078 24.6867 6.30078 24.2083C6.30078 23.73 6.69745 23.3333 7.17578 23.3333H15.5758C16.0541 23.3333 16.4508 23.73 16.4508 24.2083C16.4508 24.6867 16.0541 25.0833 15.5758 25.0833Z" fill="#7165E3"/>
<path d="M11.375 25.0833C10.8967 25.0833 10.5 24.6867 10.5 24.2083V20.0084C10.5 19.53 10.8967 19.1334 11.375 19.1334C11.8533 19.1334 12.25 19.53 12.25 20.0084V24.2083C12.25 24.6867 11.8533 25.0833 11.375 25.0833Z" fill="#7165E3"/>
<path d="M16.5547 7.875C16.0647 7.875 15.6797 7.47833 15.6797 7C15.6797 6.52167 16.0764 6.125 16.5547 6.125C17.033 6.125 17.4297 6.52167 17.4297 7C17.4297 7.47833 17.033 7.875 16.5547 7.875Z" fill="#7165E3"/>
<path d="M19.834 7.875C19.344 7.875 18.959 7.47833 18.959 7C18.959 6.52167 19.3557 6.125 19.834 6.125C20.3123 6.125 20.709 6.52167 20.709 7C20.709 7.47833 20.3123 7.875 19.834 7.875Z" fill="#7165E3"/>
<path d="M13.2656 7.875C12.7756 7.875 12.3906 7.47833 12.3906 7C12.3906 6.52167 12.7873 6.125 13.2656 6.125C13.744 6.125 14.1406 6.52167 14.1406 7C14.1406 7.47833 13.7556 7.875 13.2656 7.875Z" fill="#7165E3"/>
</svg>
