<svg width="24" height="25" viewBox="0 0 24 25" fill="none" xmlns="http://www.w3.org/2000/svg">
<path d="M19.8776 14.2165H17.673C17.475 14.2165 17.2814 14.2753 17.1168 14.3855L14.4409 16.1765C14.0209 16.4565 13.5309 16.5848 13.0526 16.5848C12.6443 16.5848 12.2359 16.4915 11.8626 16.2815C11.2644 15.9653 10.8351 15.3673 10.6484 14.7078C10.5278 14.282 10.2491 13.8936 9.84488 13.7135C9.26393 13.4547 8.74165 13.1022 8.30427 12.6648C7.30094 11.6615 6.7526 10.2498 6.7526 8.67484V4.12484V3.6665C6.7526 3.11422 6.30489 2.6665 5.7526 2.6665H5.58594C2.43594 2.6665 0.335938 4.2415 0.335938 7.9165V14.2165C0.335938 17.8915 2.43594 19.4665 5.58594 19.4665H9.96094V22.7915H6.63594C6.1576 22.7915 5.76094 23.1882 5.76094 23.6665C5.76094 24.1448 6.1576 24.5415 6.63594 24.5415H15.0359C15.5143 24.5415 15.9109 24.1448 15.9109 23.6665C15.9109 23.1882 15.5143 22.7915 15.0359 22.7915H11.7109V19.4665H16.0859C18.9344 19.4665 20.9242 18.1786 21.2791 15.2147C21.3448 14.6663 20.8882 14.2165 20.3359 14.2165H19.8776Z" fill="#FFFFFE"/>
<path d="M19.875 0.333252H12.2917C10.5533 0.333252 9.24667 1.21992 8.73333 2.66659C8.58167 3.10992 8.5 3.59992 8.5 4.12492V8.67492C8.5 9.80659 8.87333 10.7633 9.53833 11.4283C10.2033 12.0933 11.16 12.4666 12.2917 12.4666V14.0883C12.2917 14.6833 12.9683 15.0449 13.47 14.7183L16.8417 12.4666H19.875C20.4 12.4666 20.89 12.3849 21.3333 12.2333C22.78 11.7199 23.6667 10.4133 23.6667 8.67492V4.12492C23.6667 1.84992 22.15 0.333252 19.875 0.333252ZM12.7233 7.33325C12.2333 7.33325 11.8483 6.93659 11.8483 6.45825C11.8483 5.97992 12.2333 5.58325 12.7233 5.58325C13.2133 5.58325 13.5983 5.97992 13.5983 6.45825C13.5983 6.93659 13.2133 7.33325 12.7233 7.33325ZM16.0133 7.33325C15.5233 7.33325 15.1383 6.93659 15.1383 6.45825C15.1383 5.97992 15.535 5.58325 16.0133 5.58325C16.4917 5.58325 16.8883 5.97992 16.8883 6.45825C16.8883 6.93659 16.4917 7.33325 16.0133 7.33325ZM19.2917 7.33325C18.8017 7.33325 18.4167 6.93659 18.4167 6.45825C18.4167 5.97992 18.8133 5.58325 19.2917 5.58325C19.77 5.58325 20.1667 5.97992 20.1667 6.45825C20.1667 6.93659 19.77 7.33325 19.2917 7.33325Z" fill="#FFFFFE"/>
<path d="M23.6667 4.12492V8.67492C23.6667 10.4133 22.78 11.7199 21.3333 12.2333C20.89 12.3849 20.4 12.4666 19.875 12.4666H16.8417L13.47 14.7183C12.9683 15.0449 12.2917 14.6833 12.2917 14.0883V12.4666C11.16 12.4666 10.2033 12.0933 9.53833 11.4283C8.87333 10.7633 8.5 9.80659 8.5 8.67492V4.12492C8.5 3.59992 8.58167 3.10992 8.73333 2.66659C9.24667 1.21992 10.5533 0.333252 12.2917 0.333252H19.875C22.15 0.333252 23.6667 1.84992 23.6667 4.12492Z" fill="#FFFFFE"/>
</svg>
