<svg width="251" height="236" viewBox="0 0 251 236" fill="none" xmlns="http://www.w3.org/2000/svg">
<circle cx="133.5" cy="118.5" r="117.5" fill="#F2F2F2"/>
<path d="M241.484 66.4825C241.443 65.8346 241.403 65.1867 241.322 64.5388C241.119 63.2025 240.552 62.0686 239.499 61.2182C238.406 60.3273 237.353 59.3959 235.936 59.1125C235.733 59.072 235.49 58.9505 235.369 58.7885C235.207 58.5455 234.964 58.2216 235.004 57.9786C235.045 57.7356 235.369 57.4117 235.652 57.3712C239.378 56.6828 241.119 54.0911 242.132 50.7705C242.375 49.9606 242.496 49.0697 242.658 48.2193C242.78 47.9358 242.739 47.6524 242.861 47.4094C242.982 47.2069 243.225 46.964 243.387 47.0045C243.549 47.0045 243.751 47.2879 243.873 47.4904C243.954 47.6524 243.913 47.8549 243.913 48.0573C243.873 48.9077 243.832 49.7176 243.792 50.568C243.751 51.4994 243.67 52.4308 243.67 53.3622C243.63 54.901 244.602 55.8324 245.817 56.4398C246.586 56.8042 247.436 57.0067 248.368 56.8852C248.935 56.8042 249.502 56.9662 250.109 57.0472C250.312 57.0877 250.514 57.1282 250.636 57.2497C250.798 57.4522 251 57.7356 251 57.9381C251 58.3026 250.636 58.3431 250.312 58.3026C249.785 58.2621 249.299 58.2216 248.773 58.1406C247.801 58.0191 246.91 58.2621 246.019 58.586C245.614 58.748 245.209 59.072 245.007 59.4364C244.561 60.1248 244.116 60.8133 243.913 61.5827C243.427 63.3644 243.103 65.1867 242.699 66.9685C242.618 67.3329 242.618 67.6974 242.456 68.0214C242.375 68.2238 242.091 68.4668 241.929 68.4668C241.767 68.4668 241.484 68.1833 241.484 67.9809C241.443 67.4949 241.484 66.9685 241.484 66.4825Z" fill="#F5CF48"/>
<path d="M22.147 181.335C21.219 181.418 20.291 181.46 19.3841 181.586C18.0343 181.795 17.0009 182.507 16.3682 183.721C15.9464 184.537 15.5668 185.374 15.2504 186.253C14.4068 188.534 13.9006 190.92 13.2679 193.243C13.1836 193.557 13.1625 193.912 13.0992 194.226C13.0781 194.352 13.057 194.498 12.9937 194.603C12.8461 194.917 12.5719 195.084 12.2556 195.043C11.9392 195.001 11.6861 194.75 11.665 194.394C11.644 194.205 11.644 193.996 11.6861 193.787C11.8127 192.992 11.7705 192.217 11.6861 191.443C11.5174 189.915 11.2854 188.387 10.8003 186.923C10.1887 185.186 9.26074 183.658 7.8055 182.465C7.06733 181.858 6.30808 181.272 5.54882 180.665C4.38885 179.744 3.06016 179.137 1.68928 178.593C1.47837 178.51 1.22529 178.489 0.972205 178.405C0.803481 178.363 0.613668 178.321 0.444944 178.237C0.0864073 178.07 -0.0612256 177.714 0.0231361 177.358C0.107498 177.024 0.423854 176.814 0.803481 176.856C1.07766 176.877 1.37292 176.94 1.6471 177.024C3.20779 177.505 4.81066 177.4 6.41353 177.254C7.00406 177.212 7.59459 177.149 8.16404 177.024C9.49273 176.71 10.5262 175.977 11.1378 174.743C11.6229 173.78 11.9603 172.775 12.1923 171.708C12.5719 170.055 13.0992 168.422 13.3101 166.727C13.4155 165.869 13.5421 165.011 13.6475 164.132C13.6897 163.902 13.7108 163.672 13.7741 163.441C13.9006 163.211 14.0904 163.023 14.3646 163.002C14.6388 162.981 14.8919 163.128 14.9762 163.421C15.0817 163.734 15.1661 164.069 15.1871 164.404C15.2926 165.953 15.398 167.501 15.5035 169.071C15.6089 170.494 15.6722 171.917 15.8199 173.319C15.9464 174.47 16.3471 175.559 17.0009 176.542C17.5914 177.442 18.414 178.007 19.3841 178.405C20.0168 178.656 20.6285 178.928 21.2612 179.137C21.5986 179.263 21.9783 179.305 22.3368 179.388C23.0328 179.556 23.7498 179.702 24.4458 179.891C24.7622 179.974 24.9731 180.205 24.9942 180.54C25.0364 180.853 24.8465 181.167 24.5091 181.293C24.2771 181.377 24.024 181.439 23.7709 181.439C23.2226 181.46 22.6531 181.439 22.1048 181.439C22.147 181.398 22.147 181.356 22.147 181.335Z" fill="#F5CF48"/>
<mask id="mask0_1576_28566" style="mask-type:alpha" maskUnits="userSpaceOnUse" x="16" y="0" width="235" height="235">
<circle cx="133.5" cy="117.5" r="117.5" fill="#F2F2F2"/>
</mask>
<g mask="url(#mask0_1576_28566)">
<path d="M16 274.899H143.22L117.86 127.339H22.72L16 274.899Z" fill="#DBDBDB"/>
<path d="M16 274.899H27.15L33.41 127.339H22.72L16 274.899Z" fill="#A6A6A6"/>
<path d="M115.818 150.339C131.738 183.339 169.478 237.829 185.278 223.619C208.918 202.379 223.998 156.439 229.978 137.879C233.328 127.469 180.368 111.709 177.418 121.149C173.218 134.579 166.828 162.549 162.778 166.599C160.648 168.729 142.778 145.089 129.468 134.009C110.238 118.039 110.728 139.809 115.818 150.339Z" fill="#EB9481"/>
<path d="M241.2 115.479C238.94 126.769 225.3 148.049 220.03 151.919C214.76 155.789 177.73 134.849 176.89 128.189C176.05 121.529 186.73 83.0591 195.73 75.5091C204.73 67.9591 243.54 103.789 241.2 115.479Z" fill="#EB9481"/>
<path d="M177.728 120.439C177.728 120.439 175.188 105.689 168.728 94.1793C163.308 84.5093 154.158 70.7593 159.248 67.6393C169.708 61.2493 192.508 95.5593 192.508 95.5593C192.508 95.5593 200.138 112.309 190.338 119.559C184.148 124.099 177.728 120.439 177.728 120.439Z" fill="#EB9481"/>
<path d="M184.217 89.9093C186.297 95.6393 191.867 89.9093 191.867 89.9093C191.867 89.9093 185.867 100.079 190.257 105.169C194.527 110.059 201.017 102.909 201.487 102.399C201.177 102.939 195.867 112.399 200.847 117.089C206.017 121.929 211.297 113.629 211.637 113.089C211.497 113.689 209.827 121.709 214.407 124.389C222.277 128.989 227.127 108.599 233.567 104.999C233.567 104.999 240.917 115.219 241.197 115.469C241.197 115.469 246.197 96.1693 240.857 87.7493C240.098 86.5128 238.94 85.5723 237.575 85.0831C236.209 84.594 234.718 84.5856 233.347 85.0592C233.347 85.0592 235.647 79.0592 231.847 75.2292C229.897 73.2892 225.047 74.6893 225.047 74.6893C225.047 74.6893 226.697 69.7792 223.107 66.6192C220.247 64.0892 215.837 65.8893 215.837 65.8893C215.837 65.8893 215.217 60.4293 211.467 58.7993C203.897 55.4893 179.797 77.6193 184.217 89.9093Z" fill="#EB9481"/>
<path d="M215.1 66.0692C215.18 66.0092 215.1 65.8692 215.01 65.9292C205.31 71.2692 196.29 80.1092 191.54 90.1892C191.38 90.5192 191.85 90.9192 192.09 90.5892C198.97 81.1392 205.83 73.2992 215.1 66.0692Z" fill="#263238"/>
<path d="M225.133 74.5393C225.233 74.4693 225.133 74.2993 224.983 74.3593C214.983 79.9293 205.133 90.1693 201.033 102.429C200.883 102.849 201.183 103.369 201.383 102.899C204.733 94.9493 216.733 81.0093 225.133 74.5393Z" fill="#263238"/>
<path d="M211.646 114.049C216.036 102.449 223.706 93.4192 232.916 85.2792C233.036 85.1692 232.916 85.0092 232.746 85.0692C227.156 87.8292 221.826 93.6292 218.066 98.4992C214.483 102.948 212.128 108.257 211.236 113.899C211.206 114.129 211.546 114.299 211.646 114.049Z" fill="#263238"/>
<path d="M191.666 89.9492C191.476 90.3492 192.266 90.1892 192.086 90.5892C191.356 92.2792 187.826 102.859 191.086 105.179C193.676 107.029 197.966 104.839 199.286 103.349L202.596 99.5992L200.726 104.249C199.906 106.318 199.43 108.507 199.316 110.729C199.203 111.754 199.309 112.791 199.626 113.772C199.943 114.752 200.465 115.655 201.156 116.419C201.804 117.123 202.675 117.583 203.622 117.721C204.568 117.86 205.534 117.668 206.356 117.179C208.183 116.05 209.69 114.474 210.736 112.599L213.796 107.529L212.566 113.299C212.225 114.905 212.087 116.548 212.156 118.189C212.169 119.745 212.634 121.264 213.496 122.559C213.913 123.124 214.479 123.562 215.131 123.824C215.783 124.085 216.495 124.16 217.186 124.039C218.688 123.536 220.016 122.617 221.016 121.389C223.233 118.761 225.24 115.963 227.016 113.019C228.016 111.569 228.906 110.109 229.926 108.689C230.868 107.212 232.112 105.95 233.576 104.989C232.242 106.098 231.138 107.456 230.326 108.989C229.426 110.459 228.606 111.989 227.766 113.499C226.169 116.626 224.28 119.596 222.126 122.369C220.984 123.893 219.419 125.047 217.626 125.689C216.613 125.932 215.551 125.872 214.571 125.517C213.592 125.161 212.738 124.526 212.116 123.689C210.988 122.117 210.358 120.243 210.306 118.309C210.19 116.484 210.314 114.652 210.676 112.859L212.506 113.559C211.312 115.796 209.55 117.68 207.396 119.019C206.189 119.723 204.776 119.988 203.396 119.769C202.039 119.506 200.794 118.836 199.826 117.849C197.826 115.899 197.356 113.059 197.486 110.649C197.652 108.207 198.216 105.809 199.156 103.549L200.656 104.469C198.926 106.309 194.396 109.289 190.016 106.919C184.726 102.999 190.466 91.9092 191.666 89.9492Z" fill="#263238"/>
<path d="M191.871 89.9192C190.836 90.6298 189.7 91.1794 188.501 91.5492C188.022 91.7094 187.509 91.7391 187.015 91.6354C186.522 91.5317 186.064 91.2983 185.691 90.9592C184.985 90.1025 184.541 89.0612 184.411 87.9592C184.201 86.7492 184.051 85.4692 183.951 84.1392C183.389 85.3776 183.093 86.7196 183.081 88.0792C183.036 88.8262 183.139 89.5748 183.384 90.2819C183.63 90.9889 184.012 91.6405 184.511 92.1992C185.124 92.7436 185.887 93.0919 186.701 93.1992C187.479 93.2674 188.261 93.1185 188.961 92.7691C190.208 92.1514 191.227 91.1534 191.871 89.9192Z" fill="#263238"/>
<path d="M174.25 122.249L229.95 158.749C229.95 158.749 199.23 227.249 179.06 227.649C158.89 228.049 128.34 178.229 117.64 156.649C106.94 135.069 112.45 116.329 133.33 135.719C154.21 155.109 161.72 163.089 162.33 162.809C163.64 162.249 174.25 122.249 174.25 122.249Z" fill="#7165E3"/>
<path d="M229.954 158.749C229.954 158.749 208.654 206.269 189.874 222.379C186.114 225.619 182.444 227.589 179.064 227.649C158.894 228.039 128.344 178.219 117.634 156.649C111.004 143.279 110.634 131.009 116.214 128.219C119.664 126.489 125.384 128.339 133.334 135.719C154.334 155.229 161.724 163.089 162.334 162.799C163.634 162.249 174.264 122.249 174.264 122.249L229.954 158.749Z" fill="#7165E3"/>
<path d="M217.21 165.449C215.73 164.299 214.21 163.179 212.74 162.059C209.707 159.792 206.664 157.536 203.61 155.289C197.55 150.819 191.37 146.529 185.14 142.289C181.6 139.889 178.14 137.349 174.49 135.109C174.456 135.084 174.413 135.073 174.371 135.08C174.328 135.087 174.291 135.11 174.265 135.144C174.24 135.179 174.23 135.222 174.236 135.264C174.243 135.306 174.266 135.344 174.3 135.369C177.21 137.799 180.3 139.999 183.3 142.299C186.3 144.599 189.3 146.909 192.36 149.159C198.44 153.612 204.577 157.969 210.77 162.229C212.51 163.429 214.21 164.709 216 165.829C216.92 166.399 217.79 167.049 218.72 167.609C219.65 168.169 220.62 168.669 221.53 169.259C221.54 169.266 221.551 169.27 221.563 169.273C221.575 169.275 221.586 169.275 221.598 169.273C221.61 169.27 221.621 169.266 221.631 169.259C221.64 169.252 221.649 169.244 221.655 169.234C221.662 169.224 221.667 169.213 221.669 169.202C221.671 169.19 221.671 169.178 221.669 169.166C221.666 169.155 221.662 169.144 221.655 169.134C221.649 169.124 221.64 169.116 221.63 169.109C220.15 167.939 218.73 166.639 217.21 165.449Z" fill="#263238"/>
<path d="M162.812 161.539C160.877 167.223 159.323 173.029 158.162 178.919C157.532 181.829 157.052 184.769 156.582 187.699C156.079 190.609 155.775 193.549 155.672 196.499C155.672 196.609 155.822 196.609 155.852 196.499C156.672 193.669 157.262 190.719 157.852 187.819C158.442 184.919 159.062 181.999 159.632 179.079C160.772 173.249 162.142 167.449 163.102 161.589C163.122 161.409 162.872 161.369 162.812 161.539Z" fill="#263238"/>
<path opacity="0.1" d="M189.874 222.379C186.114 225.619 182.444 227.589 179.064 227.649C158.894 228.039 128.344 178.219 117.634 156.649C111.004 143.279 110.634 131.009 116.214 128.219L189.874 222.379Z" fill="black"/>
<path d="M157.668 274.899H26.4884C25.9084 272.249 46.5485 157.349 90.7785 124.989C100.598 117.809 118.008 122.429 122.848 129.409C147.198 164.489 157.668 274.899 157.668 274.899Z" fill="#EBEBEB"/>
<path d="M87.8769 125.849C87.8769 125.849 99.4569 176.729 100.647 181.119C101.837 185.509 106.127 274.899 106.127 274.899H25.2969C25.2969 274.899 43.4869 160.899 87.8769 125.849Z" fill="#7165E3"/>
<path d="M122.852 129.409C122.852 129.409 127.922 168.409 128.522 170.669C129.122 172.929 145.732 274.899 145.732 274.899H158.322C158.322 274.899 147.312 157.039 122.852 129.409Z" fill="#7165E3"/>
<path d="M72.3733 140.609C48.7333 173.899 14.4833 233.519 30.2633 244.129C56.2633 261.579 127.613 266.259 143.933 266.659C150.933 266.829 160.573 219.999 155.363 214.559C150.153 209.119 75.4233 212.049 74.4733 207.559C73.9233 205.009 83.0633 181.409 87.6933 153.109C93.0333 120.439 79.0433 131.249 72.3733 140.609Z" fill="#EB9481"/>
<path d="M142.833 211.969C142.833 211.969 164.143 209.779 178.153 208.969C185.973 208.539 199.433 208.969 205.323 211.289C214.123 214.739 248.753 234.789 244.073 243.289C239.833 250.989 212.273 229.989 212.273 229.989C212.273 229.989 241.963 248.719 235.153 257.049C228.343 265.379 200.363 237.499 200.363 237.499C200.363 237.499 230.433 257.439 222.063 264.909C215.733 270.559 188.963 246.749 188.963 246.749C188.963 246.749 214.683 264.059 208.423 270.149C201.513 276.879 175.423 256.449 175.423 256.449C156.903 269.259 142.853 267.779 132.973 265.539C130.583 265.009 142.833 211.969 142.833 211.969Z" fill="#EB9481"/>
<path d="M202.418 222.869C205.988 224.939 209.608 227.019 212.978 229.399C216.348 231.779 219.638 234.289 222.768 236.979C230.458 243.569 234.238 248.899 233.968 248.599C227.598 241.409 215.668 232.689 212.288 230.299C208.908 227.909 205.688 225.379 202.288 222.989C202.238 222.929 202.328 222.819 202.418 222.869Z" fill="#263238"/>
<path d="M193.591 234.879C198.031 237.729 202.541 240.389 206.861 243.429C211.181 246.469 217.031 250.909 221.101 254.229C221.411 254.479 221.181 255.039 220.851 254.789C216.651 251.639 210.451 247.379 206.211 244.279C201.971 241.179 197.851 237.909 193.511 234.979C193.441 234.939 193.521 234.839 193.591 234.879Z" fill="#263238"/>
<path d="M142.863 209.179L122.863 269.609C122.863 269.609 31.6529 257.989 24.8629 241.519C18.0729 225.049 45.3129 175.109 67.8629 144.429C90.0529 114.249 91.9329 134.649 87.8029 156.759C83.6729 178.869 75.9129 204.629 77.2229 206.379C78.5329 208.129 142.863 209.179 142.863 209.179Z" fill="#7165E3"/>
<path d="M111.728 261.009C112.438 259.279 113.118 257.539 113.798 255.789C115.132 252.256 116.485 248.719 117.858 245.179C120.528 238.129 122.998 231.029 125.388 223.889C126.738 219.829 128.248 215.809 129.388 211.699C129.403 211.658 129.401 211.613 129.382 211.573C129.363 211.534 129.329 211.504 129.288 211.489C129.247 211.475 129.202 211.477 129.163 211.496C129.123 211.514 129.093 211.548 129.078 211.589C127.528 215.039 126.238 218.589 124.848 222.139C123.458 225.689 122.018 229.139 120.678 232.719C118.028 239.719 115.498 246.849 113.038 253.969C112.358 255.969 111.588 257.969 111.038 259.969C110.728 260.969 110.338 261.969 110.038 263.069C109.738 264.169 109.528 265.179 109.208 266.219C109.2 266.242 109.202 266.267 109.212 266.288C109.222 266.31 109.241 266.326 109.263 266.334C109.286 266.342 109.311 266.341 109.332 266.331C109.354 266.32 109.37 266.302 109.378 266.279C110.098 264.509 110.968 262.789 111.728 261.009Z" fill="#263238"/>
<path d="M142.077 211.539L142.757 209.149L142.857 209.289C133.857 209.529 124.857 209.629 115.857 209.539C106.857 209.449 97.8571 209.269 88.8571 208.789C86.5971 208.659 84.3371 208.509 82.0771 208.289C80.9371 208.169 79.8171 208.059 78.6471 207.849C78.3403 207.8 78.0365 207.733 77.7371 207.649L77.2171 207.479C77.09 207.42 76.9665 207.353 76.8471 207.279C76.7294 207.199 76.6276 207.097 76.5471 206.979C76.4933 206.907 76.4464 206.83 76.4071 206.749C76.4012 206.709 76.4012 206.669 76.4071 206.629C76.3173 206.236 76.297 205.83 76.3471 205.429C76.3471 205.129 76.3471 204.819 76.4471 204.539C77.1471 199.979 78.1871 195.629 79.2371 191.229C81.3371 182.449 83.6971 173.749 86.2371 165.089L80.7471 191.559C79.8871 195.959 78.8871 200.399 78.3171 204.769C78.3171 205.039 78.3171 205.289 78.2371 205.559C78.2472 205.719 78.2472 205.879 78.2371 206.039C78.218 205.987 78.1946 205.937 78.1671 205.889C78.1171 205.809 77.9771 205.719 78.0171 205.739C78.0171 205.739 78.0571 205.759 78.0171 205.739C78.1074 205.778 78.2011 205.808 78.2971 205.829C78.5171 205.889 78.7771 205.939 79.0371 205.989C80.0371 206.169 81.2071 206.279 82.3071 206.379C84.5271 206.579 86.7671 206.709 89.0171 206.829C93.4971 207.082 97.9905 207.286 102.497 207.439L115.987 207.959C124.987 208.279 133.987 208.679 142.987 209.109H143.147V209.249L142.077 211.539Z" fill="#263238"/>
<path d="M87.6087 170.539C87.0972 172.104 86.427 173.611 85.6087 175.039C84.8336 176.499 83.8612 177.845 82.7188 179.039C83.4187 177.549 84.1588 176.109 84.9488 174.679C85.7403 173.24 86.6291 171.857 87.6087 170.539Z" fill="#263238"/>
<path d="M116.498 147.299C108.888 149.469 95.1485 138.299 89.4985 129.029C89.1185 128.389 90.6485 102.139 90.4085 96.9092C90.4085 95.8392 123.588 103.399 123.588 103.399C123.588 103.399 120.858 114.509 121.318 123.629C121.378 124.389 123.848 145.249 116.498 147.299Z" fill="#EB9481"/>
<path d="M89.9609 113.349C105.491 124.349 120.621 120.099 121.301 119.899C121.558 114.34 122.328 108.817 123.601 103.399C123.601 103.399 90.3709 95.8292 90.4209 96.9092C90.5309 99.3692 90.2609 106.449 89.9609 113.349Z" fill="#263238"/>
<path d="M121.839 78.3793C122.689 86.1193 128.839 91.7893 135.679 91.0393C142.519 90.2893 147.289 83.4093 146.439 75.6693C145.589 67.9293 139.389 62.2593 132.599 62.9993C125.809 63.7393 120.989 70.6293 121.839 78.3793Z" fill="#455A64"/>
<path d="M117.914 79.2993C118.854 87.9193 125.754 94.2293 133.314 93.3993C140.874 92.5693 146.224 84.9093 145.314 76.2893C144.404 67.6693 137.434 61.3693 129.884 62.2493C122.334 63.1293 116.964 70.6893 117.914 79.2993Z" fill="#C7C7C7"/>
<path d="M85.8336 57.4892C82.2136 69.1092 88.1536 102.799 96.3936 110.349C108.334 121.299 127.994 122.459 137.324 108.079C146.324 94.1392 137.834 50.3792 128.624 43.5092C115.054 33.3792 91.1936 40.3192 85.8336 57.4892Z" fill="#EB9481"/>
<path d="M113.834 78.6392C113.834 78.5492 113.674 78.7792 113.694 78.8692C114.204 81.1192 114.404 83.7792 112.494 84.8692C112.434 84.8692 112.494 85.0192 112.544 84.9992C114.974 84.2492 114.674 80.6892 113.834 78.6392Z" fill="#263238"/>
<path d="M111.349 76.6591C107.659 77.0791 108.769 84.4391 112.199 84.0491C115.629 83.6591 114.449 76.3091 111.349 76.6591Z" fill="#263238"/>
<path d="M126.923 76.8693C126.923 76.7793 127.123 76.9493 127.133 77.0393C127.403 79.3293 128.133 81.9093 130.273 82.3493C130.343 82.3493 130.353 82.4793 130.273 82.4793C127.733 82.5093 126.813 79.0793 126.923 76.8693Z" fill="#263238"/>
<path d="M128.599 74.1792C132.219 73.3492 133.599 80.6492 130.259 81.4292C126.919 82.2092 125.559 74.8792 128.599 74.1792Z" fill="#263238"/>
<path d="M107.942 73.7392C108.867 73.3071 109.768 72.8264 110.642 72.2992C111.665 71.9255 112.534 71.2218 113.112 70.2992C113.238 69.9753 113.254 69.6191 113.159 69.2849C113.063 68.9508 112.86 68.6573 112.582 68.4492C111.332 67.6392 109.902 68.0192 108.632 68.6392C107.327 69.2421 106.296 70.3126 105.742 71.6392C105.636 71.9421 105.62 72.269 105.695 72.5809C105.77 72.8928 105.933 73.1765 106.165 73.398C106.397 73.6195 106.688 73.7695 107.003 73.83C107.318 73.8905 107.644 73.859 107.942 73.7392Z" fill="#263238"/>
<path d="M130.88 70.0491C129.875 69.996 128.874 69.8892 127.88 69.7291C126.807 69.7618 125.754 69.4421 124.88 68.8191C124.64 68.5678 124.49 68.2439 124.454 67.8983C124.418 67.5526 124.497 67.2047 124.68 66.9091C125.53 65.6891 127 65.4991 128.41 65.5991C129.81 65.6773 131.133 66.264 132.13 67.2491C132.346 67.4907 132.488 67.7896 132.538 68.1099C132.588 68.4301 132.544 68.758 132.412 69.054C132.28 69.3499 132.065 69.6014 131.793 69.7779C131.521 69.9545 131.204 70.0487 130.88 70.0491Z" fill="#263238"/>
<path d="M115.067 99.9891C115.697 100.439 116.357 101.089 117.187 101.039C118.039 100.878 118.847 100.537 119.557 100.039C119.573 100.03 119.591 100.026 119.608 100.028C119.626 100.03 119.643 100.038 119.656 100.051C119.668 100.063 119.676 100.08 119.678 100.098C119.681 100.116 119.677 100.134 119.667 100.149C119.409 100.645 119.022 101.062 118.547 101.356C118.072 101.65 117.526 101.81 116.967 101.819C116.484 101.77 116.027 101.578 115.653 101.268C115.279 100.958 115.005 100.545 114.867 100.079C114.87 100.057 114.879 100.037 114.892 100.02C114.905 100.002 114.923 99.9882 114.942 99.9792C114.962 99.9703 114.984 99.9665 115.006 99.9682C115.028 99.9699 115.049 99.9771 115.067 99.9891Z" fill="#263238"/>
<path d="M116.437 92.8093C117.151 93.6231 118.027 94.2803 119.008 94.7398C119.988 95.1993 121.054 95.451 122.137 95.4793C123.083 95.5138 124.029 95.4128 124.947 95.1793C125.124 95.1493 125.298 95.1024 125.467 95.0393L125.957 94.8893C126.074 94.8465 126.174 94.7668 126.243 94.6623C126.311 94.5578 126.344 94.434 126.337 94.3093C126.345 94.2329 126.345 94.1557 126.337 94.0793V93.8793C126.117 92.1093 125.547 89.4693 125.547 89.4693C126.237 89.6993 129.727 90.6693 129.547 89.7593C127.947 82.2493 126.167 73.8893 122.987 66.7593C122.971 66.7049 122.934 66.6591 122.884 66.6319C122.834 66.6047 122.776 66.5984 122.722 66.6143C122.667 66.6302 122.621 66.6671 122.594 66.7168C122.567 66.7665 122.561 66.8249 122.577 66.8793C123.827 74.1593 126.357 81.1793 127.727 88.4793C126.483 88.1103 125.193 87.9217 123.897 87.9193C123.667 88.0293 125.097 92.9993 125.137 93.7993V93.8893C122.247 94.7093 119.887 94.1593 116.727 92.6093C116.427 92.4693 116.267 92.6493 116.437 92.8093Z" fill="#263238"/>
<path d="M123.781 94.4493C123.004 95.8467 121.882 97.021 120.521 97.8593C119.766 98.2927 118.896 98.4814 118.031 98.3993C116.141 98.1993 115.841 96.5293 115.961 95.0493C116.029 94.2654 116.194 93.493 116.451 92.7493C118.65 94.0832 121.218 94.6789 123.781 94.4493Z" fill="#263238"/>
<path d="M120.521 97.8591C119.766 98.2926 118.896 98.4813 118.031 98.3991C116.141 98.1991 115.841 96.5291 115.961 95.0491C117.941 94.9591 120.071 95.9891 120.521 97.8591Z" fill="#FF99BA"/>
<path d="M86.7987 87.0592C95.2087 85.4292 93.9387 69.8392 93.9387 69.8392C93.9387 69.8392 107.939 64.7292 107.939 53.4592C107.939 53.4592 123.319 59.5992 133.359 53.6492C143.399 47.6992 138.809 35.9192 137.119 33.5392C135.429 31.1592 130.379 37.1392 130.379 37.1392C130.379 37.1392 128.379 30.3692 126.379 30.0192C124.379 29.6692 123.199 34.2192 123.199 34.2192C123.199 34.2192 108.419 32.2192 95.8887 34.9492C83.3587 37.6792 79.5187 51.5992 79.5187 51.5992C79.5187 51.5992 73.0587 54.3092 71.7687 59.4492C70.4787 64.5892 81.4387 88.0892 86.7987 87.0592Z" fill="#263238"/>
<path d="M90.5613 70.5991C102.011 69.9591 108.021 61.1191 107.561 50.1091C107.556 50.0926 107.555 50.0752 107.558 50.0582C107.561 50.0412 107.567 50.025 107.578 50.0111C107.588 49.9972 107.601 49.986 107.617 49.9782C107.632 49.9704 107.649 49.9663 107.666 49.9663C107.684 49.9663 107.701 49.9704 107.716 49.9782C107.731 49.986 107.745 49.9972 107.755 50.0111C107.765 50.025 107.772 50.0412 107.775 50.0582C107.778 50.0752 107.776 50.0926 107.771 50.1091C109.341 60.1091 102.141 73.0191 90.5012 71.1091C90.2612 71.0591 90.2613 70.6091 90.5613 70.5991Z" fill="#263238"/>
<path d="M79.8412 51.3392C79.9612 51.2792 80.0612 51.4692 79.9512 51.5392C77.1012 53.5892 73.7312 55.3592 72.0712 58.6192C70.0712 62.5692 71.5012 66.9792 73.2312 70.6992C75.9212 76.4792 80.5412 83.7592 86.6412 86.2892C86.9912 86.4392 86.7512 86.9492 86.4012 86.8292C79.1712 84.2292 73.4012 74.7292 71.1912 67.7592C68.6712 59.9592 72.7812 54.4592 79.8412 51.3392Z" fill="#263238"/>
<path d="M120.796 54.2492C126.286 56.2492 133.616 55.0191 137.796 50.7291C142.886 45.5091 140.356 38.9691 136.736 33.8091C136.556 33.5491 136.906 33.1792 137.146 33.4092C141.566 37.7192 143.286 45.2092 139.286 50.4092C135.156 55.7692 126.506 57.2591 120.456 55.0292C119.956 54.8291 120.296 54.0592 120.796 54.2492Z" fill="#263238"/>
<path d="M92.8571 84.9491C92.8571 84.9491 85.0971 74.1791 80.1971 76.9491C75.2971 79.7191 81.1971 95.4191 87.0671 97.4991C87.7958 97.8169 88.5812 97.9838 89.3761 97.99C90.1709 97.9961 90.9588 97.8413 91.6923 97.5348C92.4257 97.2283 93.0896 96.7766 93.6438 96.2068C94.198 95.6369 94.6312 94.9608 94.9171 94.2191L92.8571 84.9491Z" fill="#EB9481"/>
<path d="M82.0131 81.4192C81.9978 81.4249 81.9846 81.4351 81.9753 81.4485C81.9659 81.4619 81.9609 81.4779 81.9609 81.4942C81.9609 81.5105 81.9659 81.5265 81.9753 81.5399C81.9846 81.5533 81.9978 81.5635 82.0131 81.5692C86.1031 83.1592 88.2931 86.8992 89.8531 90.7892C88.6231 89.2992 86.9631 88.4992 84.9731 89.9592C84.8631 90.0392 84.9731 90.2092 85.0831 90.1792C85.7933 89.9441 86.5587 89.9343 87.2747 90.1508C87.9907 90.3674 88.6223 90.7999 89.0831 91.3892C89.8657 92.3789 90.5365 93.452 91.0831 94.5892C91.2831 94.9492 91.9331 94.7492 91.7931 94.3292V94.2392C91.7331 89.0592 87.5831 81.8592 82.0131 81.4192Z" fill="#263238"/>
<path d="M84.3826 77.3391C84.3826 77.3391 80.1926 60.6191 83.4526 50.3391C87.0926 38.9391 102.123 28.8091 123.253 34.1791C123.253 34.1791 99.0226 34.8491 90.2526 49.8791C86.2526 56.7891 90.0926 76.7291 90.0926 76.7291L84.3826 77.3391Z" fill="#C7C7C7"/>
<path d="M101.793 83.0293C103.443 91.6393 98.6528 99.7893 91.1028 101.239C83.5528 102.689 76.1028 96.8793 74.4328 88.2393C72.7628 79.5993 77.5728 71.4693 85.1328 70.0293C92.6928 68.5893 100.143 74.4193 101.793 83.0293Z" fill="#C7C7C7"/>
<path d="M97.7279 83.2992C99.2079 91.0392 94.9079 98.3692 88.1179 99.6692C81.3279 100.969 74.6179 95.7492 73.1179 88.0092C71.6179 80.2692 75.9379 72.9392 82.7279 71.6392C89.5179 70.3392 96.2279 75.5592 97.7279 83.2992Z" fill="#455A64"/>
<path d="M209.367 275.549H339.447L356.457 187.199H226.377L209.367 275.549Z" fill="#37474F"/>
<path d="M214.656 275.549H344.736L361.746 187.199H231.666L214.656 275.549Z" fill="#455A64"/>
</g>
</svg>
