<svg width="64" height="64" viewBox="0 0 64 64" fill="none" xmlns="http://www.w3.org/2000/svg">
<circle opacity="0.1" cx="32" cy="32" r="31.5" fill="#F8F7FE" stroke="#7165E3"/>
<path d="M33.1841 23.84H22.8107C20.5307 23.84 18.6641 25.7067 18.6641 27.9867V43.1333C18.6641 45.0667 20.0507 45.8933 21.7441 44.9467L26.984 42.0267C27.544 41.72 28.4507 41.72 28.9974 42.0267L34.2374 44.9467C35.9307 45.8933 37.3174 45.0667 37.3174 43.1333V27.9867C37.3307 25.7067 35.4641 23.84 33.1841 23.84Z" stroke="#7165E3" strokeWidth="1.5" strokeLinecap="round" stroke-linejoin="round"/>
<path d="M37.3307 27.9867V43.1333C37.3307 45.0667 35.9441 45.88 34.2507 44.9467L29.0107 42.0267C28.4507 41.72 27.544 41.72 26.984 42.0267L21.7441 44.9467C20.0507 45.88 18.6641 45.0667 18.6641 43.1333V27.9867C18.6641 25.7067 20.5307 23.84 22.8107 23.84H33.1841C35.4641 23.84 37.3307 25.7067 37.3307 27.9867Z" stroke="#7165E3" strokeWidth="1.5" strokeLinecap="round" stroke-linejoin="round"/>
<path d="M45.3307 22.8133V37.96C45.3307 39.8933 43.9441 40.7067 42.2507 39.7733L37.3307 37.0267V27.9867C37.3307 25.7067 35.4641 23.84 33.1841 23.84H26.6641V22.8133C26.6641 20.5333 28.5307 18.6667 30.8107 18.6667H41.1841C43.4641 18.6667 45.3307 20.5333 45.3307 22.8133Z" stroke="#7165E3" strokeWidth="1.5" strokeLinecap="round" stroke-linejoin="round"/>
</svg>
