<svg width="17" height="17" viewBox="0 0 17 17" fill="none" xmlns="http://www.w3.org/2000/svg">
<mask id="mask0_2538_33630" style="mask-type:luminance" maskUnits="userSpaceOnUse" x="0" y="5" width="17" height="12">
<path fill-rule="evenodd" clip-rule="evenodd" d="M0 5.5896H16.4254V16.8973H0V5.5896Z" fill="white"/>
</mask>
<g mask="url(#mask0_2538_33630)">
<path fill-rule="evenodd" clip-rule="evenodd" d="M12.7834 16.8973H3.64242C1.63436 16.8973 0 15.2608 0 13.2484V9.23761C0 7.22602 1.63436 5.5896 3.64242 5.5896H4.40868C4.74869 5.5896 5.02465 5.86604 5.02465 6.20665C5.02465 6.54726 4.74869 6.8237 4.40868 6.8237H3.64242C2.31275 6.8237 1.23193 7.90642 1.23193 9.23761V13.2484C1.23193 14.5804 2.31275 15.6632 3.64242 15.6632H12.7834C14.1122 15.6632 15.1938 14.5804 15.1938 13.2484V9.2302C15.1938 7.90313 14.1163 6.8237 12.7924 6.8237H12.0179C11.6779 6.8237 11.402 6.54726 11.402 6.20665C11.402 5.86604 11.6779 5.5896 12.0179 5.5896H12.7924C14.7955 5.5896 16.4258 7.22273 16.4258 9.2302V13.2484C16.4258 15.2608 14.7914 16.8973 12.7834 16.8973" fill="#7165E3"/>
</g>
<mask id="mask1_2538_33630" style="mask-type:luminance" maskUnits="userSpaceOnUse" x="7" y="0" width="2" height="12">
<path fill-rule="evenodd" clip-rule="evenodd" d="M7.59766 0H8.82959V11.1406H7.59766V0Z" fill="white"/>
</mask>
<g mask="url(#mask1_2538_33630)">
<path fill-rule="evenodd" clip-rule="evenodd" d="M8.21362 11.1407C7.87361 11.1407 7.59766 10.8642 7.59766 10.5236V0.617051C7.59766 0.276439 7.87361 0 8.21362 0C8.55364 0 8.82959 0.276439 8.82959 0.617051V10.5236C8.82959 10.8642 8.55364 11.1407 8.21362 11.1407" fill="#7165E3"/>
</g>
<path fill-rule="evenodd" clip-rule="evenodd" d="M5.81889 3.64344C5.66202 3.64344 5.50433 3.58338 5.38443 3.46326C5.14379 3.22302 5.14215 2.83305 5.38278 2.59116L7.77684 0.182194C8.00762 -0.0506401 8.41827 -0.0506401 8.64905 0.182194L11.0439 2.59116C11.2837 2.83305 11.2829 3.22302 11.0423 3.46326C10.8008 3.7035 10.4115 3.7035 10.1717 3.46161L8.21295 1.49199L6.25499 3.46161C6.13508 3.58338 5.97658 3.64344 5.81889 3.64344" fill="#7165E3"/>
</svg>
