<svg width="21" height="22" viewBox="0 0 21 22" fill="none" xmlns="http://www.w3.org/2000/svg">
<path d="M19.5628 9.74L18.2028 8.16C17.9428 7.86 17.7328 7.3 17.7328 6.9V5.2C17.7328 4.14 16.8628 3.27 15.8028 3.27H14.1028C13.7128 3.27 13.1428 3.06 12.8428 2.8L11.2628 1.44C10.5728 0.849998 9.44281 0.849998 8.74281 1.44L7.17281 2.81C6.87281 3.06 6.30281 3.27 5.91281 3.27H4.18281C3.12281 3.27 2.25281 4.14 2.25281 5.2V6.91C2.25281 7.3 2.04281 7.86 1.79281 8.16L0.442813 9.75C-0.137187 10.44 -0.137187 11.56 0.442813 12.25L1.79281 13.84C2.04281 14.14 2.25281 14.7 2.25281 15.09V16.8C2.25281 17.86 3.12281 18.73 4.18281 18.73H5.91281C6.30281 18.73 6.87281 18.94 7.17281 19.2L8.75281 20.56C9.44281 21.15 10.5728 21.15 11.2728 20.56L12.8528 19.2C13.1528 18.94 13.7128 18.73 14.1128 18.73H15.8128C16.8728 18.73 17.7428 17.86 17.7428 16.8V15.1C17.7428 14.71 17.9528 14.14 18.2128 13.84L19.5728 12.26C20.1528 11.57 20.1528 10.43 19.5628 9.74ZM14.1628 9.11L9.33281 13.94C9.19281 14.08 9.00281 14.16 8.80281 14.16C8.60281 14.16 8.41281 14.08 8.27281 13.94L5.85281 11.52C5.56281 11.23 5.56281 10.75 5.85281 10.46C6.14281 10.17 6.62281 10.17 6.91281 10.46L8.80281 12.35L13.1028 8.05C13.3928 7.76 13.8728 7.76 14.1628 8.05C14.4528 8.34 14.4528 8.82 14.1628 9.11Z" fill="#27AE60"/>
</svg>
