<svg width="24" height="24" viewBox="0 0 24 24" fill="none" xmlns="http://www.w3.org/2000/svg">
<path d="M11.9336 0.578299L9.12198 7.1233H6.31031C5.84365 7.1233 5.38865 7.1583 4.94531 7.25163L6.11198 4.45163L6.15865 4.34663L6.22865 4.15997C6.26365 4.0783 6.28698 4.0083 6.32198 3.94997C7.67531 0.811632 9.19198 -0.168368 11.9336 0.578299Z" fill="#FFFFFE"/>
<path d="M19.8523 7.43827L19.829 7.42661C19.129 7.22827 18.4173 7.12327 17.694 7.12327H10.3906L13.0156 1.02161L13.0506 0.939941C13.214 0.998275 13.389 1.07994 13.564 1.13827L16.1423 2.22327C17.5773 2.81827 18.5806 3.43661 19.199 4.18327C19.304 4.32327 19.3973 4.45161 19.4906 4.60327C19.5956 4.76661 19.6773 4.92994 19.724 5.10494C19.7706 5.20994 19.8056 5.30327 19.829 5.40827C20.004 6.00327 20.0156 6.67994 19.8523 7.43827Z" fill="#FFFFFE"/>
<path d="M19.3422 9.10687C18.8172 8.9552 18.2689 8.87354 17.6972 8.87354H6.31052C5.51719 8.87354 4.77052 9.0252 4.07052 9.32854C2.04052 10.2035 0.617188 12.2219 0.617188 14.5669V16.8419C0.617188 17.1219 0.640521 17.3902 0.675521 17.6702C0.932187 21.3802 2.91552 23.3635 6.62552 23.6085C6.89385 23.6435 7.16219 23.6669 7.45386 23.6669H16.5539C20.8705 23.6669 23.1455 21.6135 23.3672 17.5302C23.3789 17.3085 23.3905 17.0752 23.3905 16.8419V14.5669C23.3905 11.9885 21.6755 9.81854 19.3422 9.10687ZM14.9205 16.8885H12.8789V19.0002C12.8789 19.4785 12.4822 19.8752 12.0039 19.8752C11.5255 19.8752 11.1289 19.4785 11.1289 19.0002V16.8885H9.08719C8.60885 16.8885 8.21219 16.5035 8.21219 16.0135C8.21219 15.5352 8.60885 15.1385 9.08719 15.1385H11.1289V13.1669C11.1289 12.6885 11.5255 12.2919 12.0039 12.2919C12.4822 12.2919 12.8789 12.6885 12.8789 13.1669V15.1385H14.9205C15.3989 15.1385 15.7955 15.5352 15.7955 16.0135C15.7955 16.5035 15.3989 16.8885 14.9205 16.8885Z" fill="#FFFFFE"/>
</svg>
