<svg width="25" height="26" viewBox="0 0 25 26" fill="none" xmlns="http://www.w3.org/2000/svg">
<path d="M4.32836 10.7449C4.10669 10.7449 3.87336 10.6515 3.71002 10.4882C3.46502 10.2315 3.38336 9.85819 3.52336 9.53152L5.69336 4.35152C5.74002 4.24652 5.76336 4.17652 5.79836 4.11819C7.52502 0.139857 9.73002 -0.828477 13.6267 0.664856C13.8484 0.746523 14.0234 0.921523 14.1167 1.14319C14.21 1.36486 14.21 1.60986 14.1167 1.83152L10.6984 9.76486C10.5584 10.0915 10.2434 10.2899 9.89336 10.2899H6.56836C5.90336 10.2899 5.27336 10.4182 4.66669 10.6749C4.56169 10.7215 4.44502 10.7449 4.32836 10.7449ZM10.64 1.74986C9.19336 1.74986 8.30669 2.69486 7.38502 4.84152C7.37336 4.87652 7.35002 4.91152 7.33836 4.94652L5.81002 8.57486C6.06669 8.55152 6.31169 8.53986 6.56836 8.53986H9.31002L12.1217 2.00652C11.5734 1.83152 11.0834 1.74986 10.64 1.74986Z" fill="#7165E3"/>
<path d="M19.6006 10.5232C19.519 10.5232 19.4256 10.5115 19.344 10.4882C18.9006 10.3599 18.434 10.2899 17.944 10.2899H9.89398C9.60231 10.2899 9.32231 10.1382 9.15898 9.89319C9.00731 9.64819 8.97231 9.33319 9.08898 9.06486L12.4723 1.21319C12.6473 0.793189 13.1606 0.501522 13.5923 0.653189C13.7323 0.699855 13.8606 0.758189 14.0006 0.816522L16.754 1.97152C18.364 2.63652 19.4373 3.33652 20.1373 4.17652C20.2773 4.33986 20.394 4.51486 20.5106 4.70152C20.639 4.89986 20.7556 5.13319 20.8373 5.37819C20.8723 5.45986 20.9306 5.61152 20.9656 5.77486C21.2923 6.88319 21.129 8.23652 20.429 9.98652C20.2773 10.3132 19.9506 10.5232 19.6006 10.5232ZM11.224 8.53985H17.9556C18.329 8.53985 18.6906 8.57485 19.0523 8.63319C19.379 7.61819 19.449 6.83652 19.2623 6.20652C19.239 6.10152 19.2156 6.05486 19.204 6.00819C19.134 5.82152 19.0873 5.71652 19.029 5.62319C18.9473 5.49486 18.889 5.38986 18.7956 5.28486C18.294 4.67819 17.4073 4.11819 16.0773 3.56986L13.779 2.61319L11.224 8.53985Z" fill="#7165E3"/>
<path d="M16.8117 25.0832H7.71172C7.38505 25.0832 7.08172 25.0599 6.77839 25.0249C2.68339 24.7565 0.350052 22.4115 0.070052 18.2699C0.035052 18.0132 0.0117188 17.6982 0.0117188 17.3832V15.1082C0.0117188 12.4832 1.57505 10.1149 3.99005 9.06486C4.81839 8.71486 5.68172 8.53986 6.58005 8.53986H17.9667C18.6317 8.53986 19.2734 8.63319 19.8684 8.81986C22.6101 9.64819 24.5351 12.2382 24.5351 15.1082V17.3832C24.5351 17.6399 24.5234 17.8849 24.5117 18.1182C24.2551 22.6799 21.5951 25.0832 16.8117 25.0832ZM6.56839 10.2899C5.90339 10.2899 5.27339 10.4182 4.66672 10.6749C2.89339 11.4449 1.75005 13.1832 1.75005 15.1082V17.3832C1.75005 17.6282 1.77339 17.8732 1.79672 18.1065C2.01839 21.4315 3.65172 23.0649 6.93005 23.2865C7.22172 23.3215 7.45505 23.3449 7.70005 23.3449H16.8001C20.6501 23.3449 22.5401 21.6532 22.7267 18.0365C22.7384 17.8265 22.7501 17.6165 22.7501 17.3832V15.1082C22.7501 12.9965 21.3384 11.1065 19.3317 10.4882C18.8884 10.3599 18.4217 10.2899 17.9317 10.2899H6.56839V10.2899Z" fill="#7165E3"/>
<path d="M0.875 15.9832C0.396667 15.9832 0 15.5865 0 15.1082V11.6899C0 8.01486 2.60167 4.84152 6.195 4.14152C6.51 4.08319 6.83667 4.19986 7.04667 4.44486C7.245 4.68986 7.30333 5.03986 7.175 5.33152L5.13333 10.2082C5.04 10.4182 4.87667 10.5815 4.67833 10.6749C2.905 11.4449 1.76167 13.1832 1.76167 15.1082C1.75 15.5865 1.365 15.9832 0.875 15.9832ZM4.795 6.49819C3.30167 7.33819 2.21667 8.80819 1.87833 10.5232C2.39167 9.99819 2.98667 9.55486 3.66333 9.22819L4.795 6.49819Z" fill="#7165E3"/>
<path d="M23.649 15.9832C23.1707 15.9832 22.774 15.5865 22.774 15.1082C22.774 12.9965 21.3624 11.1065 19.3557 10.4882C19.1224 10.4182 18.924 10.2549 18.819 10.0332C18.714 9.81152 18.7024 9.55485 18.7957 9.33319C19.344 7.96819 19.484 6.97652 19.2624 6.20652C19.239 6.10152 19.2157 6.05485 19.204 6.00819C19.0524 5.66985 19.134 5.27319 19.4024 5.01652C19.6707 4.75985 20.079 4.70152 20.4057 4.87652C22.949 6.20652 24.524 8.81985 24.524 11.6899V15.1082C24.524 15.5865 24.1274 15.9832 23.649 15.9832ZM20.7207 9.14652C21.4557 9.48485 22.109 9.96319 22.6574 10.5349C22.4357 9.39152 21.8874 8.35319 21.0824 7.53652C21.024 8.02652 20.9074 8.56319 20.7207 9.14652Z" fill="#7165E3"/>
</svg>
