<svg width="65" height="64" viewBox="0 0 65 64" fill="none" xmlns="http://www.w3.org/2000/svg">
<circle cx="32.5" cy="32" r="32" fill="#E9F6FB" fill-opacity="0.2"/>
<path d="M32.4974 46.3332C24.5907 46.3332 18.1641 39.9065 18.1641 31.9998C18.1641 24.0932 24.5907 17.6665 32.4974 17.6665C33.0441 17.6665 33.4974 18.1198 33.4974 18.6665C33.4974 19.2132 33.0441 19.6665 32.4974 19.6665C25.6974 19.6665 20.1641 25.1998 20.1641 31.9998C20.1641 38.7998 25.6974 44.3332 32.4974 44.3332C39.2974 44.3332 44.8307 38.7998 44.8307 31.9998C44.8307 31.4532 45.2841 30.9998 45.8307 30.9998C46.3774 30.9998 46.8307 31.4532 46.8307 31.9998C46.8307 39.9065 40.4041 46.3332 32.4974 46.3332Z" fill="white"/>
<path d="M33.8326 31.6668C33.5793 31.6668 33.3259 31.5735 33.1259 31.3735C32.7393 30.9868 32.7393 30.3468 33.1259 29.9602L44.0593 19.0268C44.4459 18.6401 45.0859 18.6401 45.4726 19.0268C45.8593 19.4135 45.8593 20.0535 45.4726 20.4401L34.5393 31.3735C34.3393 31.5735 34.0859 31.6668 33.8326 31.6668Z" fill="white"/>
<path d="M45.8306 26.1065C45.284 26.1065 44.8306 25.6532 44.8306 25.1065V19.6665H39.3906C38.844 19.6665 38.3906 19.2132 38.3906 18.6665C38.3906 18.1198 38.844 17.6665 39.3906 17.6665H45.8306C46.3773 17.6665 46.8306 18.1198 46.8306 18.6665V25.1065C46.8306 25.6532 46.3773 26.1065 45.8306 26.1065Z" fill="white"/>
</svg>
