<svg width="43" height="42" viewBox="0 0 43 42" fill="none" xmlns="http://www.w3.org/2000/svg">
<rect width="43" height="42" rx="21" fill="white" fill-opacity="0.1"/>
<path d="M14.8333 23.0031V27.0001C14.8333 27.3683 15.1318 27.6667 15.5 27.6667H27.5C27.8682 27.6667 28.1667 27.3683 28.1667 27.0001V23.0033C28.1667 22.6355 27.8692 22.3372 27.5014 22.3367C24.187 22.3323 18.5325 22.3323 15.4972 22.3366C15.1295 22.3371 14.8333 22.6354 14.8333 23.0031Z" fill="#FFFFFE"/>
<path fill-rule="evenodd" clip-rule="evenodd" d="M16.8665 15.4831C16.6176 15.2201 16.6176 14.7937 16.8665 14.5307C17.1155 14.2678 17.5192 14.2678 17.7682 14.5307L18.6118 15.4219C19.5059 14.9639 20.4933 14.711 21.5002 14.711C22.5073 14.711 23.4947 14.9637 24.3886 15.4214L25.2319 14.5307C25.4808 14.2678 25.8845 14.2678 26.1335 14.5307C26.3824 14.7937 26.3824 15.2201 26.1335 15.4831L25.5096 16.142C26.9503 17.2789 27.98 19.0168 28.1644 21.0746C28.1973 21.4413 27.8956 21.7409 27.5274 21.7409H15.4725C15.1043 21.7409 14.8026 21.4413 14.8355 21.0746C15.0201 19.0171 16.0502 17.2794 17.4908 16.1425L16.8665 15.4831ZM18.4796 18.7274C18.1708 18.7274 17.9213 18.5158 17.9213 18.1716C17.9213 17.8286 18.1708 17.5862 18.4796 17.5862C18.7853 17.5862 19.0348 17.8286 19.0348 18.1716C19.0348 18.5158 18.7853 18.7274 18.4796 18.7274ZM24.5326 18.7371C24.2248 18.7371 23.9754 18.5158 23.9754 18.1716C23.9754 17.8286 24.2248 17.5973 24.5326 17.5973C24.8414 17.5973 25.0888 17.8286 25.0888 18.1716C25.0888 18.5158 24.8415 18.7371 24.5326 18.7371Z" fill="#FFFFFE"/>
</svg>
