<svg width="43" height="42" viewBox="0 0 43 42" fill="none" xmlns="http://www.w3.org/2000/svg">
<rect width="43" height="42" rx="21" fill="white" fill-opacity="0.1"/>
<path fill-rule="evenodd" clip-rule="evenodd" d="M23.8201 15.5531C23.2901 16.2041 22.4001 16.6923 21.6901 16.6923C21.6101 16.6923 21.5301 16.6822 21.4801 16.672C21.4701 16.6313 21.4501 16.5092 21.4501 16.3872C21.4501 15.5531 21.8601 14.7394 22.3101 14.2206C22.8801 13.5391 23.8301 13.0305 24.6201 13C24.6401 13.0915 24.6501 13.2034 24.6501 13.3153C24.6501 14.1392 24.3001 14.9631 23.8201 15.5531ZM20.3422 28.6967C19.9858 28.8523 19.6481 28.9999 19.1899 28.9999C18.2099 28.9999 17.5299 28.0844 16.7499 26.9655C15.8399 25.6432 15.0999 23.5987 15.0999 21.6661C15.0999 18.5535 17.0899 16.9057 19.0499 16.9057C19.622 16.9057 20.1447 17.1191 20.6095 17.3088C20.9815 17.4607 21.3165 17.5974 21.6099 17.5974C21.8644 17.5974 22.1816 17.4699 22.5513 17.3213C23.0677 17.1137 23.6864 16.865 24.3799 16.865C24.8199 16.865 26.4299 16.9057 27.4899 18.4518C27.4839 18.4566 27.4709 18.4653 27.452 18.478C27.1912 18.6531 25.7999 19.5873 25.7999 21.5033C25.7999 23.8733 27.8299 24.7176 27.9 24.7379C27.8982 24.7425 27.894 24.7555 27.8874 24.7763C27.8207 24.9864 27.5026 25.9879 26.8199 27.0062C26.1499 27.9827 25.4399 28.9795 24.3799 28.9795C23.8575 28.9795 23.5246 28.8296 23.1808 28.6747C22.814 28.5095 22.4349 28.3387 21.7999 28.3387C21.1615 28.3387 20.7402 28.5228 20.3422 28.6967Z" fill="#FFFFFE"/>
</svg>
