<svg width="196" height="82" viewBox="0 0 196 82" fill="none" xmlns="http://www.w3.org/2000/svg">
<path d="M42.9998 45.5071V54.5003C42.9998 55.3287 43.6713 56.0003 44.4998 56.0003H71.4998C72.3282 56.0003 72.9998 55.3287 72.9998 54.5003V45.5074C72.9998 44.68 72.3304 44.0088 71.503 44.0077C64.0455 43.9979 51.3229 43.9978 44.4935 44.0075C43.6662 44.0087 42.9998 44.6798 42.9998 45.5071Z" fill="#3F1E4B"/>
<path fill-rule="evenodd" clip-rule="evenodd" d="M47.5745 28.587C47.0143 27.9953 47.0143 27.036 47.5745 26.4443C48.1347 25.8526 49.0429 25.8526 49.6031 26.4443L51.5014 28.4493C53.5131 27.4188 55.7348 26.8499 58.0002 26.8499C60.2663 26.8499 62.4878 27.4185 64.499 28.4484L66.3964 26.4443C66.9566 25.8526 67.8649 25.8526 68.4251 26.4443C68.9853 27.036 68.9853 27.9953 68.4251 28.587L67.0215 30.0696C70.2629 32.6277 72.5797 36.5379 72.9947 41.1679C73.0687 41.9931 72.3899 42.6671 71.5615 42.6671H44.4378C43.6094 42.6671 42.9305 41.9931 43.0046 41.168C43.4199 36.5386 45.7377 32.6288 48.9791 30.0707L47.5745 28.587ZM51.2039 35.8867C50.509 35.8867 49.9477 35.4108 49.9477 34.6363C49.9477 33.8645 50.509 33.3191 51.2039 33.3191C51.8918 33.3191 52.453 33.8644 52.453 34.6363C52.453 35.4108 51.8918 35.8867 51.2039 35.8867ZM64.8232 35.9086C64.1306 35.9086 63.5694 35.4108 63.5694 34.6363C63.5694 33.8645 64.1306 33.344 64.8232 33.344C65.5179 33.344 66.0746 33.8644 66.0746 34.6363C66.0746 35.4108 65.5181 35.9086 64.8232 35.9086Z" fill="#3F1E4B"/>
<path d="M85.87 24.01C86.6433 24.01 87.3067 24.15 87.86 24.43C88.4133 24.71 88.8367 25.1133 89.13 25.64C89.4233 26.1667 89.57 26.7933 89.57 27.52C89.57 28.24 89.4233 28.8633 89.13 29.39C88.8367 29.91 88.4133 30.31 87.86 30.59C87.3067 30.8633 86.6433 31 85.87 31H83.8V24.01H85.87ZM85.87 30.42C86.8433 30.42 87.5833 30.1667 88.09 29.66C88.6033 29.1467 88.86 28.4333 88.86 27.52C88.86 26.6 88.6033 25.8833 88.09 25.37C87.5833 24.85 86.8433 24.59 85.87 24.59H84.5V30.42H85.87ZM93.2505 31.08C92.7372 31.08 92.2739 30.9667 91.8605 30.74C91.4539 30.5067 91.1305 30.18 90.8905 29.76C90.6572 29.3333 90.5405 28.8367 90.5405 28.27C90.5405 27.7033 90.6605 27.21 90.9005 26.79C91.1405 26.3633 91.4672 26.0367 91.8805 25.81C92.2939 25.5767 92.7572 25.46 93.2705 25.46C93.7839 25.46 94.2472 25.5767 94.6605 25.81C95.0805 26.0367 95.4072 26.3633 95.6405 26.79C95.8805 27.21 96.0005 27.7033 96.0005 28.27C96.0005 28.83 95.8805 29.3233 95.6405 29.75C95.4005 30.1767 95.0705 30.5067 94.6505 30.74C94.2305 30.9667 93.7639 31.08 93.2505 31.08ZM93.2505 30.47C93.6105 30.47 93.9439 30.39 94.2505 30.23C94.5572 30.0633 94.8039 29.8167 94.9905 29.49C95.1839 29.1567 95.2805 28.75 95.2805 28.27C95.2805 27.79 95.1872 27.3867 95.0005 27.06C94.8139 26.7267 94.5672 26.48 94.2605 26.32C93.9539 26.1533 93.6205 26.07 93.2605 26.07C92.9005 26.07 92.5672 26.1533 92.2605 26.32C91.9539 26.48 91.7072 26.7267 91.5205 27.06C91.3405 27.3867 91.2505 27.79 91.2505 28.27C91.2505 28.75 91.3405 29.1567 91.5205 29.49C91.7072 29.8167 91.9505 30.0633 92.2505 30.23C92.5572 30.39 92.8905 30.47 93.2505 30.47ZM104.477 25.54L102.767 31H102.067L100.557 26.42L99.0466 31H98.3366L96.6266 25.54H97.3366L98.6966 30.29L100.227 25.54H100.927L102.437 30.3L103.787 25.54H104.477ZM107.991 25.44C108.644 25.44 109.178 25.6433 109.591 26.05C110.004 26.45 110.211 27.0333 110.211 27.8V31H109.521V27.88C109.521 27.2867 109.371 26.8333 109.071 26.52C108.778 26.2067 108.374 26.05 107.861 26.05C107.334 26.05 106.914 26.2167 106.601 26.55C106.288 26.8833 106.131 27.3733 106.131 28.02V31H105.431V25.54H106.131V26.47C106.304 26.1367 106.554 25.8833 106.881 25.71C107.208 25.53 107.578 25.44 107.991 25.44ZM112.459 23.6V31H111.759V23.6H112.459ZM116.434 31.08C115.921 31.08 115.457 30.9667 115.044 30.74C114.637 30.5067 114.314 30.18 114.074 29.76C113.841 29.3333 113.724 28.8367 113.724 28.27C113.724 27.7033 113.844 27.21 114.084 26.79C114.324 26.3633 114.651 26.0367 115.064 25.81C115.477 25.5767 115.941 25.46 116.454 25.46C116.967 25.46 117.431 25.5767 117.844 25.81C118.264 26.0367 118.591 26.3633 118.824 26.79C119.064 27.21 119.184 27.7033 119.184 28.27C119.184 28.83 119.064 29.3233 118.824 29.75C118.584 30.1767 118.254 30.5067 117.834 30.74C117.414 30.9667 116.947 31.08 116.434 31.08ZM116.434 30.47C116.794 30.47 117.127 30.39 117.434 30.23C117.741 30.0633 117.987 29.8167 118.174 29.49C118.367 29.1567 118.464 28.75 118.464 28.27C118.464 27.79 118.371 27.3867 118.184 27.06C117.997 26.7267 117.751 26.48 117.444 26.32C117.137 26.1533 116.804 26.07 116.444 26.07C116.084 26.07 115.751 26.1533 115.444 26.32C115.137 26.48 114.891 26.7267 114.704 27.06C114.524 27.3867 114.434 27.79 114.434 28.27C114.434 28.75 114.524 29.1567 114.704 29.49C114.891 29.8167 115.134 30.0633 115.434 30.23C115.741 30.39 116.074 30.47 116.434 30.47ZM120.14 28.26C120.14 27.7 120.25 27.21 120.47 26.79C120.697 26.3633 121.007 26.0367 121.4 25.81C121.8 25.5767 122.25 25.46 122.75 25.46C123.27 25.46 123.717 25.58 124.09 25.82C124.47 26.06 124.743 26.3667 124.91 26.74V25.54H125.61V31H124.91V29.79C124.737 30.1633 124.46 30.4733 124.08 30.72C123.707 30.96 123.26 31.08 122.74 31.08C122.247 31.08 121.8 30.9633 121.4 30.73C121.007 30.4967 120.697 30.1667 120.47 29.74C120.25 29.3133 120.14 28.82 120.14 28.26ZM124.91 28.27C124.91 27.83 124.82 27.4433 124.64 27.11C124.46 26.7767 124.213 26.52 123.9 26.34C123.593 26.16 123.253 26.07 122.88 26.07C122.493 26.07 122.147 26.1567 121.84 26.33C121.533 26.5033 121.29 26.7567 121.11 27.09C120.937 27.4167 120.85 27.8067 120.85 28.26C120.85 28.7067 120.937 29.1 121.11 29.44C121.29 29.7733 121.533 30.03 121.84 30.21C122.147 30.3833 122.493 30.47 122.88 30.47C123.253 30.47 123.593 30.38 123.9 30.2C124.213 30.02 124.46 29.7633 124.64 29.43C124.82 29.0967 124.91 28.71 124.91 28.27ZM126.888 28.26C126.888 27.7 127.002 27.21 127.228 26.79C127.455 26.3633 127.765 26.0367 128.158 25.81C128.558 25.5767 129.008 25.46 129.508 25.46C129.988 25.46 130.422 25.5767 130.808 25.81C131.195 26.0433 131.478 26.3467 131.658 26.72V23.6H132.358V31H131.658V29.78C131.492 30.16 131.218 30.4733 130.838 30.72C130.458 30.96 130.012 31.08 129.498 31.08C128.998 31.08 128.548 30.9633 128.148 30.73C127.755 30.4967 127.445 30.1667 127.218 29.74C126.998 29.3133 126.888 28.82 126.888 28.26ZM131.658 28.27C131.658 27.83 131.568 27.4433 131.388 27.11C131.208 26.7767 130.962 26.52 130.648 26.34C130.342 26.16 130.002 26.07 129.628 26.07C129.242 26.07 128.895 26.1567 128.588 26.33C128.282 26.5033 128.038 26.7567 127.858 27.09C127.685 27.4167 127.598 27.8067 127.598 28.26C127.598 28.7067 127.685 29.1 127.858 29.44C128.038 29.7733 128.282 30.03 128.588 30.21C128.895 30.3833 129.242 30.47 129.628 30.47C130.002 30.47 130.342 30.38 130.648 30.2C130.962 30.02 131.208 29.7633 131.388 29.43C131.568 29.0967 131.658 28.71 131.658 28.27ZM139.09 31.08C138.577 31.08 138.114 30.9667 137.7 30.74C137.294 30.5067 136.97 30.18 136.73 29.76C136.497 29.3333 136.38 28.8367 136.38 28.27C136.38 27.7033 136.5 27.21 136.74 26.79C136.98 26.3633 137.307 26.0367 137.72 25.81C138.134 25.5767 138.597 25.46 139.11 25.46C139.624 25.46 140.087 25.5767 140.5 25.81C140.92 26.0367 141.247 26.3633 141.48 26.79C141.72 27.21 141.84 27.7033 141.84 28.27C141.84 28.83 141.72 29.3233 141.48 29.75C141.24 30.1767 140.91 30.5067 140.49 30.74C140.07 30.9667 139.604 31.08 139.09 31.08ZM139.09 30.47C139.45 30.47 139.784 30.39 140.09 30.23C140.397 30.0633 140.644 29.8167 140.83 29.49C141.024 29.1567 141.12 28.75 141.12 28.27C141.12 27.79 141.027 27.3867 140.84 27.06C140.654 26.7267 140.407 26.48 140.1 26.32C139.794 26.1533 139.46 26.07 139.1 26.07C138.74 26.07 138.407 26.1533 138.1 26.32C137.794 26.48 137.547 26.7267 137.36 27.06C137.18 27.3867 137.09 27.79 137.09 28.27C137.09 28.75 137.18 29.1567 137.36 29.49C137.547 29.8167 137.79 30.0633 138.09 30.23C138.397 30.39 138.73 30.47 139.09 30.47ZM145.676 25.44C146.33 25.44 146.863 25.6433 147.276 26.05C147.69 26.45 147.896 27.0333 147.896 27.8V31H147.206V27.88C147.206 27.2867 147.056 26.8333 146.756 26.52C146.463 26.2067 146.06 26.05 145.546 26.05C145.02 26.05 144.6 26.2167 144.286 26.55C143.973 26.8833 143.816 27.3733 143.816 28.02V31H143.116V25.54H143.816V26.47C143.99 26.1367 144.24 25.8833 144.566 25.71C144.893 25.53 145.263 25.44 145.676 25.44Z" fill="#3F1E4B"/>
<path d="M91.946 52.606H86.942L86.114 55H83.468L87.986 42.418H90.92L95.438 55H92.774L91.946 52.606ZM91.262 50.59L89.444 45.334L87.626 50.59H91.262ZM102.653 44.884C103.841 44.884 104.801 45.262 105.533 46.018C106.265 46.762 106.631 47.806 106.631 49.15V55H104.111V49.492C104.111 48.7 103.913 48.094 103.517 47.674C103.121 47.242 102.581 47.026 101.897 47.026C101.201 47.026 100.649 47.242 100.241 47.674C99.8448 48.094 99.6468 48.7 99.6468 49.492V55H97.1268V45.028H99.6468V46.27C99.9828 45.838 100.409 45.502 100.925 45.262C101.453 45.01 102.029 44.884 102.653 44.884ZM108.379 49.978C108.379 48.97 108.577 48.076 108.973 47.296C109.381 46.516 109.933 45.916 110.629 45.496C111.325 45.076 112.099 44.866 112.951 44.866C113.599 44.866 114.217 45.01 114.805 45.298C115.393 45.574 115.861 45.946 116.209 46.414V41.68H118.765V55H116.209V53.524C115.897 54.016 115.459 54.412 114.895 54.712C114.331 55.012 113.677 55.162 112.933 55.162C112.093 55.162 111.325 54.946 110.629 54.514C109.933 54.082 109.381 53.476 108.973 52.696C108.577 51.904 108.379 50.998 108.379 49.978ZM116.227 50.014C116.227 49.402 116.107 48.88 115.867 48.448C115.627 48.004 115.303 47.668 114.895 47.44C114.487 47.2 114.049 47.08 113.581 47.08C113.113 47.08 112.681 47.194 112.285 47.422C111.889 47.65 111.565 47.986 111.313 48.43C111.073 48.862 110.953 49.378 110.953 49.978C110.953 50.578 111.073 51.106 111.313 51.562C111.565 52.006 111.889 52.348 112.285 52.588C112.693 52.828 113.125 52.948 113.581 52.948C114.049 52.948 114.487 52.834 114.895 52.606C115.303 52.366 115.627 52.03 115.867 51.598C116.107 51.154 116.227 50.626 116.227 50.014ZM123.746 46.576C124.07 46.048 124.49 45.634 125.006 45.334C125.534 45.034 126.134 44.884 126.806 44.884V47.53H126.14C125.348 47.53 124.748 47.716 124.34 48.088C123.944 48.46 123.746 49.108 123.746 50.032V55H121.226V45.028H123.746V46.576ZM132.932 55.162C131.972 55.162 131.108 54.952 130.34 54.532C129.572 54.1 128.966 53.494 128.522 52.714C128.09 51.934 127.874 51.034 127.874 50.014C127.874 48.994 128.096 48.094 128.54 47.314C128.996 46.534 129.614 45.934 130.394 45.514C131.174 45.082 132.044 44.866 133.004 44.866C133.964 44.866 134.834 45.082 135.614 45.514C136.394 45.934 137.006 46.534 137.45 47.314C137.906 48.094 138.134 48.994 138.134 50.014C138.134 51.034 137.9 51.934 137.432 52.714C136.976 53.494 136.352 54.1 135.56 54.532C134.78 54.952 133.904 55.162 132.932 55.162ZM132.932 52.966C133.388 52.966 133.814 52.858 134.21 52.642C134.618 52.414 134.942 52.078 135.182 51.634C135.422 51.19 135.542 50.65 135.542 50.014C135.542 49.066 135.29 48.34 134.786 47.836C134.294 47.32 133.688 47.062 132.968 47.062C132.248 47.062 131.642 47.32 131.15 47.836C130.67 48.34 130.43 49.066 130.43 50.014C130.43 50.962 130.664 51.694 131.132 52.21C131.612 52.714 132.212 52.966 132.932 52.966ZM141.26 43.84C140.816 43.84 140.444 43.702 140.144 43.426C139.856 43.138 139.712 42.784 139.712 42.364C139.712 41.944 139.856 41.596 140.144 41.32C140.444 41.032 140.816 40.888 141.26 40.888C141.704 40.888 142.07 41.032 142.358 41.32C142.658 41.596 142.808 41.944 142.808 42.364C142.808 42.784 142.658 43.138 142.358 43.426C142.07 43.702 141.704 43.84 141.26 43.84ZM142.502 45.028V55H139.982V45.028H142.502ZM144.344 49.978C144.344 48.97 144.542 48.076 144.938 47.296C145.346 46.516 145.898 45.916 146.594 45.496C147.29 45.076 148.064 44.866 148.916 44.866C149.564 44.866 150.182 45.01 150.77 45.298C151.358 45.574 151.826 45.946 152.174 46.414V41.68H154.73V55H152.174V53.524C151.862 54.016 151.424 54.412 150.86 54.712C150.296 55.012 149.642 55.162 148.898 55.162C148.058 55.162 147.29 54.946 146.594 54.514C145.898 54.082 145.346 53.476 144.938 52.696C144.542 51.904 144.344 50.998 144.344 49.978ZM152.192 50.014C152.192 49.402 152.072 48.88 151.832 48.448C151.592 48.004 151.268 47.668 150.86 47.44C150.452 47.2 150.014 47.08 149.546 47.08C149.078 47.08 148.646 47.194 148.25 47.422C147.854 47.65 147.53 47.986 147.278 48.43C147.038 48.862 146.918 49.378 146.918 49.978C146.918 50.578 147.038 51.106 147.278 51.562C147.53 52.006 147.854 52.348 148.25 52.588C148.658 52.828 149.09 52.948 149.546 52.948C150.014 52.948 150.452 52.834 150.86 52.606C151.268 52.366 151.592 52.03 151.832 51.598C152.072 51.154 152.192 50.626 152.192 50.014Z" fill="#3F1E4B"/>
<rect x="0.5" y="0.5" width="195" height="81" rx="40.5" stroke="#3F1E4B" stroke-opacity="0.16"/>
</svg>
