<svg width="211" height="82" viewBox="0 0 211 82" fill="none" xmlns="http://www.w3.org/2000/svg">
<path fill-rule="evenodd" clip-rule="evenodd" d="M62.35 30.787C61.3562 32.0076 59.6875 32.9231 58.3562 32.9231C58.2063 32.9231 58.0562 32.904 57.9625 32.8849C57.9438 32.8086 57.9062 32.5798 57.9062 32.3509C57.9062 30.787 58.675 29.2613 59.5188 28.2886C60.5875 27.0108 62.3687 26.0572 63.85 26C63.8875 26.1716 63.9062 26.3814 63.9062 26.5912C63.9062 28.136 63.25 29.6809 62.35 30.787ZM55.8293 55.4312C55.1611 55.7231 54.5279 55.9998 53.6687 55.9998C51.8312 55.9998 50.5562 54.2833 49.0937 52.1854C47.3875 49.7061 46 45.8726 46 42.249C46 36.413 49.7312 33.3234 53.4062 33.3234C54.4789 33.3234 55.459 33.7234 56.3304 34.0791C57.028 34.3639 57.6561 34.6202 58.2062 34.6202C58.6835 34.6202 59.2782 34.3812 59.9714 34.1026C60.9395 33.7134 62.0997 33.2471 63.4 33.2471C64.225 33.2471 67.2437 33.3234 69.2312 36.2223C69.2199 36.2313 69.1956 36.2476 69.1602 36.2714C68.6711 36.5997 66.0625 38.3514 66.0625 41.9438C66.0625 46.3876 69.8687 47.9705 70 48.0087C69.9966 48.0172 69.9889 48.0417 69.9765 48.0805C69.8514 48.4744 69.2549 50.3523 67.975 52.2617C66.7187 54.0926 65.3875 55.9616 63.4 55.9616C62.4204 55.9616 61.7962 55.6805 61.1517 55.3902C60.464 55.0803 59.7531 54.7601 58.5625 54.7601C57.3655 54.7601 56.5756 55.1052 55.8293 55.4312Z" fill="#3F1E4B"/>
<path d="M85.87 24.01C86.6433 24.01 87.3067 24.15 87.86 24.43C88.4133 24.71 88.8367 25.1133 89.13 25.64C89.4233 26.1667 89.57 26.7933 89.57 27.52C89.57 28.24 89.4233 28.8633 89.13 29.39C88.8367 29.91 88.4133 30.31 87.86 30.59C87.3067 30.8633 86.6433 31 85.87 31H83.8V24.01H85.87ZM85.87 30.42C86.8433 30.42 87.5833 30.1667 88.09 29.66C88.6033 29.1467 88.86 28.4333 88.86 27.52C88.86 26.6 88.6033 25.8833 88.09 25.37C87.5833 24.85 86.8433 24.59 85.87 24.59H84.5V30.42H85.87ZM93.2505 31.08C92.7372 31.08 92.2739 30.9667 91.8605 30.74C91.4539 30.5067 91.1305 30.18 90.8905 29.76C90.6572 29.3333 90.5405 28.8367 90.5405 28.27C90.5405 27.7033 90.6605 27.21 90.9005 26.79C91.1405 26.3633 91.4672 26.0367 91.8805 25.81C92.2939 25.5767 92.7572 25.46 93.2705 25.46C93.7839 25.46 94.2472 25.5767 94.6605 25.81C95.0805 26.0367 95.4072 26.3633 95.6405 26.79C95.8805 27.21 96.0005 27.7033 96.0005 28.27C96.0005 28.83 95.8805 29.3233 95.6405 29.75C95.4005 30.1767 95.0705 30.5067 94.6505 30.74C94.2305 30.9667 93.7639 31.08 93.2505 31.08ZM93.2505 30.47C93.6105 30.47 93.9439 30.39 94.2505 30.23C94.5572 30.0633 94.8039 29.8167 94.9905 29.49C95.1839 29.1567 95.2805 28.75 95.2805 28.27C95.2805 27.79 95.1872 27.3867 95.0005 27.06C94.8139 26.7267 94.5672 26.48 94.2605 26.32C93.9539 26.1533 93.6205 26.07 93.2605 26.07C92.9005 26.07 92.5672 26.1533 92.2605 26.32C91.9539 26.48 91.7072 26.7267 91.5205 27.06C91.3405 27.3867 91.2505 27.79 91.2505 28.27C91.2505 28.75 91.3405 29.1567 91.5205 29.49C91.7072 29.8167 91.9505 30.0633 92.2505 30.23C92.5572 30.39 92.8905 30.47 93.2505 30.47ZM104.477 25.54L102.767 31H102.067L100.557 26.42L99.0466 31H98.3366L96.6266 25.54H97.3366L98.6966 30.29L100.227 25.54H100.927L102.437 30.3L103.787 25.54H104.477ZM107.991 25.44C108.644 25.44 109.178 25.6433 109.591 26.05C110.004 26.45 110.211 27.0333 110.211 27.8V31H109.521V27.88C109.521 27.2867 109.371 26.8333 109.071 26.52C108.778 26.2067 108.374 26.05 107.861 26.05C107.334 26.05 106.914 26.2167 106.601 26.55C106.288 26.8833 106.131 27.3733 106.131 28.02V31H105.431V25.54H106.131V26.47C106.304 26.1367 106.554 25.8833 106.881 25.71C107.208 25.53 107.578 25.44 107.991 25.44ZM112.459 23.6V31H111.759V23.6H112.459ZM116.434 31.08C115.921 31.08 115.457 30.9667 115.044 30.74C114.637 30.5067 114.314 30.18 114.074 29.76C113.841 29.3333 113.724 28.8367 113.724 28.27C113.724 27.7033 113.844 27.21 114.084 26.79C114.324 26.3633 114.651 26.0367 115.064 25.81C115.477 25.5767 115.941 25.46 116.454 25.46C116.967 25.46 117.431 25.5767 117.844 25.81C118.264 26.0367 118.591 26.3633 118.824 26.79C119.064 27.21 119.184 27.7033 119.184 28.27C119.184 28.83 119.064 29.3233 118.824 29.75C118.584 30.1767 118.254 30.5067 117.834 30.74C117.414 30.9667 116.947 31.08 116.434 31.08ZM116.434 30.47C116.794 30.47 117.127 30.39 117.434 30.23C117.741 30.0633 117.987 29.8167 118.174 29.49C118.367 29.1567 118.464 28.75 118.464 28.27C118.464 27.79 118.371 27.3867 118.184 27.06C117.997 26.7267 117.751 26.48 117.444 26.32C117.137 26.1533 116.804 26.07 116.444 26.07C116.084 26.07 115.751 26.1533 115.444 26.32C115.137 26.48 114.891 26.7267 114.704 27.06C114.524 27.3867 114.434 27.79 114.434 28.27C114.434 28.75 114.524 29.1567 114.704 29.49C114.891 29.8167 115.134 30.0633 115.434 30.23C115.741 30.39 116.074 30.47 116.434 30.47ZM120.14 28.26C120.14 27.7 120.25 27.21 120.47 26.79C120.697 26.3633 121.007 26.0367 121.4 25.81C121.8 25.5767 122.25 25.46 122.75 25.46C123.27 25.46 123.717 25.58 124.09 25.82C124.47 26.06 124.743 26.3667 124.91 26.74V25.54H125.61V31H124.91V29.79C124.737 30.1633 124.46 30.4733 124.08 30.72C123.707 30.96 123.26 31.08 122.74 31.08C122.247 31.08 121.8 30.9633 121.4 30.73C121.007 30.4967 120.697 30.1667 120.47 29.74C120.25 29.3133 120.14 28.82 120.14 28.26ZM124.91 28.27C124.91 27.83 124.82 27.4433 124.64 27.11C124.46 26.7767 124.213 26.52 123.9 26.34C123.593 26.16 123.253 26.07 122.88 26.07C122.493 26.07 122.147 26.1567 121.84 26.33C121.533 26.5033 121.29 26.7567 121.11 27.09C120.937 27.4167 120.85 27.8067 120.85 28.26C120.85 28.7067 120.937 29.1 121.11 29.44C121.29 29.7733 121.533 30.03 121.84 30.21C122.147 30.3833 122.493 30.47 122.88 30.47C123.253 30.47 123.593 30.38 123.9 30.2C124.213 30.02 124.46 29.7633 124.64 29.43C124.82 29.0967 124.91 28.71 124.91 28.27ZM126.888 28.26C126.888 27.7 127.002 27.21 127.228 26.79C127.455 26.3633 127.765 26.0367 128.158 25.81C128.558 25.5767 129.008 25.46 129.508 25.46C129.988 25.46 130.422 25.5767 130.808 25.81C131.195 26.0433 131.478 26.3467 131.658 26.72V23.6H132.358V31H131.658V29.78C131.492 30.16 131.218 30.4733 130.838 30.72C130.458 30.96 130.012 31.08 129.498 31.08C128.998 31.08 128.548 30.9633 128.148 30.73C127.755 30.4967 127.445 30.1667 127.218 29.74C126.998 29.3133 126.888 28.82 126.888 28.26ZM131.658 28.27C131.658 27.83 131.568 27.4433 131.388 27.11C131.208 26.7767 130.962 26.52 130.648 26.34C130.342 26.16 130.002 26.07 129.628 26.07C129.242 26.07 128.895 26.1567 128.588 26.33C128.282 26.5033 128.038 26.7567 127.858 27.09C127.685 27.4167 127.598 27.8067 127.598 28.26C127.598 28.7067 127.685 29.1 127.858 29.44C128.038 29.7733 128.282 30.03 128.588 30.21C128.895 30.3833 129.242 30.47 129.628 30.47C130.002 30.47 130.342 30.38 130.648 30.2C130.962 30.02 131.208 29.7633 131.388 29.43C131.568 29.0967 131.658 28.71 131.658 28.27ZM139.09 31.08C138.577 31.08 138.114 30.9667 137.7 30.74C137.294 30.5067 136.97 30.18 136.73 29.76C136.497 29.3333 136.38 28.8367 136.38 28.27C136.38 27.7033 136.5 27.21 136.74 26.79C136.98 26.3633 137.307 26.0367 137.72 25.81C138.134 25.5767 138.597 25.46 139.11 25.46C139.624 25.46 140.087 25.5767 140.5 25.81C140.92 26.0367 141.247 26.3633 141.48 26.79C141.72 27.21 141.84 27.7033 141.84 28.27C141.84 28.83 141.72 29.3233 141.48 29.75C141.24 30.1767 140.91 30.5067 140.49 30.74C140.07 30.9667 139.604 31.08 139.09 31.08ZM139.09 30.47C139.45 30.47 139.784 30.39 140.09 30.23C140.397 30.0633 140.644 29.8167 140.83 29.49C141.024 29.1567 141.12 28.75 141.12 28.27C141.12 27.79 141.027 27.3867 140.84 27.06C140.654 26.7267 140.407 26.48 140.1 26.32C139.794 26.1533 139.46 26.07 139.1 26.07C138.74 26.07 138.407 26.1533 138.1 26.32C137.794 26.48 137.547 26.7267 137.36 27.06C137.18 27.3867 137.09 27.79 137.09 28.27C137.09 28.75 137.18 29.1567 137.36 29.49C137.547 29.8167 137.79 30.0633 138.09 30.23C138.397 30.39 138.73 30.47 139.09 30.47ZM145.676 25.44C146.33 25.44 146.863 25.6433 147.276 26.05C147.69 26.45 147.896 27.0333 147.896 27.8V31H147.206V27.88C147.206 27.2867 147.056 26.8333 146.756 26.52C146.463 26.2067 146.06 26.05 145.546 26.05C145.02 26.05 144.6 26.2167 144.286 26.55C143.973 26.8833 143.816 27.3733 143.816 28.02V31H143.116V25.54H143.816V26.47C143.99 26.1367 144.24 25.8833 144.566 25.71C144.893 25.53 145.263 25.44 145.676 25.44Z" fill="#3F1E4B"/>
<path d="M91.946 52.606H86.942L86.114 55H83.468L87.986 42.418H90.92L95.438 55H92.774L91.946 52.606ZM91.262 50.59L89.444 45.334L87.626 50.59H91.262ZM99.6468 46.468C99.9708 46.012 100.415 45.634 100.979 45.334C101.555 45.022 102.209 44.866 102.941 44.866C103.793 44.866 104.561 45.076 105.245 45.496C105.941 45.916 106.487 46.516 106.883 47.296C107.291 48.064 107.495 48.958 107.495 49.978C107.495 50.998 107.291 51.904 106.883 52.696C106.487 53.476 105.941 54.082 105.245 54.514C104.561 54.946 103.793 55.162 102.941 55.162C102.209 55.162 101.561 55.012 100.997 54.712C100.445 54.412 99.9948 54.034 99.6468 53.578V59.752H97.1268V45.028H99.6468V46.468ZM104.921 49.978C104.921 49.378 104.795 48.862 104.543 48.43C104.303 47.986 103.979 47.65 103.571 47.422C103.175 47.194 102.743 47.08 102.275 47.08C101.819 47.08 101.387 47.2 100.979 47.44C100.583 47.668 100.259 48.004 100.007 48.448C99.7668 48.892 99.6468 49.414 99.6468 50.014C99.6468 50.614 99.7668 51.136 100.007 51.58C100.259 52.024 100.583 52.366 100.979 52.606C101.387 52.834 101.819 52.948 102.275 52.948C102.743 52.948 103.175 52.828 103.571 52.588C103.979 52.348 104.303 52.006 104.543 51.562C104.795 51.118 104.921 50.59 104.921 49.978ZM111.846 46.468C112.17 46.012 112.614 45.634 113.178 45.334C113.754 45.022 114.408 44.866 115.14 44.866C115.992 44.866 116.76 45.076 117.444 45.496C118.14 45.916 118.686 46.516 119.082 47.296C119.49 48.064 119.694 48.958 119.694 49.978C119.694 50.998 119.49 51.904 119.082 52.696C118.686 53.476 118.14 54.082 117.444 54.514C116.76 54.946 115.992 55.162 115.14 55.162C114.408 55.162 113.76 55.012 113.196 54.712C112.644 54.412 112.194 54.034 111.846 53.578V59.752H109.326V45.028H111.846V46.468ZM117.12 49.978C117.12 49.378 116.994 48.862 116.742 48.43C116.502 47.986 116.178 47.65 115.77 47.422C115.374 47.194 114.942 47.08 114.474 47.08C114.018 47.08 113.586 47.2 113.178 47.44C112.782 47.668 112.458 48.004 112.206 48.448C111.966 48.892 111.846 49.414 111.846 50.014C111.846 50.614 111.966 51.136 112.206 51.58C112.458 52.024 112.782 52.366 113.178 52.606C113.586 52.834 114.018 52.948 114.474 52.948C114.942 52.948 115.374 52.828 115.77 52.588C116.178 52.348 116.502 52.006 116.742 51.562C116.994 51.118 117.12 50.59 117.12 49.978ZM124.045 41.68V55H121.525V41.68H124.045ZM135.805 49.798C135.805 50.158 135.781 50.482 135.733 50.77H128.443C128.503 51.49 128.755 52.054 129.199 52.462C129.643 52.87 130.189 53.074 130.837 53.074C131.773 53.074 132.439 52.672 132.835 51.868H135.553C135.265 52.828 134.713 53.62 133.897 54.244C133.081 54.856 132.079 55.162 130.891 55.162C129.931 55.162 129.067 54.952 128.299 54.532C127.543 54.1 126.949 53.494 126.517 52.714C126.097 51.934 125.887 51.034 125.887 50.014C125.887 48.982 126.097 48.076 126.517 47.296C126.937 46.516 127.525 45.916 128.281 45.496C129.037 45.076 129.907 44.866 130.891 44.866C131.839 44.866 132.685 45.07 133.429 45.478C134.185 45.886 134.767 46.468 135.175 47.224C135.595 47.968 135.805 48.826 135.805 49.798ZM133.195 49.078C133.183 48.43 132.949 47.914 132.493 47.53C132.037 47.134 131.479 46.936 130.819 46.936C130.195 46.936 129.667 47.128 129.235 47.512C128.815 47.884 128.557 48.406 128.461 49.078H133.195ZM143.211 43.84C142.767 43.84 142.395 43.702 142.095 43.426C141.807 43.138 141.663 42.784 141.663 42.364C141.663 41.944 141.807 41.596 142.095 41.32C142.395 41.032 142.767 40.888 143.211 40.888C143.655 40.888 144.021 41.032 144.309 41.32C144.609 41.596 144.759 41.944 144.759 42.364C144.759 42.784 144.609 43.138 144.309 43.426C144.021 43.702 143.655 43.84 143.211 43.84ZM144.453 45.028V55H141.933V45.028H144.453ZM152.775 55.126C151.599 55.126 150.519 54.85 149.535 54.298C148.551 53.746 147.771 52.984 147.195 52.012C146.619 51.028 146.331 49.918 146.331 48.682C146.331 47.458 146.619 46.36 147.195 45.388C147.771 44.404 148.551 43.636 149.535 43.084C150.519 42.532 151.599 42.256 152.775 42.256C153.963 42.256 155.043 42.532 156.015 43.084C156.999 43.636 157.773 44.404 158.337 45.388C158.913 46.36 159.201 47.458 159.201 48.682C159.201 49.918 158.913 51.028 158.337 52.012C157.773 52.984 156.999 53.746 156.015 54.298C155.031 54.85 153.951 55.126 152.775 55.126ZM152.775 52.876C153.531 52.876 154.197 52.708 154.773 52.372C155.349 52.024 155.799 51.532 156.123 50.896C156.447 50.26 156.609 49.522 156.609 48.682C156.609 47.842 156.447 47.11 156.123 46.486C155.799 45.85 155.349 45.364 154.773 45.028C154.197 44.692 153.531 44.524 152.775 44.524C152.019 44.524 151.347 44.692 150.759 45.028C150.183 45.364 149.733 45.85 149.409 46.486C149.085 47.11 148.923 47.842 148.923 48.682C148.923 49.522 149.085 50.26 149.409 50.896C149.733 51.532 150.183 52.024 150.759 52.372C151.347 52.708 152.019 52.876 152.775 52.876ZM165.414 55.126C164.538 55.126 163.746 54.976 163.038 54.676C162.342 54.376 161.79 53.944 161.382 53.38C160.974 52.816 160.764 52.15 160.752 51.382H163.452C163.488 51.898 163.668 52.306 163.992 52.606C164.328 52.906 164.784 53.056 165.36 53.056C165.948 53.056 166.41 52.918 166.746 52.642C167.082 52.354 167.25 51.982 167.25 51.526C167.25 51.154 167.136 50.848 166.908 50.608C166.68 50.368 166.392 50.182 166.044 50.05C165.708 49.906 165.24 49.75 164.64 49.582C163.824 49.342 163.158 49.108 162.642 48.88C162.138 48.64 161.7 48.286 161.328 47.818C160.968 47.338 160.788 46.702 160.788 45.91C160.788 45.166 160.974 44.518 161.346 43.966C161.718 43.414 162.24 42.994 162.912 42.706C163.584 42.406 164.352 42.256 165.216 42.256C166.512 42.256 167.562 42.574 168.366 43.21C169.182 43.834 169.632 44.71 169.716 45.838H166.944C166.92 45.406 166.734 45.052 166.386 44.776C166.05 44.488 165.6 44.344 165.036 44.344C164.544 44.344 164.148 44.47 163.848 44.722C163.56 44.974 163.416 45.34 163.416 45.82C163.416 46.156 163.524 46.438 163.74 46.666C163.968 46.882 164.244 47.062 164.568 47.206C164.904 47.338 165.372 47.494 165.972 47.674C166.788 47.914 167.454 48.154 167.97 48.394C168.486 48.634 168.93 48.994 169.302 49.474C169.674 49.954 169.86 50.584 169.86 51.364C169.86 52.036 169.686 52.66 169.338 53.236C168.99 53.812 168.48 54.274 167.808 54.622C167.136 54.958 166.338 55.126 165.414 55.126Z" fill="#3F1E4B"/>
<rect x="0.5" y="0.5" width="210" height="81" rx="40.5" stroke="#3F1E4B" stroke-opacity="0.16"/>
</svg>
