<svg width="48" height="48" viewBox="0 0 48 48" fill="none" xmlns="http://www.w3.org/2000/svg">
<circle cx="24" cy="24" r="23.605" stroke="#3F1E4B" stroke-opacity="0.2" stroke-width="0.79"/>
<g clip-path="url(#clip0_371_100)">
<path d="M24.0028 19.3789C21.4505 19.3789 19.3843 21.4474 19.3843 23.9974C19.3843 26.5497 21.4528 28.6159 24.0028 28.6159C26.555 28.6159 28.6213 26.5474 28.6213 23.9974C28.6213 21.4452 26.5528 19.3789 24.0028 19.3789ZM24.0028 26.9952C22.346 26.9952 21.005 25.6534 21.005 23.9974C21.005 22.3414 22.3468 20.9997 24.0028 20.9997C25.6588 20.9997 27.0005 22.3414 27.0005 23.9974C27.0013 25.6534 25.6595 26.9952 24.0028 26.9952Z" fill="#3F1E4B"/>
<path d="M27.7107 15.0575C26.0547 14.9803 21.9529 14.984 20.2954 15.0575C18.8389 15.1258 17.5542 15.4775 16.5184 16.5133C14.7874 18.2443 15.0087 20.5768 15.0087 23.9975C15.0087 27.4985 14.8137 29.777 16.5184 31.4818C18.2562 33.2188 20.6224 32.9915 24.0027 32.9915C27.4707 32.9915 28.6677 32.9938 29.8939 32.519C31.5612 31.8718 32.8197 30.3815 32.9427 27.7048C33.0207 26.048 33.0162 21.947 32.9427 20.2895C32.7942 17.1298 31.0984 15.2135 27.7107 15.0575ZM30.3319 30.3365C29.1972 31.4713 27.6229 31.37 23.9809 31.37C20.2309 31.37 18.7272 31.4255 17.6299 30.3253C16.3662 29.0675 16.5949 27.0478 16.5949 23.9855C16.5949 19.8418 16.1697 16.8575 20.3284 16.6445C21.2839 16.6108 21.5652 16.5995 23.9704 16.5995L24.0042 16.622C28.0009 16.622 31.1367 16.2035 31.3249 20.3615C31.3677 21.3103 31.3774 21.5953 31.3774 23.9968C31.3767 27.7033 31.4472 29.216 30.3319 30.3365Z" fill="#3F1E4B"/>
<path d="M28.8043 20.2757C29.4004 20.2757 29.8836 19.7925 29.8836 19.1964C29.8836 18.6004 29.4004 18.1172 28.8043 18.1172C28.2083 18.1172 27.7251 18.6004 27.7251 19.1964C27.7251 19.7925 28.2083 20.2757 28.8043 20.2757Z" fill="#3F1E4B"/>
</g>
<defs>
<clipPath id="clip0_371_100">
<rect width="18" height="18" fill="white" transform="translate(15 15)"/>
</clipPath>
</defs>
</svg>
