<svg width="108" height="25" viewBox="0 0 108 25" fill="none" xmlns="http://www.w3.org/2000/svg">
<g clip-path="url(#clip0_910_2146)">
<path d="M15.4467 24.8669L2.02699 21.1636C0.829307 20.8328 0 19.744 0 18.5026V17.3274L17.6845 12.5391L19.8562 20.4682C20.5905 23.1476 18.1258 25.6064 15.4467 24.8669Z" fill="url(#paint0_linear_910_2146)"/>
<path d="M17.5601 15.6984L1.69049 19.9954C0.838501 20.2257 0 19.5842 0 18.7019V7.32809C0 5.47279 1.24365 3.84787 3.03466 3.36321L14.7559 0.189345C18.1651 -0.733404 21.5203 1.83265 21.5203 5.36311V10.524C21.5203 12.9448 19.8972 15.0655 17.5601 15.6984Z" fill="#7165E3"/>
</g>
<g clip-path="url(#clip1_910_2146)">
<path d="M45.4438 9.78406C45.4438 11.0973 45.1467 12.2681 44.5535 13.2966C43.9603 14.3251 43.1466 15.0979 42.1125 15.6169L43.5522 18.2656C44.3104 19.6604 43.3208 21.3716 41.7574 21.3716C41.0186 21.3716 40.3362 20.9667 39.9719 20.3114L37.7648 16.3425H35.6031V19.2795C35.6031 20.4349 34.6842 21.3716 33.5508 21.3716H33.5357C32.4023 21.3707 31.4834 20.4341 31.4834 19.2787V5.32368C31.4834 4.16484 32.4048 3.22559 33.5416 3.22559H39.0614C40.9092 3.22559 42.4348 3.84318 43.6389 5.07922C44.8421 6.3144 45.4438 7.88325 45.4438 9.78406ZM35.6031 6.64721V12.92H38.4253C39.2558 12.92 39.9382 12.6267 40.4725 12.0383C41.0068 11.4507 41.2736 10.6993 41.2736 9.7832C41.2736 8.86711 41.0068 8.1157 40.4725 7.52814C39.9382 6.94057 39.2558 6.64635 38.4253 6.64635H35.6031V6.64721Z" fill="#3F1E4B"/>
<path d="M50.2661 6.48338C49.9068 6.84964 49.4541 7.03321 48.908 7.03321C48.3619 7.03321 47.9126 6.84964 47.56 6.48338C47.2075 6.11711 47.0308 5.66936 47.0308 5.14012C47.0308 4.59715 47.2075 4.14254 47.56 3.77627C47.9126 3.40915 48.3619 3.22559 48.908 3.22559C49.4541 3.22559 49.9068 3.41258 50.2661 3.78571C50.6254 4.15883 50.8055 4.61002 50.8055 5.13926C50.8055 5.6685 50.6254 6.11625 50.2661 6.48338Z" fill="#3F1E4B"/>
<path d="M47.0349 19.4235V10.3895C47.0349 9.31387 47.8898 8.44238 48.945 8.44238C50.0002 8.44238 50.8551 9.31387 50.8551 10.3895V19.4243C50.8551 20.5 50.0002 21.3715 48.945 21.3715C47.8898 21.3706 47.0349 20.4991 47.0349 19.4235Z" fill="#3F1E4B"/>
<path d="M63.7511 3.22559H63.7763C64.8239 3.22559 65.6738 4.09193 65.6738 5.15985V19.4365C65.6738 20.5044 64.8239 21.3707 63.7763 21.3707C62.7287 21.3707 61.8789 20.5044 61.8789 19.4365V19.3095C61.5457 19.9203 61.0341 20.4169 60.3432 20.7986C59.6524 21.1803 58.8909 21.3707 58.0587 21.3707C56.311 21.3707 54.9294 20.7686 53.9146 19.5634C52.899 18.3591 52.3916 16.8066 52.3916 14.9066C52.3916 13.0401 52.9158 11.4962 53.9643 10.2747C55.0127 9.05324 56.3943 8.44251 58.1084 8.44251C58.9574 8.44251 59.7147 8.62951 60.3803 9.00263C61.0458 9.37576 61.5448 9.88527 61.878 10.5295V9.48556H61.8528V5.15985C61.8545 4.09193 62.7035 3.22559 63.7511 3.22559ZM59.1576 18.1387C60.0731 18.1387 60.7808 17.8333 61.2798 17.2226C61.7787 16.6119 62.0286 15.8399 62.0286 14.9066C62.0286 13.9905 61.7787 13.2271 61.2798 12.6164C60.7808 12.0057 60.0731 11.7003 59.1576 11.7003C58.2918 11.7003 57.5976 11.9971 57.0734 12.5907C56.5492 13.1851 56.2866 13.9562 56.2866 14.9066C56.2866 15.857 56.5492 16.6333 57.0734 17.2355C57.5976 17.8376 58.2926 18.1387 59.1576 18.1387Z" fill="#3F1E4B"/>
<path d="M71.1843 6.48338C70.825 6.84964 70.3723 7.03321 69.8262 7.03321C69.2801 7.03321 68.8308 6.84964 68.4782 6.48338C68.1257 6.11711 67.949 5.66936 67.949 5.14012C67.949 4.59715 68.1257 4.14254 68.4782 3.77627C68.8308 3.40915 69.2801 3.22559 69.8262 3.22559C70.3723 3.22559 70.825 3.41258 71.1843 3.78571C71.5436 4.15883 71.7237 4.61002 71.7237 5.13926C71.7237 5.6685 71.5436 6.11625 71.1843 6.48338Z" fill="#3F1E4B"/>
<path d="M67.9263 19.4235V10.3895C67.9263 9.31387 68.7812 8.44238 69.8363 8.44238C70.8915 8.44238 71.7464 9.31387 71.7464 10.3895V19.4243C71.7464 20.5 70.8915 21.3715 69.8363 21.3715C68.782 21.3706 67.9263 20.4991 67.9263 19.4235Z" fill="#3F1E4B"/>
<path d="M73.7903 19.4235V10.3895C73.7903 9.31387 74.6452 8.44238 75.7004 8.44238C76.7555 8.44238 77.6104 9.31387 77.6104 10.3895V10.5551C77.8763 9.92717 78.313 9.41852 78.9214 9.02824C79.5289 8.63795 80.2399 8.44324 81.0561 8.44324C82.9536 8.44324 84.2099 9.19807 84.8258 10.7077C85.1582 10.0292 85.6664 9.48199 86.3488 9.06598C87.0312 8.64996 87.8053 8.44238 88.6704 8.44238C91.5161 8.44238 92.939 10.1056 92.939 13.4303V19.4235C92.939 20.4991 92.0841 21.3706 91.0289 21.3706H91.0037C89.9485 21.3706 89.0936 20.4991 89.0936 19.4235V14.1431C89.0936 12.5313 88.4945 11.725 87.2963 11.725C85.9483 11.725 85.2743 12.7261 85.2743 14.7281V19.4235C85.2743 20.4991 84.4194 21.3706 83.3642 21.3706H83.339C82.2838 21.3706 81.4289 20.4991 81.4289 19.4235V14.1174C81.4289 12.5228 80.8382 11.725 79.656 11.725C78.9904 11.725 78.483 11.9498 78.133 12.3993C77.7838 12.8487 77.6087 13.625 77.6087 14.7281V19.4235C77.6087 20.4991 76.7538 21.3706 75.6987 21.3706C74.6452 21.3706 73.7903 20.4991 73.7903 19.4235Z" fill="#3F1E4B"/>
<path d="M100.385 21.3706C98.6372 21.3706 97.2556 20.7685 96.2408 19.5633C95.2252 18.359 94.7178 16.8064 94.7178 14.9065C94.7178 13.04 95.242 11.496 96.2904 10.2746C97.3389 9.05311 98.7205 8.44238 100.435 8.44238C101.284 8.44238 102.041 8.62938 102.706 9.0025C103.372 9.37563 103.871 9.88514 104.204 10.5293V10.3766C104.204 9.30873 105.054 8.44238 106.102 8.44238C107.149 8.44238 107.999 9.30873 107.999 10.3766V19.4364C107.999 20.5043 107.149 21.3706 106.102 21.3706C105.054 21.3706 104.204 20.5043 104.204 19.4364V19.3094C103.871 19.9201 103.359 20.4168 102.669 20.7985C101.979 21.1802 101.217 21.3706 100.385 21.3706ZM101.484 18.1386C102.399 18.1386 103.107 17.8332 103.606 17.2225C104.105 16.6117 104.355 15.8397 104.355 14.9065C104.355 13.9904 104.105 13.227 103.606 12.6163C103.107 12.0055 102.399 11.7002 101.484 11.7002C100.618 11.7002 99.9238 11.997 99.3996 12.5905C98.8753 13.185 98.6128 13.9561 98.6128 14.9065C98.6128 15.8569 98.8753 16.6332 99.3996 17.2353C99.9238 17.8375 100.618 18.1386 101.484 18.1386Z" fill="#3F1E4B"/>
</g>
<defs>
<linearGradient id="paint0_linear_910_2146" x1="13.5498" y1="24.9997" x2="11.1055" y2="15.5376" gradientUnits="userSpaceOnUse">
<stop stop-color="#7165E3"/>
<stop offset="0.3035" stop-color="#6D63E3"/>
<stop offset="0.5782" stop-color="#625DE3"/>
<stop offset="0.841" stop-color="#5053E3"/>
<stop offset="1" stop-color="#414BE3"/>
</linearGradient>
<clipPath id="clip0_910_2146">
<rect width="21.5203" height="25" fill="white"/>
</clipPath>
<clipPath id="clip1_910_2146">
<rect width="76.5166" height="18.1452" fill="white" transform="translate(31.4834 3.22559)"/>
</clipPath>
</defs>
</svg>
