<svg width="20" height="21" viewBox="0 0 20 21" fill="none" xmlns="http://www.w3.org/2000/svg">
<path d="M9.58366 18.625C4.87533 18.625 1.04199 14.7917 1.04199 10.0833C1.04199 5.37501 4.87533 1.54167 9.58366 1.54167C14.292 1.54167 18.1253 5.37501 18.1253 10.0833C18.1253 14.7917 14.292 18.625 9.58366 18.625ZM9.58366 2.79167C5.55866 2.79167 2.29199 6.06667 2.29199 10.0833C2.29199 14.1 5.55866 17.375 9.58366 17.375C13.6087 17.375 16.8753 14.1 16.8753 10.0833C16.8753 6.06667 13.6087 2.79167 9.58366 2.79167Z" fill="#828282"/>
<path d="M18.3335 19.4583C18.1752 19.4583 18.0169 19.4 17.8919 19.275L16.2252 17.6083C15.9835 17.3667 15.9835 16.9667 16.2252 16.725C16.4669 16.4833 16.8669 16.4833 17.1085 16.725L18.7752 18.3917C19.0169 18.6333 19.0169 19.0333 18.7752 19.275C18.6502 19.4 18.4919 19.4583 18.3335 19.4583Z" fill="#828282"/>
</svg>
